<?xml version="1.0" encoding="utf-8"?>
<svg xmlns="http://www.w3.org/2000/svg" xmlns:xlink="http://www.w3.org/1999/xlink" width="1000" height="500" viewBox="0 0 4000 2000">
<defs>
  <clipPath id="clip800">
    <rect x="0" y="0" width="4000" height="2000"/>
  </clipPath>
</defs>
<path clip-path="url(#clip800)" d="M0 2000 L4000 2000 L4000 0 L0 0  Z" fill="#ffffff" fill-rule="evenodd" fill-opacity="1"/>
<defs>
  <clipPath id="clip801">
    <rect x="800" y="0" width="2801" height="2000"/>
  </clipPath>
</defs>
<path clip-path="url(#clip800)" d="M277.858 1776.71 L2984.9 1776.71 L2984.9 216.704 L277.858 216.704  Z" fill="#ffffff" fill-rule="evenodd" fill-opacity="1"/>
<defs>
  <clipPath id="clip802">
    <rect x="277" y="216" width="2708" height="1561"/>
  </clipPath>
</defs>
<polyline clip-path="url(#clip802)" style="stroke:#000000; stroke-linecap:round; stroke-linejoin:round; stroke-width:2; stroke-opacity:0.1; fill:none" points="328.676,1776.71 328.676,216.704 "/>
<polyline clip-path="url(#clip802)" style="stroke:#000000; stroke-linecap:round; stroke-linejoin:round; stroke-width:2; stroke-opacity:0.1; fill:none" points="973.579,1776.71 973.579,216.704 "/>
<polyline clip-path="url(#clip802)" style="stroke:#000000; stroke-linecap:round; stroke-linejoin:round; stroke-width:2; stroke-opacity:0.1; fill:none" points="1618.48,1776.71 1618.48,216.704 "/>
<polyline clip-path="url(#clip802)" style="stroke:#000000; stroke-linecap:round; stroke-linejoin:round; stroke-width:2; stroke-opacity:0.1; fill:none" points="2263.38,1776.71 2263.38,216.704 "/>
<polyline clip-path="url(#clip802)" style="stroke:#000000; stroke-linecap:round; stroke-linejoin:round; stroke-width:2; stroke-opacity:0.1; fill:none" points="2908.29,1776.71 2908.29,216.704 "/>
<polyline clip-path="url(#clip802)" style="stroke:#000000; stroke-linecap:round; stroke-linejoin:round; stroke-width:2; stroke-opacity:0.1; fill:none" points="277.858,1766.13 2984.9,1766.13 "/>
<polyline clip-path="url(#clip802)" style="stroke:#000000; stroke-linecap:round; stroke-linejoin:round; stroke-width:2; stroke-opacity:0.1; fill:none" points="277.858,1454.81 2984.9,1454.81 "/>
<polyline clip-path="url(#clip802)" style="stroke:#000000; stroke-linecap:round; stroke-linejoin:round; stroke-width:2; stroke-opacity:0.1; fill:none" points="277.858,1143.5 2984.9,1143.5 "/>
<polyline clip-path="url(#clip802)" style="stroke:#000000; stroke-linecap:round; stroke-linejoin:round; stroke-width:2; stroke-opacity:0.1; fill:none" points="277.858,832.186 2984.9,832.186 "/>
<polyline clip-path="url(#clip802)" style="stroke:#000000; stroke-linecap:round; stroke-linejoin:round; stroke-width:2; stroke-opacity:0.1; fill:none" points="277.858,520.873 2984.9,520.873 "/>
<polyline clip-path="url(#clip800)" style="stroke:#000000; stroke-linecap:round; stroke-linejoin:round; stroke-width:4; stroke-opacity:1; fill:none" points="277.858,1776.71 2984.9,1776.71 "/>
<polyline clip-path="url(#clip800)" style="stroke:#000000; stroke-linecap:round; stroke-linejoin:round; stroke-width:4; stroke-opacity:1; fill:none" points="328.676,1776.71 328.676,1757.81 "/>
<polyline clip-path="url(#clip800)" style="stroke:#000000; stroke-linecap:round; stroke-linejoin:round; stroke-width:4; stroke-opacity:1; fill:none" points="973.579,1776.71 973.579,1757.81 "/>
<polyline clip-path="url(#clip800)" style="stroke:#000000; stroke-linecap:round; stroke-linejoin:round; stroke-width:4; stroke-opacity:1; fill:none" points="1618.48,1776.71 1618.48,1757.81 "/>
<polyline clip-path="url(#clip800)" style="stroke:#000000; stroke-linecap:round; stroke-linejoin:round; stroke-width:4; stroke-opacity:1; fill:none" points="2263.38,1776.71 2263.38,1757.81 "/>
<polyline clip-path="url(#clip800)" style="stroke:#000000; stroke-linecap:round; stroke-linejoin:round; stroke-width:4; stroke-opacity:1; fill:none" points="2908.29,1776.71 2908.29,1757.81 "/>
<path clip-path="url(#clip800)" d="M328.676 1820.43 Q325.065 1820.43 323.237 1823.99 Q321.431 1827.53 321.431 1834.66 Q321.431 1841.77 323.237 1845.33 Q325.065 1848.88 328.676 1848.88 Q332.311 1848.88 334.116 1845.33 Q335.945 1841.77 335.945 1834.66 Q335.945 1827.53 334.116 1823.99 Q332.311 1820.43 328.676 1820.43 M328.676 1816.72 Q334.487 1816.72 337.542 1821.33 Q340.621 1825.91 340.621 1834.66 Q340.621 1843.39 337.542 1848 Q334.487 1852.58 328.676 1852.58 Q322.866 1852.58 319.788 1848 Q316.732 1843.39 316.732 1834.66 Q316.732 1825.91 319.788 1821.33 Q322.866 1816.72 328.676 1816.72 Z" fill="#000000" fill-rule="nonzero" fill-opacity="1" /><path clip-path="url(#clip800)" d="M952.85 1847.97 L969.169 1847.97 L969.169 1851.91 L947.225 1851.91 L947.225 1847.97 Q949.887 1845.22 954.47 1840.59 Q959.077 1835.94 960.257 1834.59 Q962.503 1832.07 963.382 1830.33 Q964.285 1828.57 964.285 1826.88 Q964.285 1824.13 962.341 1822.39 Q960.419 1820.66 957.318 1820.66 Q955.119 1820.66 952.665 1821.42 Q950.234 1822.19 947.457 1823.74 L947.457 1819.01 Q950.281 1817.88 952.734 1817.3 Q955.188 1816.72 957.225 1816.72 Q962.595 1816.72 965.79 1819.41 Q968.984 1822.09 968.984 1826.58 Q968.984 1828.71 968.174 1830.63 Q967.387 1832.53 965.281 1835.13 Q964.702 1835.8 961.6 1839.01 Q958.498 1842.21 952.85 1847.97 Z" fill="#000000" fill-rule="nonzero" fill-opacity="1" /><path clip-path="url(#clip800)" d="M979.03 1817.35 L997.387 1817.35 L997.387 1821.28 L983.313 1821.28 L983.313 1829.76 Q984.331 1829.41 985.35 1829.25 Q986.368 1829.06 987.387 1829.06 Q993.174 1829.06 996.554 1832.23 Q999.933 1835.4 999.933 1840.82 Q999.933 1846.4 996.461 1849.5 Q992.989 1852.58 986.669 1852.58 Q984.493 1852.58 982.225 1852.21 Q979.98 1851.84 977.572 1851.1 L977.572 1846.4 Q979.655 1847.53 981.878 1848.09 Q984.1 1848.64 986.577 1848.64 Q990.581 1848.64 992.919 1846.54 Q995.257 1844.43 995.257 1840.82 Q995.257 1837.21 992.919 1835.1 Q990.581 1833 986.577 1833 Q984.702 1833 982.827 1833.41 Q980.975 1833.83 979.03 1834.71 L979.03 1817.35 Z" fill="#000000" fill-rule="nonzero" fill-opacity="1" /><path clip-path="url(#clip800)" d="M1593.18 1817.35 L1611.54 1817.35 L1611.54 1821.28 L1597.46 1821.28 L1597.46 1829.76 Q1598.48 1829.41 1599.5 1829.25 Q1600.52 1829.06 1601.54 1829.06 Q1607.32 1829.06 1610.7 1832.23 Q1614.08 1835.4 1614.08 1840.82 Q1614.08 1846.4 1610.61 1849.5 Q1607.14 1852.58 1600.82 1852.58 Q1598.64 1852.58 1596.38 1852.21 Q1594.13 1851.84 1591.72 1851.1 L1591.72 1846.4 Q1593.81 1847.53 1596.03 1848.09 Q1598.25 1848.64 1600.73 1848.64 Q1604.73 1848.64 1607.07 1846.54 Q1609.41 1844.43 1609.41 1840.82 Q1609.41 1837.21 1607.07 1835.1 Q1604.73 1833 1600.73 1833 Q1598.85 1833 1596.98 1833.41 Q1595.13 1833.83 1593.18 1834.71 L1593.18 1817.35 Z" fill="#000000" fill-rule="nonzero" fill-opacity="1" /><path clip-path="url(#clip800)" d="M1633.3 1820.43 Q1629.69 1820.43 1627.86 1823.99 Q1626.05 1827.53 1626.05 1834.66 Q1626.05 1841.77 1627.86 1845.33 Q1629.69 1848.88 1633.3 1848.88 Q1636.93 1848.88 1638.74 1845.33 Q1640.57 1841.77 1640.57 1834.66 Q1640.57 1827.53 1638.74 1823.99 Q1636.93 1820.43 1633.3 1820.43 M1633.3 1816.72 Q1639.11 1816.72 1642.16 1821.33 Q1645.24 1825.91 1645.24 1834.66 Q1645.24 1843.39 1642.16 1848 Q1639.11 1852.58 1633.3 1852.58 Q1627.49 1852.58 1624.41 1848 Q1621.35 1843.39 1621.35 1834.66 Q1621.35 1825.91 1624.41 1821.33 Q1627.49 1816.72 1633.3 1816.72 Z" fill="#000000" fill-rule="nonzero" fill-opacity="1" /><path clip-path="url(#clip800)" d="M2237.24 1817.35 L2259.46 1817.35 L2259.46 1819.34 L2246.91 1851.91 L2242.03 1851.91 L2253.84 1821.28 L2237.24 1821.28 L2237.24 1817.35 Z" fill="#000000" fill-rule="nonzero" fill-opacity="1" /><path clip-path="url(#clip800)" d="M2268.63 1817.35 L2286.98 1817.35 L2286.98 1821.28 L2272.91 1821.28 L2272.91 1829.76 Q2273.93 1829.41 2274.95 1829.25 Q2275.97 1829.06 2276.98 1829.06 Q2282.77 1829.06 2286.15 1832.23 Q2289.53 1835.4 2289.53 1840.82 Q2289.53 1846.4 2286.06 1849.5 Q2282.59 1852.58 2276.27 1852.58 Q2274.09 1852.58 2271.82 1852.21 Q2269.58 1851.84 2267.17 1851.1 L2267.17 1846.4 Q2269.25 1847.53 2271.47 1848.09 Q2273.7 1848.64 2276.17 1848.64 Q2280.18 1848.64 2282.52 1846.54 Q2284.85 1844.43 2284.85 1840.82 Q2284.85 1837.21 2282.52 1835.1 Q2280.18 1833 2276.17 1833 Q2274.3 1833 2272.42 1833.41 Q2270.57 1833.83 2268.63 1834.71 L2268.63 1817.35 Z" fill="#000000" fill-rule="nonzero" fill-opacity="1" /><path clip-path="url(#clip800)" d="M2867.89 1847.97 L2875.53 1847.97 L2875.53 1821.61 L2867.22 1823.27 L2867.22 1819.01 L2875.49 1817.35 L2880.16 1817.35 L2880.16 1847.97 L2887.8 1847.97 L2887.8 1851.91 L2867.89 1851.91 L2867.89 1847.97 Z" fill="#000000" fill-rule="nonzero" fill-opacity="1" /><path clip-path="url(#clip800)" d="M2907.25 1820.43 Q2903.63 1820.43 2901.81 1823.99 Q2900 1827.53 2900 1834.66 Q2900 1841.77 2901.81 1845.33 Q2903.63 1848.88 2907.25 1848.88 Q2910.88 1848.88 2912.69 1845.33 Q2914.51 1841.77 2914.51 1834.66 Q2914.51 1827.53 2912.69 1823.99 Q2910.88 1820.43 2907.25 1820.43 M2907.25 1816.72 Q2913.06 1816.72 2916.11 1821.33 Q2919.19 1825.91 2919.19 1834.66 Q2919.19 1843.39 2916.11 1848 Q2913.06 1852.58 2907.25 1852.58 Q2901.44 1852.58 2898.36 1848 Q2895.3 1843.39 2895.3 1834.66 Q2895.3 1825.91 2898.36 1821.33 Q2901.44 1816.72 2907.25 1816.72 Z" fill="#000000" fill-rule="nonzero" fill-opacity="1" /><path clip-path="url(#clip800)" d="M2937.41 1820.43 Q2933.8 1820.43 2931.97 1823.99 Q2930.16 1827.53 2930.16 1834.66 Q2930.16 1841.77 2931.97 1845.33 Q2933.8 1848.88 2937.41 1848.88 Q2941.04 1848.88 2942.85 1845.33 Q2944.68 1841.77 2944.68 1834.66 Q2944.68 1827.53 2942.85 1823.99 Q2941.04 1820.43 2937.41 1820.43 M2937.41 1816.72 Q2943.22 1816.72 2946.27 1821.33 Q2949.35 1825.91 2949.35 1834.66 Q2949.35 1843.39 2946.27 1848 Q2943.22 1852.58 2937.41 1852.58 Q2931.6 1852.58 2928.52 1848 Q2925.46 1843.39 2925.46 1834.66 Q2925.46 1825.91 2928.52 1821.33 Q2931.6 1816.72 2937.41 1816.72 Z" fill="#000000" fill-rule="nonzero" fill-opacity="1" /><path clip-path="url(#clip800)" d="M1570.54 1899.8 L1570.54 1909.92 L1582.6 1909.92 L1582.6 1914.48 L1570.54 1914.48 L1570.54 1933.83 Q1570.54 1938.19 1571.72 1939.43 Q1572.93 1940.67 1576.59 1940.67 L1582.6 1940.67 L1582.6 1945.57 L1576.59 1945.57 Q1569.81 1945.57 1567.23 1943.06 Q1564.65 1940.51 1564.65 1933.83 L1564.65 1914.48 L1560.35 1914.48 L1560.35 1909.92 L1564.65 1909.92 L1564.65 1899.8 L1570.54 1899.8 Z" fill="#000000" fill-rule="nonzero" fill-opacity="1" /><path clip-path="url(#clip800)" d="M1590.31 1909.92 L1596.16 1909.92 L1596.16 1945.57 L1590.31 1945.57 L1590.31 1909.92 M1590.31 1896.05 L1596.16 1896.05 L1596.16 1903.46 L1590.31 1903.46 L1590.31 1896.05 Z" fill="#000000" fill-rule="nonzero" fill-opacity="1" /><path clip-path="url(#clip800)" d="M1636.17 1916.77 Q1638.37 1912.82 1641.42 1910.94 Q1644.48 1909.06 1648.62 1909.06 Q1654.19 1909.06 1657.21 1912.98 Q1660.23 1916.86 1660.23 1924.06 L1660.23 1945.57 L1654.34 1945.57 L1654.34 1924.25 Q1654.34 1919.12 1652.53 1916.64 Q1650.72 1914.16 1646.99 1914.16 Q1642.44 1914.16 1639.8 1917.18 Q1637.16 1920.2 1637.16 1925.42 L1637.16 1945.57 L1631.27 1945.57 L1631.27 1924.25 Q1631.27 1919.09 1629.45 1916.64 Q1627.64 1914.16 1623.85 1914.16 Q1619.36 1914.16 1616.72 1917.21 Q1614.08 1920.24 1614.08 1925.42 L1614.08 1945.57 L1608.19 1945.57 L1608.19 1909.92 L1614.08 1909.92 L1614.08 1915.46 Q1616.09 1912.18 1618.89 1910.62 Q1621.69 1909.06 1625.54 1909.06 Q1629.42 1909.06 1632.13 1911.04 Q1634.87 1913.01 1636.17 1916.77 Z" fill="#000000" fill-rule="nonzero" fill-opacity="1" /><path clip-path="url(#clip800)" d="M1702.41 1926.28 L1702.41 1929.15 L1675.48 1929.15 Q1675.86 1935.2 1679.11 1938.38 Q1682.39 1941.53 1688.21 1941.53 Q1691.58 1941.53 1694.73 1940.7 Q1697.92 1939.87 1701.04 1938.22 L1701.04 1943.76 Q1697.89 1945.09 1694.58 1945.79 Q1691.27 1946.49 1687.86 1946.49 Q1679.33 1946.49 1674.33 1941.53 Q1669.37 1936.56 1669.37 1928.1 Q1669.37 1919.35 1674.08 1914.22 Q1678.82 1909.06 1686.84 1909.06 Q1694.03 1909.06 1698.2 1913.71 Q1702.41 1918.33 1702.41 1926.28 M1696.55 1924.56 Q1696.49 1919.76 1693.84 1916.89 Q1691.23 1914.03 1686.9 1914.03 Q1682 1914.03 1679.04 1916.8 Q1676.11 1919.57 1675.67 1924.6 L1696.55 1924.56 Z" fill="#000000" fill-rule="nonzero" fill-opacity="1" /><polyline clip-path="url(#clip800)" style="stroke:#000000; stroke-linecap:round; stroke-linejoin:round; stroke-width:4; stroke-opacity:1; fill:none" points="277.858,1776.71 277.858,216.704 "/>
<polyline clip-path="url(#clip800)" style="stroke:#000000; stroke-linecap:round; stroke-linejoin:round; stroke-width:4; stroke-opacity:1; fill:none" points="277.858,1766.13 291.779,1766.13 "/>
<polyline clip-path="url(#clip800)" style="stroke:#000000; stroke-linecap:round; stroke-linejoin:round; stroke-width:4; stroke-opacity:1; fill:none" points="277.858,1454.81 291.779,1454.81 "/>
<polyline clip-path="url(#clip800)" style="stroke:#000000; stroke-linecap:round; stroke-linejoin:round; stroke-width:4; stroke-opacity:1; fill:none" points="277.858,1143.5 291.779,1143.5 "/>
<polyline clip-path="url(#clip800)" style="stroke:#000000; stroke-linecap:round; stroke-linejoin:round; stroke-width:4; stroke-opacity:1; fill:none" points="277.858,832.186 291.779,832.186 "/>
<polyline clip-path="url(#clip800)" style="stroke:#000000; stroke-linecap:round; stroke-linejoin:round; stroke-width:4; stroke-opacity:1; fill:none" points="277.858,520.873 291.779,520.873 "/>
<path clip-path="url(#clip800)" d="M157.372 1766.58 L187.048 1766.58 L187.048 1770.51 L157.372 1770.51 L157.372 1766.58 Z" fill="#000000" fill-rule="nonzero" fill-opacity="1" /><path clip-path="url(#clip800)" d="M197.951 1779.47 L205.59 1779.47 L205.59 1753.11 L197.279 1754.77 L197.279 1750.51 L205.543 1748.85 L210.219 1748.85 L210.219 1779.47 L217.858 1779.47 L217.858 1783.41 L197.951 1783.41 L197.951 1779.47 Z" fill="#000000" fill-rule="nonzero" fill-opacity="1" /><path clip-path="url(#clip800)" d="M205.914 1440.61 Q202.303 1440.61 200.474 1444.18 Q198.668 1447.72 198.668 1454.85 Q198.668 1461.95 200.474 1465.52 Q202.303 1469.06 205.914 1469.06 Q209.548 1469.06 211.353 1465.52 Q213.182 1461.95 213.182 1454.85 Q213.182 1447.72 211.353 1444.18 Q209.548 1440.61 205.914 1440.61 M205.914 1436.91 Q211.724 1436.91 214.779 1441.51 Q217.858 1446.1 217.858 1454.85 Q217.858 1463.57 214.779 1468.18 Q211.724 1472.76 205.914 1472.76 Q200.104 1472.76 197.025 1468.18 Q193.969 1463.57 193.969 1454.85 Q193.969 1446.1 197.025 1441.51 Q200.104 1436.91 205.914 1436.91 Z" fill="#000000" fill-rule="nonzero" fill-opacity="1" /><path clip-path="url(#clip800)" d="M197.951 1156.84 L205.59 1156.84 L205.59 1130.48 L197.279 1132.15 L197.279 1127.89 L205.543 1126.22 L210.219 1126.22 L210.219 1156.84 L217.858 1156.84 L217.858 1160.78 L197.951 1160.78 L197.951 1156.84 Z" fill="#000000" fill-rule="nonzero" fill-opacity="1" /><path clip-path="url(#clip800)" d="M201.539 845.531 L217.858 845.531 L217.858 849.466 L195.914 849.466 L195.914 845.531 Q198.576 842.776 203.159 838.147 Q207.766 833.494 208.946 832.151 Q211.191 829.628 212.071 827.892 Q212.974 826.133 212.974 824.443 Q212.974 821.689 211.029 819.952 Q209.108 818.216 206.006 818.216 Q203.807 818.216 201.354 818.98 Q198.923 819.744 196.145 821.295 L196.145 816.573 Q198.969 815.439 201.423 814.86 Q203.877 814.281 205.914 814.281 Q211.284 814.281 214.478 816.966 Q217.673 819.652 217.673 824.142 Q217.673 826.272 216.863 828.193 Q216.076 830.091 213.969 832.684 Q213.391 833.355 210.289 836.573 Q207.187 839.767 201.539 845.531 Z" fill="#000000" fill-rule="nonzero" fill-opacity="1" /><path clip-path="url(#clip800)" d="M210.728 519.519 Q214.085 520.236 215.96 522.505 Q217.858 524.773 217.858 528.106 Q217.858 533.222 214.34 536.023 Q210.821 538.824 204.34 538.824 Q202.164 538.824 199.849 538.384 Q197.557 537.967 195.104 537.111 L195.104 532.597 Q197.048 533.731 199.363 534.31 Q201.678 534.889 204.201 534.889 Q208.599 534.889 210.891 533.153 Q213.205 531.417 213.205 528.106 Q213.205 525.051 211.053 523.338 Q208.923 521.602 205.104 521.602 L201.076 521.602 L201.076 517.759 L205.289 517.759 Q208.738 517.759 210.566 516.394 Q212.395 515.005 212.395 512.412 Q212.395 509.75 210.497 508.338 Q208.622 506.903 205.104 506.903 Q203.182 506.903 200.983 507.32 Q198.784 507.736 196.145 508.616 L196.145 504.449 Q198.807 503.708 201.122 503.338 Q203.46 502.968 205.52 502.968 Q210.844 502.968 213.946 505.398 Q217.048 507.806 217.048 511.926 Q217.048 514.796 215.404 516.787 Q213.761 518.755 210.728 519.519 Z" fill="#000000" fill-rule="nonzero" fill-opacity="1" /><path clip-path="url(#clip800)" d="M47.4683 980.091 L64.8149 992.982 L83.1163 979.423 L83.1163 986.33 L69.1117 996.706 L83.1163 1007.08 L83.1163 1013.99 L64.4648 1000.14 L47.4683 1012.81 L47.4683 1005.9 L60.1679 996.451 L47.4683 986.998 L47.4683 980.091 Z" fill="#000000" fill-rule="nonzero" fill-opacity="1" /><path clip-path="url(#clip800)" d="M867.845 35.2489 L867.845 43.2292 Q863.187 41.0012 859.055 39.9075 Q854.923 38.8137 851.074 38.8137 Q844.39 38.8137 840.745 41.4063 Q837.139 43.9989 837.139 48.779 Q837.139 52.7894 839.529 54.8553 Q841.96 56.8808 848.684 58.1366 L853.627 59.1493 Q862.782 60.8912 867.116 65.3067 Q871.491 69.6816 871.491 77.0543 Q871.491 85.8447 865.577 90.3817 Q859.703 94.9188 848.32 94.9188 Q844.026 94.9188 839.165 93.9465 Q834.344 92.9743 829.159 91.0704 L829.159 82.6445 Q834.142 85.4396 838.922 86.8575 Q843.702 88.2753 848.32 88.2753 Q855.328 88.2753 859.136 85.5207 Q862.944 82.766 862.944 77.6619 Q862.944 73.2059 860.189 70.6944 Q857.475 68.1828 851.237 66.927 L846.254 65.9548 Q837.099 64.1319 833.007 60.243 Q828.916 56.3542 828.916 49.4271 Q828.916 41.4063 834.547 36.7883 Q840.218 32.1703 850.143 32.1703 Q854.396 32.1703 858.812 32.9399 Q863.227 33.7096 867.845 35.2489 Z" fill="#000000" fill-rule="nonzero" fill-opacity="1" /><path clip-path="url(#clip800)" d="M904.546 70.9374 Q895.513 70.9374 892.029 73.0034 Q888.545 75.0693 888.545 80.0519 Q888.545 84.0218 891.138 86.3714 Q893.771 88.6804 898.268 88.6804 Q904.465 88.6804 908.192 84.3054 Q911.96 79.8899 911.96 72.5983 L911.96 70.9374 L904.546 70.9374 M919.413 67.8587 L919.413 93.744 L911.96 93.744 L911.96 86.8575 Q909.407 90.9894 905.6 92.9743 Q901.792 94.9188 896.283 94.9188 Q889.315 94.9188 885.183 91.0299 Q881.092 87.1005 881.092 80.5381 Q881.092 72.8818 886.196 68.993 Q891.34 65.1041 901.508 65.1041 L911.96 65.1041 L911.96 64.3749 Q911.96 59.2303 908.557 56.4352 Q905.195 53.5995 899.078 53.5995 Q895.189 53.5995 891.502 54.5312 Q887.816 55.463 884.413 57.3264 L884.413 50.4398 Q888.505 48.86 892.353 48.0903 Q896.202 47.2801 899.847 47.2801 Q909.691 47.2801 914.552 52.3843 Q919.413 57.4884 919.413 67.8587 Z" fill="#000000" fill-rule="nonzero" fill-opacity="1" /><path clip-path="url(#clip800)" d="M970.09 57.0833 Q972.885 52.0602 976.774 49.6702 Q980.663 47.2801 985.929 47.2801 Q993.018 47.2801 996.867 52.2627 Q1000.71 57.2048 1000.71 66.3599 L1000.71 93.744 L993.221 93.744 L993.221 66.6029 Q993.221 60.081 990.912 56.9213 Q988.603 53.7616 983.863 53.7616 Q978.07 53.7616 974.708 57.6099 Q971.346 61.4583 971.346 68.1018 L971.346 93.744 L963.852 93.744 L963.852 66.6029 Q963.852 60.0405 961.543 56.9213 Q959.234 53.7616 954.413 53.7616 Q948.701 53.7616 945.339 57.6504 Q941.977 61.4988 941.977 68.1018 L941.977 93.744 L934.483 93.744 L934.483 48.3739 L941.977 48.3739 L941.977 55.4224 Q944.529 51.25 948.094 49.2651 Q951.658 47.2801 956.56 47.2801 Q961.502 47.2801 964.945 49.7917 Q968.429 52.3032 970.09 57.0833 Z" fill="#000000" fill-rule="nonzero" fill-opacity="1" /><path clip-path="url(#clip800)" d="M1022.79 86.9385 L1022.79 111.001 L1015.3 111.001 L1015.3 48.3739 L1022.79 48.3739 L1022.79 55.2604 Q1025.14 51.2095 1028.71 49.2651 Q1032.31 47.2801 1037.29 47.2801 Q1045.56 47.2801 1050.7 53.8426 Q1055.89 60.4051 1055.89 71.0994 Q1055.89 81.7938 1050.7 88.3563 Q1045.56 94.9188 1037.29 94.9188 Q1032.31 94.9188 1028.71 92.9743 Q1025.14 90.9894 1022.79 86.9385 M1048.15 71.0994 Q1048.15 62.8761 1044.75 58.2176 Q1041.39 53.5185 1035.47 53.5185 Q1029.56 53.5185 1026.15 58.2176 Q1022.79 62.8761 1022.79 71.0994 Q1022.79 79.3228 1026.15 84.0218 Q1029.56 88.6804 1035.47 88.6804 Q1041.39 88.6804 1044.75 84.0218 Q1048.15 79.3228 1048.15 71.0994 Z" fill="#000000" fill-rule="nonzero" fill-opacity="1" /><path clip-path="url(#clip800)" d="M1068.24 30.7119 L1075.7 30.7119 L1075.7 93.744 L1068.24 93.744 L1068.24 30.7119 Z" fill="#000000" fill-rule="nonzero" fill-opacity="1" /><path clip-path="url(#clip800)" d="M1130.1 69.1955 L1130.1 72.8413 L1095.83 72.8413 Q1096.32 80.5381 1100.45 84.589 Q1104.62 88.5994 1112.03 88.5994 Q1116.33 88.5994 1120.34 87.5461 Q1124.39 86.4929 1128.36 84.3864 L1128.36 91.435 Q1124.35 93.1364 1120.14 94.0276 Q1115.92 94.9188 1111.59 94.9188 Q1100.73 94.9188 1094.37 88.5994 Q1088.05 82.2799 1088.05 71.5045 Q1088.05 60.3645 1094.05 53.8426 Q1100.08 47.2801 1110.29 47.2801 Q1119.45 47.2801 1124.75 53.1944 Q1130.1 59.0683 1130.1 69.1955 M1122.65 67.008 Q1122.57 60.8912 1119.2 57.2454 Q1115.88 53.5995 1110.37 53.5995 Q1104.13 53.5995 1100.37 57.1238 Q1096.64 60.6481 1096.07 67.0485 L1122.65 67.008 Z" fill="#000000" fill-rule="nonzero" fill-opacity="1" /><path clip-path="url(#clip800)" d="M1171.18 86.8575 L1184.54 86.8575 L1184.54 40.7177 L1170 43.6343 L1170 36.1807 L1184.46 33.264 L1192.65 33.264 L1192.65 86.8575 L1206.01 86.8575 L1206.01 93.744 L1171.18 93.744 L1171.18 86.8575 Z" fill="#000000" fill-rule="nonzero" fill-opacity="1" /><path clip-path="url(#clip800)" d="M1223.39 83.4547 L1231.94 83.4547 L1231.94 90.4223 L1225.3 103.385 L1220.07 103.385 L1223.39 90.4223 L1223.39 83.4547 Z" fill="#000000" fill-rule="nonzero" fill-opacity="1" /><path clip-path="url(#clip800)" d="M1319.85 37.9225 L1319.85 46.551 Q1315.71 42.7026 1311.01 40.7987 Q1306.36 38.8948 1301.09 38.8948 Q1290.72 38.8948 1285.21 45.2547 Q1279.7 51.5741 1279.7 63.5648 Q1279.7 75.5149 1285.21 81.8749 Q1290.72 88.1943 1301.09 88.1943 Q1306.36 88.1943 1311.01 86.2903 Q1315.71 84.3864 1319.85 80.5381 L1319.85 89.0855 Q1315.55 92.0021 1310.73 93.4604 Q1305.95 94.9188 1300.6 94.9188 Q1286.87 94.9188 1278.97 86.5334 Q1271.07 78.1075 1271.07 63.5648 Q1271.07 48.9815 1278.97 40.5961 Q1286.87 32.1703 1300.6 32.1703 Q1306.03 32.1703 1310.81 33.6286 Q1315.63 35.0464 1319.85 37.9225 Z" fill="#000000" fill-rule="nonzero" fill-opacity="1" /><path clip-path="url(#clip800)" d="M1332.16 30.7119 L1339.61 30.7119 L1339.61 93.744 L1332.16 93.744 L1332.16 30.7119 Z" fill="#000000" fill-rule="nonzero" fill-opacity="1" /><path clip-path="url(#clip800)" d="M1375.83 70.9374 Q1366.8 70.9374 1363.31 73.0034 Q1359.83 75.0693 1359.83 80.0519 Q1359.83 84.0218 1362.42 86.3714 Q1365.05 88.6804 1369.55 88.6804 Q1375.75 88.6804 1379.47 84.3054 Q1383.24 79.8899 1383.24 72.5983 L1383.24 70.9374 L1375.83 70.9374 M1390.7 67.8587 L1390.7 93.744 L1383.24 93.744 L1383.24 86.8575 Q1380.69 90.9894 1376.88 92.9743 Q1373.07 94.9188 1367.56 94.9188 Q1360.6 94.9188 1356.47 91.0299 Q1352.37 87.1005 1352.37 80.5381 Q1352.37 72.8818 1357.48 68.993 Q1362.62 65.1041 1372.79 65.1041 L1383.24 65.1041 L1383.24 64.3749 Q1383.24 59.2303 1379.84 56.4352 Q1376.48 53.5995 1370.36 53.5995 Q1366.47 53.5995 1362.78 54.5312 Q1359.1 55.463 1355.7 57.3264 L1355.7 50.4398 Q1359.79 48.86 1363.64 48.0903 Q1367.48 47.2801 1371.13 47.2801 Q1380.97 47.2801 1385.83 52.3843 Q1390.7 57.4884 1390.7 67.8587 Z" fill="#000000" fill-rule="nonzero" fill-opacity="1" /><path clip-path="url(#clip800)" d="M1434.97 49.7107 L1434.97 56.7592 Q1431.81 55.1389 1428.41 54.3287 Q1425.01 53.5185 1421.36 53.5185 Q1415.81 53.5185 1413.02 55.2199 Q1410.26 56.9213 1410.26 60.324 Q1410.26 62.9166 1412.25 64.4155 Q1414.23 65.8738 1420.23 67.2106 L1422.78 67.7777 Q1430.72 69.4791 1434.04 72.5983 Q1437.4 75.677 1437.4 81.2267 Q1437.4 87.5461 1432.38 91.2324 Q1427.4 94.9188 1418.65 94.9188 Q1415 94.9188 1411.03 94.1896 Q1407.1 93.5009 1402.73 92.0831 L1402.73 84.3864 Q1406.86 86.5334 1410.87 87.6271 Q1414.88 88.6804 1418.81 88.6804 Q1424.07 88.6804 1426.91 86.898 Q1429.75 85.0751 1429.75 81.7938 Q1429.75 78.7557 1427.68 77.1353 Q1425.65 75.5149 1418.73 74.0161 L1416.14 73.4085 Q1409.21 71.9501 1406.13 68.9525 Q1403.05 65.9143 1403.05 60.6481 Q1403.05 54.2477 1407.59 50.7639 Q1412.12 47.2801 1420.47 47.2801 Q1424.6 47.2801 1428.25 47.8878 Q1431.89 48.4954 1434.97 49.7107 Z" fill="#000000" fill-rule="nonzero" fill-opacity="1" /><path clip-path="url(#clip800)" d="M1478.19 49.7107 L1478.19 56.7592 Q1475.04 55.1389 1471.63 54.3287 Q1468.23 53.5185 1464.58 53.5185 Q1459.03 53.5185 1456.24 55.2199 Q1453.48 56.9213 1453.48 60.324 Q1453.48 62.9166 1455.47 64.4155 Q1457.45 65.8738 1463.45 67.2106 L1466 67.7777 Q1473.94 69.4791 1477.26 72.5983 Q1480.63 75.677 1480.63 81.2267 Q1480.63 87.5461 1475.6 91.2324 Q1470.62 94.9188 1461.87 94.9188 Q1458.22 94.9188 1454.25 94.1896 Q1450.32 93.5009 1445.95 92.0831 L1445.95 84.3864 Q1450.08 86.5334 1454.09 87.6271 Q1458.1 88.6804 1462.03 88.6804 Q1467.3 88.6804 1470.13 86.898 Q1472.97 85.0751 1472.97 81.7938 Q1472.97 78.7557 1470.9 77.1353 Q1468.88 75.5149 1461.95 74.0161 L1459.36 73.4085 Q1452.43 71.9501 1449.35 68.9525 Q1446.27 65.9143 1446.27 60.6481 Q1446.27 54.2477 1450.81 50.7639 Q1455.35 47.2801 1463.69 47.2801 Q1467.82 47.2801 1471.47 47.8878 Q1475.12 48.4954 1478.19 49.7107 Z" fill="#000000" fill-rule="nonzero" fill-opacity="1" /><path clip-path="url(#clip800)" d="M1537.42 38.6517 Q1531.1 38.6517 1527.9 44.8901 Q1524.74 51.088 1524.74 63.5648 Q1524.74 76.001 1527.9 82.2394 Q1531.1 88.4373 1537.42 88.4373 Q1543.78 88.4373 1546.94 82.2394 Q1550.14 76.001 1550.14 63.5648 Q1550.14 51.088 1546.94 44.8901 Q1543.78 38.6517 1537.42 38.6517 M1537.42 32.1703 Q1547.59 32.1703 1552.93 40.2316 Q1558.32 48.2523 1558.32 63.5648 Q1558.32 78.8367 1552.93 86.898 Q1547.59 94.9188 1537.42 94.9188 Q1527.25 94.9188 1521.86 86.898 Q1516.52 78.8367 1516.52 63.5648 Q1516.52 48.2523 1521.86 40.2316 Q1527.25 32.1703 1537.42 32.1703 Z" fill="#000000" fill-rule="nonzero" fill-opacity="1" /><path clip-path="url(#clip800)" d="M1573.55 83.4547 L1582.1 83.4547 L1582.1 90.4223 L1575.46 103.385 L1570.23 103.385 L1573.55 90.4223 L1573.55 83.4547 Z" fill="#000000" fill-rule="nonzero" fill-opacity="1" /><path clip-path="url(#clip800)" d="M1642.95 65.0231 Q1637.11 65.0231 1633.75 68.1423 Q1630.43 71.2615 1630.43 76.7302 Q1630.43 82.1989 1633.75 85.3181 Q1637.11 88.4373 1642.95 88.4373 Q1648.78 88.4373 1652.14 85.3181 Q1655.5 82.1584 1655.5 76.7302 Q1655.5 71.2615 1652.14 68.1423 Q1648.82 65.0231 1642.95 65.0231 M1634.76 61.5393 Q1629.5 60.243 1626.54 56.6377 Q1623.62 53.0324 1623.62 47.8473 Q1623.62 40.5961 1628.77 36.3832 Q1633.95 32.1703 1642.95 32.1703 Q1651.98 32.1703 1657.12 36.3832 Q1662.27 40.5961 1662.27 47.8473 Q1662.27 53.0324 1659.31 56.6377 Q1656.39 60.243 1651.17 61.5393 Q1657.08 62.9166 1660.36 66.927 Q1663.69 70.9374 1663.69 76.7302 Q1663.69 85.5207 1658.3 90.2197 Q1652.95 94.9188 1642.95 94.9188 Q1632.94 94.9188 1627.55 90.2197 Q1622.2 85.5207 1622.2 76.7302 Q1622.2 70.9374 1625.53 66.927 Q1628.85 62.9166 1634.76 61.5393 M1631.76 48.6169 Q1631.76 53.316 1634.68 55.9491 Q1637.64 58.5822 1642.95 58.5822 Q1648.21 58.5822 1651.17 55.9491 Q1654.17 53.316 1654.17 48.6169 Q1654.17 43.9179 1651.17 41.2848 Q1648.21 38.6517 1642.95 38.6517 Q1637.64 38.6517 1634.68 41.2848 Q1631.76 43.9179 1631.76 48.6169 Z" fill="#000000" fill-rule="nonzero" fill-opacity="1" /><path clip-path="url(#clip800)" d="M1695.73 38.6517 Q1689.41 38.6517 1686.21 44.8901 Q1683.05 51.088 1683.05 63.5648 Q1683.05 76.001 1686.21 82.2394 Q1689.41 88.4373 1695.73 88.4373 Q1702.09 88.4373 1705.25 82.2394 Q1708.45 76.001 1708.45 63.5648 Q1708.45 51.088 1705.25 44.8901 Q1702.09 38.6517 1695.73 38.6517 M1695.73 32.1703 Q1705.9 32.1703 1711.24 40.2316 Q1716.63 48.2523 1716.63 63.5648 Q1716.63 78.8367 1711.24 86.898 Q1705.9 94.9188 1695.73 94.9188 Q1685.56 94.9188 1680.17 86.898 Q1674.83 78.8367 1674.83 63.5648 Q1674.83 48.2523 1680.17 40.2316 Q1685.56 32.1703 1695.73 32.1703 Z" fill="#000000" fill-rule="nonzero" fill-opacity="1" /><path clip-path="url(#clip800)" d="M1726.19 67.6967 L1748.03 67.6967 L1748.03 74.3402 L1726.19 74.3402 L1726.19 67.6967 Z" fill="#000000" fill-rule="nonzero" fill-opacity="1" /><path clip-path="url(#clip800)" d="M1788.82 49.7107 L1788.82 56.7592 Q1785.66 55.1389 1782.26 54.3287 Q1778.85 53.5185 1775.21 53.5185 Q1769.66 53.5185 1766.86 55.2199 Q1764.11 56.9213 1764.11 60.324 Q1764.11 62.9166 1766.09 64.4155 Q1768.08 65.8738 1774.07 67.2106 L1776.63 67.7777 Q1784.56 69.4791 1787.89 72.5983 Q1791.25 75.677 1791.25 81.2267 Q1791.25 87.5461 1786.23 91.2324 Q1781.24 94.9188 1772.49 94.9188 Q1768.85 94.9188 1764.88 94.1896 Q1760.95 93.5009 1756.57 92.0831 L1756.57 84.3864 Q1760.71 86.5334 1764.72 87.6271 Q1768.73 88.6804 1772.66 88.6804 Q1777.92 88.6804 1780.76 86.898 Q1783.59 85.0751 1783.59 81.7938 Q1783.59 78.7557 1781.53 77.1353 Q1779.5 75.5149 1772.57 74.0161 L1769.98 73.4085 Q1763.05 71.9501 1759.98 68.9525 Q1756.9 65.9143 1756.9 60.6481 Q1756.9 54.2477 1761.43 50.7639 Q1765.97 47.2801 1774.32 47.2801 Q1778.45 47.2801 1782.09 47.8878 Q1785.74 48.4954 1788.82 49.7107 Z" fill="#000000" fill-rule="nonzero" fill-opacity="1" /><path clip-path="url(#clip800)" d="M1803.12 48.3739 L1810.57 48.3739 L1810.57 93.744 L1803.12 93.744 L1803.12 48.3739 M1803.12 30.7119 L1810.57 30.7119 L1810.57 40.1505 L1803.12 40.1505 L1803.12 30.7119 Z" fill="#000000" fill-rule="nonzero" fill-opacity="1" /><path clip-path="url(#clip800)" d="M1833.54 35.492 L1833.54 48.3739 L1848.89 48.3739 L1848.89 54.1667 L1833.54 54.1667 L1833.54 78.7962 Q1833.54 84.3459 1835.04 85.9258 Q1836.58 87.5056 1841.24 87.5056 L1848.89 87.5056 L1848.89 93.744 L1841.24 93.744 Q1832.61 93.744 1829.33 90.5438 Q1826.05 87.3031 1826.05 78.7962 L1826.05 54.1667 L1820.58 54.1667 L1820.58 48.3739 L1826.05 48.3739 L1826.05 35.492 L1833.54 35.492 Z" fill="#000000" fill-rule="nonzero" fill-opacity="1" /><path clip-path="url(#clip800)" d="M1897.5 69.1955 L1897.5 72.8413 L1863.23 72.8413 Q1863.72 80.5381 1867.85 84.589 Q1872.02 88.5994 1879.44 88.5994 Q1883.73 88.5994 1887.74 87.5461 Q1891.79 86.4929 1895.76 84.3864 L1895.76 91.435 Q1891.75 93.1364 1887.54 94.0276 Q1883.33 94.9188 1878.99 94.9188 Q1868.13 94.9188 1861.78 88.5994 Q1855.46 82.2799 1855.46 71.5045 Q1855.46 60.3645 1861.45 53.8426 Q1867.49 47.2801 1877.7 47.2801 Q1886.85 47.2801 1892.16 53.1944 Q1897.5 59.0683 1897.5 69.1955 M1890.05 67.008 Q1889.97 60.8912 1886.61 57.2454 Q1883.29 53.5995 1877.78 53.5995 Q1871.54 53.5995 1867.77 57.1238 Q1864.04 60.6481 1863.48 67.0485 L1890.05 67.008 Z" fill="#000000" fill-rule="nonzero" fill-opacity="1" /><path clip-path="url(#clip800)" d="M1936.43 33.264 L1944.62 33.264 L1944.62 93.744 L1936.43 93.744 L1936.43 33.264 Z" fill="#000000" fill-rule="nonzero" fill-opacity="1" /><path clip-path="url(#clip800)" d="M1995.9 57.0833 Q1998.7 52.0602 2002.58 49.6702 Q2006.47 47.2801 2011.74 47.2801 Q2018.83 47.2801 2022.68 52.2627 Q2026.53 57.2048 2026.53 66.3599 L2026.53 93.744 L2019.03 93.744 L2019.03 66.6029 Q2019.03 60.081 2016.72 56.9213 Q2014.41 53.7616 2009.67 53.7616 Q2003.88 53.7616 2000.52 57.6099 Q1997.16 61.4583 1997.16 68.1018 L1997.16 93.744 L1989.66 93.744 L1989.66 66.6029 Q1989.66 60.0405 1987.35 56.9213 Q1985.04 53.7616 1980.22 53.7616 Q1974.51 53.7616 1971.15 57.6504 Q1967.79 61.4988 1967.79 68.1018 L1967.79 93.744 L1960.29 93.744 L1960.29 48.3739 L1967.79 48.3739 L1967.79 55.4224 Q1970.34 51.25 1973.9 49.2651 Q1977.47 47.2801 1982.37 47.2801 Q1987.31 47.2801 1990.76 49.7917 Q1994.24 52.3032 1995.9 57.0833 Z" fill="#000000" fill-rule="nonzero" fill-opacity="1" /><path clip-path="url(#clip800)" d="M2048.6 86.9385 L2048.6 111.001 L2041.11 111.001 L2041.11 48.3739 L2048.6 48.3739 L2048.6 55.2604 Q2050.95 51.2095 2054.52 49.2651 Q2058.12 47.2801 2063.11 47.2801 Q2071.37 47.2801 2076.51 53.8426 Q2081.7 60.4051 2081.7 71.0994 Q2081.7 81.7938 2076.51 88.3563 Q2071.37 94.9188 2063.11 94.9188 Q2058.12 94.9188 2054.52 92.9743 Q2050.95 90.9894 2048.6 86.9385 M2073.96 71.0994 Q2073.96 62.8761 2070.56 58.2176 Q2067.2 53.5185 2061.28 53.5185 Q2055.37 53.5185 2051.97 58.2176 Q2048.6 62.8761 2048.6 71.0994 Q2048.6 79.3228 2051.97 84.0218 Q2055.37 88.6804 2061.28 88.6804 Q2067.2 88.6804 2070.56 84.0218 Q2073.96 79.3228 2073.96 71.0994 Z" fill="#000000" fill-rule="nonzero" fill-opacity="1" /><path clip-path="url(#clip800)" d="M2093.28 75.839 L2093.28 48.3739 L2100.74 48.3739 L2100.74 75.5554 Q2100.74 81.9964 2103.25 85.2371 Q2105.76 88.4373 2110.78 88.4373 Q2116.82 88.4373 2120.3 84.589 Q2123.83 80.7406 2123.83 74.0971 L2123.83 48.3739 L2131.28 48.3739 L2131.28 93.744 L2123.83 93.744 L2123.83 86.7764 Q2121.11 90.9084 2117.51 92.9338 Q2113.94 94.9188 2109.2 94.9188 Q2101.39 94.9188 2097.34 90.0577 Q2093.28 85.1966 2093.28 75.839 M2112.04 47.2801 L2112.04 47.2801 Z" fill="#000000" fill-rule="nonzero" fill-opacity="1" /><path clip-path="url(#clip800)" d="M2154.01 35.492 L2154.01 48.3739 L2169.36 48.3739 L2169.36 54.1667 L2154.01 54.1667 L2154.01 78.7962 Q2154.01 84.3459 2155.51 85.9258 Q2157.05 87.5056 2161.7 87.5056 L2169.36 87.5056 L2169.36 93.744 L2161.7 93.744 Q2153.08 93.744 2149.79 90.5438 Q2146.51 87.3031 2146.51 78.7962 L2146.51 54.1667 L2141.04 54.1667 L2141.04 48.3739 L2146.51 48.3739 L2146.51 35.492 L2154.01 35.492 Z" fill="#000000" fill-rule="nonzero" fill-opacity="1" /><path clip-path="url(#clip800)" d="M2199.78 70.9374 Q2190.75 70.9374 2187.27 73.0034 Q2183.78 75.0693 2183.78 80.0519 Q2183.78 84.0218 2186.37 86.3714 Q2189.01 88.6804 2193.5 88.6804 Q2199.7 88.6804 2203.43 84.3054 Q2207.2 79.8899 2207.2 72.5983 L2207.2 70.9374 L2199.78 70.9374 M2214.65 67.8587 L2214.65 93.744 L2207.2 93.744 L2207.2 86.8575 Q2204.64 90.9894 2200.84 92.9743 Q2197.03 94.9188 2191.52 94.9188 Q2184.55 94.9188 2180.42 91.0299 Q2176.33 87.1005 2176.33 80.5381 Q2176.33 72.8818 2181.43 68.993 Q2186.58 65.1041 2196.74 65.1041 L2207.2 65.1041 L2207.2 64.3749 Q2207.2 59.2303 2203.79 56.4352 Q2200.43 53.5995 2194.31 53.5995 Q2190.42 53.5995 2186.74 54.5312 Q2183.05 55.463 2179.65 57.3264 L2179.65 50.4398 Q2183.74 48.86 2187.59 48.0903 Q2191.44 47.2801 2195.08 47.2801 Q2204.93 47.2801 2209.79 52.3843 Q2214.65 57.4884 2214.65 67.8587 Z" fill="#000000" fill-rule="nonzero" fill-opacity="1" /><path clip-path="url(#clip800)" d="M2237.37 35.492 L2237.37 48.3739 L2252.73 48.3739 L2252.73 54.1667 L2237.37 54.1667 L2237.37 78.7962 Q2237.37 84.3459 2238.87 85.9258 Q2240.41 87.5056 2245.07 87.5056 L2252.73 87.5056 L2252.73 93.744 L2245.07 93.744 Q2236.44 93.744 2233.16 90.5438 Q2229.88 87.3031 2229.88 78.7962 L2229.88 54.1667 L2224.41 54.1667 L2224.41 48.3739 L2229.88 48.3739 L2229.88 35.492 L2237.37 35.492 Z" fill="#000000" fill-rule="nonzero" fill-opacity="1" /><path clip-path="url(#clip800)" d="M2262.53 48.3739 L2269.98 48.3739 L2269.98 93.744 L2262.53 93.744 L2262.53 48.3739 M2262.53 30.7119 L2269.98 30.7119 L2269.98 40.1505 L2262.53 40.1505 L2262.53 30.7119 Z" fill="#000000" fill-rule="nonzero" fill-opacity="1" /><path clip-path="url(#clip800)" d="M2303.16 53.5995 Q2297.17 53.5995 2293.68 58.2986 Q2290.2 62.9571 2290.2 71.0994 Q2290.2 79.2418 2293.64 83.9408 Q2297.13 88.5994 2303.16 88.5994 Q2309.12 88.5994 2312.6 83.9003 Q2316.08 79.2013 2316.08 71.0994 Q2316.08 63.0381 2312.6 58.3391 Q2309.12 53.5995 2303.16 53.5995 M2303.16 47.2801 Q2312.88 47.2801 2318.43 53.5995 Q2323.98 59.9189 2323.98 71.0994 Q2323.98 82.2394 2318.43 88.5994 Q2312.88 94.9188 2303.16 94.9188 Q2293.4 94.9188 2287.85 88.5994 Q2282.34 82.2394 2282.34 71.0994 Q2282.34 59.9189 2287.85 53.5995 Q2293.4 47.2801 2303.16 47.2801 Z" fill="#000000" fill-rule="nonzero" fill-opacity="1" /><path clip-path="url(#clip800)" d="M2374.05 66.3599 L2374.05 93.744 L2366.6 93.744 L2366.6 66.6029 Q2366.6 60.162 2364.09 56.9618 Q2361.58 53.7616 2356.55 53.7616 Q2350.52 53.7616 2347.03 57.6099 Q2343.55 61.4583 2343.55 68.1018 L2343.55 93.744 L2336.05 93.744 L2336.05 48.3739 L2343.55 48.3739 L2343.55 55.4224 Q2346.22 51.331 2349.83 49.3056 Q2353.47 47.2801 2358.21 47.2801 Q2366.03 47.2801 2370.04 52.1412 Q2374.05 56.9618 2374.05 66.3599 Z" fill="#000000" fill-rule="nonzero" fill-opacity="1" /><path clip-path="url(#clip800)" d="M2390.82 83.4547 L2399.37 83.4547 L2399.37 90.4223 L2392.73 103.385 L2387.5 103.385 L2390.82 90.4223 L2390.82 83.4547 Z" fill="#000000" fill-rule="nonzero" fill-opacity="1" /><path clip-path="url(#clip800)" d="M1102.49 145.98 L1102.49 121.432 L1109.95 121.432 L1109.95 184.464 L1102.49 184.464 L1102.49 177.658 Q1100.14 181.709 1096.54 183.694 Q1092.97 185.639 1087.95 185.639 Q1079.73 185.639 1074.54 179.076 Q1069.4 172.514 1069.4 161.819 Q1069.4 151.125 1074.54 144.563 Q1079.73 138 1087.95 138 Q1092.97 138 1096.54 139.985 Q1100.14 141.93 1102.49 145.98 M1077.09 161.819 Q1077.09 170.043 1080.46 174.742 Q1083.86 179.4 1089.77 179.4 Q1095.69 179.4 1099.09 174.742 Q1102.49 170.043 1102.49 161.819 Q1102.49 153.596 1099.09 148.938 Q1095.69 144.239 1089.77 144.239 Q1083.86 144.239 1080.46 148.938 Q1077.09 153.596 1077.09 161.819 Z" fill="#000000" fill-rule="nonzero" fill-opacity="1" /><path clip-path="url(#clip800)" d="M1152.64 146.791 L1204.58 146.791 L1204.58 153.596 L1152.64 153.596 L1152.64 146.791 M1152.64 163.318 L1204.58 163.318 L1204.58 170.205 L1152.64 170.205 L1152.64 163.318 Z" fill="#000000" fill-rule="nonzero" fill-opacity="1" /><path clip-path="url(#clip800)" d="M1250.03 177.577 L1263.4 177.577 L1263.4 131.438 L1248.85 134.354 L1248.85 126.901 L1263.31 123.984 L1271.5 123.984 L1271.5 177.577 L1284.87 177.577 L1284.87 184.464 L1250.03 184.464 L1250.03 177.577 Z" fill="#000000" fill-rule="nonzero" fill-opacity="1" /><path clip-path="url(#clip800)" d="M1308.44 177.577 L1337 177.577 L1337 184.464 L1298.6 184.464 L1298.6 177.577 Q1303.26 172.757 1311.28 164.655 Q1319.34 156.513 1321.4 154.163 Q1325.33 149.748 1326.87 146.71 Q1328.45 143.631 1328.45 140.674 Q1328.45 135.853 1325.05 132.815 Q1321.69 129.777 1316.26 129.777 Q1312.41 129.777 1308.12 131.114 Q1303.86 132.45 1299 135.164 L1299 126.901 Q1303.95 124.916 1308.24 123.903 Q1312.53 122.89 1316.1 122.89 Q1325.5 122.89 1331.09 127.589 Q1336.68 132.288 1336.68 140.147 Q1336.68 143.874 1335.26 147.236 Q1333.88 150.558 1330.2 155.095 Q1329.18 156.27 1323.75 161.9 Q1318.33 167.491 1308.44 177.577 Z" fill="#000000" fill-rule="nonzero" fill-opacity="1" /><path clip-path="url(#clip800)" d="M1355.03 174.175 L1363.57 174.175 L1363.57 181.142 L1356.93 194.105 L1351.71 194.105 L1355.03 181.142 L1355.03 174.175 Z" fill="#000000" fill-rule="nonzero" fill-opacity="1" /><path clip-path="url(#clip800)" d="M1427.7 194.591 L1421.66 179.076 L1409.23 201.761 L1400.44 201.761 L1418.02 169.678 L1410.65 150.598 Q1408.66 145.494 1402.42 145.494 L1400.44 145.494 L1400.44 139.094 L1403.27 139.175 Q1413.72 139.458 1416.36 146.223 L1422.35 161.738 L1434.79 139.053 L1443.58 139.053 L1426 171.137 L1433.37 190.216 Q1435.36 195.32 1441.6 195.32 L1443.58 195.32 L1443.58 201.721 L1440.74 201.64 Q1430.29 201.356 1427.7 194.591 Z" fill="#000000" fill-rule="nonzero" fill-opacity="1" /><path clip-path="url(#clip800)" d="M1481.13 146.791 L1533.06 146.791 L1533.06 153.596 L1481.13 153.596 L1481.13 146.791 M1481.13 163.318 L1533.06 163.318 L1533.06 170.205 L1481.13 170.205 L1481.13 163.318 Z" fill="#000000" fill-rule="nonzero" fill-opacity="1" /><path clip-path="url(#clip800)" d="M1599.58 131.114 L1578.92 163.399 L1599.58 163.399 L1599.58 131.114 M1597.43 123.984 L1607.72 123.984 L1607.72 163.399 L1616.35 163.399 L1616.35 170.205 L1607.72 170.205 L1607.72 184.464 L1599.58 184.464 L1599.58 170.205 L1572.28 170.205 L1572.28 162.306 L1597.43 123.984 Z" fill="#000000" fill-rule="nonzero" fill-opacity="1" /><path clip-path="url(#clip800)" d="M1647.38 129.372 Q1641.06 129.372 1637.86 135.61 Q1634.7 141.808 1634.7 154.285 Q1634.7 166.721 1637.86 172.959 Q1641.06 179.157 1647.38 179.157 Q1653.74 179.157 1656.9 172.959 Q1660.1 166.721 1660.1 154.285 Q1660.1 141.808 1656.9 135.61 Q1653.74 129.372 1647.38 129.372 M1647.38 122.89 Q1657.55 122.89 1662.9 130.952 Q1668.28 138.972 1668.28 154.285 Q1668.28 169.557 1662.9 177.618 Q1657.55 185.639 1647.38 185.639 Q1637.21 185.639 1631.83 177.618 Q1626.48 169.557 1626.48 154.285 Q1626.48 138.972 1631.83 130.952 Q1637.21 122.89 1647.38 122.89 Z" fill="#000000" fill-rule="nonzero" fill-opacity="1" /><path clip-path="url(#clip800)" d="M1683.52 174.175 L1692.06 174.175 L1692.06 181.142 L1685.42 194.105 L1680.19 194.105 L1683.52 181.142 L1683.52 174.175 Z" fill="#000000" fill-rule="nonzero" fill-opacity="1" /><path clip-path="url(#clip800)" d="M1734.68 123.984 L1742.86 123.984 L1742.86 177.577 L1772.31 177.577 L1772.31 184.464 L1734.68 184.464 L1734.68 123.984 Z" fill="#000000" fill-rule="nonzero" fill-opacity="1" /><path clip-path="url(#clip800)" d="M1817.92 159.916 L1817.92 163.561 L1783.65 163.561 Q1784.14 171.258 1788.27 175.309 Q1792.44 179.319 1799.86 179.319 Q1804.15 179.319 1808.16 178.266 Q1812.21 177.213 1816.18 175.106 L1816.18 182.155 Q1812.17 183.856 1807.96 184.748 Q1803.75 185.639 1799.41 185.639 Q1788.55 185.639 1782.2 179.319 Q1775.88 173 1775.88 162.225 Q1775.88 151.085 1781.87 144.563 Q1787.91 138 1798.12 138 Q1807.27 138 1812.58 143.914 Q1817.92 149.788 1817.92 159.916 M1810.47 157.728 Q1810.39 151.611 1807.03 147.965 Q1803.71 144.32 1798.2 144.32 Q1791.96 144.32 1788.19 147.844 Q1784.46 151.368 1783.9 157.769 L1810.47 157.728 Z" fill="#000000" fill-rule="nonzero" fill-opacity="1" /><path clip-path="url(#clip800)" d="M1860.01 161.252 Q1860.01 153.151 1856.65 148.695 Q1853.33 144.239 1847.29 144.239 Q1841.3 144.239 1837.94 148.695 Q1834.61 153.151 1834.61 161.252 Q1834.61 169.314 1837.94 173.77 Q1841.3 178.226 1847.29 178.226 Q1853.33 178.226 1856.65 173.77 Q1860.01 169.314 1860.01 161.252 M1867.47 178.833 Q1867.47 190.419 1862.32 196.05 Q1857.18 201.721 1846.56 201.721 Q1842.63 201.721 1839.15 201.113 Q1835.67 200.546 1832.39 199.331 L1832.39 192.08 Q1835.67 193.862 1838.87 194.713 Q1842.07 195.563 1845.39 195.563 Q1852.72 195.563 1856.37 191.715 Q1860.01 187.907 1860.01 180.17 L1860.01 176.484 Q1857.7 180.494 1854.1 182.479 Q1850.49 184.464 1845.47 184.464 Q1837.13 184.464 1832.02 178.104 Q1826.92 171.744 1826.92 161.252 Q1826.92 150.72 1832.02 144.36 Q1837.13 138 1845.47 138 Q1850.49 138 1854.1 139.985 Q1857.7 141.97 1860.01 145.98 L1860.01 139.094 L1867.47 139.094 L1867.47 178.833 Z" fill="#000000" fill-rule="nonzero" fill-opacity="1" /><path clip-path="url(#clip800)" d="M1921.63 159.916 L1921.63 163.561 L1887.36 163.561 Q1887.84 171.258 1891.97 175.309 Q1896.15 179.319 1903.56 179.319 Q1907.85 179.319 1911.86 178.266 Q1915.92 177.213 1919.89 175.106 L1919.89 182.155 Q1915.87 183.856 1911.66 184.748 Q1907.45 185.639 1903.11 185.639 Q1892.26 185.639 1885.9 179.319 Q1879.58 173 1879.58 162.225 Q1879.58 151.085 1885.57 144.563 Q1891.61 138 1901.82 138 Q1910.97 138 1916.28 143.914 Q1921.63 149.788 1921.63 159.916 M1914.17 157.728 Q1914.09 151.611 1910.73 147.965 Q1907.41 144.32 1901.9 144.32 Q1895.66 144.32 1891.89 147.844 Q1888.17 151.368 1887.6 157.769 L1914.17 157.728 Z" fill="#000000" fill-rule="nonzero" fill-opacity="1" /><path clip-path="url(#clip800)" d="M1971.57 157.08 L1971.57 184.464 L1964.12 184.464 L1964.12 157.323 Q1964.12 150.882 1961.61 147.682 Q1959.1 144.482 1954.07 144.482 Q1948.04 144.482 1944.56 148.33 Q1941.07 152.178 1941.07 158.822 L1941.07 184.464 L1933.58 184.464 L1933.58 139.094 L1941.07 139.094 L1941.07 146.142 Q1943.75 142.051 1947.35 140.026 Q1951 138 1955.74 138 Q1963.55 138 1967.56 142.861 Q1971.57 147.682 1971.57 157.08 Z" fill="#000000" fill-rule="nonzero" fill-opacity="1" /><path clip-path="url(#clip800)" d="M2016.3 145.98 L2016.3 121.432 L2023.75 121.432 L2023.75 184.464 L2016.3 184.464 L2016.3 177.658 Q2013.95 181.709 2010.34 183.694 Q2006.78 185.639 2001.75 185.639 Q1993.53 185.639 1988.35 179.076 Q1983.2 172.514 1983.2 161.819 Q1983.2 151.125 1988.35 144.563 Q1993.53 138 2001.75 138 Q2006.78 138 2010.34 139.985 Q2013.95 141.93 2016.3 145.98 M1990.9 161.819 Q1990.9 170.043 1994.26 174.742 Q1997.66 179.4 2003.58 179.4 Q2009.49 179.4 2012.89 174.742 Q2016.3 170.043 2016.3 161.819 Q2016.3 153.596 2012.89 148.938 Q2009.49 144.239 2003.58 144.239 Q1997.66 144.239 1994.26 148.938 Q1990.9 153.596 1990.9 161.819 Z" fill="#000000" fill-rule="nonzero" fill-opacity="1" /><path clip-path="url(#clip800)" d="M2065.39 146.061 Q2064.14 145.332 2062.64 145.008 Q2061.18 144.644 2059.4 144.644 Q2053.08 144.644 2049.68 148.776 Q2046.31 152.867 2046.31 160.564 L2046.31 184.464 L2038.82 184.464 L2038.82 139.094 L2046.31 139.094 L2046.31 146.142 Q2048.66 142.011 2052.43 140.026 Q2056.2 138 2061.59 138 Q2062.36 138 2063.29 138.122 Q2064.22 138.203 2065.35 138.405 L2065.39 146.061 Z" fill="#000000" fill-rule="nonzero" fill-opacity="1" /><path clip-path="url(#clip800)" d="M2110.2 159.916 L2110.2 163.561 L2075.93 163.561 Q2076.41 171.258 2080.54 175.309 Q2084.72 179.319 2092.13 179.319 Q2096.42 179.319 2100.43 178.266 Q2104.48 177.213 2108.45 175.106 L2108.45 182.155 Q2104.44 183.856 2100.23 184.748 Q2096.02 185.639 2091.68 185.639 Q2080.83 185.639 2074.47 179.319 Q2068.15 173 2068.15 162.225 Q2068.15 151.085 2074.14 144.563 Q2080.18 138 2090.39 138 Q2099.54 138 2104.85 143.914 Q2110.2 149.788 2110.2 159.916 M2102.74 157.728 Q2102.66 151.611 2099.3 147.965 Q2095.98 144.32 2090.47 144.32 Q2084.23 144.32 2080.46 147.844 Q2076.74 151.368 2076.17 157.769 L2102.74 157.728 Z" fill="#000000" fill-rule="nonzero" fill-opacity="1" /><path clip-path="url(#clip800)" d="M2187.61 159.916 L2187.61 163.561 L2153.34 163.561 Q2153.83 171.258 2157.96 175.309 Q2162.13 179.319 2169.54 179.319 Q2173.84 179.319 2177.85 178.266 Q2181.9 177.213 2185.87 175.106 L2185.87 182.155 Q2181.86 183.856 2177.64 184.748 Q2173.43 185.639 2169.1 185.639 Q2158.24 185.639 2151.88 179.319 Q2145.56 173 2145.56 162.225 Q2145.56 151.085 2151.56 144.563 Q2157.59 138 2167.8 138 Q2176.96 138 2182.26 143.914 Q2187.61 149.788 2187.61 159.916 M2180.16 157.728 Q2180.07 151.611 2176.71 147.965 Q2173.39 144.32 2167.88 144.32 Q2161.64 144.32 2157.88 147.844 Q2154.15 151.368 2153.58 157.769 L2180.16 157.728 Z" fill="#000000" fill-rule="nonzero" fill-opacity="1" /><path clip-path="url(#clip800)" d="M2237.56 157.08 L2237.56 184.464 L2230.1 184.464 L2230.1 157.323 Q2230.1 150.882 2227.59 147.682 Q2225.08 144.482 2220.06 144.482 Q2214.02 144.482 2210.54 148.33 Q2207.05 152.178 2207.05 158.822 L2207.05 184.464 L2199.56 184.464 L2199.56 139.094 L2207.05 139.094 L2207.05 146.142 Q2209.73 142.051 2213.33 140.026 Q2216.98 138 2221.72 138 Q2229.54 138 2233.55 142.861 Q2237.56 147.682 2237.56 157.08 Z" fill="#000000" fill-rule="nonzero" fill-opacity="1" /><path clip-path="url(#clip800)" d="M2285.07 140.836 L2285.07 147.803 Q2281.91 146.061 2278.71 145.211 Q2275.55 144.32 2272.31 144.32 Q2265.06 144.32 2261.05 148.938 Q2257.04 153.515 2257.04 161.819 Q2257.04 170.124 2261.05 174.742 Q2265.06 179.319 2272.31 179.319 Q2275.55 179.319 2278.71 178.469 Q2281.91 177.577 2285.07 175.836 L2285.07 182.722 Q2281.96 184.18 2278.59 184.91 Q2275.27 185.639 2271.5 185.639 Q2261.25 185.639 2255.22 179.198 Q2249.18 172.757 2249.18 161.819 Q2249.18 150.72 2255.26 144.36 Q2261.38 138 2271.99 138 Q2275.43 138 2278.71 138.729 Q2282 139.418 2285.07 140.836 Z" fill="#000000" fill-rule="nonzero" fill-opacity="1" /><path clip-path="url(#clip800)" d="M2315.62 144.32 Q2309.62 144.32 2306.14 149.019 Q2302.66 153.677 2302.66 161.819 Q2302.66 169.962 2306.1 174.661 Q2309.58 179.319 2315.62 179.319 Q2321.57 179.319 2325.06 174.62 Q2328.54 169.921 2328.54 161.819 Q2328.54 153.758 2325.06 149.059 Q2321.57 144.32 2315.62 144.32 M2315.62 138 Q2325.34 138 2330.89 144.32 Q2336.44 150.639 2336.44 161.819 Q2336.44 172.959 2330.89 179.319 Q2325.34 185.639 2315.62 185.639 Q2305.86 185.639 2300.31 179.319 Q2294.8 172.959 2294.8 161.819 Q2294.8 150.639 2300.31 144.32 Q2305.86 138 2315.62 138 Z" fill="#000000" fill-rule="nonzero" fill-opacity="1" /><path clip-path="url(#clip800)" d="M2378.65 145.98 L2378.65 121.432 L2386.1 121.432 L2386.1 184.464 L2378.65 184.464 L2378.65 177.658 Q2376.3 181.709 2372.7 183.694 Q2369.13 185.639 2364.11 185.639 Q2355.88 185.639 2350.7 179.076 Q2345.55 172.514 2345.55 161.819 Q2345.55 151.125 2350.7 144.563 Q2355.88 138 2364.11 138 Q2369.13 138 2372.7 139.985 Q2376.3 141.93 2378.65 145.98 M2353.25 161.819 Q2353.25 170.043 2356.61 174.742 Q2360.02 179.4 2365.93 179.4 Q2371.84 179.4 2375.25 174.742 Q2378.65 170.043 2378.65 161.819 Q2378.65 153.596 2375.25 148.938 Q2371.84 144.239 2365.93 144.239 Q2360.02 144.239 2356.61 148.938 Q2353.25 153.596 2353.25 161.819 Z" fill="#000000" fill-rule="nonzero" fill-opacity="1" /><path clip-path="url(#clip800)" d="M2401.46 139.094 L2408.91 139.094 L2408.91 184.464 L2401.46 184.464 L2401.46 139.094 M2401.46 121.432 L2408.91 121.432 L2408.91 130.871 L2401.46 130.871 L2401.46 121.432 Z" fill="#000000" fill-rule="nonzero" fill-opacity="1" /><path clip-path="url(#clip800)" d="M2462.22 157.08 L2462.22 184.464 L2454.77 184.464 L2454.77 157.323 Q2454.77 150.882 2452.26 147.682 Q2449.74 144.482 2444.72 144.482 Q2438.68 144.482 2435.2 148.33 Q2431.72 152.178 2431.72 158.822 L2431.72 184.464 L2424.22 184.464 L2424.22 139.094 L2431.72 139.094 L2431.72 146.142 Q2434.39 142.051 2438 140.026 Q2441.64 138 2446.38 138 Q2454.2 138 2458.21 142.861 Q2462.22 147.682 2462.22 157.08 Z" fill="#000000" fill-rule="nonzero" fill-opacity="1" /><path clip-path="url(#clip800)" d="M2506.94 161.252 Q2506.94 153.151 2503.58 148.695 Q2500.26 144.239 2494.22 144.239 Q2488.23 144.239 2484.86 148.695 Q2481.54 153.151 2481.54 161.252 Q2481.54 169.314 2484.86 173.77 Q2488.23 178.226 2494.22 178.226 Q2500.26 178.226 2503.58 173.77 Q2506.94 169.314 2506.94 161.252 M2514.4 178.833 Q2514.4 190.419 2509.25 196.05 Q2504.11 201.721 2493.49 201.721 Q2489.56 201.721 2486.08 201.113 Q2482.6 200.546 2479.32 199.331 L2479.32 192.08 Q2482.6 193.862 2485.8 194.713 Q2489 195.563 2492.32 195.563 Q2499.65 195.563 2503.3 191.715 Q2506.94 187.907 2506.94 180.17 L2506.94 176.484 Q2504.63 180.494 2501.03 182.479 Q2497.42 184.464 2492.4 184.464 Q2484.05 184.464 2478.95 178.104 Q2473.85 171.744 2473.85 161.252 Q2473.85 150.72 2478.95 144.36 Q2484.05 138 2492.4 138 Q2497.42 138 2501.03 139.985 Q2504.63 141.97 2506.94 145.98 L2506.94 139.094 L2514.4 139.094 L2514.4 178.833 Z" fill="#000000" fill-rule="nonzero" fill-opacity="1" /><path clip-path="url(#clip802)" d="M354.473 1204.33 L380.269 1062 L406.065 1151.5 L431.861 1266.13 L457.657 1447.63 L483.453 1485.23 L509.249 1634.31 L535.045 1594.3 L560.841 1677.01 L586.637 1511.38 L612.434 1500.83 L638.23 1437.68 L664.026 1320.28 L689.822 1249.39 L715.618 1224.52 L741.414 1119.78 L767.21 1048.52 L793.006 1084.49 L818.802 1163.13 L844.599 1254.75 L870.395 1376.64 L896.191 1489.18 L921.987 1550.73 L947.783 1580.96 L973.579 1571.66 L999.375 1480.94 L1025.17 1389.91 L1050.97 1294.5 L1076.76 1123.6 L1102.56 1031.88 L1128.36 967.977 L1154.15 933.095 L1179.95 930.196 L1205.74 1069.09 L1231.54 1118.94 L1257.34 1252.37 L1283.13 1360.23 L1308.93 1419.94 L1334.72 1434.55 L1360.52 1427.5 L1386.32 1292.2 L1412.11 1219.29 L1437.91 1089.83 L1463.71 946.779 L1489.5 842.425 L1515.3 782.729 L1541.09 773.621 L1566.89 874.085 L1592.69 935.341 L1618.48 1066.3 L1644.28 1166.57 L1670.07 1260.24 L1695.87 1322 L1721.67 1323.12 L1747.46 1273.94 L1773.26 1178.94 L1799.05 1069.92 L1824.85 913.396 L1850.65 795.615 L1876.44 684.924 L1902.24 669.548 L1928.04 640.275 L1953.83 669.762 L1979.63 800.133 L2005.42 884.658 L2031.22 1026.41 L2057.02 1127.22 L2082.81 1160.07 L2108.61 1164.71 L2134.4 1128.9 L2160.2 1059.97 L2186 935.262 L2211.79 760.919 L2237.59 672.492 L2263.38 546.993 L2289.18 525.758 L2314.98 496.656 L2340.77 558.845 L2366.57 668.273 L2392.37 744.094 L2418.16 880.726 L2443.96 970.691 L2469.75 1058.95 L2495.55 1052.34 L2521.35 980.906 L2547.14 902.12 L2572.94 803.591 L2598.73 646.507 L2624.53 506.718 L2650.33 417.88 L2676.12 360.942 L2701.92 396.382 L2727.71 427.264 L2753.51 554.975 L2779.31 574.277 L2805.1 663.437 L2830.9 833.642 L2856.7 946.18 L2882.49 973.611 L2908.29 766.323 L2908.29 766.323 L2882.49 973.611 L2856.7 946.18 L2830.9 833.642 L2805.1 663.437 L2779.31 574.277 L2753.51 554.975 L2727.71 324.2 L2701.92 289.226 L2676.12 260.855 L2650.33 315.353 L2624.53 391.343 L2598.73 526.514 L2572.94 670.064 L2547.14 774.128 L2521.35 838.962 L2495.55 914.12 L2469.75 923.7 L2443.96 836.712 L2418.16 749.385 L2392.37 611.987 L2366.57 549.769 L2340.77 437.257 L2314.98 382.802 L2289.18 408.021 L2263.38 426.04 L2237.59 550.573 L2211.79 623.439 L2186 805.541 L2160.2 924.352 L2134.4 1002.39 L2108.61 1038.39 L2082.81 1033.35 L2057.02 1000.72 L2031.22 888.517 L2005.42 758.476 L1979.63 664.779 L1953.83 551.071 L1928.04 524.003 L1902.24 551.656 L1876.44 562.698 L1850.65 662.041 L1824.85 785.549 L1799.05 933.932 L1773.26 1051.13 L1747.46 1141.43 L1721.67 1199.03 L1695.87 1197.73 L1670.07 1122.76 L1644.28 1036.9 L1618.48 926.77 L1592.69 802.67 L1566.89 747.654 L1541.09 640.503 L1515.3 649.626 L1489.5 708.993 L1463.71 814.115 L1437.91 953.094 L1412.11 1086.88 L1386.32 1151.44 L1360.52 1307.29 L1334.72 1313.82 L1308.93 1297.74 L1283.13 1234.29 L1257.34 1114.63 L1231.54 987.232 L1205.74 933.281 L1179.95 800.747 L1154.15 804.172 L1128.36 833.101 L1102.56 893.656 L1076.76 996.719 L1050.97 1162.36 L1025.17 1269.91 L999.375 1360.64 L973.579 1470.09 L947.783 1479.58 L921.987 1442.27 L896.191 1368.95 L870.395 1256.95 L844.599 1114.67 L818.802 1035.32 L793.006 949.315 L767.21 911.805 L741.414 991.603 L715.618 1069.18 L689.822 1096.22 L664.026 1320.28 L638.23 1437.68 L612.434 1500.83 L586.637 1511.38 L560.841 1677.01 L535.045 1594.3 L509.249 1634.31 L483.453 1485.23 L457.657 1447.63 L431.861 1266.13 L406.065 1151.5 L380.269 1062 L354.473 1204.33  Z" fill="#009af9" fill-rule="evenodd" fill-opacity="0.5"/>
<polyline clip-path="url(#clip802)" style="stroke:#009af9; stroke-linecap:round; stroke-linejoin:round; stroke-width:8; stroke-opacity:0.8; fill:none" stroke-dasharray="4, 8" points="354.473,1204.33 380.269,1062 406.065,1151.5 431.861,1266.13 457.657,1447.63 483.453,1485.23 509.249,1634.31 535.045,1594.3 560.841,1677.01 586.637,1511.38 612.434,1500.83 638.23,1437.68 664.026,1320.28 689.822,1172.8 715.618,1146.85 741.414,1055.69 767.21,980.162 793.006,1016.9 818.802,1099.23 844.599,1184.71 870.395,1316.79 896.191,1429.07 921.987,1496.5 947.783,1530.27 973.579,1520.87 999.375,1420.79 1025.17,1329.91 1050.97,1228.43 1076.76,1060.16 1102.56,962.768 1128.36,900.539 1154.15,868.634 1179.95,865.471 1205.74,1001.18 1231.54,1053.09 1257.34,1183.5 1283.13,1297.26 1308.93,1358.84 1334.72,1374.19 1360.52,1367.4 1386.32,1221.82 1412.11,1153.08 1437.91,1021.46 1463.71,880.447 1489.5,775.709 1515.3,716.178 1541.09,707.062 1566.89,810.87 1592.69,869.006 1618.48,996.533 1644.28,1101.74 1670.07,1191.5 1695.87,1259.87 1721.67,1261.08 1747.46,1207.68 1773.26,1115.04 1799.05,1001.93 1824.85,849.472 1850.65,728.828 1876.44,623.811 1902.24,610.602 1928.04,582.139 1953.83,610.416 1979.63,732.456 2005.42,821.567 2031.22,957.466 2057.02,1063.97 2082.81,1096.71 2108.61,1101.55 2134.4,1065.65 2160.2,992.162 2186,870.401 2211.79,692.179 2237.59,611.533 2263.38,486.517 2289.18,466.89 2314.98,439.729 2340.77,498.051 2366.57,609.021 2392.37,678.04 2418.16,815.056 2443.96,903.702 2469.75,991.324 2495.55,983.232 2521.35,909.934 2547.14,838.124 2572.94,736.828 2598.73,586.511 2624.53,449.03 2650.33,366.617 2676.12,310.899 2701.92,342.804 2727.71,375.732 2753.51,554.975 2779.31,574.277 2805.1,663.437 2830.9,833.642 2856.7,946.18 2882.49,973.611 2908.29,766.323 "/>
<polyline clip-path="url(#clip802)" style="stroke:#ffa500; stroke-linecap:round; stroke-linejoin:round; stroke-width:8; stroke-opacity:0.7; fill:none" points="354.473,1204.33 380.269,1062 406.065,1151.5 431.861,1266.13 457.657,1447.63 483.453,1485.23 509.249,1634.31 535.045,1594.3 560.841,1677.01 586.637,1511.38 612.434,1500.83 638.23,1437.68 664.026,1320.28 689.822,1231.4 715.618,1075.64 741.414,975.706 767.21,1021.59 793.006,1042.23 818.802,1129.17 844.599,1235.3 870.395,1450.23 896.191,1417.5 921.987,1459.52 947.783,1521.55 973.579,1428.72 999.375,1360.82 1025.17,1189 1050.97,1222.95 1076.76,968.135 1102.56,727.374 1128.36,856.252 1154.15,903.079 1179.95,860.273 1205.74,953.714 1231.54,1077.45 1257.34,1146.04 1283.13,1485.67 1308.93,1358.2 1334.72,1338.53 1360.52,1338.21 1386.32,1240.21 1412.11,1197.34 1437.91,974.01 1463.71,991.726 1489.5,715.408 1515.3,740.227 1541.09,588.065 1566.89,807.126 1592.69,843.551 1618.48,986.355 1644.28,1059.53 1670.07,1211.66 1695.87,1226.11 1721.67,1240.6 1747.46,1209.12 1773.26,1155.27 1799.05,903.887 1824.85,791.306 1850.65,754.293 1876.44,610.876 1902.24,552.632 1928.04,690.002 1953.83,527.995 1979.63,768.162 2005.42,756.177 2031.22,1084.07 2057.02,1126.7 2082.81,1140.78 2108.61,982.581 2134.4,1110.06 2160.2,958.157 2186,874.131 2211.79,693.774 2237.59,653.431 2263.38,409.329 2289.18,448.349 2314.98,467.732 2340.77,583.712 2366.57,565.729 2392.37,691.453 2418.16,867.79 2443.96,958.717 2469.75,1045.03 2495.55,865.346 2521.35,955.512 2547.14,711.964 2572.94,592.901 2598.73,475.441 2624.53,399.092 2650.33,320.291 2676.12,277.799 2701.92,349.251 2727.71,334.222 2753.51,554.975 2779.31,574.277 2805.1,663.437 2830.9,833.642 2856.7,946.18 2882.49,973.611 2908.29,766.323 "/>
<polyline clip-path="url(#clip802)" style="stroke:#ff0000; stroke-linecap:round; stroke-linejoin:round; stroke-width:8; stroke-opacity:0.7; fill:none" stroke-dasharray="4, 8" points="354.473,1130.15 380.269,1037.78 406.065,1246.37 431.861,1326.76 457.657,1361.21 483.453,1528.75 509.249,1598.24 535.045,1732.56 560.841,1684.49 586.637,1500.16 612.434,1525.18 638.23,1392.5 664.026,1278.38 689.822,1118.57 715.618,916.234 741.414,906.095 767.21,932.336 793.006,907.282 818.802,1158 844.599,1137.26 870.395,1425.2 896.191,1456.35 921.987,1505.94 947.783,1564.63 973.579,1457.39 999.375,1354.05 1025.17,1196.06 1050.97,1126.69 1076.76,959.752 1102.56,795.095 1128.36,853.403 1154.15,903.071 1179.95,835.817 1205.74,1137.32 1231.54,1137.84 1257.34,1229.26 1283.13,1247.38 1308.93,1368.2 1334.72,1465.37 1360.52,1294.83 1386.32,1153.49 1412.11,1151.96 1437.91,1054.49 1463.71,903.32 1489.5,718.491 1515.3,795.343 1541.09,651.151 1566.89,786.914 1592.69,808.096 1618.48,1030.41 1644.28,1040.12 1670.07,1032.82 1695.87,1340.03 1721.67,1305.24 1747.46,1258.85 1773.26,1074.69 1799.05,1074.7 1824.85,793.403 1850.65,643.972 1876.44,606.735 1902.24,602.505 1928.04,588.062 1953.83,581.687 1979.63,730.516 2005.42,906.734 2031.22,966.026 2057.02,1132.06 2082.81,1131.56 2108.61,1199.63 2134.4,1053.16 2160.2,904.266 2186,951.245 2211.79,666.991 2237.59,595.366 2263.38,541.957 2289.18,477.812 2314.98,583.572 2340.77,424.898 2366.57,633.394 2392.37,640.768 2418.16,717.146 2443.96,876.003 2469.75,990.649 2495.55,948.636 2521.35,812.414 2547.14,770.1 2572.94,752.513 2598.73,493.346 2624.53,429.753 2650.33,266.551 2676.12,323.981 2701.92,333.901 2727.71,438.526 2753.51,484.881 2779.31,551.344 2805.1,691.096 2830.9,837.503 2856.7,832.703 2882.49,824.052 2908.29,902.57 "/>
<path clip-path="url(#clip800)" d="M3107.4 476.064 L3952.76 476.064 L3952.76 268.704 L3107.4 268.704  Z" fill="#ffffff" fill-rule="evenodd" fill-opacity="1"/>
<polyline clip-path="url(#clip800)" style="stroke:#000000; stroke-linecap:round; stroke-linejoin:round; stroke-width:4; stroke-opacity:1; fill:none" points="3107.4,476.064 3952.76,476.064 3952.76,268.704 3107.4,268.704 3107.4,476.064 "/>
<polyline clip-path="url(#clip800)" style="stroke:#009af9; stroke-linecap:round; stroke-linejoin:round; stroke-width:8; stroke-opacity:0.8; fill:none" stroke-dasharray="4, 8" points="3148.23,320.544 3393.22,320.544 "/>
<path clip-path="url(#clip800)" d="M3434.06 303.264 L3441.02 303.264 L3449.84 326.783 L3458.71 303.264 L3465.68 303.264 L3465.68 337.824 L3461.12 337.824 L3461.12 307.477 L3452.2 331.181 L3447.5 331.181 L3438.59 307.477 L3438.59 337.824 L3434.06 337.824 L3434.06 303.264 Z" fill="#000000" fill-rule="nonzero" fill-opacity="1" /><path clip-path="url(#clip800)" d="M3479.63 307.107 L3479.63 320.093 L3485.51 320.093 Q3488.78 320.093 3490.56 318.403 Q3492.34 316.713 3492.34 313.588 Q3492.34 310.487 3490.56 308.797 Q3488.78 307.107 3485.51 307.107 L3479.63 307.107 M3474.96 303.264 L3485.51 303.264 Q3491.32 303.264 3494.29 305.903 Q3497.27 308.519 3497.27 313.588 Q3497.27 318.704 3494.29 321.32 Q3491.32 323.936 3485.51 323.936 L3479.63 323.936 L3479.63 337.824 L3474.96 337.824 L3474.96 303.264 Z" fill="#000000" fill-rule="nonzero" fill-opacity="1" /><path clip-path="url(#clip800)" d="M3524.26 304.399 L3524.26 308.959 Q3521.6 307.686 3519.24 307.061 Q3516.88 306.436 3514.68 306.436 Q3510.86 306.436 3508.78 307.917 Q3506.72 309.399 3506.72 312.13 Q3506.72 314.422 3508.08 315.602 Q3509.47 316.76 3513.31 317.477 L3516.14 318.056 Q3521.37 319.051 3523.85 321.574 Q3526.35 324.074 3526.35 328.287 Q3526.35 333.311 3522.97 335.903 Q3519.61 338.496 3513.11 338.496 Q3510.65 338.496 3507.87 337.94 Q3505.12 337.385 3502.16 336.297 L3502.16 331.482 Q3505 333.079 3507.74 333.889 Q3510.47 334.699 3513.11 334.699 Q3517.11 334.699 3519.29 333.125 Q3521.46 331.551 3521.46 328.635 Q3521.46 326.088 3519.89 324.653 Q3518.34 323.218 3514.77 322.5 L3511.93 321.945 Q3506.69 320.903 3504.36 318.681 Q3502.02 316.459 3502.02 312.5 Q3502.02 307.917 3505.24 305.278 Q3508.48 302.639 3514.15 302.639 Q3516.58 302.639 3519.1 303.079 Q3521.62 303.519 3524.26 304.399 Z" fill="#000000" fill-rule="nonzero" fill-opacity="1" /><path clip-path="url(#clip800)" d="M3548.52 311.899 L3552.78 311.899 L3552.78 337.824 L3548.52 337.824 L3548.52 311.899 M3548.52 301.806 L3552.78 301.806 L3552.78 307.2 L3548.52 307.2 L3548.52 301.806 Z" fill="#000000" fill-rule="nonzero" fill-opacity="1" /><path clip-path="url(#clip800)" d="M3581.88 316.875 Q3583.48 314.005 3585.7 312.639 Q3587.92 311.274 3590.93 311.274 Q3594.98 311.274 3597.18 314.121 Q3599.38 316.945 3599.38 322.176 L3599.38 337.824 L3595.1 337.824 L3595.1 322.315 Q3595.1 318.588 3593.78 316.783 Q3592.46 314.977 3589.75 314.977 Q3586.44 314.977 3584.52 317.176 Q3582.6 319.375 3582.6 323.172 L3582.6 337.824 L3578.31 337.824 L3578.31 322.315 Q3578.31 318.565 3576.99 316.783 Q3575.68 314.977 3572.92 314.977 Q3569.66 314.977 3567.74 317.199 Q3565.81 319.399 3565.81 323.172 L3565.81 337.824 L3561.53 337.824 L3561.53 311.899 L3565.81 311.899 L3565.81 315.926 Q3567.27 313.542 3569.31 312.408 Q3571.35 311.274 3574.15 311.274 Q3576.97 311.274 3578.94 312.709 Q3580.93 314.144 3581.88 316.875 Z" fill="#000000" fill-rule="nonzero" fill-opacity="1" /><path clip-path="url(#clip800)" d="M3611.99 333.935 L3611.99 347.685 L3607.71 347.685 L3607.71 311.899 L3611.99 311.899 L3611.99 315.834 Q3613.34 313.519 3615.37 312.408 Q3617.43 311.274 3620.28 311.274 Q3625 311.274 3627.94 315.024 Q3630.91 318.774 3630.91 324.885 Q3630.91 330.996 3627.94 334.746 Q3625 338.496 3620.28 338.496 Q3617.43 338.496 3615.37 337.385 Q3613.34 336.25 3611.99 333.935 M3626.49 324.885 Q3626.49 320.186 3624.54 317.524 Q3622.62 314.838 3619.24 314.838 Q3615.86 314.838 3613.92 317.524 Q3611.99 320.186 3611.99 324.885 Q3611.99 329.584 3613.92 332.269 Q3615.86 334.931 3619.24 334.931 Q3622.62 334.931 3624.54 332.269 Q3626.49 329.584 3626.49 324.885 Z" fill="#000000" fill-rule="nonzero" fill-opacity="1" /><path clip-path="url(#clip800)" d="M3637.53 327.593 L3637.53 311.899 L3641.79 311.899 L3641.79 327.431 Q3641.79 331.111 3643.22 332.963 Q3644.66 334.792 3647.53 334.792 Q3650.98 334.792 3652.97 332.593 Q3654.98 330.394 3654.98 326.598 L3654.98 311.899 L3659.24 311.899 L3659.24 337.824 L3654.98 337.824 L3654.98 333.843 Q3653.43 336.204 3651.37 337.361 Q3649.33 338.496 3646.62 338.496 Q3642.16 338.496 3639.84 335.718 Q3637.53 332.94 3637.53 327.593 M3648.24 311.274 L3648.24 311.274 Z" fill="#000000" fill-rule="nonzero" fill-opacity="1" /><path clip-path="url(#clip800)" d="M3672.23 304.538 L3672.23 311.899 L3681 311.899 L3681 315.209 L3672.23 315.209 L3672.23 329.283 Q3672.23 332.454 3673.08 333.357 Q3673.96 334.26 3676.62 334.26 L3681 334.26 L3681 337.824 L3676.62 337.824 Q3671.69 337.824 3669.82 335.996 Q3667.94 334.144 3667.94 329.283 L3667.94 315.209 L3664.82 315.209 L3664.82 311.899 L3667.94 311.899 L3667.94 304.538 L3672.23 304.538 Z" fill="#000000" fill-rule="nonzero" fill-opacity="1" /><path clip-path="url(#clip800)" d="M3708.78 323.797 L3708.78 325.88 L3689.19 325.88 Q3689.47 330.278 3691.83 332.593 Q3694.22 334.885 3698.45 334.885 Q3700.91 334.885 3703.2 334.283 Q3705.51 333.681 3707.78 332.477 L3707.78 336.505 Q3705.49 337.477 3703.08 337.986 Q3700.67 338.496 3698.2 338.496 Q3691.99 338.496 3688.36 334.885 Q3684.75 331.273 3684.75 325.116 Q3684.75 318.75 3688.17 315.024 Q3691.62 311.274 3697.46 311.274 Q3702.69 311.274 3705.72 314.653 Q3708.78 318.01 3708.78 323.797 M3704.52 322.547 Q3704.47 319.051 3702.55 316.968 Q3700.65 314.885 3697.5 314.885 Q3693.94 314.885 3691.79 316.899 Q3689.66 318.912 3689.33 322.57 L3704.52 322.547 Z" fill="#000000" fill-rule="nonzero" fill-opacity="1" /><path clip-path="url(#clip800)" d="M3732.83 315.834 L3732.83 301.806 L3737.09 301.806 L3737.09 337.824 L3732.83 337.824 L3732.83 333.935 Q3731.48 336.25 3729.42 337.385 Q3727.39 338.496 3724.52 338.496 Q3719.82 338.496 3716.86 334.746 Q3713.92 330.996 3713.92 324.885 Q3713.92 318.774 3716.86 315.024 Q3719.82 311.274 3724.52 311.274 Q3727.39 311.274 3729.42 312.408 Q3731.48 313.519 3732.83 315.834 M3718.31 324.885 Q3718.31 329.584 3720.23 332.269 Q3722.18 334.931 3725.56 334.931 Q3728.94 334.931 3730.88 332.269 Q3732.83 329.584 3732.83 324.885 Q3732.83 320.186 3730.88 317.524 Q3728.94 314.838 3725.56 314.838 Q3722.18 314.838 3720.23 317.524 Q3718.31 320.186 3718.31 324.885 Z" fill="#000000" fill-rule="nonzero" fill-opacity="1" /><polyline clip-path="url(#clip800)" style="stroke:#ffa500; stroke-linecap:round; stroke-linejoin:round; stroke-width:8; stroke-opacity:0.7; fill:none" points="3148.23,372.384 3393.22,372.384 "/>
<path clip-path="url(#clip800)" d="M3459.61 384.734 L3459.61 375.451 L3451.97 375.451 L3451.97 371.609 L3464.24 371.609 L3464.24 386.447 Q3461.53 388.368 3458.27 389.363 Q3455 390.336 3451.3 390.336 Q3443.2 390.336 3438.62 385.613 Q3434.06 380.868 3434.06 372.419 Q3434.06 363.947 3438.62 359.225 Q3443.2 354.479 3451.3 354.479 Q3454.68 354.479 3457.71 355.313 Q3460.77 356.146 3463.34 357.766 L3463.34 362.743 Q3460.75 360.544 3457.83 359.433 Q3454.91 358.322 3451.69 358.322 Q3445.35 358.322 3442.16 361.864 Q3438.99 365.405 3438.99 372.419 Q3438.99 379.41 3442.16 382.951 Q3445.35 386.493 3451.69 386.493 Q3454.17 386.493 3456.12 386.076 Q3458.06 385.637 3459.61 384.734 Z" fill="#000000" fill-rule="nonzero" fill-opacity="1" /><path clip-path="url(#clip800)" d="M3487.62 367.72 Q3486.9 367.303 3486.05 367.118 Q3485.21 366.91 3484.19 366.91 Q3480.58 366.91 3478.64 369.271 Q3476.72 371.609 3476.72 376.007 L3476.72 389.664 L3472.44 389.664 L3472.44 363.739 L3476.72 363.739 L3476.72 367.766 Q3478.06 365.405 3480.21 364.271 Q3482.37 363.114 3485.44 363.114 Q3485.88 363.114 3486.42 363.183 Q3486.95 363.229 3487.6 363.345 L3487.62 367.72 Z" fill="#000000" fill-rule="nonzero" fill-opacity="1" /><path clip-path="url(#clip800)" d="M3501.09 366.725 Q3497.67 366.725 3495.68 369.41 Q3493.69 372.072 3493.69 376.725 Q3493.69 381.377 3495.65 384.063 Q3497.64 386.725 3501.09 386.725 Q3504.5 386.725 3506.49 384.039 Q3508.48 381.354 3508.48 376.725 Q3508.48 372.118 3506.49 369.433 Q3504.5 366.725 3501.09 366.725 M3501.09 363.114 Q3506.65 363.114 3509.82 366.725 Q3512.99 370.336 3512.99 376.725 Q3512.99 383.09 3509.82 386.725 Q3506.65 390.336 3501.09 390.336 Q3495.51 390.336 3492.34 386.725 Q3489.19 383.09 3489.19 376.725 Q3489.19 370.336 3492.34 366.725 Q3495.51 363.114 3501.09 363.114 Z" fill="#000000" fill-rule="nonzero" fill-opacity="1" /><path clip-path="url(#clip800)" d="M3519.61 379.433 L3519.61 363.739 L3523.87 363.739 L3523.87 379.271 Q3523.87 382.951 3525.31 384.803 Q3526.74 386.632 3529.61 386.632 Q3533.06 386.632 3535.05 384.433 Q3537.06 382.234 3537.06 378.438 L3537.06 363.739 L3541.32 363.739 L3541.32 389.664 L3537.06 389.664 L3537.06 385.683 Q3535.51 388.044 3533.45 389.201 Q3531.42 390.336 3528.71 390.336 Q3524.24 390.336 3521.93 387.558 Q3519.61 384.78 3519.61 379.433 M3530.33 363.114 L3530.33 363.114 Z" fill="#000000" fill-rule="nonzero" fill-opacity="1" /><path clip-path="url(#clip800)" d="M3571.65 374.016 L3571.65 389.664 L3567.39 389.664 L3567.39 374.155 Q3567.39 370.475 3565.95 368.646 Q3564.52 366.817 3561.65 366.817 Q3558.2 366.817 3556.21 369.016 Q3554.22 371.215 3554.22 375.012 L3554.22 389.664 L3549.93 389.664 L3549.93 363.739 L3554.22 363.739 L3554.22 367.766 Q3555.75 365.428 3557.81 364.271 Q3559.89 363.114 3562.6 363.114 Q3567.06 363.114 3569.36 365.891 Q3571.65 368.646 3571.65 374.016 Z" fill="#000000" fill-rule="nonzero" fill-opacity="1" /><path clip-path="url(#clip800)" d="M3597.2 367.674 L3597.2 353.646 L3601.46 353.646 L3601.46 389.664 L3597.2 389.664 L3597.2 385.775 Q3595.86 388.09 3593.8 389.225 Q3591.76 390.336 3588.89 390.336 Q3584.19 390.336 3581.23 386.586 Q3578.29 382.836 3578.29 376.725 Q3578.29 370.614 3581.23 366.864 Q3584.19 363.114 3588.89 363.114 Q3591.76 363.114 3593.8 364.248 Q3595.86 365.359 3597.2 367.674 M3582.69 376.725 Q3582.69 381.424 3584.61 384.109 Q3586.56 386.771 3589.93 386.771 Q3593.31 386.771 3595.26 384.109 Q3597.2 381.424 3597.2 376.725 Q3597.2 372.026 3595.26 369.364 Q3593.31 366.678 3589.93 366.678 Q3586.56 366.678 3584.61 369.364 Q3582.69 372.026 3582.69 376.725 Z" fill="#000000" fill-rule="nonzero" fill-opacity="1" /><path clip-path="url(#clip800)" d="M3620.7 355.104 L3649.93 355.104 L3649.93 359.04 L3637.67 359.04 L3637.67 389.664 L3632.97 389.664 L3632.97 359.04 L3620.7 359.04 L3620.7 355.104 Z" fill="#000000" fill-rule="nonzero" fill-opacity="1" /><path clip-path="url(#clip800)" d="M3662.32 367.72 Q3661.6 367.303 3660.74 367.118 Q3659.91 366.91 3658.89 366.91 Q3655.28 366.91 3653.34 369.271 Q3651.42 371.609 3651.42 376.007 L3651.42 389.664 L3647.13 389.664 L3647.13 363.739 L3651.42 363.739 L3651.42 367.766 Q3652.76 365.405 3654.91 364.271 Q3657.06 363.114 3660.14 363.114 Q3660.58 363.114 3661.11 363.183 Q3661.65 363.229 3662.3 363.345 L3662.32 367.72 Z" fill="#000000" fill-rule="nonzero" fill-opacity="1" /><path clip-path="url(#clip800)" d="M3666.35 379.433 L3666.35 363.739 L3670.61 363.739 L3670.61 379.271 Q3670.61 382.951 3672.04 384.803 Q3673.48 386.632 3676.35 386.632 Q3679.8 386.632 3681.79 384.433 Q3683.8 382.234 3683.8 378.438 L3683.8 363.739 L3688.06 363.739 L3688.06 389.664 L3683.8 389.664 L3683.8 385.683 Q3682.25 388.044 3680.19 389.201 Q3678.15 390.336 3675.44 390.336 Q3670.98 390.336 3668.66 387.558 Q3666.35 384.78 3666.35 379.433 M3677.06 363.114 L3677.06 363.114 Z" fill="#000000" fill-rule="nonzero" fill-opacity="1" /><path clip-path="url(#clip800)" d="M3701.05 356.378 L3701.05 363.739 L3709.82 363.739 L3709.82 367.049 L3701.05 367.049 L3701.05 381.123 Q3701.05 384.294 3701.9 385.197 Q3702.78 386.1 3705.44 386.1 L3709.82 386.1 L3709.82 389.664 L3705.44 389.664 Q3700.51 389.664 3698.64 387.836 Q3696.76 385.984 3696.76 381.123 L3696.76 367.049 L3693.64 367.049 L3693.64 363.739 L3696.76 363.739 L3696.76 356.378 L3701.05 356.378 Z" fill="#000000" fill-rule="nonzero" fill-opacity="1" /><path clip-path="url(#clip800)" d="M3736.97 374.016 L3736.97 389.664 L3732.71 389.664 L3732.71 374.155 Q3732.71 370.475 3731.28 368.646 Q3729.84 366.817 3726.97 366.817 Q3723.52 366.817 3721.53 369.016 Q3719.54 371.215 3719.54 375.012 L3719.54 389.664 L3715.26 389.664 L3715.26 353.646 L3719.54 353.646 L3719.54 367.766 Q3721.07 365.428 3723.13 364.271 Q3725.21 363.114 3727.92 363.114 Q3732.39 363.114 3734.68 365.891 Q3736.97 368.646 3736.97 374.016 Z" fill="#000000" fill-rule="nonzero" fill-opacity="1" /><polyline clip-path="url(#clip800)" style="stroke:#ff0000; stroke-linecap:round; stroke-linejoin:round; stroke-width:8; stroke-opacity:0.7; fill:none" stroke-dasharray="4, 8" points="3148.23,424.224 3393.22,424.224 "/>
<path clip-path="url(#clip800)" d="M3434.06 406.944 L3440.35 406.944 L3455.68 435.856 L3455.68 406.944 L3460.21 406.944 L3460.21 441.504 L3453.92 441.504 L3438.59 412.592 L3438.59 441.504 L3434.06 441.504 L3434.06 406.944 Z" fill="#000000" fill-rule="nonzero" fill-opacity="1" /><path clip-path="url(#clip800)" d="M3491.51 427.477 L3491.51 429.56 L3471.93 429.56 Q3472.2 433.958 3474.56 436.273 Q3476.95 438.565 3481.19 438.565 Q3483.64 438.565 3485.93 437.963 Q3488.25 437.361 3490.51 436.157 L3490.51 440.185 Q3488.22 441.157 3485.81 441.666 Q3483.41 442.176 3480.93 442.176 Q3474.73 442.176 3471.09 438.565 Q3467.48 434.953 3467.48 428.796 Q3467.48 422.43 3470.91 418.704 Q3474.36 414.954 3480.19 414.954 Q3485.42 414.954 3488.45 418.333 Q3491.51 421.69 3491.51 427.477 M3487.25 426.227 Q3487.2 422.731 3485.28 420.648 Q3483.38 418.565 3480.24 418.565 Q3476.67 418.565 3474.52 420.579 Q3472.39 422.592 3472.06 426.25 L3487.25 426.227 Z" fill="#000000" fill-rule="nonzero" fill-opacity="1" /><path clip-path="url(#clip800)" d="M3510.28 428.472 Q3505.12 428.472 3503.13 429.653 Q3501.14 430.833 3501.14 433.68 Q3501.14 435.949 3502.62 437.291 Q3504.12 438.611 3506.69 438.611 Q3510.24 438.611 3512.37 436.111 Q3514.52 433.588 3514.52 429.421 L3514.52 428.472 L3510.28 428.472 M3518.78 426.713 L3518.78 441.504 L3514.52 441.504 L3514.52 437.569 Q3513.06 439.93 3510.88 441.065 Q3508.71 442.176 3505.56 442.176 Q3501.58 442.176 3499.22 439.953 Q3496.88 437.708 3496.88 433.958 Q3496.88 429.583 3499.8 427.361 Q3502.74 425.139 3508.55 425.139 L3514.52 425.139 L3514.52 424.722 Q3514.52 421.782 3512.57 420.185 Q3510.65 418.565 3507.16 418.565 Q3504.94 418.565 3502.83 419.097 Q3500.72 419.629 3498.78 420.694 L3498.78 416.759 Q3501.12 415.856 3503.31 415.417 Q3505.51 414.954 3507.6 414.954 Q3513.22 414.954 3516 417.87 Q3518.78 420.787 3518.78 426.713 Z" fill="#000000" fill-rule="nonzero" fill-opacity="1" /><path clip-path="url(#clip800)" d="M3542.57 419.56 Q3541.86 419.143 3541 418.958 Q3540.17 418.75 3539.15 418.75 Q3535.54 418.75 3533.59 421.111 Q3531.67 423.449 3531.67 427.847 L3531.67 441.504 L3527.39 441.504 L3527.39 415.579 L3531.67 415.579 L3531.67 419.606 Q3533.01 417.245 3535.17 416.111 Q3537.32 414.954 3540.4 414.954 Q3540.84 414.954 3541.37 415.023 Q3541.9 415.069 3542.55 415.185 L3542.57 419.56 Z" fill="#000000" fill-rule="nonzero" fill-opacity="1" /><path clip-path="url(#clip800)" d="M3568.18 427.477 L3568.18 429.56 L3548.59 429.56 Q3548.87 433.958 3551.23 436.273 Q3553.62 438.565 3557.85 438.565 Q3560.31 438.565 3562.6 437.963 Q3564.91 437.361 3567.18 436.157 L3567.18 440.185 Q3564.89 441.157 3562.48 441.666 Q3560.07 442.176 3557.6 442.176 Q3551.39 442.176 3547.76 438.565 Q3544.15 434.953 3544.15 428.796 Q3544.15 422.43 3547.57 418.704 Q3551.02 414.954 3556.86 414.954 Q3562.09 414.954 3565.12 418.333 Q3568.18 421.69 3568.18 427.477 M3563.92 426.227 Q3563.87 422.731 3561.95 420.648 Q3560.05 418.565 3556.9 418.565 Q3553.34 418.565 3551.18 420.579 Q3549.06 422.592 3548.73 426.25 L3563.92 426.227 Z" fill="#000000" fill-rule="nonzero" fill-opacity="1" /><path clip-path="url(#clip800)" d="M3591.69 416.342 L3591.69 420.37 Q3589.89 419.444 3587.94 418.981 Q3586 418.518 3583.92 418.518 Q3580.74 418.518 3579.15 419.491 Q3577.57 420.463 3577.57 422.407 Q3577.57 423.889 3578.71 424.745 Q3579.84 425.579 3583.27 426.342 L3584.73 426.666 Q3589.26 427.639 3591.16 429.421 Q3593.08 431.18 3593.08 434.352 Q3593.08 437.963 3590.21 440.069 Q3587.37 442.176 3582.37 442.176 Q3580.28 442.176 3578.01 441.759 Q3575.77 441.365 3573.27 440.555 L3573.27 436.157 Q3575.63 437.384 3577.92 438.009 Q3580.21 438.611 3582.46 438.611 Q3585.47 438.611 3587.09 437.592 Q3588.71 436.551 3588.71 434.676 Q3588.71 432.94 3587.53 432.014 Q3586.37 431.088 3582.41 430.231 L3580.93 429.884 Q3576.97 429.051 3575.21 427.338 Q3573.45 425.602 3573.45 422.592 Q3573.45 418.935 3576.05 416.944 Q3578.64 414.954 3583.41 414.954 Q3585.77 414.954 3587.85 415.301 Q3589.93 415.648 3591.69 416.342 Z" fill="#000000" fill-rule="nonzero" fill-opacity="1" /><path clip-path="url(#clip800)" d="M3604.08 408.218 L3604.08 415.579 L3612.85 415.579 L3612.85 418.889 L3604.08 418.889 L3604.08 432.963 Q3604.08 436.134 3604.93 437.037 Q3605.81 437.94 3608.48 437.94 L3612.85 437.94 L3612.85 441.504 L3608.48 441.504 Q3603.55 441.504 3601.67 439.676 Q3599.8 437.824 3599.8 432.963 L3599.8 418.889 L3596.67 418.889 L3596.67 415.579 L3599.8 415.579 L3599.8 408.218 L3604.08 408.218 Z" fill="#000000" fill-rule="nonzero" fill-opacity="1" /><path clip-path="url(#clip800)" d="M3628.92 406.944 L3658.15 406.944 L3658.15 410.88 L3645.88 410.88 L3645.88 441.504 L3641.18 441.504 L3641.18 410.88 L3628.92 410.88 L3628.92 406.944 Z" fill="#000000" fill-rule="nonzero" fill-opacity="1" /><path clip-path="url(#clip800)" d="M3670.54 419.56 Q3669.82 419.143 3668.96 418.958 Q3668.13 418.75 3667.11 418.75 Q3663.5 418.75 3661.55 421.111 Q3659.63 423.449 3659.63 427.847 L3659.63 441.504 L3655.35 441.504 L3655.35 415.579 L3659.63 415.579 L3659.63 419.606 Q3660.98 417.245 3663.13 416.111 Q3665.28 414.954 3668.36 414.954 Q3668.8 414.954 3669.33 415.023 Q3669.86 415.069 3670.51 415.185 L3670.54 419.56 Z" fill="#000000" fill-rule="nonzero" fill-opacity="1" /><path clip-path="url(#clip800)" d="M3686.79 428.472 Q3681.62 428.472 3679.63 429.653 Q3677.64 430.833 3677.64 433.68 Q3677.64 435.949 3679.12 437.291 Q3680.63 438.611 3683.2 438.611 Q3686.74 438.611 3688.87 436.111 Q3691.02 433.588 3691.02 429.421 L3691.02 428.472 L3686.79 428.472 M3695.28 426.713 L3695.28 441.504 L3691.02 441.504 L3691.02 437.569 Q3689.56 439.93 3687.39 441.065 Q3685.21 442.176 3682.06 442.176 Q3678.08 442.176 3675.72 439.953 Q3673.38 437.708 3673.38 433.958 Q3673.38 429.583 3676.3 427.361 Q3679.24 425.139 3685.05 425.139 L3691.02 425.139 L3691.02 424.722 Q3691.02 421.782 3689.08 420.185 Q3687.16 418.565 3683.66 418.565 Q3681.44 418.565 3679.33 419.097 Q3677.23 419.629 3675.28 420.694 L3675.28 416.759 Q3677.62 415.856 3679.82 415.417 Q3682.02 414.954 3684.1 414.954 Q3689.73 414.954 3692.5 417.87 Q3695.28 420.787 3695.28 426.713 Z" fill="#000000" fill-rule="nonzero" fill-opacity="1" /><path clip-path="url(#clip800)" d="M3704.05 415.579 L3708.31 415.579 L3708.31 441.504 L3704.05 441.504 L3704.05 415.579 M3704.05 405.486 L3708.31 405.486 L3708.31 410.88 L3704.05 410.88 L3704.05 405.486 Z" fill="#000000" fill-rule="nonzero" fill-opacity="1" /><path clip-path="url(#clip800)" d="M3738.78 425.856 L3738.78 441.504 L3734.52 441.504 L3734.52 425.995 Q3734.52 422.315 3733.08 420.486 Q3731.65 418.657 3728.78 418.657 Q3725.33 418.657 3723.34 420.856 Q3721.35 423.055 3721.35 426.852 L3721.35 441.504 L3717.06 441.504 L3717.06 415.579 L3721.35 415.579 L3721.35 419.606 Q3722.87 417.268 3724.93 416.111 Q3727.02 414.954 3729.73 414.954 Q3734.19 414.954 3736.48 417.731 Q3738.78 420.486 3738.78 425.856 Z" fill="#000000" fill-rule="nonzero" fill-opacity="1" /><path clip-path="url(#clip800)" d="M3767.2 410.787 L3767.2 437.662 L3772.85 437.662 Q3780 437.662 3783.31 434.421 Q3786.65 431.18 3786.65 424.19 Q3786.65 417.245 3783.31 414.028 Q3780 410.787 3772.85 410.787 L3767.2 410.787 M3762.53 406.944 L3772.13 406.944 Q3782.18 406.944 3786.88 411.134 Q3791.58 415.301 3791.58 424.19 Q3791.58 433.125 3786.85 437.315 Q3782.13 441.504 3772.13 441.504 L3762.53 441.504 L3762.53 406.944 Z" fill="#000000" fill-rule="nonzero" fill-opacity="1" /><path clip-path="url(#clip800)" d="M3810.63 428.472 Q3805.47 428.472 3803.48 429.653 Q3801.48 430.833 3801.48 433.68 Q3801.48 435.949 3802.97 437.291 Q3804.47 438.611 3807.04 438.611 Q3810.58 438.611 3812.71 436.111 Q3814.86 433.588 3814.86 429.421 L3814.86 428.472 L3810.63 428.472 M3819.12 426.713 L3819.12 441.504 L3814.86 441.504 L3814.86 437.569 Q3813.41 439.93 3811.23 441.065 Q3809.05 442.176 3805.91 442.176 Q3801.92 442.176 3799.56 439.953 Q3797.23 437.708 3797.23 433.958 Q3797.23 429.583 3800.14 427.361 Q3803.08 425.139 3808.89 425.139 L3814.86 425.139 L3814.86 424.722 Q3814.86 421.782 3812.92 420.185 Q3811 418.565 3807.5 418.565 Q3805.28 418.565 3803.17 419.097 Q3801.07 419.629 3799.12 420.694 L3799.12 416.759 Q3801.46 415.856 3803.66 415.417 Q3805.86 414.954 3807.94 414.954 Q3813.57 414.954 3816.35 417.87 Q3819.12 420.787 3819.12 426.713 Z" fill="#000000" fill-rule="nonzero" fill-opacity="1" /><path clip-path="url(#clip800)" d="M3832.11 408.218 L3832.11 415.579 L3840.88 415.579 L3840.88 418.889 L3832.11 418.889 L3832.11 432.963 Q3832.11 436.134 3832.97 437.037 Q3833.85 437.94 3836.51 437.94 L3840.88 437.94 L3840.88 441.504 L3836.51 441.504 Q3831.58 441.504 3829.7 439.676 Q3827.83 437.824 3827.83 432.963 L3827.83 418.889 L3824.7 418.889 L3824.7 415.579 L3827.83 415.579 L3827.83 408.218 L3832.11 408.218 Z" fill="#000000" fill-rule="nonzero" fill-opacity="1" /><path clip-path="url(#clip800)" d="M3858.27 428.472 Q3853.1 428.472 3851.11 429.653 Q3849.12 430.833 3849.12 433.68 Q3849.12 435.949 3850.6 437.291 Q3852.11 438.611 3854.68 438.611 Q3858.22 438.611 3860.35 436.111 Q3862.5 433.588 3862.5 429.421 L3862.5 428.472 L3858.27 428.472 M3866.76 426.713 L3866.76 441.504 L3862.5 441.504 L3862.5 437.569 Q3861.04 439.93 3858.87 441.065 Q3856.69 442.176 3853.54 442.176 Q3849.56 442.176 3847.2 439.953 Q3844.86 437.708 3844.86 433.958 Q3844.86 429.583 3847.78 427.361 Q3850.72 425.139 3856.53 425.139 L3862.5 425.139 L3862.5 424.722 Q3862.5 421.782 3860.56 420.185 Q3858.64 418.565 3855.14 418.565 Q3852.92 418.565 3850.81 419.097 Q3848.71 419.629 3846.76 420.694 L3846.76 416.759 Q3849.1 415.856 3851.3 415.417 Q3853.5 414.954 3855.58 414.954 Q3861.21 414.954 3863.98 417.87 Q3866.76 420.787 3866.76 426.713 Z" fill="#000000" fill-rule="nonzero" fill-opacity="1" /><path clip-path="url(#clip800)" d="M3892.02 437.569 L3899.66 437.569 L3899.66 411.204 L3891.35 412.87 L3891.35 408.611 L3899.61 406.944 L3904.28 406.944 L3904.28 437.569 L3911.92 437.569 L3911.92 441.504 L3892.02 441.504 L3892.02 437.569 Z" fill="#000000" fill-rule="nonzero" fill-opacity="1" /></svg>
