<?xml version="1.0" encoding="UTF-8" standalone="no"?>
<svg
   width="373.35092"
   height="47.843842"
   viewBox="0 0 1493.4037 191.37537"
   version="1.1"
   id="svg15122"
   xmlns="http://www.w3.org/2000/svg"
   xmlns:svg="http://www.w3.org/2000/svg">
  <defs
     id="defs1">
    <clipPath
       id="clip120">
      <rect
         x="0"
         y="0"
         width="4800"
         height="2000"
         id="rect1" />
    </clipPath>
  </defs>
  <path
     clip-path="url(#clip120)"
     d="M 0,2000 H 4800 V 0 H 0 Z"
     fill="#ffffff"
     fill-rule="evenodd"
     fill-opacity="1"
     id="path1"
     transform="translate(-1806.3615,-40.793273)" />
  <defs
     id="defs2" />
  <defs
     id="defs3" />
  <path
     clip-path="url(#clip120)"
     d="M 1202.81,228.684 H 3918.66 V 47.2441 H 1202.81 Z"
     fill="#000000"
     fill-rule="evenodd"
     fill-opacity="0"
     id="path15103"
     transform="translate(-1806.3615,-40.793273)" />
  <g
     id="g15125"
     transform="translate(-1806.3615,-40.793273)">
    <circle
       clip-path="url(#clip120)"
       cx="1387.86"
       cy="137.964"
       r="40.32"
       fill="#009af9"
       fill-rule="evenodd"
       fill-opacity="1"
       stroke="none"
       id="circle15104"
       transform="translate(519.23077)" />
    <path
       clip-path="url(#clip120)"
       d="m 1572.91,168.204 v -2.723 q 3.2,0 5.23,-0.606 2.03,-0.648 2.77,-1.815 0.77,-1.211 0.95,-1.989 0.17,-0.821 0.17,-2.162 v -44.268 q 0,-2.551 -1.12,-3.329 -1.09,-0.821 -5.88,-0.821 h -2.12 v -2.767 h 14.96 q 1.6,0 2.03,0.303 0.43,0.259 1.08,1.642 l 19.19,49.586 19.37,-49.845 q 0.43,-1.254 0.82,-1.47 0.43,-0.216 2.12,-0.216 h 14.96 v 2.767 h -2.12 q -4.8,0 -5.92,0.821 -1.08,0.778 -1.08,3.329 v 46.646 q 0,2.551 1.08,3.372 1.12,0.822 5.92,0.822 h 2.12 v 2.723 q -3.29,-0.259 -12.67,-0.259 -9.47,0 -12.75,0.259 v -2.723 h 2.16 q 4.8,0 5.88,-0.779 1.08,-0.821 1.08,-3.415 v -50.796 h -0.09 l -21.74,56.027 q -0.61,1.686 -1.6,1.686 -1.08,0 -1.77,-1.945 l -21.36,-55.076 h -0.09 v 47.726 q 0,1.341 0.18,2.162 0.17,0.778 0.9,1.989 0.78,1.167 2.81,1.815 2.04,0.606 5.24,0.606 v 2.723 q -9.3,-0.259 -10.38,-0.259 -1.04,0 -10.33,0.259 z"
       fill="#000000"
       fill-rule="nonzero"
       fill-opacity="1"
       id="path15104"
       transform="translate(411.05769)" />
    <path
       clip-path="url(#clip120)"
       d="m 1653.79,168.204 v -2.723 h 2.12 q 4.8,0 5.88,-0.779 1.12,-0.821 1.12,-3.415 v -46.646 q 0,-2.551 -1.12,-3.329 -1.12,-0.821 -5.88,-0.821 h -2.12 v -2.767 h 31.26 q 8.95,0 14.91,4.928 5.97,4.929 5.97,11.543 0,6.571 -6.1,11.327 -6.05,4.712 -14.09,4.712 h -14.96 v 21.053 q 0,2.551 1.08,3.372 1.13,0.822 5.93,0.822 h 2.11 v 2.723 q -3.11,-0.259 -13.09,-0.259 -9.9,0 -13.02,0.259 m 16.73,-30.262 h 12.19 q 3.98,0 6.88,-1.124 2.89,-1.124 4.19,-2.464 1.34,-1.383 2.08,-3.588 0.77,-2.248 0.86,-3.458 0.09,-1.254 0.09,-3.113 0,-1.945 -0.09,-3.156 -0.09,-1.253 -0.86,-3.458 -0.74,-2.248 -2.08,-3.588 -1.3,-1.384 -4.19,-2.421 -2.86,-1.081 -6.88,-1.081 h -7.86 q -3.03,0 -3.68,0.605 -0.65,0.605 -0.65,2.94 z"
       fill="#000000"
       fill-rule="nonzero"
       fill-opacity="1"
       id="path15105"
       transform="translate(411.05769)" />
    <path
       clip-path="url(#clip120)"
       d="m 1715.83,168.031 v -17.724 q 0,-0.995 0.04,-1.341 0.05,-0.345 0.31,-0.605 0.25,-0.259 0.77,-0.259 1,0 1.08,0.908 0.26,8.775 5.49,13.617 5.15,4.799 13.97,4.799 5.32,0 8.6,-3.804 3.29,-3.848 3.29,-8.863 0,-4.798 -2.77,-8.17 -1.17,-1.513 -2.64,-2.465 -1.42,-0.994 -2.33,-1.296 -0.87,-0.303 -2.55,-0.735 -10.98,-2.637 -11.67,-2.94 -5.24,-1.773 -8.43,-6.225 -3.16,-4.496 -3.16,-9.987 0,-7.09 4.97,-12.104 5.02,-5.058 12.28,-5.058 3.63,0 6.66,1.167 3.07,1.124 4.32,2.161 1.25,1.038 3.2,2.897 l 3.07,-5.058 q 0.69,-1.167 1.34,-1.167 0.69,0 0.82,0.432 0.17,0.389 0.17,1.686 v 17.811 q 0,0.994 -0.04,1.34 -0.04,0.346 -0.35,0.562 -0.26,0.216 -0.78,0.216 -0.86,0 -1.08,-1.037 -2.46,-18.503 -17.25,-18.503 -5.05,0 -8.38,3.415 -3.29,3.372 -3.29,8.171 0,3.891 2.42,7.09 2.42,3.156 6.53,4.15 l 11.33,2.724 q 5.66,1.34 9.47,6.354 3.8,5.015 3.8,11.543 0,7.522 -4.93,12.969 -4.88,5.447 -12.54,5.447 -5.49,0 -9.72,-1.815 -4.24,-1.816 -6.53,-4.367 -1.77,2.94 -2.94,4.583 l -0.26,0.432 q -0.69,1.167 -1.34,1.167 -0.69,0 -0.82,-0.432 -0.13,-0.432 -0.13,-1.686 z"
       fill="#000000"
       fill-rule="nonzero"
       fill-opacity="1"
       id="path15106"
       transform="translate(411.05769)" />
  </g>
  <g
     id="g15124"
     transform="translate(-1801.7172,-40.793273)">
    <g
       id="g15123">
      <circle
         clip-path="url(#clip120)"
         cx="2277.72"
         cy="137.964"
         r="40.32"
         fill="#e26f46"
         fill-rule="evenodd"
         fill-opacity="1"
         stroke="none"
         id="circle15106" />
      <path
         clip-path="url(#clip120)"
         d="M 2462.77,117.667 V 114.9 q 10.63,0 16.12,-5.663 1.52,0 1.78,0.346 0.26,0.346 0.26,1.945 v 49.673 q 0,2.637 1.29,3.458 1.3,0.822 6.96,0.822 h 2.81 v 2.723 q -3.11,-0.259 -14.35,-0.259 -11.24,0 -14.31,0.259 v -2.723 h 2.81 q 5.58,0 6.92,-0.779 1.34,-0.821 1.34,-3.501 v -45.868 q -4.63,2.334 -11.63,2.334 z"
         fill="#000000"
         fill-rule="nonzero"
         fill-opacity="1"
         id="path15107"
         transform="translate(-129.80769)" />
      <path
         clip-path="url(#clip120)"
         d="m 2500.03,151.733 v -5.231 h 23.56 v 5.231 z"
         fill="#000000"
         fill-rule="nonzero"
         fill-opacity="1"
         id="path15108"
         transform="translate(-129.80769)" />
      <path
         clip-path="url(#clip120)"
         d="m 2531.55,168.204 v -2.723 q 3.2,0 5.23,-0.606 2.03,-0.648 2.77,-1.815 0.73,-1.211 0.9,-1.989 0.22,-0.821 0.22,-2.162 v -46.213 q 0,-1.254 -0.35,-1.557 -0.3,-0.302 -1.81,-0.475 -2.64,-0.173 -4.41,-0.173 h -2.55 v -2.767 h 15.04 q 1.26,0 1.6,0.173 0.35,0.173 0.95,0.994 l 31.26,45.955 v -37.827 q 0,-1.34 -0.17,-2.119 -0.18,-0.778 -0.95,-1.988 -0.74,-1.211 -2.77,-1.816 -2.03,-0.605 -5.23,-0.605 v -2.767 q 9.29,0.259 10.33,0.259 1.08,0 10.38,-0.259 v 2.767 q -3.2,0 -5.24,0.605 -2.03,0.605 -2.76,1.816 -0.74,1.21 -0.95,2.032 -0.18,0.778 -0.18,2.075 v 48.894 q 0,1.426 -0.17,1.859 -0.17,0.432 -1.04,0.432 -0.6,0 -1.51,-1.167 L 2544,113.949 q -0.35,-0.518 -0.87,-1.08 v 46.04 q 0,1.341 0.18,2.162 0.17,0.778 0.91,1.989 0.77,1.167 2.81,1.815 2.03,0.606 5.23,0.606 v 2.723 q -9.3,-0.259 -10.38,-0.259 -1.04,0 -10.33,0.259 z"
         fill="#000000"
         fill-rule="nonzero"
         fill-opacity="1"
         id="path15109"
         transform="translate(-129.80769)" />
      <path
         clip-path="url(#clip120)"
         d="m 2597.95,168.204 v -2.723 q 3.2,0 5.23,-0.606 2.03,-0.648 2.77,-1.815 0.73,-1.211 0.91,-1.989 0.21,-0.821 0.21,-2.162 v -46.213 q 0,-1.254 -0.34,-1.557 -0.31,-0.302 -1.82,-0.475 -2.64,-0.173 -4.41,-0.173 h -2.55 v -2.767 H 2613 q 1.25,0 1.59,0.173 0.35,0.173 0.96,0.994 l 31.25,45.955 v -37.827 q 0,-1.34 -0.17,-2.119 -0.17,-0.778 -0.95,-1.988 -0.74,-1.211 -2.77,-1.816 -2.03,-0.605 -5.23,-0.605 v -2.767 q 9.29,0.259 10.33,0.259 1.08,0 10.38,-0.259 v 2.767 q -3.2,0 -5.23,0.605 -2.03,0.605 -2.77,1.816 -0.73,1.21 -0.95,2.032 -0.17,0.778 -0.17,2.075 v 48.894 q 0,1.426 -0.18,1.859 -0.17,0.432 -1.03,0.432 -0.61,0 -1.52,-1.167 l -36.14,-53.088 q -0.34,-0.518 -0.86,-1.08 v 46.04 q 0,1.341 0.17,2.162 0.17,0.778 0.91,1.989 0.78,1.167 2.81,1.815 2.03,0.606 5.23,0.606 v 2.723 q -9.3,-0.259 -10.38,-0.259 -1.03,0 -10.33,0.259 z"
         fill="#000000"
         fill-rule="nonzero"
         fill-opacity="1"
         id="path15110"
         transform="translate(-129.80769)" />
      <path
         clip-path="url(#clip120)"
         d="m 2663.88,168.204 v -2.723 h 2.33 q 4.97,0 6.1,-0.779 1.17,-0.821 1.17,-3.415 v -46.646 q 0,-2.551 -1.17,-3.329 -1.17,-0.821 -6.1,-0.821 h -2.33 v -2.767 q 3.11,0.259 13.57,0.259 10.38,0 13.45,-0.259 v 2.767 h -2.29 q -4.98,0 -6.14,0.821 -1.13,0.778 -1.13,3.329 v 46.646 q 0,2.551 1.13,3.372 1.16,0.822 6.14,0.822 h 2.29 v 2.723 q -3.12,-0.259 -13.53,-0.259 -10.38,0 -13.49,0.259 z"
         fill="#000000"
         fill-rule="nonzero"
         fill-opacity="1"
         id="path15111"
         transform="translate(-129.80769)" />
    </g>
  </g>
  <g
     id="g15122"
     transform="translate(-1806.3615,-40.793273)">
    <circle
       clip-path="url(#clip120)"
       cx="3167.5801"
       cy="137.964"
       r="40.32"
       fill="#3da44d"
       fill-rule="evenodd"
       fill-opacity="1"
       stroke="none"
       id="circle15111"
       transform="translate(-485.57692)" />
    <path
       clip-path="url(#clip120)"
       d="m 3361.71,160.768 q -9.08,-9.381 -9.08,-22.826 0,-13.488 9.16,-22.825 9.17,-9.338 21.62,-9.338 3.11,0 5.75,0.735 2.68,0.691 4.8,2.118 2.12,1.383 3.2,2.334 1.12,0.908 2.63,2.421 l 4.46,-6.528 q 0.69,-1.08 1.38,-1.08 0.73,0 0.86,0.432 0.13,0.389 0.13,1.686 v 21.01 q 0,1.427 -0.17,1.773 -0.17,0.346 -1.25,0.346 -0.87,0 -1.04,-0.26 -0.17,-0.259 -0.39,-1.254 -1.34,-9.554 -6.7,-15.26 -5.32,-5.707 -12.58,-5.707 -2.12,0 -4.5,0.476 -2.33,0.476 -5.79,2.291 -3.41,1.816 -6.05,4.799 -2.6,2.94 -4.5,8.646 -1.9,5.663 -1.9,13.185 0,7.436 1.9,13.143 1.9,5.706 4.54,8.689 2.68,2.94 6.14,4.799 3.5,1.859 5.97,2.377 2.5,0.476 4.71,0.476 1.51,0 3.28,-0.303 1.78,-0.346 4.41,-1.297 2.68,-0.994 4.37,-3.328 1.69,-2.335 1.69,-5.793 v -5.664 q 0,-2.637 -1.3,-3.458 -1.3,-0.821 -6.96,-0.821 h -2.81 v -2.724 q 3.2,0.259 14.22,0.259 1,0 10.81,-0.259 v 2.724 q -4.24,0 -5.19,0.648 -0.91,0.605 -0.91,3.242 v 15.434 q 0,2.032 -0.77,2.032 -0.7,0 -2.77,-1.989 -2.03,-1.989 -2.94,-3.502 -2.12,3.718 -6.75,5.62 -4.58,1.902 -9.81,1.902 -12.75,0 -21.87,-9.381 z"
       fill="#000000"
       fill-rule="nonzero"
       fill-opacity="1"
       id="path15112"
       transform="translate(-608.17307)" />
    <path
       clip-path="url(#clip120)"
       d="m 3419.51,168.204 v -2.723 q 4.71,0 5.79,-0.562 1.12,-0.606 1.12,-3.459 v -23.734 q 0,-3.285 -1.16,-4.107 -1.13,-0.821 -5.75,-0.821 v -2.767 l 12.32,-0.951 v 9.727 q 1.25,-3.804 3.89,-6.744 2.68,-2.983 7,-2.983 2.85,0 4.67,1.6 1.86,1.599 1.86,3.804 0,1.945 -1.21,2.94 -1.17,0.951 -2.6,0.951 -1.59,0 -2.72,-0.995 -1.08,-1.037 -1.08,-2.81 0,-1.08 0.48,-1.902 0.51,-0.864 0.9,-1.167 0.39,-0.303 0.65,-0.389 -0.17,-0.086 -0.95,-0.086 -4.88,0 -7.69,4.885 -2.77,4.841 -2.77,11.758 v 13.618 q 0,2.551 1.04,3.372 1.08,0.822 5.7,0.822 h 1.86 v 2.723 q -3.54,-0.259 -11.24,-0.259 -1.08,0 -2.76,0.043 -1.69,0.043 -3.9,0.13 -2.2,0.086 -3.45,0.086 z"
       fill="#000000"
       fill-rule="nonzero"
       fill-opacity="1"
       id="path15113"
       transform="translate(-608.17307)" />
    <path
       clip-path="url(#clip120)"
       d="m 3459.93,163.449 q -5.84,-5.793 -5.84,-14.18 0,-8.43 5.71,-14.569 5.75,-6.182 13.96,-6.182 8.04,0 13.79,6.139 5.79,6.095 5.79,14.612 0,8.344 -5.83,14.136 -5.79,5.793 -13.84,5.793 -7.86,0 -13.74,-5.749 m 1.51,-14.915 q 0,8.603 2.25,12.494 3.46,5.922 10.07,5.922 3.29,0 6.01,-1.772 2.77,-1.773 4.28,-4.755 1.95,-3.891 1.95,-11.889 0,-8.516 -2.34,-12.278 -3.46,-5.749 -9.99,-5.749 -2.85,0 -5.66,1.513 -2.77,1.47 -4.45,4.409 -2.12,3.891 -2.12,12.105 z"
       fill="#000000"
       fill-rule="nonzero"
       fill-opacity="1"
       id="path15114"
       transform="translate(-608.17307)" />
    <path
       clip-path="url(#clip120)"
       d="m 3498.75,132.798 v -2.767 l 13.01,-0.951 v 29.397 q 0,2.118 0.17,3.372 0.18,1.211 0.87,2.637 0.73,1.427 2.38,2.075 1.68,0.649 4.36,0.649 4.8,0 7.74,-3.934 2.98,-3.934 2.98,-9.77 v -15.78 q 0,-3.285 -1.16,-4.107 -1.17,-0.821 -5.75,-0.821 v -2.767 l 13.01,-0.951 v 31.429 q 0,3.286 1.12,4.15 1.17,0.822 5.8,0.822 v 2.723 l -12.76,0.994 v -7.997 q -3.71,7.954 -11.41,7.997 -3.89,0 -6.57,-0.994 -2.64,-0.994 -3.98,-2.205 -1.34,-1.253 -2.07,-3.631 -0.69,-2.378 -0.78,-3.848 -0.09,-1.469 -0.09,-4.323 v -13.272 q 0,-6.009 -0.86,-7.046 -0.87,-1.081 -6.01,-1.081 z"
       fill="#000000"
       fill-rule="nonzero"
       fill-opacity="1"
       id="path15115"
       transform="translate(-608.17307)" />
    <path
       clip-path="url(#clip120)"
       d="m 3547.86,168.204 v -2.723 q 4.71,0 5.79,-0.562 1.08,-0.606 1.08,-3.459 v -23.734 q 0,-3.285 -1.16,-4.107 -1.13,-0.821 -5.71,-0.821 v -2.767 l 12.45,-0.951 v 9.295 q 4.15,-9.295 13.1,-9.295 6.66,0 9.29,3.286 1.95,2.204 2.34,4.669 0.43,2.464 0.43,8.862 V 162.8 q 0.09,1.859 1.51,2.291 1.43,0.39 5.41,0.39 v 2.723 q -9.04,-0.259 -9.95,-0.259 -0.69,0 -9.98,0.259 v -2.723 q 4.71,0 5.79,-0.562 1.12,-0.606 1.12,-3.459 v -20.621 q 0,-4.496 -1.38,-7.133 -1.38,-2.68 -5.19,-2.68 -4.58,0 -8.25,3.847 -3.68,3.848 -3.68,10.332 v 16.255 q 0,2.853 1.08,3.459 1.13,0.562 5.8,0.562 v 2.723 q -9.04,-0.259 -9.9,-0.259 -0.7,0 -9.99,0.259 z"
       fill="#000000"
       fill-rule="nonzero"
       fill-opacity="1"
       id="path15116"
       transform="translate(-608.17307)" />
    <path
       clip-path="url(#clip120)"
       d="m 3597.14,149.183 q 0,-8.431 5.88,-14.267 5.88,-5.836 13.84,-5.836 6.74,0 11.15,5.49 v -19.151 q 0,-3.285 -1.17,-4.107 -1.12,-0.821 -5.7,-0.821 v -2.767 l 12.75,-0.951 v 53.736 q 0,3.286 1.12,4.15 1.17,0.822 5.75,0.822 v 2.723 l -13.01,0.994 v -5.879 q -4.58,5.836 -11.85,5.879 -7.6,0 -13.18,-5.836 -5.58,-5.836 -5.58,-14.179 m 7.35,0.086 q 0,8.214 2.55,12.278 3.55,5.663 9.3,5.663 6.57,0 10.46,-6.182 0.99,-1.513 0.95,-3.286 v -18.157 q 0,-1.772 -0.95,-3.242 -3.63,-5.317 -9.56,-5.317 -6.18,0 -10.03,5.663 -2.72,4.236 -2.72,12.58 z"
       fill="#000000"
       fill-rule="nonzero"
       fill-opacity="1"
       id="path15117"
       transform="translate(-608.17307)" />
    <path
       clip-path="url(#clip120)"
       d="m 3674.35,132.798 v -1.945 q 4.07,-0.173 6.75,-3.027 2.72,-2.896 3.63,-6.441 0.95,-3.545 1.04,-7.652 h 2.2 v 16.298 h 12.67 v 2.767 h -12.67 v 24.598 q 0,9.554 5.97,9.554 2.55,0 4.23,-2.593 1.69,-2.638 1.69,-7.306 v -4.886 h 2.2 v 5.058 q 0,4.799 -2.2,8.387 -2.21,3.588 -6.57,3.588 -1.6,0 -3.2,-0.432 -1.56,-0.389 -3.63,-1.427 -2.03,-1.08 -3.33,-3.674 -1.26,-2.637 -1.26,-6.442 v -24.425 z"
       fill="#000000"
       fill-rule="nonzero"
       fill-opacity="1"
       id="path15118"
       transform="translate(-608.17307)" />
    <path
       clip-path="url(#clip120)"
       d="m 3709.46,168.204 v -2.723 q 4.71,0 5.79,-0.562 1.12,-0.606 1.12,-3.459 v -23.734 q 0,-3.285 -1.16,-4.107 -1.13,-0.821 -5.75,-0.821 v -2.767 l 12.32,-0.951 v 9.727 q 1.25,-3.804 3.89,-6.744 2.68,-2.983 7,-2.983 2.85,0 4.67,1.6 1.86,1.599 1.86,3.804 0,1.945 -1.21,2.94 -1.17,0.951 -2.6,0.951 -1.6,0 -2.72,-0.995 -1.08,-1.037 -1.08,-2.81 0,-1.08 0.48,-1.902 0.51,-0.864 0.9,-1.167 0.39,-0.303 0.65,-0.389 -0.17,-0.086 -0.95,-0.086 -4.88,0 -7.69,4.885 -2.77,4.841 -2.77,11.758 v 13.618 q 0,2.551 1.04,3.372 1.08,0.822 5.7,0.822 h 1.86 v 2.723 q -3.54,-0.259 -11.24,-0.259 -1.08,0 -2.76,0.043 -1.69,0.043 -3.9,0.13 -2.2,0.086 -3.45,0.086 z"
       fill="#000000"
       fill-rule="nonzero"
       fill-opacity="1"
       id="path15119"
       transform="translate(-608.17307)" />
    <path
       clip-path="url(#clip120)"
       d="m 3744.43,132.798 v -2.767 l 13.01,-0.951 v 29.397 q 0,2.118 0.18,3.372 0.17,1.211 0.86,2.637 0.73,1.427 2.38,2.075 1.68,0.649 4.36,0.649 4.8,0 7.74,-3.934 2.99,-3.934 2.99,-9.77 v -15.78 q 0,-3.285 -1.17,-4.107 -1.17,-0.821 -5.75,-0.821 v -2.767 l 13.01,-0.951 v 31.429 q 0,3.286 1.12,4.15 1.17,0.822 5.8,0.822 v 2.723 l -12.76,0.994 v -7.997 q -3.71,7.954 -11.41,7.997 -3.89,0 -6.57,-0.994 -2.64,-0.994 -3.98,-2.205 -1.34,-1.253 -2.07,-3.631 -0.69,-2.378 -0.78,-3.848 -0.09,-1.469 -0.09,-4.323 v -13.272 q 0,-6.009 -0.86,-7.046 -0.87,-1.081 -6.01,-1.081 z"
       fill="#000000"
       fill-rule="nonzero"
       fill-opacity="1"
       id="path15120"
       transform="translate(-608.17307)" />
    <path
       clip-path="url(#clip120)"
       d="m 3792.37,132.798 v -1.945 q 4.07,-0.173 6.75,-3.027 2.72,-2.896 3.63,-6.441 0.95,-3.545 1.04,-7.652 h 2.2 v 16.298 h 12.67 v 2.767 h -12.67 v 24.598 q 0,9.554 5.97,9.554 2.55,0 4.23,-2.593 1.69,-2.638 1.69,-7.306 v -4.886 h 2.2 v 5.058 q 0,4.799 -2.2,8.387 -2.21,3.588 -6.57,3.588 -1.6,0 -3.2,-0.432 -1.56,-0.389 -3.63,-1.427 -2.03,-1.08 -3.33,-3.674 -1.26,-2.637 -1.26,-6.442 v -24.425 z"
       fill="#000000"
       fill-rule="nonzero"
       fill-opacity="1"
       id="path15121"
       transform="translate(-608.17307)" />
    <path
       clip-path="url(#clip120)"
       d="m 3827.87,168.204 v -2.723 q 4.71,0 5.79,-0.562 1.08,-0.606 1.08,-3.459 v -46.041 q 0,-3.285 -1.17,-4.107 -1.12,-0.821 -5.7,-0.821 v -2.767 l 12.71,-0.951 v 30.78 h 0.08 q 1.43,-3.199 4.63,-5.836 3.2,-2.637 8.12,-2.637 6.66,0 9.3,3.286 1.94,2.204 2.33,4.669 0.44,2.464 0.44,8.862 V 162.8 q 0.08,1.859 1.51,2.291 1.43,0.39 5.4,0.39 v 2.723 q -9.03,-0.259 -9.94,-0.259 -0.69,0 -9.99,0.259 v -2.723 q 4.72,0 5.8,-0.562 1.12,-0.606 1.12,-3.459 v -20.621 q 0,-4.496 -1.38,-7.133 -1.39,-2.68 -5.19,-2.68 -4.58,0 -8.26,3.847 -3.67,3.848 -3.67,10.332 v 16.255 q 0,2.853 1.08,3.459 1.12,0.562 5.79,0.562 v 2.723 q -9.03,-0.259 -9.9,-0.259 -0.69,0 -9.98,0.259 z"
       fill="#000000"
       fill-rule="nonzero"
       fill-opacity="1"
       id="path15122"
       transform="translate(-608.17307)" />
  </g>
  <rect
     style="opacity:0.858051;fill:none;stroke:#000000;stroke-width:4.11469;stroke-dasharray:none;stroke-opacity:1"
     id="rect15125"
     width="1489.2889"
     height="187.26068"
     x="2.0573893"
     y="2.0573471"
     ry="13.92204" />
</svg>
