<?xml version="1.0" encoding="utf-8"?>
<svg xmlns="http://www.w3.org/2000/svg" xmlns:xlink="http://www.w3.org/1999/xlink" width="550" height="200" viewBox="0 0 2200 800">
<defs>
  <clipPath id="clip420">
    <rect x="0" y="0" width="2200" height="800"/>
  </clipPath>
</defs>
<path clip-path="url(#clip420)" d="M0 800 L2200 800 L2200 -2.22045e-14 L0 -2.22045e-14  Z" fill="#ffffff" fill-rule="evenodd" fill-opacity="1"/>
<defs>
  <clipPath id="clip421">
    <rect x="440" y="0" width="1541" height="800"/>
  </clipPath>
</defs>
<path clip-path="url(#clip420)" d="M154.112 710.157 L2152.76 710.157 L2152.76 47.2441 L154.112 47.2441  Z" fill="#ffffff" fill-rule="evenodd" fill-opacity="1"/>
<defs>
  <clipPath id="clip422">
    <rect x="154" y="47" width="2000" height="664"/>
  </clipPath>
</defs>
<polyline clip-path="url(#clip422)" style="stroke:#000000; stroke-linecap:round; stroke-linejoin:round; stroke-width:2; stroke-opacity:0.1; fill:none" points="293.937,710.157 293.937,47.2441 "/>
<polyline clip-path="url(#clip422)" style="stroke:#000000; stroke-linecap:round; stroke-linejoin:round; stroke-width:2; stroke-opacity:0.1; fill:none" points="368.676,710.157 368.676,47.2441 "/>
<polyline clip-path="url(#clip422)" style="stroke:#000000; stroke-linecap:round; stroke-linejoin:round; stroke-width:2; stroke-opacity:0.1; fill:none" points="443.414,710.157 443.414,47.2441 "/>
<polyline clip-path="url(#clip422)" style="stroke:#000000; stroke-linecap:round; stroke-linejoin:round; stroke-width:2; stroke-opacity:0.1; fill:none" points="518.153,710.157 518.153,47.2441 "/>
<polyline clip-path="url(#clip422)" style="stroke:#000000; stroke-linecap:round; stroke-linejoin:round; stroke-width:2; stroke-opacity:0.1; fill:none" points="592.892,710.157 592.892,47.2441 "/>
<polyline clip-path="url(#clip422)" style="stroke:#000000; stroke-linecap:round; stroke-linejoin:round; stroke-width:2; stroke-opacity:0.1; fill:none" points="667.631,710.157 667.631,47.2441 "/>
<polyline clip-path="url(#clip422)" style="stroke:#000000; stroke-linecap:round; stroke-linejoin:round; stroke-width:2; stroke-opacity:0.1; fill:none" points="742.37,710.157 742.37,47.2441 "/>
<polyline clip-path="url(#clip422)" style="stroke:#000000; stroke-linecap:round; stroke-linejoin:round; stroke-width:2; stroke-opacity:0.1; fill:none" points="817.109,710.157 817.109,47.2441 "/>
<polyline clip-path="url(#clip422)" style="stroke:#000000; stroke-linecap:round; stroke-linejoin:round; stroke-width:2; stroke-opacity:0.1; fill:none" points="891.848,710.157 891.848,47.2441 "/>
<polyline clip-path="url(#clip422)" style="stroke:#000000; stroke-linecap:round; stroke-linejoin:round; stroke-width:2; stroke-opacity:0.1; fill:none" points="966.587,710.157 966.587,47.2441 "/>
<polyline clip-path="url(#clip422)" style="stroke:#000000; stroke-linecap:round; stroke-linejoin:round; stroke-width:2; stroke-opacity:0.1; fill:none" points="1041.33,710.157 1041.33,47.2441 "/>
<polyline clip-path="url(#clip422)" style="stroke:#000000; stroke-linecap:round; stroke-linejoin:round; stroke-width:2; stroke-opacity:0.1; fill:none" points="1116.06,710.157 1116.06,47.2441 "/>
<polyline clip-path="url(#clip422)" style="stroke:#000000; stroke-linecap:round; stroke-linejoin:round; stroke-width:2; stroke-opacity:0.1; fill:none" points="1190.8,710.157 1190.8,47.2441 "/>
<polyline clip-path="url(#clip422)" style="stroke:#000000; stroke-linecap:round; stroke-linejoin:round; stroke-width:2; stroke-opacity:0.1; fill:none" points="1265.54,710.157 1265.54,47.2441 "/>
<polyline clip-path="url(#clip422)" style="stroke:#000000; stroke-linecap:round; stroke-linejoin:round; stroke-width:2; stroke-opacity:0.1; fill:none" points="1340.28,710.157 1340.28,47.2441 "/>
<polyline clip-path="url(#clip422)" style="stroke:#000000; stroke-linecap:round; stroke-linejoin:round; stroke-width:2; stroke-opacity:0.1; fill:none" points="1415.02,710.157 1415.02,47.2441 "/>
<polyline clip-path="url(#clip422)" style="stroke:#000000; stroke-linecap:round; stroke-linejoin:round; stroke-width:2; stroke-opacity:0.1; fill:none" points="1489.76,710.157 1489.76,47.2441 "/>
<polyline clip-path="url(#clip422)" style="stroke:#000000; stroke-linecap:round; stroke-linejoin:round; stroke-width:2; stroke-opacity:0.1; fill:none" points="1564.5,710.157 1564.5,47.2441 "/>
<polyline clip-path="url(#clip422)" style="stroke:#000000; stroke-linecap:round; stroke-linejoin:round; stroke-width:2; stroke-opacity:0.1; fill:none" points="1639.24,710.157 1639.24,47.2441 "/>
<polyline clip-path="url(#clip422)" style="stroke:#000000; stroke-linecap:round; stroke-linejoin:round; stroke-width:2; stroke-opacity:0.1; fill:none" points="1713.98,710.157 1713.98,47.2441 "/>
<polyline clip-path="url(#clip422)" style="stroke:#000000; stroke-linecap:round; stroke-linejoin:round; stroke-width:2; stroke-opacity:0.1; fill:none" points="1788.71,710.157 1788.71,47.2441 "/>
<polyline clip-path="url(#clip422)" style="stroke:#000000; stroke-linecap:round; stroke-linejoin:round; stroke-width:2; stroke-opacity:0.1; fill:none" points="1863.45,710.157 1863.45,47.2441 "/>
<polyline clip-path="url(#clip422)" style="stroke:#000000; stroke-linecap:round; stroke-linejoin:round; stroke-width:2; stroke-opacity:0.1; fill:none" points="1938.19,710.157 1938.19,47.2441 "/>
<polyline clip-path="url(#clip422)" style="stroke:#000000; stroke-linecap:round; stroke-linejoin:round; stroke-width:2; stroke-opacity:0.1; fill:none" points="2012.93,710.157 2012.93,47.2441 "/>
<polyline clip-path="url(#clip422)" style="stroke:#000000; stroke-linecap:round; stroke-linejoin:round; stroke-width:2; stroke-opacity:0.1; fill:none" points="154.112,710.157 2152.76,710.157 "/>
<polyline clip-path="url(#clip422)" style="stroke:#000000; stroke-linecap:round; stroke-linejoin:round; stroke-width:2; stroke-opacity:0.1; fill:none" points="154.112,438.67 2152.76,438.67 "/>
<polyline clip-path="url(#clip422)" style="stroke:#000000; stroke-linecap:round; stroke-linejoin:round; stroke-width:2; stroke-opacity:0.1; fill:none" points="154.112,167.184 2152.76,167.184 "/>
<polyline clip-path="url(#clip420)" style="stroke:#000000; stroke-linecap:round; stroke-linejoin:round; stroke-width:4; stroke-opacity:1; fill:none" points="154.112,710.157 2152.76,710.157 "/>
<polyline clip-path="url(#clip420)" style="stroke:#000000; stroke-linecap:round; stroke-linejoin:round; stroke-width:4; stroke-opacity:1; fill:none" points="293.937,710.157 293.937,691.259 "/>
<polyline clip-path="url(#clip420)" style="stroke:#000000; stroke-linecap:round; stroke-linejoin:round; stroke-width:4; stroke-opacity:1; fill:none" points="368.676,710.157 368.676,691.259 "/>
<polyline clip-path="url(#clip420)" style="stroke:#000000; stroke-linecap:round; stroke-linejoin:round; stroke-width:4; stroke-opacity:1; fill:none" points="443.414,710.157 443.414,691.259 "/>
<polyline clip-path="url(#clip420)" style="stroke:#000000; stroke-linecap:round; stroke-linejoin:round; stroke-width:4; stroke-opacity:1; fill:none" points="518.153,710.157 518.153,691.259 "/>
<polyline clip-path="url(#clip420)" style="stroke:#000000; stroke-linecap:round; stroke-linejoin:round; stroke-width:4; stroke-opacity:1; fill:none" points="592.892,710.157 592.892,691.259 "/>
<polyline clip-path="url(#clip420)" style="stroke:#000000; stroke-linecap:round; stroke-linejoin:round; stroke-width:4; stroke-opacity:1; fill:none" points="667.631,710.157 667.631,691.259 "/>
<polyline clip-path="url(#clip420)" style="stroke:#000000; stroke-linecap:round; stroke-linejoin:round; stroke-width:4; stroke-opacity:1; fill:none" points="742.37,710.157 742.37,691.259 "/>
<polyline clip-path="url(#clip420)" style="stroke:#000000; stroke-linecap:round; stroke-linejoin:round; stroke-width:4; stroke-opacity:1; fill:none" points="817.109,710.157 817.109,691.259 "/>
<polyline clip-path="url(#clip420)" style="stroke:#000000; stroke-linecap:round; stroke-linejoin:round; stroke-width:4; stroke-opacity:1; fill:none" points="891.848,710.157 891.848,691.259 "/>
<polyline clip-path="url(#clip420)" style="stroke:#000000; stroke-linecap:round; stroke-linejoin:round; stroke-width:4; stroke-opacity:1; fill:none" points="966.587,710.157 966.587,691.259 "/>
<polyline clip-path="url(#clip420)" style="stroke:#000000; stroke-linecap:round; stroke-linejoin:round; stroke-width:4; stroke-opacity:1; fill:none" points="1041.33,710.157 1041.33,691.259 "/>
<polyline clip-path="url(#clip420)" style="stroke:#000000; stroke-linecap:round; stroke-linejoin:round; stroke-width:4; stroke-opacity:1; fill:none" points="1116.06,710.157 1116.06,691.259 "/>
<polyline clip-path="url(#clip420)" style="stroke:#000000; stroke-linecap:round; stroke-linejoin:round; stroke-width:4; stroke-opacity:1; fill:none" points="1190.8,710.157 1190.8,691.259 "/>
<polyline clip-path="url(#clip420)" style="stroke:#000000; stroke-linecap:round; stroke-linejoin:round; stroke-width:4; stroke-opacity:1; fill:none" points="1265.54,710.157 1265.54,691.259 "/>
<polyline clip-path="url(#clip420)" style="stroke:#000000; stroke-linecap:round; stroke-linejoin:round; stroke-width:4; stroke-opacity:1; fill:none" points="1340.28,710.157 1340.28,691.259 "/>
<polyline clip-path="url(#clip420)" style="stroke:#000000; stroke-linecap:round; stroke-linejoin:round; stroke-width:4; stroke-opacity:1; fill:none" points="1415.02,710.157 1415.02,691.259 "/>
<polyline clip-path="url(#clip420)" style="stroke:#000000; stroke-linecap:round; stroke-linejoin:round; stroke-width:4; stroke-opacity:1; fill:none" points="1489.76,710.157 1489.76,691.259 "/>
<polyline clip-path="url(#clip420)" style="stroke:#000000; stroke-linecap:round; stroke-linejoin:round; stroke-width:4; stroke-opacity:1; fill:none" points="1564.5,710.157 1564.5,691.259 "/>
<polyline clip-path="url(#clip420)" style="stroke:#000000; stroke-linecap:round; stroke-linejoin:round; stroke-width:4; stroke-opacity:1; fill:none" points="1639.24,710.157 1639.24,691.259 "/>
<polyline clip-path="url(#clip420)" style="stroke:#000000; stroke-linecap:round; stroke-linejoin:round; stroke-width:4; stroke-opacity:1; fill:none" points="1713.98,710.157 1713.98,691.259 "/>
<polyline clip-path="url(#clip420)" style="stroke:#000000; stroke-linecap:round; stroke-linejoin:round; stroke-width:4; stroke-opacity:1; fill:none" points="1788.71,710.157 1788.71,691.259 "/>
<polyline clip-path="url(#clip420)" style="stroke:#000000; stroke-linecap:round; stroke-linejoin:round; stroke-width:4; stroke-opacity:1; fill:none" points="1863.45,710.157 1863.45,691.259 "/>
<polyline clip-path="url(#clip420)" style="stroke:#000000; stroke-linecap:round; stroke-linejoin:round; stroke-width:4; stroke-opacity:1; fill:none" points="1938.19,710.157 1938.19,691.259 "/>
<polyline clip-path="url(#clip420)" style="stroke:#000000; stroke-linecap:round; stroke-linejoin:round; stroke-width:4; stroke-opacity:1; fill:none" points="2012.93,710.157 2012.93,691.259 "/>
<path clip-path="url(#clip420)" d="M293.937 739.476 Q290.326 739.476 288.497 743.04 Q286.691 746.582 286.691 753.712 Q286.691 760.818 288.497 764.383 Q290.326 767.925 293.937 767.925 Q297.571 767.925 299.376 764.383 Q301.205 760.818 301.205 753.712 Q301.205 746.582 299.376 743.04 Q297.571 739.476 293.937 739.476 M293.937 735.772 Q299.747 735.772 302.802 740.378 Q305.881 744.962 305.881 753.712 Q305.881 762.438 302.802 767.045 Q299.747 771.628 293.937 771.628 Q288.126 771.628 285.048 767.045 Q281.992 762.438 281.992 753.712 Q281.992 744.962 285.048 740.378 Q288.126 735.772 293.937 735.772 Z" fill="#000000" fill-rule="nonzero" fill-opacity="1" /><path clip-path="url(#clip420)" d="M359.058 767.022 L366.696 767.022 L366.696 740.656 L358.386 742.323 L358.386 738.064 L366.65 736.397 L371.326 736.397 L371.326 767.022 L378.965 767.022 L378.965 770.957 L359.058 770.957 L359.058 767.022 Z" fill="#000000" fill-rule="nonzero" fill-opacity="1" /><path clip-path="url(#clip420)" d="M438.067 767.022 L454.387 767.022 L454.387 770.957 L432.442 770.957 L432.442 767.022 Q435.104 764.267 439.688 759.638 Q444.294 754.985 445.475 753.642 Q447.72 751.119 448.6 749.383 Q449.502 747.624 449.502 745.934 Q449.502 743.179 447.558 741.443 Q445.637 739.707 442.535 739.707 Q440.336 739.707 437.882 740.471 Q435.452 741.235 432.674 742.786 L432.674 738.064 Q435.498 736.929 437.952 736.351 Q440.405 735.772 442.442 735.772 Q447.813 735.772 451.007 738.457 Q454.201 741.142 454.201 745.633 Q454.201 747.763 453.391 749.684 Q452.604 751.582 450.498 754.175 Q449.919 754.846 446.817 758.064 Q443.715 761.258 438.067 767.022 Z" fill="#000000" fill-rule="nonzero" fill-opacity="1" /><path clip-path="url(#clip420)" d="M522.401 752.323 Q525.757 753.04 527.632 755.309 Q529.531 757.577 529.531 760.911 Q529.531 766.026 526.012 768.827 Q522.494 771.628 516.012 771.628 Q513.836 771.628 511.521 771.188 Q509.23 770.772 506.776 769.915 L506.776 765.401 Q508.721 766.536 511.035 767.114 Q513.35 767.693 515.873 767.693 Q520.271 767.693 522.563 765.957 Q524.878 764.221 524.878 760.911 Q524.878 757.855 522.725 756.142 Q520.595 754.406 516.776 754.406 L512.748 754.406 L512.748 750.564 L516.961 750.564 Q520.41 750.564 522.239 749.198 Q524.068 747.809 524.068 745.216 Q524.068 742.554 522.17 741.142 Q520.295 739.707 516.776 739.707 Q514.855 739.707 512.656 740.124 Q510.457 740.54 507.818 741.42 L507.818 737.253 Q510.48 736.513 512.795 736.142 Q515.133 735.772 517.193 735.772 Q522.517 735.772 525.619 738.203 Q528.72 740.61 528.72 744.73 Q528.72 747.601 527.077 749.591 Q525.433 751.559 522.401 752.323 Z" fill="#000000" fill-rule="nonzero" fill-opacity="1" /><path clip-path="url(#clip420)" d="M595.901 740.471 L584.096 758.92 L595.901 758.92 L595.901 740.471 M594.675 736.397 L600.554 736.397 L600.554 758.92 L605.485 758.92 L605.485 762.809 L600.554 762.809 L600.554 770.957 L595.901 770.957 L595.901 762.809 L580.3 762.809 L580.3 758.295 L594.675 736.397 Z" fill="#000000" fill-rule="nonzero" fill-opacity="1" /><path clip-path="url(#clip420)" d="M657.909 736.397 L676.265 736.397 L676.265 740.332 L662.191 740.332 L662.191 748.804 Q663.21 748.457 664.228 748.295 Q665.247 748.11 666.265 748.11 Q672.052 748.11 675.432 751.281 Q678.812 754.452 678.812 759.869 Q678.812 765.448 675.339 768.55 Q671.867 771.628 665.548 771.628 Q663.372 771.628 661.103 771.258 Q658.858 770.888 656.451 770.147 L656.451 765.448 Q658.534 766.582 660.756 767.138 Q662.978 767.693 665.455 767.693 Q669.46 767.693 671.798 765.587 Q674.136 763.48 674.136 759.869 Q674.136 756.258 671.798 754.151 Q669.46 752.045 665.455 752.045 Q663.58 752.045 661.705 752.462 Q659.853 752.878 657.909 753.758 L657.909 736.397 Z" fill="#000000" fill-rule="nonzero" fill-opacity="1" /><path clip-path="url(#clip420)" d="M742.775 751.814 Q739.627 751.814 737.775 753.966 Q735.946 756.119 735.946 759.869 Q735.946 763.596 737.775 765.772 Q739.627 767.925 742.775 767.925 Q745.923 767.925 747.752 765.772 Q749.604 763.596 749.604 759.869 Q749.604 756.119 747.752 753.966 Q745.923 751.814 742.775 751.814 M752.058 737.161 L752.058 741.42 Q750.298 740.587 748.493 740.147 Q746.71 739.707 744.951 739.707 Q740.321 739.707 737.868 742.832 Q735.437 745.957 735.09 752.277 Q736.456 750.263 738.516 749.198 Q740.576 748.11 743.053 748.11 Q748.261 748.11 751.27 751.281 Q754.303 754.429 754.303 759.869 Q754.303 765.193 751.155 768.411 Q748.007 771.628 742.775 771.628 Q736.78 771.628 733.609 767.045 Q730.437 762.438 730.437 753.712 Q730.437 745.517 734.326 740.656 Q738.215 735.772 744.766 735.772 Q746.525 735.772 748.308 736.119 Q750.113 736.466 752.058 737.161 Z" fill="#000000" fill-rule="nonzero" fill-opacity="1" /><path clip-path="url(#clip420)" d="M805.998 736.397 L828.22 736.397 L828.22 738.388 L815.674 770.957 L810.79 770.957 L822.595 740.332 L805.998 740.332 L805.998 736.397 Z" fill="#000000" fill-rule="nonzero" fill-opacity="1" /><path clip-path="url(#clip420)" d="M891.848 754.545 Q888.515 754.545 886.593 756.327 Q884.695 758.11 884.695 761.235 Q884.695 764.36 886.593 766.142 Q888.515 767.925 891.848 767.925 Q895.181 767.925 897.102 766.142 Q899.024 764.337 899.024 761.235 Q899.024 758.11 897.102 756.327 Q895.204 754.545 891.848 754.545 M887.172 752.554 Q884.163 751.814 882.473 749.753 Q880.806 747.693 880.806 744.73 Q880.806 740.587 883.746 738.179 Q886.709 735.772 891.848 735.772 Q897.01 735.772 899.95 738.179 Q902.889 740.587 902.889 744.73 Q902.889 747.693 901.2 749.753 Q899.533 751.814 896.547 752.554 Q899.927 753.341 901.802 755.633 Q903.7 757.925 903.7 761.235 Q903.7 766.258 900.621 768.943 Q897.565 771.628 891.848 771.628 Q886.13 771.628 883.052 768.943 Q879.996 766.258 879.996 761.235 Q879.996 757.925 881.894 755.633 Q883.792 753.341 887.172 752.554 M885.459 745.17 Q885.459 747.855 887.126 749.36 Q888.815 750.864 891.848 750.864 Q894.857 750.864 896.547 749.36 Q898.26 747.855 898.26 745.17 Q898.26 742.485 896.547 740.98 Q894.857 739.476 891.848 739.476 Q888.815 739.476 887.126 740.98 Q885.459 742.485 885.459 745.17 Z" fill="#000000" fill-rule="nonzero" fill-opacity="1" /><path clip-path="url(#clip420)" d="M956.888 770.239 L956.888 765.98 Q958.647 766.813 960.453 767.253 Q962.258 767.693 963.994 767.693 Q968.624 767.693 971.054 764.591 Q973.508 761.466 973.855 755.124 Q972.513 757.114 970.452 758.179 Q968.392 759.244 965.892 759.244 Q960.707 759.244 957.675 756.119 Q954.666 752.971 954.666 747.531 Q954.666 742.207 957.814 738.99 Q960.962 735.772 966.193 735.772 Q972.189 735.772 975.337 740.378 Q978.508 744.962 978.508 753.712 Q978.508 761.883 974.619 766.767 Q970.753 771.628 964.203 771.628 Q962.443 771.628 960.638 771.281 Q958.832 770.934 956.888 770.239 M966.193 755.587 Q969.341 755.587 971.17 753.434 Q973.022 751.281 973.022 747.531 Q973.022 743.804 971.17 741.652 Q969.341 739.476 966.193 739.476 Q963.045 739.476 961.193 741.652 Q959.365 743.804 959.365 747.531 Q959.365 751.281 961.193 753.434 Q963.045 755.587 966.193 755.587 Z" fill="#000000" fill-rule="nonzero" fill-opacity="1" /><path clip-path="url(#clip420)" d="M1016.01 767.022 L1023.65 767.022 L1023.65 740.656 L1015.34 742.323 L1015.34 738.064 L1023.61 736.397 L1028.28 736.397 L1028.28 767.022 L1035.92 767.022 L1035.92 770.957 L1016.01 770.957 L1016.01 767.022 Z" fill="#000000" fill-rule="nonzero" fill-opacity="1" /><path clip-path="url(#clip420)" d="M1055.36 739.476 Q1051.75 739.476 1049.93 743.04 Q1048.12 746.582 1048.12 753.712 Q1048.12 760.818 1049.93 764.383 Q1051.75 767.925 1055.36 767.925 Q1059 767.925 1060.8 764.383 Q1062.63 760.818 1062.63 753.712 Q1062.63 746.582 1060.8 743.04 Q1059 739.476 1055.36 739.476 M1055.36 735.772 Q1061.18 735.772 1064.23 740.378 Q1067.31 744.962 1067.31 753.712 Q1067.31 762.438 1064.23 767.045 Q1061.18 771.628 1055.36 771.628 Q1049.55 771.628 1046.48 767.045 Q1043.42 762.438 1043.42 753.712 Q1043.42 744.962 1046.48 740.378 Q1049.55 735.772 1055.36 735.772 Z" fill="#000000" fill-rule="nonzero" fill-opacity="1" /><path clip-path="url(#clip420)" d="M1091.37 767.022 L1099 767.022 L1099 740.656 L1090.69 742.323 L1090.69 738.064 L1098.96 736.397 L1103.63 736.397 L1103.63 767.022 L1111.27 767.022 L1111.27 770.957 L1091.37 770.957 L1091.37 767.022 Z" fill="#000000" fill-rule="nonzero" fill-opacity="1" /><path clip-path="url(#clip420)" d="M1121.53 767.022 L1129.17 767.022 L1129.17 740.656 L1120.86 742.323 L1120.86 738.064 L1129.12 736.397 L1133.8 736.397 L1133.8 767.022 L1141.43 767.022 L1141.43 770.957 L1121.53 770.957 L1121.53 767.022 Z" fill="#000000" fill-rule="nonzero" fill-opacity="1" /><path clip-path="url(#clip420)" d="M1166.29 767.022 L1173.93 767.022 L1173.93 740.656 L1165.62 742.323 L1165.62 738.064 L1173.88 736.397 L1178.56 736.397 L1178.56 767.022 L1186.2 767.022 L1186.2 770.957 L1166.29 770.957 L1166.29 767.022 Z" fill="#000000" fill-rule="nonzero" fill-opacity="1" /><path clip-path="url(#clip420)" d="M1199.67 767.022 L1215.99 767.022 L1215.99 770.957 L1194.04 770.957 L1194.04 767.022 Q1196.71 764.267 1201.29 759.638 Q1205.9 754.985 1207.08 753.642 Q1209.32 751.119 1210.2 749.383 Q1211.1 747.624 1211.1 745.934 Q1211.1 743.179 1209.16 741.443 Q1207.24 739.707 1204.14 739.707 Q1201.94 739.707 1199.48 740.471 Q1197.05 741.235 1194.28 742.786 L1194.28 738.064 Q1197.1 736.929 1199.55 736.351 Q1202.01 735.772 1204.04 735.772 Q1209.41 735.772 1212.61 738.457 Q1215.8 741.142 1215.8 745.633 Q1215.8 747.763 1214.99 749.684 Q1214.21 751.582 1212.1 754.175 Q1211.52 754.846 1208.42 758.064 Q1205.32 761.258 1199.67 767.022 Z" fill="#000000" fill-rule="nonzero" fill-opacity="1" /><path clip-path="url(#clip420)" d="M1240.55 767.022 L1248.19 767.022 L1248.19 740.656 L1239.88 742.323 L1239.88 738.064 L1248.15 736.397 L1252.82 736.397 L1252.82 767.022 L1260.46 767.022 L1260.46 770.957 L1240.55 770.957 L1240.55 767.022 Z" fill="#000000" fill-rule="nonzero" fill-opacity="1" /><path clip-path="url(#clip420)" d="M1284.07 752.323 Q1287.43 753.04 1289.3 755.309 Q1291.2 757.577 1291.2 760.911 Q1291.2 766.026 1287.68 768.827 Q1284.16 771.628 1277.68 771.628 Q1275.51 771.628 1273.19 771.188 Q1270.9 770.772 1268.45 769.915 L1268.45 765.401 Q1270.39 766.536 1272.71 767.114 Q1275.02 767.693 1277.54 767.693 Q1281.94 767.693 1284.23 765.957 Q1286.55 764.221 1286.55 760.911 Q1286.55 757.855 1284.4 756.142 Q1282.27 754.406 1278.45 754.406 L1274.42 754.406 L1274.42 750.564 L1278.63 750.564 Q1282.08 750.564 1283.91 749.198 Q1285.74 747.809 1285.74 745.216 Q1285.74 742.554 1283.84 741.142 Q1281.97 739.707 1278.45 739.707 Q1276.53 739.707 1274.33 740.124 Q1272.13 740.54 1269.49 741.42 L1269.49 737.253 Q1272.15 736.513 1274.47 736.142 Q1276.8 735.772 1278.86 735.772 Q1284.19 735.772 1287.29 738.203 Q1290.39 740.61 1290.39 744.73 Q1290.39 747.601 1288.75 749.591 Q1287.1 751.559 1284.07 752.323 Z" fill="#000000" fill-rule="nonzero" fill-opacity="1" /><path clip-path="url(#clip420)" d="M1314.73 767.022 L1322.36 767.022 L1322.36 740.656 L1314.05 742.323 L1314.05 738.064 L1322.32 736.397 L1326.99 736.397 L1326.99 767.022 L1334.63 767.022 L1334.63 770.957 L1314.73 770.957 L1314.73 767.022 Z" fill="#000000" fill-rule="nonzero" fill-opacity="1" /><path clip-path="url(#clip420)" d="M1356.92 740.471 L1345.12 758.92 L1356.92 758.92 L1356.92 740.471 M1355.7 736.397 L1361.58 736.397 L1361.58 758.92 L1366.51 758.92 L1366.51 762.809 L1361.58 762.809 L1361.58 770.957 L1356.92 770.957 L1356.92 762.809 L1341.32 762.809 L1341.32 758.295 L1355.7 736.397 Z" fill="#000000" fill-rule="nonzero" fill-opacity="1" /><path clip-path="url(#clip420)" d="M1390.21 767.022 L1397.84 767.022 L1397.84 740.656 L1389.53 742.323 L1389.53 738.064 L1397.8 736.397 L1402.47 736.397 L1402.47 767.022 L1410.11 767.022 L1410.11 770.957 L1390.21 770.957 L1390.21 767.022 Z" fill="#000000" fill-rule="nonzero" fill-opacity="1" /><path clip-path="url(#clip420)" d="M1419.6 736.397 L1437.96 736.397 L1437.96 740.332 L1423.89 740.332 L1423.89 748.804 Q1424.9 748.457 1425.92 748.295 Q1426.94 748.11 1427.96 748.11 Q1433.75 748.11 1437.13 751.281 Q1440.51 754.452 1440.51 759.869 Q1440.51 765.448 1437.03 768.55 Q1433.56 771.628 1427.24 771.628 Q1425.07 771.628 1422.8 771.258 Q1420.55 770.888 1418.15 770.147 L1418.15 765.448 Q1420.23 766.582 1422.45 767.138 Q1424.67 767.693 1427.15 767.693 Q1431.15 767.693 1433.49 765.587 Q1435.83 763.48 1435.83 759.869 Q1435.83 756.258 1433.49 754.151 Q1431.15 752.045 1427.15 752.045 Q1425.27 752.045 1423.4 752.462 Q1421.55 752.878 1419.6 753.758 L1419.6 736.397 Z" fill="#000000" fill-rule="nonzero" fill-opacity="1" /><path clip-path="url(#clip420)" d="M1464.37 767.022 L1472 767.022 L1472 740.656 L1463.69 742.323 L1463.69 738.064 L1471.96 736.397 L1476.63 736.397 L1476.63 767.022 L1484.27 767.022 L1484.27 770.957 L1464.37 770.957 L1464.37 767.022 Z" fill="#000000" fill-rule="nonzero" fill-opacity="1" /><path clip-path="url(#clip420)" d="M1504.3 751.814 Q1501.15 751.814 1499.3 753.966 Q1497.47 756.119 1497.47 759.869 Q1497.47 763.596 1499.3 765.772 Q1501.15 767.925 1504.3 767.925 Q1507.44 767.925 1509.27 765.772 Q1511.12 763.596 1511.12 759.869 Q1511.12 756.119 1509.27 753.966 Q1507.44 751.814 1504.3 751.814 M1513.58 737.161 L1513.58 741.42 Q1511.82 740.587 1510.01 740.147 Q1508.23 739.707 1506.47 739.707 Q1501.84 739.707 1499.39 742.832 Q1496.96 745.957 1496.61 752.277 Q1497.98 750.263 1500.04 749.198 Q1502.1 748.11 1504.57 748.11 Q1509.78 748.11 1512.79 751.281 Q1515.82 754.429 1515.82 759.869 Q1515.82 765.193 1512.68 768.411 Q1509.53 771.628 1504.3 771.628 Q1498.3 771.628 1495.13 767.045 Q1491.96 762.438 1491.96 753.712 Q1491.96 745.517 1495.85 740.656 Q1499.74 735.772 1506.29 735.772 Q1508.05 735.772 1509.83 736.119 Q1511.63 736.466 1513.58 737.161 Z" fill="#000000" fill-rule="nonzero" fill-opacity="1" /><path clip-path="url(#clip420)" d="M1539.64 767.022 L1547.28 767.022 L1547.28 740.656 L1538.97 742.323 L1538.97 738.064 L1547.23 736.397 L1551.91 736.397 L1551.91 767.022 L1559.54 767.022 L1559.54 770.957 L1539.64 770.957 L1539.64 767.022 Z" fill="#000000" fill-rule="nonzero" fill-opacity="1" /><path clip-path="url(#clip420)" d="M1567.81 736.397 L1590.03 736.397 L1590.03 738.388 L1577.48 770.957 L1572.6 770.957 L1584.41 740.332 L1567.81 740.332 L1567.81 736.397 Z" fill="#000000" fill-rule="nonzero" fill-opacity="1" /><path clip-path="url(#clip420)" d="M1613.97 767.022 L1621.61 767.022 L1621.61 740.656 L1613.3 742.323 L1613.3 738.064 L1621.56 736.397 L1626.24 736.397 L1626.24 767.022 L1633.88 767.022 L1633.88 770.957 L1613.97 770.957 L1613.97 767.022 Z" fill="#000000" fill-rule="nonzero" fill-opacity="1" /><path clip-path="url(#clip420)" d="M1653.32 754.545 Q1649.99 754.545 1648.07 756.327 Q1646.17 758.11 1646.17 761.235 Q1646.17 764.36 1648.07 766.142 Q1649.99 767.925 1653.32 767.925 Q1656.66 767.925 1658.58 766.142 Q1660.5 764.337 1660.5 761.235 Q1660.5 758.11 1658.58 756.327 Q1656.68 754.545 1653.32 754.545 M1648.65 752.554 Q1645.64 751.814 1643.95 749.753 Q1642.28 747.693 1642.28 744.73 Q1642.28 740.587 1645.22 738.179 Q1648.18 735.772 1653.32 735.772 Q1658.48 735.772 1661.42 738.179 Q1664.36 740.587 1664.36 744.73 Q1664.36 747.693 1662.67 749.753 Q1661.01 751.814 1658.02 752.554 Q1661.4 753.341 1663.28 755.633 Q1665.17 757.925 1665.17 761.235 Q1665.17 766.258 1662.1 768.943 Q1659.04 771.628 1653.32 771.628 Q1647.6 771.628 1644.53 768.943 Q1641.47 766.258 1641.47 761.235 Q1641.47 757.925 1643.37 755.633 Q1645.27 753.341 1648.65 752.554 M1646.93 745.17 Q1646.93 747.855 1648.6 749.36 Q1650.29 750.864 1653.32 750.864 Q1656.33 750.864 1658.02 749.36 Q1659.73 747.855 1659.73 745.17 Q1659.73 742.485 1658.02 740.98 Q1656.33 739.476 1653.32 739.476 Q1650.29 739.476 1648.6 740.98 Q1646.93 742.485 1646.93 745.17 Z" fill="#000000" fill-rule="nonzero" fill-opacity="1" /><path clip-path="url(#clip420)" d="M1688.76 767.022 L1696.39 767.022 L1696.39 740.656 L1688.08 742.323 L1688.08 738.064 L1696.35 736.397 L1701.02 736.397 L1701.02 767.022 L1708.66 767.022 L1708.66 770.957 L1688.76 770.957 L1688.76 767.022 Z" fill="#000000" fill-rule="nonzero" fill-opacity="1" /><path clip-path="url(#clip420)" d="M1718.25 770.239 L1718.25 765.98 Q1720.01 766.813 1721.81 767.253 Q1723.62 767.693 1725.35 767.693 Q1729.98 767.693 1732.41 764.591 Q1734.87 761.466 1735.21 755.124 Q1733.87 757.114 1731.81 758.179 Q1729.75 759.244 1727.25 759.244 Q1722.07 759.244 1719.03 756.119 Q1716.02 752.971 1716.02 747.531 Q1716.02 742.207 1719.17 738.99 Q1722.32 735.772 1727.55 735.772 Q1733.55 735.772 1736.7 740.378 Q1739.87 744.962 1739.87 753.712 Q1739.87 761.883 1735.98 766.767 Q1732.11 771.628 1725.56 771.628 Q1723.8 771.628 1722 771.281 Q1720.19 770.934 1718.25 770.239 M1727.55 755.587 Q1730.7 755.587 1732.53 753.434 Q1734.38 751.281 1734.38 747.531 Q1734.38 743.804 1732.53 741.652 Q1730.7 739.476 1727.55 739.476 Q1724.4 739.476 1722.55 741.652 Q1720.72 743.804 1720.72 747.531 Q1720.72 751.281 1722.55 753.434 Q1724.4 755.587 1727.55 755.587 Z" fill="#000000" fill-rule="nonzero" fill-opacity="1" /><path clip-path="url(#clip420)" d="M1767.49 767.022 L1783.81 767.022 L1783.81 770.957 L1761.86 770.957 L1761.86 767.022 Q1764.52 764.267 1769.11 759.638 Q1773.71 754.985 1774.9 753.642 Q1777.14 751.119 1778.02 749.383 Q1778.92 747.624 1778.92 745.934 Q1778.92 743.179 1776.98 741.443 Q1775.06 739.707 1771.96 739.707 Q1769.76 739.707 1767.3 740.471 Q1764.87 741.235 1762.09 742.786 L1762.09 738.064 Q1764.92 736.929 1767.37 736.351 Q1769.83 735.772 1771.86 735.772 Q1777.23 735.772 1780.43 738.457 Q1783.62 741.142 1783.62 745.633 Q1783.62 747.763 1782.81 749.684 Q1782.02 751.582 1779.92 754.175 Q1779.34 754.846 1776.24 758.064 Q1773.14 761.258 1767.49 767.022 Z" fill="#000000" fill-rule="nonzero" fill-opacity="1" /><path clip-path="url(#clip420)" d="M1803.62 739.476 Q1800.01 739.476 1798.18 743.04 Q1796.38 746.582 1796.38 753.712 Q1796.38 760.818 1798.18 764.383 Q1800.01 767.925 1803.62 767.925 Q1807.26 767.925 1809.06 764.383 Q1810.89 760.818 1810.89 753.712 Q1810.89 746.582 1809.06 743.04 Q1807.26 739.476 1803.62 739.476 M1803.62 735.772 Q1809.43 735.772 1812.49 740.378 Q1815.57 744.962 1815.57 753.712 Q1815.57 762.438 1812.49 767.045 Q1809.43 771.628 1803.62 771.628 Q1797.81 771.628 1794.73 767.045 Q1791.68 762.438 1791.68 753.712 Q1791.68 744.962 1794.73 740.378 Q1797.81 735.772 1803.62 735.772 Z" fill="#000000" fill-rule="nonzero" fill-opacity="1" /><path clip-path="url(#clip420)" d="M1842.84 767.022 L1859.16 767.022 L1859.16 770.957 L1837.22 770.957 L1837.22 767.022 Q1839.88 764.267 1844.46 759.638 Q1849.07 754.985 1850.25 753.642 Q1852.49 751.119 1853.37 749.383 Q1854.28 747.624 1854.28 745.934 Q1854.28 743.179 1852.33 741.443 Q1850.41 739.707 1847.31 739.707 Q1845.11 739.707 1842.66 740.471 Q1840.22 741.235 1837.45 742.786 L1837.45 738.064 Q1840.27 736.929 1842.72 736.351 Q1845.18 735.772 1847.22 735.772 Q1852.59 735.772 1855.78 738.457 Q1858.97 741.142 1858.97 745.633 Q1858.97 747.763 1858.16 749.684 Q1857.38 751.582 1855.27 754.175 Q1854.69 754.846 1851.59 758.064 Q1848.49 761.258 1842.84 767.022 Z" fill="#000000" fill-rule="nonzero" fill-opacity="1" /><path clip-path="url(#clip420)" d="M1869.78 767.022 L1877.42 767.022 L1877.42 740.656 L1869.11 742.323 L1869.11 738.064 L1877.38 736.397 L1882.05 736.397 L1882.05 767.022 L1889.69 767.022 L1889.69 770.957 L1869.78 770.957 L1869.78 767.022 Z" fill="#000000" fill-rule="nonzero" fill-opacity="1" /><path clip-path="url(#clip420)" d="M1917.76 767.022 L1934.08 767.022 L1934.08 770.957 L1912.14 770.957 L1912.14 767.022 Q1914.8 764.267 1919.38 759.638 Q1923.99 754.985 1925.17 753.642 Q1927.42 751.119 1928.3 749.383 Q1929.2 747.624 1929.2 745.934 Q1929.2 743.179 1927.26 741.443 Q1925.33 739.707 1922.23 739.707 Q1920.03 739.707 1917.58 740.471 Q1915.15 741.235 1912.37 742.786 L1912.37 738.064 Q1915.19 736.929 1917.65 736.351 Q1920.1 735.772 1922.14 735.772 Q1927.51 735.772 1930.7 738.457 Q1933.9 741.142 1933.9 745.633 Q1933.9 747.763 1933.09 749.684 Q1932.3 751.582 1930.19 754.175 Q1929.62 754.846 1926.51 758.064 Q1923.41 761.258 1917.76 767.022 Z" fill="#000000" fill-rule="nonzero" fill-opacity="1" /><path clip-path="url(#clip420)" d="M1947.93 767.022 L1964.25 767.022 L1964.25 770.957 L1942.3 770.957 L1942.3 767.022 Q1944.96 764.267 1949.55 759.638 Q1954.15 754.985 1955.33 753.642 Q1957.58 751.119 1958.46 749.383 Q1959.36 747.624 1959.36 745.934 Q1959.36 743.179 1957.42 741.443 Q1955.5 739.707 1952.39 739.707 Q1950.19 739.707 1947.74 740.471 Q1945.31 741.235 1942.53 742.786 L1942.53 738.064 Q1945.36 736.929 1947.81 736.351 Q1950.26 735.772 1952.3 735.772 Q1957.67 735.772 1960.87 738.457 Q1964.06 741.142 1964.06 745.633 Q1964.06 747.763 1963.25 749.684 Q1962.46 751.582 1960.36 754.175 Q1959.78 754.846 1956.68 758.064 Q1953.57 761.258 1947.93 767.022 Z" fill="#000000" fill-rule="nonzero" fill-opacity="1" /><path clip-path="url(#clip420)" d="M1992.03 767.022 L2008.35 767.022 L2008.35 770.957 L1986.4 770.957 L1986.4 767.022 Q1989.07 764.267 1993.65 759.638 Q1998.26 754.985 1999.44 753.642 Q2001.68 751.119 2002.56 749.383 Q2003.46 747.624 2003.46 745.934 Q2003.46 743.179 2001.52 741.443 Q1999.6 739.707 1996.5 739.707 Q1994.3 739.707 1991.84 740.471 Q1989.41 741.235 1986.64 742.786 L1986.64 738.064 Q1989.46 736.929 1991.91 736.351 Q1994.37 735.772 1996.4 735.772 Q2001.77 735.772 2004.97 738.457 Q2008.16 741.142 2008.16 745.633 Q2008.16 747.763 2007.35 749.684 Q2006.57 751.582 2004.46 754.175 Q2003.88 754.846 2000.78 758.064 Q1997.68 761.258 1992.03 767.022 Z" fill="#000000" fill-rule="nonzero" fill-opacity="1" /><path clip-path="url(#clip420)" d="M2032.33 752.323 Q2035.69 753.04 2037.56 755.309 Q2039.46 757.577 2039.46 760.911 Q2039.46 766.026 2035.94 768.827 Q2032.42 771.628 2025.94 771.628 Q2023.76 771.628 2021.45 771.188 Q2019.16 770.772 2016.7 769.915 L2016.7 765.401 Q2018.65 766.536 2020.96 767.114 Q2023.28 767.693 2025.8 767.693 Q2030.2 767.693 2032.49 765.957 Q2034.81 764.221 2034.81 760.911 Q2034.81 757.855 2032.65 756.142 Q2030.52 754.406 2026.7 754.406 L2022.68 754.406 L2022.68 750.564 L2026.89 750.564 Q2030.34 750.564 2032.17 749.198 Q2034 747.809 2034 745.216 Q2034 742.554 2032.1 741.142 Q2030.22 739.707 2026.7 739.707 Q2024.78 739.707 2022.58 740.124 Q2020.39 740.54 2017.75 741.42 L2017.75 737.253 Q2020.41 736.513 2022.72 736.142 Q2025.06 735.772 2027.12 735.772 Q2032.45 735.772 2035.55 738.203 Q2038.65 740.61 2038.65 744.73 Q2038.65 747.601 2037.01 749.591 Q2035.36 751.559 2032.33 752.323 Z" fill="#000000" fill-rule="nonzero" fill-opacity="1" /><polyline clip-path="url(#clip420)" style="stroke:#000000; stroke-linecap:round; stroke-linejoin:round; stroke-width:4; stroke-opacity:1; fill:none" points="154.112,710.157 154.112,47.2441 "/>
<polyline clip-path="url(#clip420)" style="stroke:#000000; stroke-linecap:round; stroke-linejoin:round; stroke-width:4; stroke-opacity:1; fill:none" points="154.112,710.157 173.01,710.157 "/>
<polyline clip-path="url(#clip420)" style="stroke:#000000; stroke-linecap:round; stroke-linejoin:round; stroke-width:4; stroke-opacity:1; fill:none" points="154.112,438.67 173.01,438.67 "/>
<polyline clip-path="url(#clip420)" style="stroke:#000000; stroke-linecap:round; stroke-linejoin:round; stroke-width:4; stroke-opacity:1; fill:none" points="154.112,167.184 173.01,167.184 "/>
<path clip-path="url(#clip420)" d="M63.9365 695.956 Q60.3254 695.956 58.4967 699.52 Q56.6912 703.062 56.6912 710.192 Q56.6912 717.298 58.4967 720.863 Q60.3254 724.405 63.9365 724.405 Q67.5707 724.405 69.3763 720.863 Q71.205 717.298 71.205 710.192 Q71.205 703.062 69.3763 699.52 Q67.5707 695.956 63.9365 695.956 M63.9365 692.252 Q69.7467 692.252 72.8022 696.858 Q75.8809 701.442 75.8809 710.192 Q75.8809 718.918 72.8022 723.525 Q69.7467 728.108 63.9365 728.108 Q58.1264 728.108 55.0477 723.525 Q51.9921 718.918 51.9921 710.192 Q51.9921 701.442 55.0477 696.858 Q58.1264 692.252 63.9365 692.252 Z" fill="#000000" fill-rule="nonzero" fill-opacity="1" /><path clip-path="url(#clip420)" d="M84.0984 721.557 L88.9827 721.557 L88.9827 727.437 L84.0984 727.437 L84.0984 721.557 Z" fill="#000000" fill-rule="nonzero" fill-opacity="1" /><path clip-path="url(#clip420)" d="M109.168 695.956 Q105.557 695.956 103.728 699.52 Q101.922 703.062 101.922 710.192 Q101.922 717.298 103.728 720.863 Q105.557 724.405 109.168 724.405 Q112.802 724.405 114.608 720.863 Q116.436 717.298 116.436 710.192 Q116.436 703.062 114.608 699.52 Q112.802 695.956 109.168 695.956 M109.168 692.252 Q114.978 692.252 118.033 696.858 Q121.112 701.442 121.112 710.192 Q121.112 718.918 118.033 723.525 Q114.978 728.108 109.168 728.108 Q103.358 728.108 100.279 723.525 Q97.2234 718.918 97.2234 710.192 Q97.2234 701.442 100.279 696.858 Q103.358 692.252 109.168 692.252 Z" fill="#000000" fill-rule="nonzero" fill-opacity="1" /><path clip-path="url(#clip420)" d="M64.9319 424.469 Q61.3208 424.469 59.4921 428.034 Q57.6865 431.575 57.6865 438.705 Q57.6865 445.811 59.4921 449.376 Q61.3208 452.918 64.9319 452.918 Q68.5661 452.918 70.3717 449.376 Q72.2004 445.811 72.2004 438.705 Q72.2004 431.575 70.3717 428.034 Q68.5661 424.469 64.9319 424.469 M64.9319 420.765 Q70.742 420.765 73.7976 425.372 Q76.8763 429.955 76.8763 438.705 Q76.8763 447.432 73.7976 452.038 Q70.742 456.622 64.9319 456.622 Q59.1217 456.622 56.043 452.038 Q52.9875 447.432 52.9875 438.705 Q52.9875 429.955 56.043 425.372 Q59.1217 420.765 64.9319 420.765 Z" fill="#000000" fill-rule="nonzero" fill-opacity="1" /><path clip-path="url(#clip420)" d="M85.0938 450.071 L89.978 450.071 L89.978 455.95 L85.0938 455.95 L85.0938 450.071 Z" fill="#000000" fill-rule="nonzero" fill-opacity="1" /><path clip-path="url(#clip420)" d="M100.209 421.39 L118.566 421.39 L118.566 425.325 L104.492 425.325 L104.492 433.798 Q105.51 433.45 106.529 433.288 Q107.547 433.103 108.566 433.103 Q114.353 433.103 117.733 436.274 Q121.112 439.446 121.112 444.862 Q121.112 450.441 117.64 453.543 Q114.168 456.622 107.848 456.622 Q105.672 456.622 103.404 456.251 Q101.159 455.881 98.7511 455.14 L98.7511 450.441 Q100.834 451.575 103.057 452.131 Q105.279 452.686 107.756 452.686 Q111.76 452.686 114.098 450.58 Q116.436 448.473 116.436 444.862 Q116.436 441.251 114.098 439.145 Q111.76 437.038 107.756 437.038 Q105.881 437.038 104.006 437.455 Q102.154 437.872 100.209 438.751 L100.209 421.39 Z" fill="#000000" fill-rule="nonzero" fill-opacity="1" /><path clip-path="url(#clip420)" d="M54.7467 180.528 L62.3856 180.528 L62.3856 154.163 L54.0754 155.829 L54.0754 151.57 L62.3393 149.904 L67.0152 149.904 L67.0152 180.528 L74.654 180.528 L74.654 184.464 L54.7467 184.464 L54.7467 180.528 Z" fill="#000000" fill-rule="nonzero" fill-opacity="1" /><path clip-path="url(#clip420)" d="M84.0984 178.584 L88.9827 178.584 L88.9827 184.464 L84.0984 184.464 L84.0984 178.584 Z" fill="#000000" fill-rule="nonzero" fill-opacity="1" /><path clip-path="url(#clip420)" d="M109.168 152.982 Q105.557 152.982 103.728 156.547 Q101.922 160.089 101.922 167.218 Q101.922 174.325 103.728 177.89 Q105.557 181.431 109.168 181.431 Q112.802 181.431 114.608 177.89 Q116.436 174.325 116.436 167.218 Q116.436 160.089 114.608 156.547 Q112.802 152.982 109.168 152.982 M109.168 149.279 Q114.978 149.279 118.033 153.885 Q121.112 158.468 121.112 167.218 Q121.112 175.945 118.033 180.552 Q114.978 185.135 109.168 185.135 Q103.358 185.135 100.279 180.552 Q97.2234 175.945 97.2234 167.218 Q97.2234 158.468 100.279 153.885 Q103.358 149.279 109.168 149.279 Z" fill="#000000" fill-rule="nonzero" fill-opacity="1" /><path clip-path="url(#clip422)" d="M264.041 47.2441 L264.041 710.157 L323.832 710.157 L323.832 47.2441 L264.041 47.2441 L264.041 47.2441  Z" fill="#009af9" fill-rule="evenodd" fill-opacity="1"/>
<polyline clip-path="url(#clip422)" style="stroke:#000000; stroke-linecap:round; stroke-linejoin:round; stroke-width:4; stroke-opacity:1; fill:none" points="264.041,47.2441 264.041,710.157 323.832,710.157 323.832,47.2441 264.041,47.2441 "/>
<path clip-path="url(#clip422)" d="M338.78 254.022 L338.78 710.157 L398.571 710.157 L398.571 254.022 L338.78 254.022 L338.78 254.022  Z" fill="#009af9" fill-rule="evenodd" fill-opacity="1"/>
<polyline clip-path="url(#clip422)" style="stroke:#000000; stroke-linecap:round; stroke-linejoin:round; stroke-width:4; stroke-opacity:1; fill:none" points="338.78,254.022 338.78,710.157 398.571,710.157 398.571,254.022 338.78,254.022 "/>
<path clip-path="url(#clip422)" d="M413.519 319.103 L413.519 710.157 L473.31 710.157 L473.31 319.103 L413.519 319.103 L413.519 319.103  Z" fill="#009af9" fill-rule="evenodd" fill-opacity="1"/>
<polyline clip-path="url(#clip422)" style="stroke:#000000; stroke-linecap:round; stroke-linejoin:round; stroke-width:4; stroke-opacity:1; fill:none" points="413.519,319.103 413.519,710.157 473.31,710.157 473.31,319.103 413.519,319.103 "/>
<path clip-path="url(#clip422)" d="M488.258 334.279 L488.258 710.157 L548.049 710.157 L548.049 334.279 L488.258 334.279 L488.258 334.279  Z" fill="#009af9" fill-rule="evenodd" fill-opacity="1"/>
<polyline clip-path="url(#clip422)" style="stroke:#000000; stroke-linecap:round; stroke-linejoin:round; stroke-width:4; stroke-opacity:1; fill:none" points="488.258,334.279 488.258,710.157 548.049,710.157 548.049,334.279 488.258,334.279 "/>
<path clip-path="url(#clip422)" d="M562.997 341.496 L562.997 710.157 L622.788 710.157 L622.788 341.496 L562.997 341.496 L562.997 341.496  Z" fill="#009af9" fill-rule="evenodd" fill-opacity="1"/>
<polyline clip-path="url(#clip422)" style="stroke:#000000; stroke-linecap:round; stroke-linejoin:round; stroke-width:4; stroke-opacity:1; fill:none" points="562.997,341.496 562.997,710.157 622.788,710.157 622.788,341.496 562.997,341.496 "/>
<path clip-path="url(#clip422)" d="M637.736 347.207 L637.736 710.157 L697.527 710.157 L697.527 347.207 L637.736 347.207 L637.736 347.207  Z" fill="#009af9" fill-rule="evenodd" fill-opacity="1"/>
<polyline clip-path="url(#clip422)" style="stroke:#000000; stroke-linecap:round; stroke-linejoin:round; stroke-width:4; stroke-opacity:1; fill:none" points="637.736,347.207 637.736,710.157 697.527,710.157 697.527,347.207 637.736,347.207 "/>
<path clip-path="url(#clip422)" d="M712.474 345.727 L712.474 710.157 L772.266 710.157 L772.266 345.727 L712.474 345.727 L712.474 345.727  Z" fill="#009af9" fill-rule="evenodd" fill-opacity="1"/>
<polyline clip-path="url(#clip422)" style="stroke:#000000; stroke-linecap:round; stroke-linejoin:round; stroke-width:4; stroke-opacity:1; fill:none" points="712.474,345.727 712.474,710.157 772.266,710.157 772.266,345.727 712.474,345.727 "/>
<path clip-path="url(#clip422)" d="M787.213 371.329 L787.213 710.157 L847.005 710.157 L847.005 371.329 L787.213 371.329 L787.213 371.329  Z" fill="#009af9" fill-rule="evenodd" fill-opacity="1"/>
<polyline clip-path="url(#clip422)" style="stroke:#000000; stroke-linecap:round; stroke-linejoin:round; stroke-width:4; stroke-opacity:1; fill:none" points="787.213,371.329 787.213,710.157 847.005,710.157 847.005,371.329 787.213,371.329 "/>
<path clip-path="url(#clip422)" d="M861.952 428.698 L861.952 710.157 L921.743 710.157 L921.743 428.698 L861.952 428.698 L861.952 428.698  Z" fill="#009af9" fill-rule="evenodd" fill-opacity="1"/>
<polyline clip-path="url(#clip422)" style="stroke:#000000; stroke-linecap:round; stroke-linejoin:round; stroke-width:4; stroke-opacity:1; fill:none" points="861.952,428.698 861.952,710.157 921.743,710.157 921.743,428.698 861.952,428.698 "/>
<path clip-path="url(#clip422)" d="M936.691 458.669 L936.691 710.157 L996.482 710.157 L996.482 458.669 L936.691 458.669 L936.691 458.669  Z" fill="#009af9" fill-rule="evenodd" fill-opacity="1"/>
<polyline clip-path="url(#clip422)" style="stroke:#000000; stroke-linecap:round; stroke-linejoin:round; stroke-width:4; stroke-opacity:1; fill:none" points="936.691,458.669 936.691,710.157 996.482,710.157 996.482,458.669 936.691,458.669 "/>
<path clip-path="url(#clip422)" d="M1011.43 485.41 L1011.43 710.157 L1071.22 710.157 L1071.22 485.41 L1011.43 485.41 L1011.43 485.41  Z" fill="#009af9" fill-rule="evenodd" fill-opacity="1"/>
<polyline clip-path="url(#clip422)" style="stroke:#000000; stroke-linecap:round; stroke-linejoin:round; stroke-width:4; stroke-opacity:1; fill:none" points="1011.43,485.41 1011.43,710.157 1071.22,710.157 1071.22,485.41 1011.43,485.41 "/>
<path clip-path="url(#clip422)" d="M1086.17 496.187 L1086.17 710.157 L1145.96 710.157 L1145.96 496.187 L1086.17 496.187 L1086.17 496.187  Z" fill="#009af9" fill-rule="evenodd" fill-opacity="1"/>
<polyline clip-path="url(#clip422)" style="stroke:#000000; stroke-linecap:round; stroke-linejoin:round; stroke-width:4; stroke-opacity:1; fill:none" points="1086.17,496.187 1086.17,710.157 1145.96,710.157 1145.96,496.187 1086.17,496.187 "/>
<path clip-path="url(#clip422)" d="M1160.91 496.021 L1160.91 710.157 L1220.7 710.157 L1220.7 496.021 L1160.91 496.021 L1160.91 496.021  Z" fill="#009af9" fill-rule="evenodd" fill-opacity="1"/>
<polyline clip-path="url(#clip422)" style="stroke:#000000; stroke-linecap:round; stroke-linejoin:round; stroke-width:4; stroke-opacity:1; fill:none" points="1160.91,496.021 1160.91,710.157 1220.7,710.157 1220.7,496.021 1160.91,496.021 "/>
<path clip-path="url(#clip422)" d="M1235.65 509.969 L1235.65 710.157 L1295.44 710.157 L1295.44 509.969 L1235.65 509.969 L1235.65 509.969  Z" fill="#009af9" fill-rule="evenodd" fill-opacity="1"/>
<polyline clip-path="url(#clip422)" style="stroke:#000000; stroke-linecap:round; stroke-linejoin:round; stroke-width:4; stroke-opacity:1; fill:none" points="1235.65,509.969 1235.65,710.157 1295.44,710.157 1295.44,509.969 1235.65,509.969 "/>
<path clip-path="url(#clip422)" d="M1310.39 521.81 L1310.39 710.157 L1370.18 710.157 L1370.18 521.81 L1310.39 521.81 L1310.39 521.81  Z" fill="#009af9" fill-rule="evenodd" fill-opacity="1"/>
<polyline clip-path="url(#clip422)" style="stroke:#000000; stroke-linecap:round; stroke-linejoin:round; stroke-width:4; stroke-opacity:1; fill:none" points="1310.39,521.81 1310.39,710.157 1370.18,710.157 1370.18,521.81 1310.39,521.81 "/>
<path clip-path="url(#clip422)" d="M1385.12 526.193 L1385.12 710.157 L1444.92 710.157 L1444.92 526.193 L1385.12 526.193 L1385.12 526.193  Z" fill="#009af9" fill-rule="evenodd" fill-opacity="1"/>
<polyline clip-path="url(#clip422)" style="stroke:#000000; stroke-linecap:round; stroke-linejoin:round; stroke-width:4; stroke-opacity:1; fill:none" points="1385.12,526.193 1385.12,710.157 1444.92,710.157 1444.92,526.193 1385.12,526.193 "/>
<path clip-path="url(#clip422)" d="M1459.86 528.82 L1459.86 710.157 L1519.65 710.157 L1519.65 528.82 L1459.86 528.82 L1459.86 528.82  Z" fill="#009af9" fill-rule="evenodd" fill-opacity="1"/>
<polyline clip-path="url(#clip422)" style="stroke:#000000; stroke-linecap:round; stroke-linejoin:round; stroke-width:4; stroke-opacity:1; fill:none" points="1459.86,528.82 1459.86,710.157 1519.65,710.157 1519.65,528.82 1459.86,528.82 "/>
<path clip-path="url(#clip422)" d="M1534.6 525.549 L1534.6 710.157 L1594.39 710.157 L1594.39 525.549 L1534.6 525.549 L1534.6 525.549  Z" fill="#009af9" fill-rule="evenodd" fill-opacity="1"/>
<polyline clip-path="url(#clip422)" style="stroke:#000000; stroke-linecap:round; stroke-linejoin:round; stroke-width:4; stroke-opacity:1; fill:none" points="1534.6,525.549 1534.6,710.157 1594.39,710.157 1594.39,525.549 1534.6,525.549 "/>
<path clip-path="url(#clip422)" d="M1609.34 561.505 L1609.34 710.157 L1669.13 710.157 L1669.13 561.505 L1609.34 561.505 L1609.34 561.505  Z" fill="#009af9" fill-rule="evenodd" fill-opacity="1"/>
<polyline clip-path="url(#clip422)" style="stroke:#000000; stroke-linecap:round; stroke-linejoin:round; stroke-width:4; stroke-opacity:1; fill:none" points="1609.34,561.505 1609.34,710.157 1669.13,710.157 1669.13,561.505 1609.34,561.505 "/>
<path clip-path="url(#clip422)" d="M1684.08 585.507 L1684.08 710.157 L1743.87 710.157 L1743.87 585.507 L1684.08 585.507 L1684.08 585.507  Z" fill="#009af9" fill-rule="evenodd" fill-opacity="1"/>
<polyline clip-path="url(#clip422)" style="stroke:#000000; stroke-linecap:round; stroke-linejoin:round; stroke-width:4; stroke-opacity:1; fill:none" points="1684.08,585.507 1684.08,710.157 1743.87,710.157 1743.87,585.507 1684.08,585.507 "/>
<path clip-path="url(#clip422)" d="M1758.82 612.894 L1758.82 710.157 L1818.61 710.157 L1818.61 612.894 L1758.82 612.894 L1758.82 612.894  Z" fill="#009af9" fill-rule="evenodd" fill-opacity="1"/>
<polyline clip-path="url(#clip422)" style="stroke:#000000; stroke-linecap:round; stroke-linejoin:round; stroke-width:4; stroke-opacity:1; fill:none" points="1758.82,612.894 1758.82,710.157 1818.61,710.157 1818.61,612.894 1758.82,612.894 "/>
<path clip-path="url(#clip422)" d="M1833.56 640.121 L1833.56 710.157 L1893.35 710.157 L1893.35 640.121 L1833.56 640.121 L1833.56 640.121  Z" fill="#009af9" fill-rule="evenodd" fill-opacity="1"/>
<polyline clip-path="url(#clip422)" style="stroke:#000000; stroke-linecap:round; stroke-linejoin:round; stroke-width:4; stroke-opacity:1; fill:none" points="1833.56,640.121 1833.56,710.157 1893.35,710.157 1893.35,640.121 1833.56,640.121 "/>
<path clip-path="url(#clip422)" d="M1908.3 661.969 L1908.3 710.157 L1968.09 710.157 L1968.09 661.969 L1908.3 661.969 L1908.3 661.969  Z" fill="#009af9" fill-rule="evenodd" fill-opacity="1"/>
<polyline clip-path="url(#clip422)" style="stroke:#000000; stroke-linecap:round; stroke-linejoin:round; stroke-width:4; stroke-opacity:1; fill:none" points="1908.3,661.969 1908.3,710.157 1968.09,710.157 1968.09,661.969 1908.3,661.969 "/>
<path clip-path="url(#clip422)" d="M1983.04 710.157 L1983.04 710.157 L2042.83 710.157 L2042.83 710.157 L1983.04 710.157 L1983.04 710.157  Z" fill="#009af9" fill-rule="evenodd" fill-opacity="1"/>
<polyline clip-path="url(#clip422)" style="stroke:#000000; stroke-linecap:round; stroke-linejoin:round; stroke-width:4; stroke-opacity:1; fill:none" points="1983.04,710.157 1983.04,710.157 2042.83,710.157 2042.83,710.157 1983.04,710.157 "/>
<circle clip-path="url(#clip422)" style="fill:#009af9; stroke:none; fill-opacity:0" cx="293.937" cy="47.2441" r="2"/>
<circle clip-path="url(#clip422)" style="fill:#009af9; stroke:none; fill-opacity:0" cx="368.676" cy="254.022" r="2"/>
<circle clip-path="url(#clip422)" style="fill:#009af9; stroke:none; fill-opacity:0" cx="443.414" cy="319.103" r="2"/>
<circle clip-path="url(#clip422)" style="fill:#009af9; stroke:none; fill-opacity:0" cx="518.153" cy="334.279" r="2"/>
<circle clip-path="url(#clip422)" style="fill:#009af9; stroke:none; fill-opacity:0" cx="592.892" cy="341.496" r="2"/>
<circle clip-path="url(#clip422)" style="fill:#009af9; stroke:none; fill-opacity:0" cx="667.631" cy="347.207" r="2"/>
<circle clip-path="url(#clip422)" style="fill:#009af9; stroke:none; fill-opacity:0" cx="742.37" cy="345.727" r="2"/>
<circle clip-path="url(#clip422)" style="fill:#009af9; stroke:none; fill-opacity:0" cx="817.109" cy="371.329" r="2"/>
<circle clip-path="url(#clip422)" style="fill:#009af9; stroke:none; fill-opacity:0" cx="891.848" cy="428.698" r="2"/>
<circle clip-path="url(#clip422)" style="fill:#009af9; stroke:none; fill-opacity:0" cx="966.587" cy="458.669" r="2"/>
<circle clip-path="url(#clip422)" style="fill:#009af9; stroke:none; fill-opacity:0" cx="1041.33" cy="485.41" r="2"/>
<circle clip-path="url(#clip422)" style="fill:#009af9; stroke:none; fill-opacity:0" cx="1116.06" cy="496.187" r="2"/>
<circle clip-path="url(#clip422)" style="fill:#009af9; stroke:none; fill-opacity:0" cx="1190.8" cy="496.021" r="2"/>
<circle clip-path="url(#clip422)" style="fill:#009af9; stroke:none; fill-opacity:0" cx="1265.54" cy="509.969" r="2"/>
<circle clip-path="url(#clip422)" style="fill:#009af9; stroke:none; fill-opacity:0" cx="1340.28" cy="521.81" r="2"/>
<circle clip-path="url(#clip422)" style="fill:#009af9; stroke:none; fill-opacity:0" cx="1415.02" cy="526.193" r="2"/>
<circle clip-path="url(#clip422)" style="fill:#009af9; stroke:none; fill-opacity:0" cx="1489.76" cy="528.82" r="2"/>
<circle clip-path="url(#clip422)" style="fill:#009af9; stroke:none; fill-opacity:0" cx="1564.5" cy="525.549" r="2"/>
<circle clip-path="url(#clip422)" style="fill:#009af9; stroke:none; fill-opacity:0" cx="1639.24" cy="561.505" r="2"/>
<circle clip-path="url(#clip422)" style="fill:#009af9; stroke:none; fill-opacity:0" cx="1713.98" cy="585.507" r="2"/>
<circle clip-path="url(#clip422)" style="fill:#009af9; stroke:none; fill-opacity:0" cx="1788.71" cy="612.894" r="2"/>
<circle clip-path="url(#clip422)" style="fill:#009af9; stroke:none; fill-opacity:0" cx="1863.45" cy="640.121" r="2"/>
<circle clip-path="url(#clip422)" style="fill:#009af9; stroke:none; fill-opacity:0" cx="1938.19" cy="661.969" r="2"/>
<circle clip-path="url(#clip422)" style="fill:#009af9; stroke:none; fill-opacity:0" cx="2012.93" cy="710.157" r="2"/>
</svg>
