<?xml version="1.0" encoding="utf-8"?>
<svg xmlns="http://www.w3.org/2000/svg" xmlns:xlink="http://www.w3.org/1999/xlink" width="1000" height="300" viewBox="0 0 4000 1200">
<defs>
  <clipPath id="clip870">
    <rect x="0" y="0" width="4000" height="1200"/>
  </clipPath>
</defs>
<path clip-path="url(#clip870)" d="M0 1200 L4000 1200 L4000 4.44089e-14 L0 4.44089e-14  Z" fill="#ffffff" fill-rule="evenodd" fill-opacity="1"/>
<defs>
  <clipPath id="clip871">
    <rect x="800" y="0" width="2801" height="1200"/>
  </clipPath>
</defs>
<path clip-path="url(#clip870)" d="M381.219 952.368 L3842.52 952.368 L3842.52 86.3201 L381.219 86.3201  Z" fill="#ffffff" fill-rule="evenodd" fill-opacity="1"/>
<defs>
  <clipPath id="clip872">
    <rect x="381" y="86" width="3462" height="867"/>
  </clipPath>
</defs>
<polyline clip-path="url(#clip872)" style="stroke:#000000; stroke-linecap:round; stroke-linejoin:round; stroke-width:2; stroke-opacity:0.1; fill:none" points="469.797,952.368 469.797,86.3201 "/>
<polyline clip-path="url(#clip872)" style="stroke:#000000; stroke-linecap:round; stroke-linejoin:round; stroke-width:2; stroke-opacity:0.1; fill:none" points="1408.12,952.368 1408.12,86.3201 "/>
<polyline clip-path="url(#clip872)" style="stroke:#000000; stroke-linecap:round; stroke-linejoin:round; stroke-width:2; stroke-opacity:0.1; fill:none" points="2346.45,952.368 2346.45,86.3201 "/>
<polyline clip-path="url(#clip872)" style="stroke:#000000; stroke-linecap:round; stroke-linejoin:round; stroke-width:2; stroke-opacity:0.1; fill:none" points="3284.78,952.368 3284.78,86.3201 "/>
<polyline clip-path="url(#clip872)" style="stroke:#000000; stroke-linecap:round; stroke-linejoin:round; stroke-width:2; stroke-opacity:0.1; fill:none" points="381.219,927.857 3842.52,927.857 "/>
<polyline clip-path="url(#clip872)" style="stroke:#000000; stroke-linecap:round; stroke-linejoin:round; stroke-width:2; stroke-opacity:0.1; fill:none" points="381.219,723.6 3842.52,723.6 "/>
<polyline clip-path="url(#clip872)" style="stroke:#000000; stroke-linecap:round; stroke-linejoin:round; stroke-width:2; stroke-opacity:0.1; fill:none" points="381.219,519.344 3842.52,519.344 "/>
<polyline clip-path="url(#clip872)" style="stroke:#000000; stroke-linecap:round; stroke-linejoin:round; stroke-width:2; stroke-opacity:0.1; fill:none" points="381.219,315.087 3842.52,315.087 "/>
<polyline clip-path="url(#clip872)" style="stroke:#000000; stroke-linecap:round; stroke-linejoin:round; stroke-width:2; stroke-opacity:0.1; fill:none" points="381.219,110.831 3842.52,110.831 "/>
<polyline clip-path="url(#clip870)" style="stroke:#000000; stroke-linecap:round; stroke-linejoin:round; stroke-width:4; stroke-opacity:1; fill:none" points="381.219,952.368 3842.52,952.368 "/>
<polyline clip-path="url(#clip870)" style="stroke:#000000; stroke-linecap:round; stroke-linejoin:round; stroke-width:4; stroke-opacity:1; fill:none" points="469.797,952.368 469.797,933.47 "/>
<polyline clip-path="url(#clip870)" style="stroke:#000000; stroke-linecap:round; stroke-linejoin:round; stroke-width:4; stroke-opacity:1; fill:none" points="1408.12,952.368 1408.12,933.47 "/>
<polyline clip-path="url(#clip870)" style="stroke:#000000; stroke-linecap:round; stroke-linejoin:round; stroke-width:4; stroke-opacity:1; fill:none" points="2346.45,952.368 2346.45,933.47 "/>
<polyline clip-path="url(#clip870)" style="stroke:#000000; stroke-linecap:round; stroke-linejoin:round; stroke-width:4; stroke-opacity:1; fill:none" points="3284.78,952.368 3284.78,933.47 "/>
<path clip-path="url(#clip870)" d="M453.826 1024.9 Q453.826 1013.74 456.642 1007.67 Q460.57 998.625 469.834 998.625 Q471.798 998.625 473.836 999.18 Q475.911 999.699 478.505 1001.74 Q481.136 1003.78 482.729 1007.11 Q485.768 1013.56 485.768 1024.9 Q485.768 1035.98 482.951 1042.02 Q478.838 1050.84 469.76 1050.84 Q466.351 1050.84 462.868 1049.09 Q459.422 1047.35 457.235 1043.16 Q453.826 1036.9 453.826 1024.9 M460.126 1023.97 Q460.126 1035.42 460.941 1039.98 Q461.867 1044.91 464.387 1047.06 Q466.944 1049.17 469.76 1049.17 Q472.798 1049.17 475.318 1046.91 Q477.875 1044.61 478.653 1039.68 Q479.505 1034.83 479.468 1023.97 Q479.468 1013.41 478.727 1009.19 Q477.727 1004.26 475.059 1002.29 Q472.428 1000.29 469.76 1000.29 Q468.759 1000.29 467.685 1000.59 Q466.647 1000.88 465.128 1001.74 Q463.609 1002.59 462.423 1004.7 Q461.274 1006.81 460.718 1010 Q460.126 1014.11 460.126 1023.97 Z" fill="#000000" fill-rule="nonzero" fill-opacity="1" /><path clip-path="url(#clip870)" d="M1356.1 1005.85 L1356.1 1003.48 Q1365.21 1003.48 1369.92 998.625 Q1371.22 998.625 1371.44 998.921 Q1371.66 999.217 1371.66 1000.59 L1371.66 1043.16 Q1371.66 1045.43 1372.77 1046.13 Q1373.89 1046.83 1378.74 1046.83 L1381.15 1046.83 L1381.15 1049.17 Q1378.48 1048.95 1368.85 1048.95 Q1359.21 1048.95 1356.58 1049.17 L1356.58 1046.83 L1358.99 1046.83 Q1363.77 1046.83 1364.92 1046.17 Q1366.07 1045.46 1366.07 1043.16 L1366.07 1003.85 Q1362.1 1005.85 1356.1 1005.85 Z" fill="#000000" fill-rule="nonzero" fill-opacity="1" /><path clip-path="url(#clip870)" d="M1390.26 1024.9 Q1390.26 1013.74 1393.08 1007.67 Q1397.01 998.625 1406.27 998.625 Q1408.24 998.625 1410.27 999.18 Q1412.35 999.699 1414.94 1001.74 Q1417.57 1003.78 1419.17 1007.11 Q1422.2 1013.56 1422.2 1024.9 Q1422.2 1035.98 1419.39 1042.02 Q1415.28 1050.84 1406.2 1050.84 Q1402.79 1050.84 1399.3 1049.09 Q1395.86 1047.35 1393.67 1043.16 Q1390.26 1036.9 1390.26 1024.9 M1396.56 1023.97 Q1396.56 1035.42 1397.38 1039.98 Q1398.3 1044.91 1400.82 1047.06 Q1403.38 1049.17 1406.2 1049.17 Q1409.24 1049.17 1411.76 1046.91 Q1414.31 1044.61 1415.09 1039.68 Q1415.94 1034.83 1415.91 1023.97 Q1415.91 1013.41 1415.16 1009.19 Q1414.16 1004.26 1411.5 1002.29 Q1408.87 1000.29 1406.2 1000.29 Q1405.2 1000.29 1404.12 1000.59 Q1403.08 1000.88 1401.57 1001.74 Q1400.05 1002.59 1398.86 1004.7 Q1397.71 1006.81 1397.16 1010 Q1396.56 1014.11 1396.56 1023.97 Z" fill="#000000" fill-rule="nonzero" fill-opacity="1" /><path clip-path="url(#clip870)" d="M1428.21 1024.9 Q1428.21 1013.74 1431.02 1007.67 Q1434.95 998.625 1444.22 998.625 Q1446.18 998.625 1448.22 999.18 Q1450.29 999.699 1452.89 1001.74 Q1455.52 1003.78 1457.11 1007.11 Q1460.15 1013.56 1460.15 1024.9 Q1460.15 1035.98 1457.33 1042.02 Q1453.22 1050.84 1444.14 1050.84 Q1440.73 1050.84 1437.25 1049.09 Q1433.8 1047.35 1431.62 1043.16 Q1428.21 1036.9 1428.21 1024.9 M1434.51 1023.97 Q1434.51 1035.42 1435.32 1039.98 Q1436.25 1044.91 1438.77 1047.06 Q1441.33 1049.17 1444.14 1049.17 Q1447.18 1049.17 1449.7 1046.91 Q1452.26 1044.61 1453.03 1039.68 Q1453.89 1034.83 1453.85 1023.97 Q1453.85 1013.41 1453.11 1009.19 Q1452.11 1004.26 1449.44 1002.29 Q1446.81 1000.29 1444.14 1000.29 Q1443.14 1000.29 1442.07 1000.59 Q1441.03 1000.88 1439.51 1001.74 Q1437.99 1002.59 1436.8 1004.7 Q1435.66 1006.81 1435.1 1010 Q1434.51 1014.11 1434.51 1023.97 Z" fill="#000000" fill-rule="nonzero" fill-opacity="1" /><path clip-path="url(#clip870)" d="M2292.94 1049.17 Q2292.94 1047.8 2293.05 1047.39 Q2293.2 1046.98 2293.8 1046.35 L2308.36 1030.12 Q2316.33 1021.15 2316.33 1013.34 Q2316.33 1008.26 2313.66 1004.63 Q2311.03 1001 2306.17 1001 Q2302.84 1001 2300.02 1003.03 Q2297.2 1005.07 2295.91 1008.7 Q2296.13 1008.63 2296.91 1008.63 Q2298.8 1008.63 2299.84 1009.82 Q2300.91 1011 2300.91 1012.59 Q2300.91 1014.63 2299.58 1015.63 Q2298.28 1016.6 2296.98 1016.6 Q2296.46 1016.6 2295.76 1016.49 Q2295.09 1016.37 2294.02 1015.34 Q2292.94 1014.26 2292.94 1012.37 Q2292.94 1007.07 2296.95 1002.85 Q2300.98 998.625 2307.14 998.625 Q2314.1 998.625 2318.66 1002.77 Q2323.25 1006.89 2323.25 1013.34 Q2323.25 1015.6 2322.55 1017.67 Q2321.88 1019.71 2320.96 1021.3 Q2320.07 1022.9 2317.62 1025.45 Q2315.18 1028.01 2313.21 1029.82 Q2311.25 1031.64 2306.84 1035.49 L2298.8 1043.31 L2312.47 1043.31 Q2319.14 1043.31 2319.66 1042.72 Q2320.4 1041.65 2321.33 1035.98 L2323.25 1035.98 L2321.11 1049.17 L2292.94 1049.17 Z" fill="#000000" fill-rule="nonzero" fill-opacity="1" /><path clip-path="url(#clip870)" d="M2330.07 1024.9 Q2330.07 1013.74 2332.89 1007.67 Q2336.82 998.625 2346.08 998.625 Q2348.04 998.625 2350.08 999.18 Q2352.16 999.699 2354.75 1001.74 Q2357.38 1003.78 2358.98 1007.11 Q2362.01 1013.56 2362.01 1024.9 Q2362.01 1035.98 2359.2 1042.02 Q2355.08 1050.84 2346.01 1050.84 Q2342.6 1050.84 2339.11 1049.09 Q2335.67 1047.35 2333.48 1043.16 Q2330.07 1036.9 2330.07 1024.9 M2336.37 1023.97 Q2336.37 1035.42 2337.19 1039.98 Q2338.11 1044.91 2340.63 1047.06 Q2343.19 1049.17 2346.01 1049.17 Q2349.04 1049.17 2351.56 1046.91 Q2354.12 1044.61 2354.9 1039.68 Q2355.75 1034.83 2355.71 1023.97 Q2355.71 1013.41 2354.97 1009.19 Q2353.97 1004.26 2351.31 1002.29 Q2348.67 1000.29 2346.01 1000.29 Q2345.01 1000.29 2343.93 1000.59 Q2342.89 1000.88 2341.37 1001.74 Q2339.86 1002.59 2338.67 1004.7 Q2337.52 1006.81 2336.96 1010 Q2336.37 1014.11 2336.37 1023.97 Z" fill="#000000" fill-rule="nonzero" fill-opacity="1" /><path clip-path="url(#clip870)" d="M2368.02 1024.9 Q2368.02 1013.74 2370.83 1007.67 Q2374.76 998.625 2384.02 998.625 Q2385.99 998.625 2388.03 999.18 Q2390.1 999.699 2392.7 1001.74 Q2395.33 1003.78 2396.92 1007.11 Q2399.96 1013.56 2399.96 1024.9 Q2399.96 1035.98 2397.14 1042.02 Q2393.03 1050.84 2383.95 1050.84 Q2380.54 1050.84 2377.06 1049.09 Q2373.61 1047.35 2371.43 1043.16 Q2368.02 1036.9 2368.02 1024.9 M2374.32 1023.97 Q2374.32 1035.42 2375.13 1039.98 Q2376.06 1044.91 2378.58 1047.06 Q2381.13 1049.17 2383.95 1049.17 Q2386.99 1049.17 2389.51 1046.91 Q2392.07 1044.61 2392.84 1039.68 Q2393.7 1034.83 2393.66 1023.97 Q2393.66 1013.41 2392.92 1009.19 Q2391.92 1004.26 2389.25 1002.29 Q2386.62 1000.29 2383.95 1000.29 Q2382.95 1000.29 2381.88 1000.59 Q2380.84 1000.88 2379.32 1001.74 Q2377.8 1002.59 2376.61 1004.7 Q2375.47 1006.81 2374.91 1010 Q2374.32 1014.11 2374.32 1023.97 Z" fill="#000000" fill-rule="nonzero" fill-opacity="1" /><path clip-path="url(#clip870)" d="M3230.97 1038.94 Q3230.97 1036.68 3232.27 1035.61 Q3233.57 1034.53 3235.24 1034.53 Q3236.98 1034.53 3238.2 1035.68 Q3239.46 1036.79 3239.46 1038.76 Q3239.46 1040.87 3237.98 1042.05 Q3236.53 1043.24 3234.46 1042.94 Q3236.27 1045.98 3239.61 1047.35 Q3242.98 1048.72 3246.09 1048.72 Q3249.35 1048.72 3251.98 1045.91 Q3254.65 1043.09 3254.65 1036.2 Q3254.65 1030.34 3252.35 1026.97 Q3250.09 1023.6 3245.61 1023.6 L3242.28 1023.6 Q3241.13 1023.6 3240.79 1023.49 Q3240.46 1023.38 3240.46 1022.75 Q3240.46 1022.01 3241.61 1021.86 Q3242.76 1021.86 3244.57 1021.64 Q3248.98 1021.49 3251.32 1017.67 Q3253.43 1014.11 3253.43 1009.04 Q3253.43 1004.41 3251.21 1002.48 Q3249.02 1000.51 3246.17 1000.51 Q3243.5 1000.51 3240.57 1001.63 Q3237.64 1002.74 3236.05 1005.22 Q3240.76 1005.22 3240.76 1009.04 Q3240.76 1010.7 3239.68 1011.82 Q3238.64 1012.89 3236.9 1012.89 Q3235.24 1012.89 3234.12 1011.85 Q3233.01 1010.78 3233.01 1008.96 Q3233.01 1004.63 3236.87 1001.63 Q3240.76 998.625 3246.46 998.625 Q3252.1 998.625 3256.25 1001.59 Q3260.43 1004.55 3260.43 1009.11 Q3260.43 1013.59 3257.47 1017.26 Q3254.5 1020.93 3249.8 1022.45 Q3255.58 1023.6 3259.02 1027.53 Q3262.47 1031.42 3262.47 1036.2 Q3262.47 1042.13 3257.8 1046.5 Q3253.13 1050.84 3246.31 1050.84 Q3240.02 1050.84 3235.49 1047.43 Q3230.97 1044.02 3230.97 1038.94 Z" fill="#000000" fill-rule="nonzero" fill-opacity="1" /><path clip-path="url(#clip870)" d="M3268.7 1024.9 Q3268.7 1013.74 3271.51 1007.67 Q3275.44 998.625 3284.7 998.625 Q3286.67 998.625 3288.71 999.18 Q3290.78 999.699 3293.37 1001.74 Q3296.01 1003.78 3297.6 1007.11 Q3300.64 1013.56 3300.64 1024.9 Q3300.64 1035.98 3297.82 1042.02 Q3293.71 1050.84 3284.63 1050.84 Q3281.22 1050.84 3277.74 1049.09 Q3274.29 1047.35 3272.11 1043.16 Q3268.7 1036.9 3268.7 1024.9 M3275 1023.97 Q3275 1035.42 3275.81 1039.98 Q3276.74 1044.91 3279.26 1047.06 Q3281.81 1049.17 3284.63 1049.17 Q3287.67 1049.17 3290.19 1046.91 Q3292.74 1044.61 3293.52 1039.68 Q3294.38 1034.83 3294.34 1023.97 Q3294.34 1013.41 3293.6 1009.19 Q3292.6 1004.26 3289.93 1002.29 Q3287.3 1000.29 3284.63 1000.29 Q3283.63 1000.29 3282.55 1000.59 Q3281.52 1000.88 3280 1001.74 Q3278.48 1002.59 3277.29 1004.7 Q3276.14 1006.81 3275.59 1010 Q3275 1014.11 3275 1023.97 Z" fill="#000000" fill-rule="nonzero" fill-opacity="1" /><path clip-path="url(#clip870)" d="M3306.64 1024.9 Q3306.64 1013.74 3309.46 1007.67 Q3313.38 998.625 3322.65 998.625 Q3324.61 998.625 3326.65 999.18 Q3328.73 999.699 3331.32 1001.74 Q3333.95 1003.78 3335.54 1007.11 Q3338.58 1013.56 3338.58 1024.9 Q3338.58 1035.98 3335.77 1042.02 Q3331.65 1050.84 3322.57 1050.84 Q3319.17 1050.84 3315.68 1049.09 Q3312.24 1047.35 3310.05 1043.16 Q3306.64 1036.9 3306.64 1024.9 M3312.94 1023.97 Q3312.94 1035.42 3313.76 1039.98 Q3314.68 1044.91 3317.2 1047.06 Q3319.76 1049.17 3322.57 1049.17 Q3325.61 1049.17 3328.13 1046.91 Q3330.69 1044.61 3331.47 1039.68 Q3332.32 1034.83 3332.28 1023.97 Q3332.28 1013.41 3331.54 1009.19 Q3330.54 1004.26 3327.87 1002.29 Q3325.24 1000.29 3322.57 1000.29 Q3321.57 1000.29 3320.5 1000.59 Q3319.46 1000.88 3317.94 1001.74 Q3316.42 1002.59 3315.24 1004.7 Q3314.09 1006.81 3313.53 1010 Q3312.94 1014.11 3312.94 1023.97 Z" fill="#000000" fill-rule="nonzero" fill-opacity="1" /><path clip-path="url(#clip870)" d="M1987.98 1121.99 L1987.98 1119.62 Q1992.09 1119.84 1995.02 1119.84 Q1996.46 1119.84 2003.32 1119.62 L2003.32 1121.99 Q1998.83 1121.99 1998.83 1124.03 Q1998.83 1124.47 1999.2 1125.4 L2006.43 1145.67 L2012.95 1127.29 Q2011.58 1123.58 2011.21 1123.14 Q2010.28 1121.99 2006.43 1121.99 L2006.43 1119.62 Q2009.84 1119.84 2013.17 1119.84 Q2014.47 1119.84 2021.07 1119.62 L2021.07 1121.99 Q2016.58 1121.99 2016.58 1124.03 Q2016.58 1124.32 2016.95 1125.47 L2024.47 1146.63 L2031.37 1127.21 Q2031.74 1126.21 2031.77 1125.62 Q2031.77 1123.95 2030.59 1123.03 Q2029.4 1122.06 2027.37 1121.99 L2027.37 1119.62 Q2031.7 1119.84 2034.41 1119.84 Q2037.44 1119.84 2039.96 1119.62 L2039.96 1121.99 Q2035.26 1122.14 2033.59 1126.84 L2024.7 1151.74 Q2023.85 1153.11 2023.18 1153.19 Q2022.18 1153.19 2021.66 1151.74 L2013.91 1130.18 L2006.24 1151.67 Q2005.95 1152.6 2005.69 1152.89 Q2005.43 1153.19 2004.72 1153.19 Q2004.06 1153.19 2003.76 1152.78 Q2003.46 1152.41 2003.13 1151.48 L1993.57 1124.62 Q1992.9 1122.88 1991.9 1122.43 Q1990.94 1121.99 1987.98 1121.99 Z" fill="#000000" fill-rule="nonzero" fill-opacity="1" /><path clip-path="url(#clip870)" d="M2043.89 1152.34 L2043.89 1150 Q2047.93 1150 2048.86 1149.52 Q2049.78 1149 2049.78 1146.56 L2049.78 1126.14 Q2049.78 1123.32 2048.82 1122.65 Q2047.89 1121.99 2044.19 1121.99 L2044.19 1119.62 L2054.79 1118.8 L2054.79 1146.63 Q2054.79 1148.89 2055.6 1149.45 Q2056.42 1150 2060.12 1150 L2060.12 1152.34 Q2052.38 1152.11 2052.23 1152.11 Q2051.19 1152.11 2043.89 1152.34 M2047.08 1105.57 Q2047.08 1104.05 2048.23 1102.83 Q2049.41 1101.57 2051.08 1101.57 Q2052.75 1101.57 2053.93 1102.72 Q2055.12 1103.83 2055.12 1105.61 Q2055.12 1107.35 2053.93 1108.5 Q2052.75 1109.61 2051.08 1109.61 Q2049.34 1109.61 2048.19 1108.39 Q2047.08 1107.17 2047.08 1105.57 Z" fill="#000000" fill-rule="nonzero" fill-opacity="1" /><path clip-path="url(#clip870)" d="M2064.83 1152.34 L2064.83 1150 Q2068.87 1150 2069.79 1149.52 Q2070.72 1149 2070.72 1146.56 L2070.72 1126.21 Q2070.72 1123.4 2069.72 1122.69 Q2068.76 1121.99 2064.83 1121.99 L2064.83 1119.62 L2075.5 1118.8 L2075.5 1126.77 Q2079.06 1118.8 2086.73 1118.8 Q2092.43 1118.8 2094.69 1121.62 Q2096.36 1123.51 2096.7 1125.62 Q2097.07 1127.73 2097.07 1133.22 L2097.07 1147.7 Q2097.14 1149.3 2098.36 1149.67 Q2099.59 1150 2102.99 1150 L2102.99 1152.34 Q2095.25 1152.11 2094.47 1152.11 Q2093.88 1152.11 2085.91 1152.34 L2085.91 1150 Q2089.95 1150 2090.88 1149.52 Q2091.84 1149 2091.84 1146.56 L2091.84 1128.88 Q2091.84 1125.03 2090.66 1122.77 Q2089.47 1120.47 2086.21 1120.47 Q2082.28 1120.47 2079.13 1123.77 Q2075.98 1127.06 2075.98 1132.62 L2075.98 1146.56 Q2075.98 1149 2076.91 1149.52 Q2077.87 1150 2081.87 1150 L2081.87 1152.34 Q2074.13 1152.11 2073.39 1152.11 Q2072.79 1152.11 2064.83 1152.34 Z" fill="#000000" fill-rule="nonzero" fill-opacity="1" /><path clip-path="url(#clip870)" d="M2107.07 1136.03 Q2107.07 1128.81 2112.11 1123.8 Q2117.15 1118.8 2123.97 1118.8 Q2129.75 1118.8 2133.53 1123.51 L2133.53 1107.09 Q2133.53 1104.28 2132.53 1103.57 Q2131.56 1102.87 2127.64 1102.87 L2127.64 1100.5 L2138.57 1099.68 L2138.57 1145.74 Q2138.57 1148.56 2139.53 1149.3 Q2140.53 1150 2144.46 1150 L2144.46 1152.34 L2133.31 1153.19 L2133.31 1148.15 Q2129.38 1153.15 2123.15 1153.19 Q2116.63 1153.19 2111.85 1148.19 Q2107.07 1143.18 2107.07 1136.03 M2113.37 1136.11 Q2113.37 1143.15 2115.56 1146.63 Q2118.59 1151.48 2123.52 1151.48 Q2129.16 1151.48 2132.49 1146.18 Q2133.34 1144.89 2133.31 1143.37 L2133.31 1127.81 Q2133.31 1126.29 2132.49 1125.03 Q2129.38 1120.47 2124.3 1120.47 Q2119 1120.47 2115.7 1125.32 Q2113.37 1128.95 2113.37 1136.11 Z" fill="#000000" fill-rule="nonzero" fill-opacity="1" /><path clip-path="url(#clip870)" d="M2153.69 1148.26 Q2148.68 1143.29 2148.68 1136.11 Q2148.68 1128.88 2153.57 1123.62 Q2158.5 1118.32 2165.54 1118.32 Q2172.44 1118.32 2177.36 1123.58 Q2182.33 1128.81 2182.33 1136.11 Q2182.33 1143.26 2177.33 1148.22 Q2172.36 1153.19 2165.47 1153.19 Q2158.73 1153.19 2153.69 1148.26 M2154.98 1135.48 Q2154.98 1142.85 2156.91 1146.18 Q2159.87 1151.26 2165.54 1151.26 Q2168.36 1151.26 2170.69 1149.74 Q2173.07 1148.22 2174.36 1145.67 Q2176.03 1142.33 2176.03 1135.48 Q2176.03 1128.18 2174.03 1124.95 Q2171.06 1120.02 2165.47 1120.02 Q2163.02 1120.02 2160.62 1121.32 Q2158.24 1122.58 2156.8 1125.1 Q2154.98 1128.44 2154.98 1135.48 Z" fill="#000000" fill-rule="nonzero" fill-opacity="1" /><path clip-path="url(#clip870)" d="M2183.77 1121.99 L2183.77 1119.62 Q2187.89 1119.84 2190.82 1119.84 Q2192.26 1119.84 2199.12 1119.62 L2199.12 1121.99 Q2194.63 1121.99 2194.63 1124.03 Q2194.63 1124.47 2195 1125.4 L2202.23 1145.67 L2208.75 1127.29 Q2207.38 1123.58 2207.01 1123.14 Q2206.08 1121.99 2202.23 1121.99 L2202.23 1119.62 Q2205.64 1119.84 2208.97 1119.84 Q2210.27 1119.84 2216.86 1119.62 L2216.86 1121.99 Q2212.38 1121.99 2212.38 1124.03 Q2212.38 1124.32 2212.75 1125.47 L2220.27 1146.63 L2227.17 1127.21 Q2227.54 1126.21 2227.57 1125.62 Q2227.57 1123.95 2226.39 1123.03 Q2225.2 1122.06 2223.16 1121.99 L2223.16 1119.62 Q2227.5 1119.84 2230.2 1119.84 Q2233.24 1119.84 2235.76 1119.62 L2235.76 1121.99 Q2231.06 1122.14 2229.39 1126.84 L2220.5 1151.74 Q2219.64 1153.11 2218.98 1153.19 Q2217.98 1153.19 2217.46 1151.74 L2209.71 1130.18 L2202.04 1151.67 Q2201.75 1152.6 2201.49 1152.89 Q2201.23 1153.19 2200.52 1153.19 Q2199.86 1153.19 2199.56 1152.78 Q2199.26 1152.41 2198.93 1151.48 L2189.37 1124.62 Q2188.7 1122.88 2187.7 1122.43 Q2186.74 1121.99 2183.77 1121.99 Z" fill="#000000" fill-rule="nonzero" fill-opacity="1" /><polyline clip-path="url(#clip870)" style="stroke:#000000; stroke-linecap:round; stroke-linejoin:round; stroke-width:4; stroke-opacity:1; fill:none" points="381.219,952.368 381.219,86.3201 "/>
<polyline clip-path="url(#clip870)" style="stroke:#000000; stroke-linecap:round; stroke-linejoin:round; stroke-width:4; stroke-opacity:1; fill:none" points="381.219,927.857 400.116,927.857 "/>
<polyline clip-path="url(#clip870)" style="stroke:#000000; stroke-linecap:round; stroke-linejoin:round; stroke-width:4; stroke-opacity:1; fill:none" points="381.219,723.6 400.116,723.6 "/>
<polyline clip-path="url(#clip870)" style="stroke:#000000; stroke-linecap:round; stroke-linejoin:round; stroke-width:4; stroke-opacity:1; fill:none" points="381.219,519.344 400.116,519.344 "/>
<polyline clip-path="url(#clip870)" style="stroke:#000000; stroke-linecap:round; stroke-linejoin:round; stroke-width:4; stroke-opacity:1; fill:none" points="381.219,315.087 400.116,315.087 "/>
<polyline clip-path="url(#clip870)" style="stroke:#000000; stroke-linecap:round; stroke-linejoin:round; stroke-width:4; stroke-opacity:1; fill:none" points="381.219,110.831 400.116,110.831 "/>
<path clip-path="url(#clip870)" d="M192.304 929.506 Q192.304 918.352 195.121 912.275 Q199.048 903.234 208.312 903.234 Q210.276 903.234 212.314 903.79 Q214.389 904.308 216.983 906.346 Q219.614 908.384 221.207 911.719 Q224.246 918.167 224.246 929.506 Q224.246 940.585 221.43 946.625 Q217.317 955.444 208.238 955.444 Q204.829 955.444 201.346 953.703 Q197.9 951.961 195.713 947.774 Q192.304 941.512 192.304 929.506 M198.604 928.579 Q198.604 940.029 199.419 944.587 Q200.345 949.516 202.865 951.665 Q205.422 953.777 208.238 953.777 Q211.277 953.777 213.796 951.516 Q216.353 949.219 217.131 944.291 Q217.984 939.437 217.946 928.579 Q217.946 918.019 217.205 913.794 Q216.205 908.866 213.537 906.902 Q210.906 904.901 208.238 904.901 Q207.238 904.901 206.163 905.198 Q205.125 905.494 203.606 906.346 Q202.087 907.199 200.901 909.311 Q199.752 911.423 199.197 914.61 Q198.604 918.723 198.604 928.579 Z" fill="#000000" fill-rule="nonzero" fill-opacity="1" /><path clip-path="url(#clip870)" d="M234.881 952.554 Q233.732 951.331 233.732 949.738 Q233.732 948.144 234.881 946.996 Q236.029 945.81 237.771 945.81 Q239.438 945.81 240.55 946.922 Q241.699 947.996 241.699 949.775 Q241.699 951.516 240.476 952.665 Q239.29 953.777 237.771 953.777 Q236.029 953.777 234.881 952.554 Z" fill="#000000" fill-rule="nonzero" fill-opacity="1" /><path clip-path="url(#clip870)" d="M251.333 929.506 Q251.333 918.352 254.149 912.275 Q258.077 903.234 267.341 903.234 Q269.305 903.234 271.343 903.79 Q273.418 904.308 276.012 906.346 Q278.643 908.384 280.236 911.719 Q283.274 918.167 283.274 929.506 Q283.274 940.585 280.458 946.625 Q276.345 955.444 267.267 955.444 Q263.858 955.444 260.374 953.703 Q256.928 951.961 254.742 947.774 Q251.333 941.512 251.333 929.506 M257.632 928.579 Q257.632 940.029 258.448 944.587 Q259.374 949.516 261.894 951.665 Q264.451 953.777 267.267 953.777 Q270.305 953.777 272.825 951.516 Q275.382 949.219 276.16 944.291 Q277.012 939.437 276.975 928.579 Q276.975 918.019 276.234 913.794 Q275.234 908.866 272.566 906.902 Q269.935 904.901 267.267 904.901 Q266.266 904.901 265.192 905.198 Q264.154 905.494 262.635 906.346 Q261.116 907.199 259.93 909.311 Q258.781 911.423 258.225 914.61 Q257.632 918.723 257.632 928.579 Z" fill="#000000" fill-rule="nonzero" fill-opacity="1" /><path clip-path="url(#clip870)" d="M289.277 929.506 Q289.277 918.352 292.094 912.275 Q296.021 903.234 305.285 903.234 Q307.249 903.234 309.287 903.79 Q311.362 904.308 313.956 906.346 Q316.587 908.384 318.18 911.719 Q321.219 918.167 321.219 929.506 Q321.219 940.585 318.403 946.625 Q314.29 955.444 305.211 955.444 Q301.802 955.444 298.319 953.703 Q294.873 951.961 292.686 947.774 Q289.277 941.512 289.277 929.506 M295.577 928.579 Q295.577 940.029 296.392 944.587 Q297.318 949.516 299.838 951.665 Q302.395 953.777 305.211 953.777 Q308.25 953.777 310.769 951.516 Q313.326 949.219 314.104 944.291 Q314.957 939.437 314.92 928.579 Q314.92 918.019 314.178 913.794 Q313.178 908.866 310.51 906.902 Q307.879 904.901 305.211 904.901 Q304.211 904.901 303.136 905.198 Q302.098 905.494 300.579 906.346 Q299.06 907.199 297.874 909.311 Q296.725 911.423 296.17 914.61 Q295.577 918.723 295.577 928.579 Z" fill="#000000" fill-rule="nonzero" fill-opacity="1" /><path clip-path="url(#clip870)" d="M193.12 725.249 Q193.12 714.096 195.936 708.019 Q199.864 698.977 209.127 698.977 Q211.091 698.977 213.129 699.533 Q215.204 700.052 217.798 702.09 Q220.429 704.128 222.023 707.463 Q225.061 713.91 225.061 725.249 Q225.061 736.329 222.245 742.369 Q218.132 751.188 209.053 751.188 Q205.644 751.188 202.161 749.446 Q198.715 747.705 196.529 743.517 Q193.12 737.255 193.12 725.249 M199.419 724.323 Q199.419 735.773 200.234 740.331 Q201.161 745.259 203.68 747.408 Q206.237 749.52 209.053 749.52 Q212.092 749.52 214.612 747.26 Q217.168 744.963 217.946 740.034 Q218.799 735.18 218.762 724.323 Q218.762 713.762 218.021 709.538 Q217.02 704.61 214.352 702.646 Q211.721 700.645 209.053 700.645 Q208.053 700.645 206.978 700.941 Q205.941 701.238 204.421 702.09 Q202.902 702.942 201.716 705.054 Q200.568 707.166 200.012 710.353 Q199.419 714.466 199.419 724.323 Z" fill="#000000" fill-rule="nonzero" fill-opacity="1" /><path clip-path="url(#clip870)" d="M235.696 748.298 Q234.547 747.075 234.547 745.481 Q234.547 743.888 235.696 742.739 Q236.845 741.554 238.586 741.554 Q240.254 741.554 241.365 742.665 Q242.514 743.74 242.514 745.518 Q242.514 747.26 241.291 748.409 Q240.105 749.52 238.586 749.52 Q236.845 749.52 235.696 748.298 Z" fill="#000000" fill-rule="nonzero" fill-opacity="1" /><path clip-path="url(#clip870)" d="M252.963 749.52 Q252.963 748.149 253.075 747.742 Q253.223 747.334 253.816 746.704 L268.378 730.474 Q276.345 721.507 276.345 713.688 Q276.345 708.612 273.677 704.98 Q271.046 701.349 266.192 701.349 Q262.857 701.349 260.041 703.387 Q257.225 705.425 255.928 709.056 Q256.15 708.982 256.928 708.982 Q258.818 708.982 259.856 710.168 Q260.93 711.354 260.93 712.947 Q260.93 714.985 259.596 715.986 Q258.299 716.949 257.002 716.949 Q256.484 716.949 255.78 716.838 Q255.113 716.727 254.038 715.689 Q252.963 714.615 252.963 712.725 Q252.963 707.426 256.965 703.202 Q261.004 698.977 267.156 698.977 Q274.122 698.977 278.68 703.127 Q283.274 707.241 283.274 713.688 Q283.274 715.948 282.57 718.024 Q281.903 720.062 280.977 721.655 Q280.088 723.248 277.642 725.805 Q275.197 728.362 273.233 730.178 Q271.269 731.993 266.859 735.847 L258.818 743.666 L272.491 743.666 Q279.161 743.666 279.68 743.073 Q280.421 741.998 281.348 736.329 L283.274 736.329 L281.125 749.52 L252.963 749.52 Z" fill="#000000" fill-rule="nonzero" fill-opacity="1" /><path clip-path="url(#clip870)" d="M290.908 737.292 Q290.908 735.032 292.131 734.18 Q293.353 733.29 294.65 733.29 Q296.392 733.29 297.392 734.402 Q298.43 735.476 298.43 736.996 Q298.43 738.515 297.392 739.627 Q296.392 740.701 294.65 740.701 Q293.798 740.701 293.353 740.553 Q294.354 744.036 297.392 746.556 Q300.468 749.076 304.507 749.076 Q309.584 749.076 312.622 744.147 Q314.438 740.961 314.438 733.735 Q314.438 727.361 313.067 724.175 Q310.955 719.321 306.619 719.321 Q300.468 719.321 296.837 724.619 Q296.392 725.286 295.873 725.323 Q295.132 725.323 294.947 724.916 Q294.799 724.471 294.799 723.322 L294.799 700.867 Q294.799 699.051 295.54 699.051 Q295.836 699.051 296.466 699.274 Q301.246 701.386 306.545 701.423 Q311.992 701.423 316.883 699.2 Q317.254 698.977 317.476 698.977 Q318.217 698.977 318.254 699.83 Q318.254 700.126 317.625 701.015 Q317.032 701.868 315.735 703.016 Q314.438 704.128 312.77 705.203 Q311.103 706.277 308.657 707.018 Q306.249 707.722 303.581 707.722 Q300.394 707.722 297.133 706.722 L297.133 721.507 Q301.061 717.653 306.767 717.653 Q312.844 717.653 317.032 722.544 Q321.219 727.436 321.219 734.254 Q321.219 741.405 316.253 746.297 Q311.325 751.188 304.655 751.188 Q298.578 751.188 294.725 746.852 Q290.908 742.517 290.908 737.292 Z" fill="#000000" fill-rule="nonzero" fill-opacity="1" /><path clip-path="url(#clip870)" d="M192.304 520.993 Q192.304 509.839 195.121 503.762 Q199.048 494.721 208.312 494.721 Q210.276 494.721 212.314 495.277 Q214.389 495.795 216.983 497.833 Q219.614 499.871 221.207 503.206 Q224.246 509.654 224.246 520.993 Q224.246 532.072 221.43 538.112 Q217.317 546.931 208.238 546.931 Q204.829 546.931 201.346 545.19 Q197.9 543.448 195.713 539.261 Q192.304 532.999 192.304 520.993 M198.604 520.066 Q198.604 531.516 199.419 536.074 Q200.345 541.003 202.865 543.152 Q205.422 545.264 208.238 545.264 Q211.277 545.264 213.796 543.004 Q216.353 540.706 217.131 535.778 Q217.984 530.924 217.946 520.066 Q217.946 509.506 217.205 505.281 Q216.205 500.353 213.537 498.389 Q210.906 496.388 208.238 496.388 Q207.238 496.388 206.163 496.685 Q205.125 496.981 203.606 497.833 Q202.087 498.686 200.901 500.798 Q199.752 502.91 199.197 506.097 Q198.604 510.21 198.604 520.066 Z" fill="#000000" fill-rule="nonzero" fill-opacity="1" /><path clip-path="url(#clip870)" d="M234.881 544.041 Q233.732 542.818 233.732 541.225 Q233.732 539.632 234.881 538.483 Q236.029 537.297 237.771 537.297 Q239.438 537.297 240.55 538.409 Q241.699 539.483 241.699 541.262 Q241.699 543.004 240.476 544.152 Q239.29 545.264 237.771 545.264 Q236.029 545.264 234.881 544.041 Z" fill="#000000" fill-rule="nonzero" fill-opacity="1" /><path clip-path="url(#clip870)" d="M252.148 533.036 Q252.148 530.775 253.371 529.923 Q254.594 529.034 255.891 529.034 Q257.632 529.034 258.633 530.145 Q259.67 531.22 259.67 532.739 Q259.67 534.259 258.633 535.37 Q257.632 536.445 255.891 536.445 Q255.039 536.445 254.594 536.297 Q255.594 539.78 258.633 542.299 Q261.708 544.819 265.747 544.819 Q270.824 544.819 273.863 539.891 Q275.678 536.704 275.678 529.478 Q275.678 523.105 274.307 519.918 Q272.195 515.064 267.86 515.064 Q261.708 515.064 258.077 520.363 Q257.632 521.03 257.114 521.067 Q256.373 521.067 256.187 520.659 Q256.039 520.215 256.039 519.066 L256.039 496.611 Q256.039 494.795 256.78 494.795 Q257.077 494.795 257.707 495.017 Q262.487 497.129 267.785 497.166 Q273.233 497.166 278.124 494.943 Q278.494 494.721 278.717 494.721 Q279.458 494.721 279.495 495.573 Q279.495 495.87 278.865 496.759 Q278.272 497.611 276.975 498.76 Q275.678 499.871 274.011 500.946 Q272.343 502.021 269.898 502.762 Q267.489 503.466 264.821 503.466 Q261.634 503.466 258.374 502.465 L258.374 517.25 Q262.301 513.397 268.008 513.397 Q274.085 513.397 278.272 518.288 Q282.459 523.179 282.459 529.997 Q282.459 537.149 277.494 542.04 Q272.566 546.931 265.896 546.931 Q259.819 546.931 255.965 542.596 Q252.148 538.26 252.148 533.036 Z" fill="#000000" fill-rule="nonzero" fill-opacity="1" /><path clip-path="url(#clip870)" d="M289.277 520.993 Q289.277 509.839 292.094 503.762 Q296.021 494.721 305.285 494.721 Q307.249 494.721 309.287 495.277 Q311.362 495.795 313.956 497.833 Q316.587 499.871 318.18 503.206 Q321.219 509.654 321.219 520.993 Q321.219 532.072 318.403 538.112 Q314.29 546.931 305.211 546.931 Q301.802 546.931 298.319 545.19 Q294.873 543.448 292.686 539.261 Q289.277 532.999 289.277 520.993 M295.577 520.066 Q295.577 531.516 296.392 536.074 Q297.318 541.003 299.838 543.152 Q302.395 545.264 305.211 545.264 Q308.25 545.264 310.769 543.004 Q313.326 540.706 314.104 535.778 Q314.957 530.924 314.92 520.066 Q314.92 509.506 314.178 505.281 Q313.178 500.353 310.51 498.389 Q307.879 496.388 305.211 496.388 Q304.211 496.388 303.136 496.685 Q302.098 496.981 300.579 497.833 Q299.06 498.686 297.874 500.798 Q296.725 502.91 296.17 506.097 Q295.577 510.21 295.577 520.066 Z" fill="#000000" fill-rule="nonzero" fill-opacity="1" /><path clip-path="url(#clip870)" d="M193.12 316.736 Q193.12 305.583 195.936 299.506 Q199.864 290.464 209.127 290.464 Q211.091 290.464 213.129 291.02 Q215.204 291.539 217.798 293.577 Q220.429 295.615 222.023 298.95 Q225.061 305.397 225.061 316.736 Q225.061 327.816 222.245 333.856 Q218.132 342.675 209.053 342.675 Q205.644 342.675 202.161 340.933 Q198.715 339.192 196.529 335.004 Q193.12 328.742 193.12 316.736 M199.419 315.81 Q199.419 327.26 200.234 331.818 Q201.161 336.746 203.68 338.895 Q206.237 341.007 209.053 341.007 Q212.092 341.007 214.612 338.747 Q217.168 336.45 217.946 331.521 Q218.799 326.667 218.762 315.81 Q218.762 305.249 218.021 301.025 Q217.02 296.097 214.352 294.133 Q211.721 292.132 209.053 292.132 Q208.053 292.132 206.978 292.428 Q205.941 292.725 204.421 293.577 Q202.902 294.429 201.716 296.541 Q200.568 298.653 200.012 301.84 Q199.419 305.953 199.419 315.81 Z" fill="#000000" fill-rule="nonzero" fill-opacity="1" /><path clip-path="url(#clip870)" d="M235.696 339.785 Q234.547 338.562 234.547 336.968 Q234.547 335.375 235.696 334.226 Q236.845 333.041 238.586 333.041 Q240.254 333.041 241.365 334.152 Q242.514 335.227 242.514 337.005 Q242.514 338.747 241.291 339.896 Q240.105 341.007 238.586 341.007 Q236.845 341.007 235.696 339.785 Z" fill="#000000" fill-rule="nonzero" fill-opacity="1" /><path clip-path="url(#clip870)" d="M253.445 305.323 L255.928 289.723 L257.818 289.723 Q258.04 290.65 258.411 291.057 Q258.818 291.465 260.967 291.798 Q263.154 292.132 267.563 292.132 L285.98 292.132 Q285.98 293.873 285.313 294.8 L275.048 309.214 Q271.787 313.772 270.342 322.183 Q269.49 327.816 269.527 334.634 L269.527 338.488 Q269.527 342.675 266.007 342.675 Q262.524 342.675 262.524 338.488 Q262.524 323.999 271.862 309.955 Q272.862 308.51 276.53 303.359 Q280.236 298.209 280.384 297.986 L264.673 297.986 Q257.781 297.986 257.225 298.431 Q256.484 299.098 255.335 305.323 L253.445 305.323 Z" fill="#000000" fill-rule="nonzero" fill-opacity="1" /><path clip-path="url(#clip870)" d="M290.908 328.779 Q290.908 326.519 292.131 325.667 Q293.353 324.777 294.65 324.777 Q296.392 324.777 297.392 325.889 Q298.43 326.964 298.43 328.483 Q298.43 330.002 297.392 331.114 Q296.392 332.188 294.65 332.188 Q293.798 332.188 293.353 332.04 Q294.354 335.523 297.392 338.043 Q300.468 340.563 304.507 340.563 Q309.584 340.563 312.622 335.634 Q314.438 332.448 314.438 325.222 Q314.438 318.848 313.067 315.662 Q310.955 310.808 306.619 310.808 Q300.468 310.808 296.837 316.106 Q296.392 316.773 295.873 316.81 Q295.132 316.81 294.947 316.403 Q294.799 315.958 294.799 314.809 L294.799 292.354 Q294.799 290.538 295.54 290.538 Q295.836 290.538 296.466 290.761 Q301.246 292.873 306.545 292.91 Q311.992 292.91 316.883 290.687 Q317.254 290.464 317.476 290.464 Q318.217 290.464 318.254 291.317 Q318.254 291.613 317.625 292.502 Q317.032 293.355 315.735 294.503 Q314.438 295.615 312.77 296.69 Q311.103 297.764 308.657 298.505 Q306.249 299.209 303.581 299.209 Q300.394 299.209 297.133 298.209 L297.133 312.994 Q301.061 309.14 306.767 309.14 Q312.844 309.14 317.032 314.031 Q321.219 318.923 321.219 325.741 Q321.219 332.892 316.253 337.784 Q311.325 342.675 304.655 342.675 Q298.578 342.675 294.725 338.339 Q290.908 334.004 290.908 328.779 Z" fill="#000000" fill-rule="nonzero" fill-opacity="1" /><path clip-path="url(#clip870)" d="M196.084 93.4336 L196.084 91.062 Q205.2 91.062 209.906 86.2078 Q211.202 86.2078 211.425 86.5043 Q211.647 86.8007 211.647 88.1717 L211.647 130.748 Q211.647 133.008 212.759 133.712 Q213.87 134.416 218.725 134.416 L221.133 134.416 L221.133 136.751 Q218.465 136.529 208.831 136.529 Q199.197 136.529 196.566 136.751 L196.566 134.416 L198.974 134.416 Q203.754 134.416 204.903 133.749 Q206.052 133.045 206.052 130.748 L206.052 91.4326 Q202.087 93.4336 196.084 93.4336 Z" fill="#000000" fill-rule="nonzero" fill-opacity="1" /><path clip-path="url(#clip870)" d="M234.881 135.528 Q233.732 134.305 233.732 132.712 Q233.732 131.119 234.881 129.97 Q236.029 128.784 237.771 128.784 Q239.438 128.784 240.55 129.896 Q241.699 130.97 241.699 132.749 Q241.699 134.491 240.476 135.639 Q239.29 136.751 237.771 136.751 Q236.029 136.751 234.881 135.528 Z" fill="#000000" fill-rule="nonzero" fill-opacity="1" /><path clip-path="url(#clip870)" d="M251.333 112.48 Q251.333 101.326 254.149 95.2493 Q258.077 86.2078 267.341 86.2078 Q269.305 86.2078 271.343 86.7637 Q273.418 87.2824 276.012 89.3205 Q278.643 91.3585 280.236 94.6934 Q283.274 101.141 283.274 112.48 Q283.274 123.559 280.458 129.599 Q276.345 138.418 267.267 138.418 Q263.858 138.418 260.374 136.677 Q256.928 134.935 254.742 130.748 Q251.333 124.486 251.333 112.48 M257.632 111.553 Q257.632 123.003 258.448 127.561 Q259.374 132.49 261.894 134.639 Q264.451 136.751 267.267 136.751 Q270.305 136.751 272.825 134.491 Q275.382 132.193 276.16 127.265 Q277.012 122.411 276.975 111.553 Q276.975 100.993 276.234 96.7685 Q275.234 91.8402 272.566 89.8763 Q269.935 87.8753 267.267 87.8753 Q266.266 87.8753 265.192 88.1717 Q264.154 88.4682 262.635 89.3205 Q261.116 90.1727 259.93 92.2849 Q258.781 94.397 258.225 97.5837 Q257.632 101.697 257.632 111.553 Z" fill="#000000" fill-rule="nonzero" fill-opacity="1" /><path clip-path="url(#clip870)" d="M289.277 112.48 Q289.277 101.326 292.094 95.2493 Q296.021 86.2078 305.285 86.2078 Q307.249 86.2078 309.287 86.7637 Q311.362 87.2824 313.956 89.3205 Q316.587 91.3585 318.18 94.6934 Q321.219 101.141 321.219 112.48 Q321.219 123.559 318.403 129.599 Q314.29 138.418 305.211 138.418 Q301.802 138.418 298.319 136.677 Q294.873 134.935 292.686 130.748 Q289.277 124.486 289.277 112.48 M295.577 111.553 Q295.577 123.003 296.392 127.561 Q297.318 132.49 299.838 134.639 Q302.395 136.751 305.211 136.751 Q308.25 136.751 310.769 134.491 Q313.326 132.193 314.104 127.265 Q314.957 122.411 314.92 111.553 Q314.92 100.993 314.178 96.7685 Q313.178 91.8402 310.51 89.8763 Q307.879 87.8753 305.211 87.8753 Q304.211 87.8753 303.136 88.1717 Q302.098 88.4682 300.579 89.3205 Q299.06 90.1727 297.874 92.2849 Q296.725 94.397 296.17 97.5837 Q295.577 101.697 295.577 111.553 Z" fill="#000000" fill-rule="nonzero" fill-opacity="1" /><path clip-path="url(#clip870)" d="M116.752 979.697 L114.418 979.697 Q114.418 975.658 113.936 974.732 Q113.417 973.805 110.972 973.805 L90.6286 973.805 Q87.8124 973.805 87.1083 974.806 Q86.4043 975.769 86.4043 979.697 L84.0328 979.697 L83.2176 969.025 L91.1844 969.025 Q83.2176 965.468 83.2176 957.798 Q83.2176 952.091 86.0338 949.831 Q87.9236 948.163 90.0357 947.83 Q92.1478 947.459 97.632 947.459 L112.12 947.459 Q113.714 947.385 114.084 946.162 Q114.418 944.94 114.418 941.53 L116.752 941.53 Q116.53 949.275 116.53 950.053 Q116.53 950.646 116.752 958.613 L114.418 958.613 Q114.418 954.574 113.936 953.647 Q113.417 952.684 110.972 952.684 L93.2965 952.684 Q89.4428 952.684 87.1825 953.87 Q84.885 955.056 84.885 958.316 Q84.885 962.244 88.1829 965.394 Q91.4808 968.544 97.0391 968.544 L110.972 968.544 Q113.417 968.544 113.936 967.617 Q114.418 966.654 114.418 962.652 L116.752 962.652 Q116.53 970.396 116.53 971.137 Q116.53 971.73 116.752 979.697 Z" fill="#000000" fill-rule="nonzero" fill-opacity="1" /><path clip-path="url(#clip870)" d="M112.676 932.934 Q107.711 937.936 100.522 937.936 Q93.2965 937.936 88.0347 933.045 Q82.7359 928.117 82.7359 921.076 Q82.7359 914.184 87.9977 909.256 Q93.2224 904.29 100.522 904.29 Q107.674 904.29 112.639 909.293 Q117.605 914.258 117.605 921.15 Q117.605 927.894 112.676 932.934 M99.8923 931.637 Q107.266 931.637 110.601 929.71 Q115.678 926.746 115.678 921.076 Q115.678 918.26 114.159 915.925 Q112.639 913.554 110.082 912.257 Q106.748 910.59 99.8923 910.59 Q92.5925 910.59 89.3687 912.59 Q84.4404 915.555 84.4404 921.15 Q84.4404 923.596 85.7373 926.004 Q86.9972 928.376 89.5169 929.821 Q92.8519 931.637 99.8923 931.637 Z" fill="#000000" fill-rule="nonzero" fill-opacity="1" /><path clip-path="url(#clip870)" d="M116.752 899.992 L114.418 899.992 Q114.418 895.953 113.936 895.026 Q113.417 894.063 110.972 894.063 L90.6286 894.063 Q87.8124 894.063 87.1083 895.063 Q86.4043 896.027 86.4043 899.992 L84.0328 899.992 L83.2176 889.431 L91.555 889.431 Q88.2941 888.356 85.7744 886.096 Q83.2176 883.799 83.2176 880.093 Q83.2176 877.648 84.5886 876.091 Q85.9596 874.498 87.8494 874.498 Q89.5169 874.498 90.3692 875.535 Q91.1844 876.536 91.1844 877.759 Q91.1844 879.13 90.3321 880.093 Q89.4428 881.02 87.9236 881.02 Q86.9972 881.02 86.2931 880.612 Q85.552 880.167 85.2926 879.834 Q85.0333 879.5 84.9592 879.278 Q84.885 879.426 84.885 880.093 Q84.885 884.28 89.0723 886.689 Q93.2224 889.061 99.1512 889.061 L110.824 889.061 Q113.01 889.061 113.714 888.171 Q114.418 887.245 114.418 883.28 L114.418 881.687 L116.752 881.687 Q116.53 884.725 116.53 891.321 Q116.53 892.247 116.567 893.692 Q116.604 895.138 116.678 897.027 Q116.752 898.917 116.752 899.992 Z" fill="#000000" fill-rule="nonzero" fill-opacity="1" /><path clip-path="url(#clip870)" d="M116.752 870.014 L114.418 870.014 Q114.418 865.975 113.936 865.049 Q113.417 864.122 110.972 864.122 L90.6286 864.122 Q87.8124 864.122 87.1083 865.123 Q86.4043 866.086 86.4043 870.014 L84.0328 870.014 L83.2176 859.342 L91.1844 859.342 Q83.2176 855.785 83.2176 848.115 Q83.2176 839.222 90.6286 837.999 Q87.7383 836.702 85.4779 833.997 Q83.2176 831.255 83.2176 826.993 Q83.2176 821.287 86.0338 819.027 Q87.9236 817.359 90.0357 817.026 Q92.1478 816.692 97.632 816.692 L112.12 816.692 Q113.714 816.618 114.084 815.395 Q114.418 814.172 114.418 810.763 L116.752 810.763 Q116.53 818.508 116.53 819.249 Q116.53 819.842 116.752 827.846 L114.418 827.846 Q114.418 823.807 113.936 822.88 Q113.417 821.917 110.972 821.917 L93.2965 821.917 Q89.4428 821.917 87.1825 823.103 Q84.885 824.288 84.885 827.549 Q84.885 831.477 88.1829 834.627 Q91.4808 837.776 97.0391 837.776 L110.972 837.776 Q113.417 837.776 113.936 836.85 Q114.418 835.887 114.418 831.848 L116.752 831.848 Q116.53 839.592 116.53 840.37 Q116.53 840.963 116.752 848.93 L114.418 848.93 Q114.418 844.891 113.936 843.965 Q113.417 843.001 110.972 843.001 L93.2965 843.001 Q89.4428 843.001 87.1825 844.187 Q84.885 845.373 84.885 848.633 Q84.885 852.561 88.1829 855.711 Q91.4808 858.861 97.0391 858.861 L110.972 858.861 Q113.417 858.861 113.936 857.934 Q114.418 856.971 114.418 852.969 L116.752 852.969 Q116.53 860.713 116.53 861.455 Q116.53 862.047 116.752 870.014 Z" fill="#000000" fill-rule="nonzero" fill-opacity="1" /><path clip-path="url(#clip870)" d="M109.527 806.094 Q103.079 806.094 99.67 798.498 Q97.4838 793.94 96.9279 784.528 L94.1488 784.528 Q89.4428 784.528 86.9601 787.011 Q84.4404 789.457 84.4404 792.569 Q84.4404 798.127 87.9236 800.795 Q87.9977 798.535 89.1464 797.72 Q90.258 796.905 91.4067 796.905 Q92.926 796.905 93.9265 797.868 Q94.8899 798.794 94.8899 800.388 Q94.8899 801.907 93.9635 802.908 Q93.0001 803.908 91.3326 803.908 Q87.6271 803.908 85.1815 800.573 Q82.7359 797.201 82.7359 792.421 Q82.7359 786.196 86.9231 782.046 Q88.22 780.749 89.8875 780.119 Q91.555 779.452 92.6666 779.378 Q93.7412 779.304 95.8904 779.304 L111.046 779.304 Q111.491 779.304 112.232 779.155 Q112.973 779.007 113.936 778.34 Q114.863 777.636 114.863 776.487 Q114.863 773.745 110.008 773.782 L105.747 773.782 L105.747 771.855 L110.008 771.855 Q114.047 771.855 115.641 774.005 Q117.197 776.117 117.197 778.081 Q117.197 780.6 115.344 782.194 Q113.492 783.787 110.972 784.009 Q113.862 785.158 115.752 787.789 Q117.605 790.383 117.605 793.94 Q117.605 796.682 116.901 799.276 Q116.234 801.833 114.344 803.982 Q112.417 806.094 109.527 806.094 M109.453 800.24 Q112.269 800.24 114.084 798.239 Q115.9 796.238 115.9 793.421 Q115.9 790.235 113.454 787.382 Q110.972 784.528 106.118 784.528 L98.5213 784.528 Q98.8177 792.94 102.19 796.608 Q105.525 800.24 109.453 800.24 Z" fill="#000000" fill-rule="nonzero" fill-opacity="1" /><path clip-path="url(#clip870)" d="M116.752 768.817 L114.418 768.817 Q114.418 764.778 113.936 763.852 Q113.417 762.925 110.972 762.925 L71.5082 762.925 Q68.692 762.925 67.9879 763.926 Q67.2839 764.889 67.2839 768.817 L64.9124 768.817 L64.0972 757.923 L110.972 757.923 Q113.417 757.923 113.936 756.959 Q114.418 755.996 114.418 751.994 L116.752 751.994 Q116.752 752.92 116.678 754.847 Q116.604 756.774 116.567 758.182 Q116.53 759.59 116.53 760.405 Q116.53 761.295 116.752 768.817 Z" fill="#000000" fill-rule="nonzero" fill-opacity="1" /><path clip-path="url(#clip870)" d="M116.752 747.807 L114.418 747.807 Q114.418 743.768 113.936 742.841 Q113.417 741.915 110.972 741.915 L90.5545 741.915 Q87.7383 741.915 87.0713 742.878 Q86.4043 743.805 86.4043 747.51 L84.0328 747.51 L83.2176 736.913 L111.046 736.913 Q113.306 736.913 113.862 736.097 Q114.418 735.282 114.418 731.577 L116.752 731.577 Q116.53 739.321 116.53 739.469 Q116.53 740.507 116.752 747.807 M69.9889 744.62 Q68.4697 744.62 67.2468 743.471 Q65.987 742.286 65.987 740.618 Q65.987 738.951 67.1357 737.765 Q68.2473 736.579 70.026 736.579 Q71.7676 736.579 72.9163 737.765 Q74.0279 738.951 74.0279 740.618 Q74.0279 742.36 72.8051 743.508 Q71.5823 744.62 69.9889 744.62 Z" fill="#000000" fill-rule="nonzero" fill-opacity="1" /><path clip-path="url(#clip870)" d="M115.752 726.797 L105.747 726.797 Q104.895 726.797 104.598 726.759 Q104.302 726.722 104.08 726.5 Q103.857 726.278 103.857 725.833 Q103.857 725.314 104.08 725.129 Q104.302 724.907 105.154 724.758 Q110.379 723.61 113.158 721.164 Q115.9 718.681 115.9 714.198 Q115.9 709.936 114.01 707.787 Q112.12 705.638 109.008 705.638 Q103.45 705.638 102.042 713.531 Q101.115 718.089 100.522 719.978 Q99.8923 721.868 98.5213 723.536 Q95.8533 726.797 92.0737 726.797 Q88.2941 726.797 85.515 723.943 Q82.7359 721.053 82.7359 714.68 Q82.7359 710.418 84.885 707.528 Q84.2181 706.676 83.6622 706.231 Q82.7359 705.23 82.7359 704.712 Q82.7359 704.119 83.1435 704.008 Q83.514 703.896 84.5886 703.896 L92.2219 703.896 Q93.0742 703.896 93.3706 703.934 Q93.6671 703.971 93.8894 704.193 Q94.0747 704.415 94.0747 704.897 Q94.0747 705.749 93.3706 705.786 Q84.181 706.379 84.181 714.68 Q84.181 719.163 85.9226 721.164 Q87.6271 723.165 89.9616 723.165 Q91.2585 723.165 92.259 722.572 Q93.2224 721.942 93.8153 721.164 Q94.3711 720.349 94.927 718.867 Q95.4457 717.385 95.631 716.495 Q95.8163 715.569 96.1868 713.827 Q97.3355 707.75 99.8182 705.193 Q103.005 702.007 107.044 702.007 Q111.528 702.007 114.566 705.045 Q117.605 708.084 117.605 714.198 Q117.605 719.126 114.307 722.572 Q114.751 723.017 115.159 723.35 Q115.53 723.684 115.678 723.832 Q115.826 723.943 115.937 723.98 Q116.011 724.017 116.085 724.091 Q117.605 725.611 117.605 725.981 Q117.605 726.574 117.197 726.685 Q116.826 726.797 115.752 726.797 Z" fill="#000000" fill-rule="nonzero" fill-opacity="1" /><path clip-path="url(#clip870)" d="M100.041 697.338 Q92.8889 697.338 87.8124 692.743 Q82.7359 688.148 82.7359 681.552 Q82.7359 674.882 87.0713 671.436 Q91.4067 667.953 97.632 667.953 Q98.7807 667.953 99.003 668.25 Q99.2253 668.546 99.2253 669.843 L99.2253 691.038 Q106.97 691.038 110.601 688.741 Q115.678 685.554 115.678 680.181 Q115.678 679.44 115.53 678.551 Q115.381 677.662 114.751 675.846 Q114.084 674.03 112.343 672.437 Q110.601 670.843 107.859 669.917 Q106.785 669.695 106.822 668.954 Q106.822 667.953 107.711 667.953 Q108.378 667.953 109.897 668.694 Q111.379 669.398 113.158 670.769 Q114.937 672.14 116.271 674.808 Q117.605 677.439 117.605 680.626 Q117.605 687.296 112.565 692.335 Q107.489 697.338 100.041 697.338 M97.632 690.964 L97.632 672.956 Q96.0386 672.956 94.26 673.252 Q92.4813 673.511 90.0357 674.327 Q87.553 675.105 85.9967 676.957 Q84.4404 678.81 84.4404 681.552 Q84.4404 682.775 84.9592 684.109 Q85.4779 685.406 86.7378 686.999 Q87.9977 688.593 90.8509 689.704 Q93.7041 690.816 97.632 690.964 Z" fill="#000000" fill-rule="nonzero" fill-opacity="1" /><path clip-path="url(#clip870)" d="M100.448 663.173 Q93.2224 663.173 88.22 658.134 Q83.2176 653.094 83.2176 646.276 Q83.2176 640.495 87.9236 636.716 L71.5082 636.716 Q68.692 636.716 67.9879 637.716 Q67.2839 638.68 67.2839 642.607 L64.9124 642.607 L64.0972 631.676 L110.157 631.676 Q112.973 631.676 113.714 630.713 Q114.418 629.712 114.418 625.784 L116.752 625.784 L117.605 636.938 L112.565 636.938 Q117.568 640.866 117.605 647.091 Q117.605 653.613 112.602 658.393 Q107.6 663.173 100.448 663.173 M100.522 656.874 Q107.563 656.874 111.046 654.687 Q115.9 651.649 115.9 646.721 Q115.9 641.088 110.601 637.753 Q109.304 636.901 107.785 636.938 L92.2219 636.938 Q90.7027 636.938 89.4428 637.753 Q84.885 640.866 84.885 645.942 Q84.885 651.241 89.7393 654.539 Q93.3706 656.874 100.522 656.874 Z" fill="#000000" fill-rule="nonzero" fill-opacity="1" /><path clip-path="url(#clip870)" d="M109.527 595.251 Q103.079 595.251 99.67 587.655 Q97.4838 583.097 96.9279 573.685 L94.1488 573.685 Q89.4428 573.685 86.9601 576.168 Q84.4404 578.613 84.4404 581.726 Q84.4404 587.284 87.9236 589.952 Q87.9977 587.692 89.1464 586.877 Q90.258 586.061 91.4067 586.061 Q92.926 586.061 93.9265 587.025 Q94.8899 587.951 94.8899 589.545 Q94.8899 591.064 93.9635 592.064 Q93.0001 593.065 91.3326 593.065 Q87.6271 593.065 85.1815 589.73 Q82.7359 586.358 82.7359 581.578 Q82.7359 575.353 86.9231 571.202 Q88.22 569.905 89.8875 569.276 Q91.555 568.609 92.6666 568.534 Q93.7412 568.46 95.8904 568.46 L111.046 568.46 Q111.491 568.46 112.232 568.312 Q112.973 568.164 113.936 567.497 Q114.863 566.793 114.863 565.644 Q114.863 562.902 110.008 562.939 L105.747 562.939 L105.747 561.012 L110.008 561.012 Q114.047 561.012 115.641 563.161 Q117.197 565.274 117.197 567.238 Q117.197 569.757 115.344 571.351 Q113.492 572.944 110.972 573.166 Q113.862 574.315 115.752 576.946 Q117.605 579.54 117.605 583.097 Q117.605 585.839 116.901 588.433 Q116.234 590.99 114.344 593.139 Q112.417 595.251 109.527 595.251 M109.453 589.396 Q112.269 589.396 114.084 587.395 Q115.9 585.394 115.9 582.578 Q115.9 579.392 113.454 576.538 Q110.972 573.685 106.118 573.685 L98.5213 573.685 Q98.8177 582.097 102.19 585.765 Q105.525 589.396 109.453 589.396 Z" fill="#000000" fill-rule="nonzero" fill-opacity="1" /><path clip-path="url(#clip870)" d="M86.4043 561.16 L84.0328 561.16 Q84.2551 557.751 84.2551 553.787 Q84.2551 552.341 84.0328 545.523 L86.4043 545.523 Q86.4043 549.859 88.3682 549.859 Q88.6647 549.859 89.6651 549.414 L110.824 540.891 L91.4808 533.147 Q90.1839 532.702 89.6651 532.702 Q88.3682 532.702 87.4418 533.592 Q86.4784 534.444 86.4043 536.334 L84.0328 536.334 Q84.2551 532.48 84.2551 529.738 Q84.2551 526.625 84.0328 524.068 L86.4043 524.068 Q86.4043 526.329 87.4418 527.922 Q88.4423 529.515 89.3316 530.034 Q90.1839 530.516 91.4808 531.035 L116.159 540.965 Q117.605 541.558 117.605 542.559 Q117.605 543.226 117.308 543.522 Q117.049 543.782 116.159 544.152 L89.2205 555.083 Q87.3307 555.825 86.886 556.788 Q86.4043 557.751 86.4043 561.16 Z" fill="#000000" fill-rule="nonzero" fill-opacity="1" /><path clip-path="url(#clip870)" d="M100.041 522.623 Q92.8889 522.623 87.8124 518.028 Q82.7359 513.434 82.7359 506.838 Q82.7359 500.168 87.0713 496.722 Q91.4067 493.239 97.632 493.239 Q98.7807 493.239 99.003 493.535 Q99.2253 493.831 99.2253 495.128 L99.2253 516.324 Q106.97 516.324 110.601 514.026 Q115.678 510.84 115.678 505.467 Q115.678 504.726 115.53 503.836 Q115.381 502.947 114.751 501.131 Q114.084 499.316 112.343 497.722 Q110.601 496.129 107.859 495.203 Q106.785 494.98 106.822 494.239 Q106.822 493.239 107.711 493.239 Q108.378 493.239 109.897 493.98 Q111.379 494.684 113.158 496.055 Q114.937 497.426 116.271 500.094 Q117.605 502.725 117.605 505.911 Q117.605 512.581 112.565 517.621 Q107.489 522.623 100.041 522.623 M97.632 516.25 L97.632 498.241 Q96.0386 498.241 94.26 498.537 Q92.4813 498.797 90.0357 499.612 Q87.553 500.39 85.9967 502.243 Q84.4404 504.096 84.4404 506.838 Q84.4404 508.061 84.9592 509.395 Q85.4779 510.692 86.7378 512.285 Q87.9977 513.878 90.8509 514.99 Q93.7041 516.102 97.632 516.25 Z" fill="#000000" fill-rule="nonzero" fill-opacity="1" /><path clip-path="url(#clip870)" d="M116.752 488.94 L114.418 488.94 Q114.418 484.901 113.936 483.975 Q113.417 483.011 110.972 483.011 L90.6286 483.011 Q87.8124 483.011 87.1083 484.012 Q86.4043 484.975 86.4043 488.94 L84.0328 488.94 L83.2176 478.38 L91.555 478.38 Q88.2941 477.305 85.7744 475.045 Q83.2176 472.747 83.2176 469.042 Q83.2176 466.596 84.5886 465.04 Q85.9596 463.446 87.8494 463.446 Q89.5169 463.446 90.3692 464.484 Q91.1844 465.484 91.1844 466.707 Q91.1844 468.078 90.3321 469.042 Q89.4428 469.968 87.9236 469.968 Q86.9972 469.968 86.2931 469.56 Q85.552 469.116 85.2926 468.782 Q85.0333 468.449 84.9592 468.226 Q84.885 468.375 84.885 469.042 Q84.885 473.229 89.0723 475.637 Q93.2224 478.009 99.1512 478.009 L110.824 478.009 Q113.01 478.009 113.714 477.12 Q114.418 476.193 114.418 472.228 L114.418 470.635 L116.752 470.635 Q116.53 473.674 116.53 480.269 Q116.53 481.196 116.567 482.641 Q116.604 484.086 116.678 485.976 Q116.752 487.866 116.752 488.94 Z" fill="#000000" fill-rule="nonzero" fill-opacity="1" /><path clip-path="url(#clip870)" d="M109.527 458.222 Q103.079 458.222 99.67 450.625 Q97.4838 446.068 96.9279 436.656 L94.1488 436.656 Q89.4428 436.656 86.9601 439.138 Q84.4404 441.584 84.4404 444.696 Q84.4404 450.255 87.9236 452.923 Q87.9977 450.662 89.1464 449.847 Q90.258 449.032 91.4067 449.032 Q92.926 449.032 93.9265 449.995 Q94.8899 450.922 94.8899 452.515 Q94.8899 454.034 93.9635 455.035 Q93.0001 456.035 91.3326 456.035 Q87.6271 456.035 85.1815 452.7 Q82.7359 449.328 82.7359 444.548 Q82.7359 438.323 86.9231 434.173 Q88.22 432.876 89.8875 432.246 Q91.555 431.579 92.6666 431.505 Q93.7412 431.431 95.8904 431.431 L111.046 431.431 Q111.491 431.431 112.232 431.283 Q112.973 431.134 113.936 430.467 Q114.863 429.763 114.863 428.615 Q114.863 425.873 110.008 425.91 L105.747 425.91 L105.747 423.983 L110.008 423.983 Q114.047 423.983 115.641 426.132 Q117.197 428.244 117.197 430.208 Q117.197 432.728 115.344 434.321 Q113.492 435.914 110.972 436.137 Q113.862 437.285 115.752 439.916 Q117.605 442.51 117.605 446.068 Q117.605 448.81 116.901 451.403 Q116.234 453.96 114.344 456.109 Q112.417 458.222 109.527 458.222 M109.453 452.367 Q112.269 452.367 114.084 450.366 Q115.9 448.365 115.9 445.549 Q115.9 442.362 113.454 439.509 Q110.972 436.656 106.118 436.656 L98.5213 436.656 Q98.8177 445.067 102.19 448.735 Q105.525 452.367 109.453 452.367 Z" fill="#000000" fill-rule="nonzero" fill-opacity="1" /><path clip-path="url(#clip870)" d="M122.755 421.352 Q120.31 421.352 118.198 419.499 Q116.085 417.609 115.159 414.348 Q113.047 417.683 108.415 417.683 Q104.858 417.683 102.116 415.349 Q99.1512 418.906 94.297 418.906 Q89.8134 418.906 86.5155 415.349 Q83.2176 411.792 83.2176 406.604 Q83.2176 402.046 85.9596 398.563 Q82.4024 394.932 82.3653 390.522 Q82.3653 388.558 83.5881 387.632 Q84.8109 386.668 86.1079 386.668 Q87.2566 386.668 87.8124 387.409 Q88.3682 388.113 88.3682 388.855 Q88.3682 389.781 87.7753 390.448 Q87.1454 391.078 86.182 391.078 Q84.5886 391.078 84.1069 389.855 Q84.0328 390.077 84.0328 390.596 Q84.0328 394.302 86.9972 397.451 Q89.8875 394.339 94.3711 394.339 Q98.8548 394.339 102.153 397.896 Q105.451 401.453 105.451 406.604 Q105.451 410.865 103.079 414.126 Q104.598 415.423 106.673 415.423 Q108.563 415.423 110.045 414.274 Q111.528 413.126 111.75 411.384 Q111.824 410.865 111.824 405.715 Q111.824 402.676 111.898 401.009 Q111.972 399.341 112.491 396.97 Q112.973 394.561 113.936 392.671 Q116.678 387.743 122.607 387.706 Q126.943 387.706 129.648 392.708 Q132.39 397.674 132.39 404.566 Q132.39 411.532 129.61 416.461 Q126.868 421.352 122.755 421.352 M122.755 417.387 Q125.868 417.387 128.239 413.718 Q130.648 410.05 130.648 404.492 Q130.648 399.045 128.276 395.376 Q125.942 391.671 122.755 391.671 Q120.495 391.671 119.05 392.968 Q117.605 394.265 117.012 396.933 Q116.456 399.563 116.345 401.416 Q116.234 403.269 116.234 406.678 L116.234 411.162 Q116.382 413.756 118.272 415.571 Q120.161 417.387 122.755 417.387 M94.3711 413.237 Q103.709 413.237 103.709 406.604 Q103.709 403.269 100.67 401.231 Q98.6325 400.008 94.297 400.008 Q84.9592 400.008 84.9592 406.604 Q84.9592 409.939 87.9977 412.014 Q90.0357 413.237 94.3711 413.237 Z" fill="#000000" fill-rule="nonzero" fill-opacity="1" /><path clip-path="url(#clip870)" d="M100.041 383.407 Q92.8889 383.407 87.8124 378.813 Q82.7359 374.218 82.7359 367.622 Q82.7359 360.952 87.0713 357.506 Q91.4067 354.023 97.632 354.023 Q98.7807 354.023 99.003 354.319 Q99.2253 354.616 99.2253 355.913 L99.2253 377.108 Q106.97 377.108 110.601 374.811 Q115.678 371.624 115.678 366.251 Q115.678 365.51 115.53 364.621 Q115.381 363.731 114.751 361.916 Q114.084 360.1 112.343 358.506 Q110.601 356.913 107.859 355.987 Q106.785 355.764 106.822 355.023 Q106.822 354.023 107.711 354.023 Q108.378 354.023 109.897 354.764 Q111.379 355.468 113.158 356.839 Q114.937 358.21 116.271 360.878 Q117.605 363.509 117.605 366.696 Q117.605 373.366 112.565 378.405 Q107.489 383.407 100.041 383.407 M97.632 377.034 L97.632 359.025 Q96.0386 359.025 94.26 359.322 Q92.4813 359.581 90.0357 360.396 Q87.553 361.174 85.9967 363.027 Q84.4404 364.88 84.4404 367.622 Q84.4404 368.845 84.9592 370.179 Q85.4779 371.476 86.7378 373.069 Q87.9977 374.662 90.8509 375.774 Q93.7041 376.886 97.632 377.034 Z" fill="#000000" fill-rule="nonzero" fill-opacity="1" /><path clip-path="url(#clip870)" d="M100.448 324.008 Q93.2224 324.008 88.22 318.969 Q83.2176 313.929 83.2176 307.111 Q83.2176 301.331 87.9236 297.551 L71.5082 297.551 Q68.692 297.551 67.9879 298.551 Q67.2839 299.515 67.2839 303.443 L64.9124 303.443 L64.0972 292.511 L110.157 292.511 Q112.973 292.511 113.714 291.548 Q114.418 290.548 114.418 286.62 L116.752 286.62 L117.605 297.773 L112.565 297.773 Q117.568 301.701 117.605 307.926 Q117.605 314.448 112.602 319.228 Q107.6 324.008 100.448 324.008 M100.522 317.709 Q107.563 317.709 111.046 315.523 Q115.9 312.484 115.9 307.556 Q115.9 301.923 110.601 298.588 Q109.304 297.736 107.785 297.773 L92.2219 297.773 Q90.7027 297.773 89.4428 298.588 Q84.885 301.701 84.885 306.778 Q84.885 312.077 89.7393 315.374 Q93.3706 317.709 100.522 317.709 Z" fill="#000000" fill-rule="nonzero" fill-opacity="1" /><path clip-path="url(#clip870)" d="M116.752 281.988 L114.418 281.988 Q114.418 277.949 113.936 277.022 Q113.417 276.096 110.972 276.096 L90.5545 276.096 Q87.7383 276.096 87.0713 277.059 Q86.4043 277.986 86.4043 281.691 L84.0328 281.691 L83.2176 271.094 L111.046 271.094 Q113.306 271.094 113.862 270.278 Q114.418 269.463 114.418 265.758 L116.752 265.758 Q116.53 273.502 116.53 273.65 Q116.53 274.688 116.752 281.988 M69.9889 278.801 Q68.4697 278.801 67.2468 277.652 Q65.987 276.467 65.987 274.799 Q65.987 273.132 67.1357 271.946 Q68.2473 270.76 70.026 270.76 Q71.7676 270.76 72.9163 271.946 Q74.0279 273.132 74.0279 274.799 Q74.0279 276.541 72.8051 277.689 Q71.5823 278.801 69.9889 278.801 Z" fill="#000000" fill-rule="nonzero" fill-opacity="1" /><path clip-path="url(#clip870)" d="M115.752 260.978 L105.747 260.978 Q104.895 260.978 104.598 260.941 Q104.302 260.904 104.08 260.681 Q103.857 260.459 103.857 260.014 Q103.857 259.495 104.08 259.31 Q104.302 259.088 105.154 258.94 Q110.379 257.791 113.158 255.345 Q115.9 252.863 115.9 248.379 Q115.9 244.118 114.01 241.968 Q112.12 239.819 109.008 239.819 Q103.45 239.819 102.042 247.712 Q101.115 252.27 100.522 254.159 Q99.8923 256.049 98.5213 257.717 Q95.8533 260.978 92.0737 260.978 Q88.2941 260.978 85.515 258.124 Q82.7359 255.234 82.7359 248.861 Q82.7359 244.599 84.885 241.709 Q84.2181 240.857 83.6622 240.412 Q82.7359 239.412 82.7359 238.893 Q82.7359 238.3 83.1435 238.189 Q83.514 238.078 84.5886 238.078 L92.2219 238.078 Q93.0742 238.078 93.3706 238.115 Q93.6671 238.152 93.8894 238.374 Q94.0747 238.596 94.0747 239.078 Q94.0747 239.93 93.3706 239.967 Q84.181 240.56 84.181 248.861 Q84.181 253.344 85.9226 255.345 Q87.6271 257.346 89.9616 257.346 Q91.2585 257.346 92.259 256.753 Q93.2224 256.123 93.8153 255.345 Q94.3711 254.53 94.927 253.048 Q95.4457 251.566 95.631 250.676 Q95.8163 249.75 96.1868 248.008 Q97.3355 241.931 99.8182 239.375 Q103.005 236.188 107.044 236.188 Q111.528 236.188 114.566 239.226 Q117.605 242.265 117.605 248.379 Q117.605 253.307 114.307 256.753 Q114.751 257.198 115.159 257.531 Q115.53 257.865 115.678 258.013 Q115.826 258.124 115.937 258.161 Q116.011 258.198 116.085 258.273 Q117.605 259.792 117.605 260.162 Q117.605 260.755 117.197 260.866 Q116.826 260.978 115.752 260.978 Z" fill="#000000" fill-rule="nonzero" fill-opacity="1" /><path clip-path="url(#clip870)" d="M86.4043 232.186 L84.7368 232.186 Q84.5886 228.703 82.143 226.405 Q79.6603 224.071 76.6218 223.293 Q73.5833 222.477 70.063 222.403 L70.063 220.514 L84.0328 220.514 L84.0328 209.656 L86.4043 209.656 L86.4043 220.514 L107.489 220.514 Q115.678 220.514 115.678 215.4 Q115.678 213.214 113.454 211.769 Q111.194 210.323 107.192 210.323 L103.005 210.323 L103.005 208.434 L107.34 208.434 Q111.454 208.434 114.529 210.323 Q117.605 212.213 117.605 215.956 Q117.605 217.327 117.234 218.698 Q116.901 220.032 116.011 221.81 Q115.085 223.552 112.862 224.664 Q110.601 225.738 107.34 225.738 L86.4043 225.738 L86.4043 232.186 Z" fill="#000000" fill-rule="nonzero" fill-opacity="1" /><path clip-path="url(#clip870)" d="M109.527 201.023 Q103.079 201.023 99.67 193.426 Q97.4838 188.869 96.9279 179.457 L94.1488 179.457 Q89.4428 179.457 86.9601 181.939 Q84.4404 184.385 84.4404 187.497 Q84.4404 193.056 87.9236 195.724 Q87.9977 193.463 89.1464 192.648 Q90.258 191.833 91.4067 191.833 Q92.926 191.833 93.9265 192.796 Q94.8899 193.723 94.8899 195.316 Q94.8899 196.835 93.9635 197.836 Q93.0001 198.836 91.3326 198.836 Q87.6271 198.836 85.1815 195.501 Q82.7359 192.129 82.7359 187.349 Q82.7359 181.124 86.9231 176.974 Q88.22 175.677 89.8875 175.047 Q91.555 174.38 92.6666 174.306 Q93.7412 174.232 95.8904 174.232 L111.046 174.232 Q111.491 174.232 112.232 174.084 Q112.973 173.935 113.936 173.268 Q114.863 172.564 114.863 171.416 Q114.863 168.674 110.008 168.711 L105.747 168.711 L105.747 166.784 L110.008 166.784 Q114.047 166.784 115.641 168.933 Q117.197 171.045 117.197 173.009 Q117.197 175.529 115.344 177.122 Q113.492 178.715 110.972 178.938 Q113.862 180.086 115.752 182.717 Q117.605 185.311 117.605 188.869 Q117.605 191.611 116.901 194.204 Q116.234 196.761 114.344 198.91 Q112.417 201.023 109.527 201.023 M109.453 195.168 Q112.269 195.168 114.084 193.167 Q115.9 191.166 115.9 188.35 Q115.9 185.163 113.454 182.31 Q110.972 179.457 106.118 179.457 L98.5213 179.457 Q98.8177 187.868 102.19 191.536 Q105.525 195.168 109.453 195.168 Z" fill="#000000" fill-rule="nonzero" fill-opacity="1" /><path clip-path="url(#clip870)" d="M116.752 163.819 L114.418 163.819 Q114.418 159.78 113.936 158.854 Q113.417 157.928 110.972 157.928 L90.6286 157.928 Q87.8124 157.928 87.1083 158.928 Q86.4043 159.891 86.4043 163.819 L84.0328 163.819 L83.2176 153.147 L91.1844 153.147 Q83.2176 149.59 83.2176 141.92 Q83.2176 136.213 86.0338 133.953 Q87.9236 132.285 90.0357 131.952 Q92.1478 131.581 97.632 131.581 L112.12 131.581 Q113.714 131.507 114.084 130.284 Q114.418 129.062 114.418 125.653 L116.752 125.653 Q116.53 133.397 116.53 134.175 Q116.53 134.768 116.752 142.735 L114.418 142.735 Q114.418 138.696 113.936 137.77 Q113.417 136.806 110.972 136.806 L93.2965 136.806 Q89.4428 136.806 87.1825 137.992 Q84.885 139.178 84.885 142.439 Q84.885 146.366 88.1829 149.516 Q91.4808 152.666 97.0391 152.666 L110.972 152.666 Q113.417 152.666 113.936 151.739 Q114.418 150.776 114.418 146.774 L116.752 146.774 Q116.53 154.518 116.53 155.26 Q116.53 155.852 116.752 163.819 Z" fill="#000000" fill-rule="nonzero" fill-opacity="1" /><path clip-path="url(#clip870)" d="M112.602 116.759 Q107.563 121.577 100.374 121.577 Q93.1483 121.577 87.9606 116.834 Q82.7359 112.09 82.7359 105.124 Q82.7359 100.492 84.9592 97.0091 Q87.1454 93.5259 90.888 93.5259 Q92.5554 93.5259 93.5189 94.5264 Q94.4452 95.4898 94.4452 97.0091 Q94.4452 98.6024 93.4818 99.5659 Q92.4813 100.492 90.9621 100.492 Q90.2951 100.492 89.6281 100.27 Q88.9611 100.048 88.2571 99.2324 Q87.553 98.3801 87.4418 96.935 Q84.6627 99.64 84.6627 104.902 Q84.6627 104.976 84.6627 105.05 Q84.6627 108.904 88.2941 112.09 Q91.9255 115.277 100.226 115.277 Q104.561 115.277 107.748 114.24 Q110.898 113.165 112.528 111.423 Q114.159 109.682 114.937 107.977 Q115.678 106.273 115.678 104.605 Q115.678 97.1573 107.711 94.6375 Q106.97 94.4152 106.97 93.6741 Q106.97 92.6736 107.711 92.6736 Q108.081 92.6736 109.045 92.9701 Q110.008 93.2665 111.528 94.1929 Q113.047 95.1193 114.381 96.4532 Q115.678 97.7502 116.641 100.085 Q117.605 102.382 117.605 105.272 Q117.605 111.942 112.602 116.759 Z" fill="#000000" fill-rule="nonzero" fill-opacity="1" /><path clip-path="url(#clip870)" d="M100.041 88.3752 Q92.8889 88.3752 87.8124 83.7804 Q82.7359 79.1856 82.7359 72.5898 Q82.7359 65.9199 87.0713 62.4738 Q91.4067 58.9906 97.632 58.9906 Q98.7807 58.9906 99.003 59.287 Q99.2253 59.5835 99.2253 60.8804 L99.2253 82.0759 Q106.97 82.0759 110.601 79.7785 Q115.678 76.5917 115.678 71.2188 Q115.678 70.4777 115.53 69.5883 Q115.381 68.699 114.751 66.8833 Q114.084 65.0676 112.343 63.4743 Q110.601 61.8809 107.859 60.9545 Q106.785 60.7322 106.822 59.9911 Q106.822 58.9906 107.711 58.9906 Q108.378 58.9906 109.897 59.7317 Q111.379 60.4357 113.158 61.8068 Q114.937 63.1778 116.271 65.8458 Q117.605 68.4767 117.605 71.6634 Q117.605 78.3333 112.565 83.3728 Q107.489 88.3752 100.041 88.3752 M97.632 82.0018 L97.632 63.993 Q96.0386 63.993 94.26 64.2895 Q92.4813 64.5488 90.0357 65.3641 Q87.553 66.1422 85.9967 67.995 Q84.4404 69.8477 84.4404 72.5898 Q84.4404 73.8126 84.9592 75.1466 Q85.4779 76.4435 86.7378 78.0369 Q87.9977 79.6302 90.8509 80.7419 Q93.7041 81.8536 97.632 82.0018 Z" fill="#000000" fill-rule="nonzero" fill-opacity="1" /><path clip-path="url(#clip870)" d="M1695.07 49.9798 Q1695.07 47.7195 1696.3 46.8672 Q1697.52 45.9779 1698.82 45.9779 Q1700.56 45.9779 1701.56 47.0895 Q1702.6 48.1641 1702.6 49.6834 Q1702.6 51.2027 1701.56 52.3143 Q1700.56 53.3889 1698.82 53.3889 Q1697.96 53.3889 1697.52 53.2407 Q1698.52 56.7239 1701.56 59.2436 Q1704.63 61.7633 1708.67 61.7633 Q1713.75 61.7633 1716.79 56.835 Q1718.6 53.6483 1718.6 46.4226 Q1718.6 40.0491 1717.23 36.8624 Q1715.12 32.0081 1710.79 32.0081 Q1704.63 32.0081 1701 37.307 Q1700.56 37.974 1700.04 38.0111 Q1699.3 38.0111 1699.11 37.6035 Q1698.96 37.1588 1698.96 36.0101 L1698.96 13.5547 Q1698.96 11.739 1699.71 11.739 Q1700 11.739 1700.63 11.9614 Q1705.41 14.0735 1710.71 14.1106 Q1716.16 14.1106 1721.05 11.8873 Q1721.42 11.6649 1721.64 11.6649 Q1722.38 11.6649 1722.42 12.5172 Q1722.42 12.8136 1721.79 13.703 Q1721.2 14.5552 1719.9 15.7039 Q1718.6 16.8156 1716.94 17.8902 Q1715.27 18.9648 1712.82 19.7059 Q1710.41 20.4099 1707.75 20.4099 Q1704.56 20.4099 1701.3 19.4094 L1701.3 34.1944 Q1705.23 30.3407 1710.93 30.3407 Q1717.01 30.3407 1721.2 35.2319 Q1725.39 40.1232 1725.39 46.9413 Q1725.39 54.0929 1720.42 58.9842 Q1715.49 63.8755 1708.82 63.8755 Q1702.74 63.8755 1698.89 59.54 Q1695.07 55.2046 1695.07 49.9798 Z" fill="#000000" fill-rule="nonzero" fill-opacity="1" /><path clip-path="url(#clip870)" d="M1729.98 48.09 L1729.98 43.6064 L1750.18 43.6064 L1750.18 48.09 L1729.98 48.09 Z" fill="#000000" fill-rule="nonzero" fill-opacity="1" /><path clip-path="url(#clip870)" d="M1756.99 62.208 L1756.99 59.8735 Q1759.74 59.8735 1761.48 59.3548 Q1763.22 58.7989 1763.85 57.7985 Q1764.48 56.7609 1764.63 56.0939 Q1764.81 55.3899 1764.81 54.2412 L1764.81 14.6293 Q1764.81 13.5547 1764.52 13.2953 Q1764.26 13.036 1762.96 12.8877 Q1760.7 12.7395 1759.18 12.7395 L1756.99 12.7395 L1756.99 10.368 L1769.89 10.368 Q1770.96 10.368 1771.26 10.5162 Q1771.56 10.6644 1772.07 11.3685 L1798.87 50.758 L1798.87 18.3348 Q1798.87 17.1861 1798.72 16.5191 Q1798.57 15.8521 1797.9 14.8146 Q1797.27 13.7771 1795.53 13.2583 Q1793.79 12.7395 1791.05 12.7395 L1791.05 10.368 Q1799.01 10.5903 1799.9 10.5903 Q1800.83 10.5903 1808.8 10.368 L1808.8 12.7395 Q1806.05 12.7395 1804.31 13.2583 Q1802.57 13.7771 1801.94 14.8146 Q1801.31 15.8521 1801.13 16.5562 Q1800.98 17.2232 1800.98 18.3348 L1800.98 60.2441 Q1800.98 61.4669 1800.83 61.8374 Q1800.68 62.208 1799.94 62.208 Q1799.42 62.208 1798.64 61.2075 L1767.67 15.7039 Q1767.37 15.2593 1766.92 14.7775 L1766.92 54.2412 Q1766.92 55.3899 1767.07 56.0939 Q1767.22 56.7609 1767.85 57.7985 Q1768.52 58.7989 1770.26 59.3548 Q1772 59.8735 1774.74 59.8735 L1774.74 62.208 Q1766.78 61.9857 1765.85 61.9857 Q1764.96 61.9857 1756.99 62.208 Z" fill="#000000" fill-rule="nonzero" fill-opacity="1" /><path clip-path="url(#clip870)" d="M1813.91 62.208 L1813.91 59.8735 Q1816.65 59.8735 1818.39 59.3548 Q1820.13 58.7989 1820.76 57.7985 Q1821.39 56.7609 1821.54 56.0939 Q1821.73 55.3899 1821.73 54.2412 L1821.73 14.6293 Q1821.73 13.5547 1821.43 13.2953 Q1821.17 13.036 1819.88 12.8877 Q1817.62 12.7395 1816.1 12.7395 L1813.91 12.7395 L1813.91 10.368 L1826.8 10.368 Q1827.88 10.368 1828.18 10.5162 Q1828.47 10.6644 1828.99 11.3685 L1855.78 50.758 L1855.78 18.3348 Q1855.78 17.1861 1855.63 16.5191 Q1855.49 15.8521 1854.82 14.8146 Q1854.19 13.7771 1852.45 13.2583 Q1850.71 12.7395 1847.96 12.7395 L1847.96 10.368 Q1855.93 10.5903 1856.82 10.5903 Q1857.75 10.5903 1865.71 10.368 L1865.71 12.7395 Q1862.97 12.7395 1861.23 13.2583 Q1859.49 13.7771 1858.86 14.8146 Q1858.23 15.8521 1858.04 16.5562 Q1857.89 17.2232 1857.89 18.3348 L1857.89 60.2441 Q1857.89 61.4669 1857.75 61.8374 Q1857.6 62.208 1856.86 62.208 Q1856.34 62.208 1855.56 61.2075 L1824.58 15.7039 Q1824.29 15.2593 1823.84 14.7775 L1823.84 54.2412 Q1823.84 55.3899 1823.99 56.0939 Q1824.14 56.7609 1824.77 57.7985 Q1825.43 58.7989 1827.18 59.3548 Q1828.92 59.8735 1831.66 59.8735 L1831.66 62.208 Q1823.69 61.9857 1822.77 61.9857 Q1821.88 61.9857 1813.91 62.208 Z" fill="#000000" fill-rule="nonzero" fill-opacity="1" /><path clip-path="url(#clip870)" d="M1875.9 60.9852 Q1874.83 59.7624 1874.83 58.169 Q1874.83 56.5756 1875.87 55.3899 Q1876.94 54.1671 1878.87 54.1671 Q1881.13 54.1671 1882.42 56.3533 Q1883.72 58.5025 1883.72 62.1339 Q1883.72 66.0617 1882.13 69.6931 Q1880.53 73.3616 1878.98 75.1032 Q1877.42 76.8447 1876.79 76.8447 Q1876.05 76.8447 1876.05 76.0295 Q1876.05 75.7331 1876.57 75.1773 Q1882.02 69.3226 1882.05 62.1339 Q1882.05 60.9852 1881.91 60.9852 L1881.72 61.1334 Q1880.42 62.208 1878.87 62.208 Q1876.98 62.208 1875.9 60.9852 Z" fill="#000000" fill-rule="nonzero" fill-opacity="1" /><path clip-path="url(#clip870)" d="M1915.92 31.8599 L1915.92 29.4884 Q1920.04 29.7107 1922.96 29.7107 Q1924.41 29.7107 1931.26 29.4884 L1931.26 31.8599 Q1926.78 31.8599 1926.78 33.8979 Q1926.78 34.3426 1927.15 35.269 L1934.38 55.5381 L1940.9 37.1588 Q1939.53 33.4533 1939.16 33.0086 Q1938.23 31.8599 1934.38 31.8599 L1934.38 29.4884 Q1937.78 29.7107 1941.12 29.7107 Q1942.42 29.7107 1949.01 29.4884 L1949.01 31.8599 Q1944.53 31.8599 1944.53 33.8979 Q1944.53 34.1944 1944.9 35.3431 L1952.42 56.5015 L1959.31 37.0847 Q1959.68 36.0842 1959.72 35.4913 Q1959.72 33.8238 1958.54 32.8975 Q1957.35 31.934 1955.31 31.8599 L1955.31 29.4884 Q1959.65 29.7107 1962.35 29.7107 Q1965.39 29.7107 1967.91 29.4884 L1967.91 31.8599 Q1963.2 32.0081 1961.54 36.7141 L1952.64 61.6151 Q1951.79 62.9862 1951.12 63.0603 Q1950.12 63.0603 1949.61 61.6151 L1941.86 40.0491 L1934.19 61.541 Q1933.89 62.4674 1933.63 62.7638 Q1933.38 63.0603 1932.67 63.0603 Q1932 63.0603 1931.71 62.6527 Q1931.41 62.2821 1931.08 61.3557 L1921.52 34.4908 Q1920.85 32.7492 1919.85 32.3046 Q1918.89 31.8599 1915.92 31.8599 Z" fill="#000000" fill-rule="nonzero" fill-opacity="1" /><path clip-path="url(#clip870)" d="M1971.84 62.208 L1971.84 59.8735 Q1975.88 59.8735 1976.8 59.3918 Q1977.73 58.873 1977.73 56.4274 L1977.73 36.0101 Q1977.73 33.1939 1976.77 32.5269 Q1975.84 31.8599 1972.13 31.8599 L1972.13 29.4884 L1982.73 28.6732 L1982.73 56.5015 Q1982.73 58.7619 1983.55 59.3177 Q1984.36 59.8735 1988.07 59.8735 L1988.07 62.208 Q1980.32 61.9857 1980.18 61.9857 Q1979.14 61.9857 1971.84 62.208 M1975.03 15.4445 Q1975.03 13.9253 1976.17 12.7025 Q1977.36 11.4426 1979.03 11.4426 Q1980.69 11.4426 1981.88 12.5913 Q1983.07 13.703 1983.07 15.4816 Q1983.07 17.2232 1981.88 18.3719 Q1980.69 19.4835 1979.03 19.4835 Q1977.29 19.4835 1976.14 18.2607 Q1975.03 17.0379 1975.03 15.4445 Z" fill="#000000" fill-rule="nonzero" fill-opacity="1" /><path clip-path="url(#clip870)" d="M1992.77 62.208 L1992.77 59.8735 Q1996.81 59.8735 1997.74 59.3918 Q1998.67 58.873 1998.67 56.4274 L1998.67 36.0842 Q1998.67 33.268 1997.67 32.564 Q1996.7 31.8599 1992.77 31.8599 L1992.77 29.4884 L2003.45 28.6732 L2003.45 36.64 Q2007 28.6732 2014.67 28.6732 Q2020.38 28.6732 2022.64 31.4894 Q2024.31 33.3792 2024.64 35.4913 Q2025.01 37.6035 2025.01 43.0876 L2025.01 57.5761 Q2025.09 59.1695 2026.31 59.54 Q2027.53 59.8735 2030.94 59.8735 L2030.94 62.208 Q2023.2 61.9857 2022.42 61.9857 Q2021.83 61.9857 2013.86 62.208 L2013.86 59.8735 Q2017.9 59.8735 2018.82 59.3918 Q2019.79 58.873 2019.79 56.4274 L2019.79 38.7522 Q2019.79 34.8984 2018.6 32.6381 Q2017.42 30.3407 2014.16 30.3407 Q2010.23 30.3407 2007.08 33.6386 Q2003.93 36.9365 2003.93 42.4947 L2003.93 56.4274 Q2003.93 58.873 2004.85 59.3918 Q2005.82 59.8735 2009.82 59.8735 L2009.82 62.208 Q2002.08 61.9857 2001.33 61.9857 Q2000.74 61.9857 1992.77 62.208 Z" fill="#000000" fill-rule="nonzero" fill-opacity="1" /><path clip-path="url(#clip870)" d="M2035.02 45.9038 Q2035.02 38.6781 2040.06 33.6756 Q2045.1 28.6732 2051.91 28.6732 Q2057.69 28.6732 2061.47 33.3792 L2061.47 16.9638 Q2061.47 14.1476 2060.47 13.4436 Q2059.51 12.7395 2055.58 12.7395 L2055.58 10.368 L2066.51 9.55279 L2066.51 55.6122 Q2066.51 58.4284 2067.48 59.1695 Q2068.48 59.8735 2072.41 59.8735 L2072.41 62.208 L2061.25 63.0603 L2061.25 58.0208 Q2057.32 63.0232 2051.1 63.0603 Q2044.58 63.0603 2039.8 58.0578 Q2035.02 53.0554 2035.02 45.9038 M2041.32 45.9779 Q2041.32 53.0184 2043.5 56.5015 Q2046.54 61.3557 2051.47 61.3557 Q2057.1 61.3557 2060.44 56.0569 Q2061.29 54.7599 2061.25 53.2407 L2061.25 37.6776 Q2061.25 36.1583 2060.44 34.8984 Q2057.32 30.3407 2052.25 30.3407 Q2046.95 30.3407 2043.65 35.1949 Q2041.32 38.8263 2041.32 45.9779 Z" fill="#000000" fill-rule="nonzero" fill-opacity="1" /><path clip-path="url(#clip870)" d="M2081.63 58.1319 Q2076.63 53.1666 2076.63 45.9779 Q2076.63 38.7522 2081.52 33.4903 Q2086.45 28.1915 2093.49 28.1915 Q2100.38 28.1915 2105.31 33.4533 Q2110.28 38.6781 2110.28 45.9779 Q2110.28 53.1295 2105.27 58.0949 Q2100.31 63.0603 2093.42 63.0603 Q2086.67 63.0603 2081.63 58.1319 M2082.93 45.348 Q2082.93 52.7219 2084.86 56.0569 Q2087.82 61.1334 2093.49 61.1334 Q2096.31 61.1334 2098.64 59.6141 Q2101.01 58.0949 2102.31 55.5381 Q2103.98 52.2031 2103.98 45.348 Q2103.98 38.0481 2101.98 34.8243 Q2099.01 29.896 2093.42 29.896 Q2090.97 29.896 2088.56 31.1929 Q2086.19 32.4528 2084.74 34.9725 Q2082.93 38.3075 2082.93 45.348 Z" fill="#000000" fill-rule="nonzero" fill-opacity="1" /><path clip-path="url(#clip870)" d="M2111.72 31.8599 L2111.72 29.4884 Q2115.83 29.7107 2118.76 29.7107 Q2120.21 29.7107 2127.06 29.4884 L2127.06 31.8599 Q2122.58 31.8599 2122.58 33.8979 Q2122.58 34.3426 2122.95 35.269 L2130.17 55.5381 L2136.7 37.1588 Q2135.33 33.4533 2134.95 33.0086 Q2134.03 31.8599 2130.17 31.8599 L2130.17 29.4884 Q2133.58 29.7107 2136.92 29.7107 Q2138.22 29.7107 2144.81 29.4884 L2144.81 31.8599 Q2140.33 31.8599 2140.33 33.8979 Q2140.33 34.1944 2140.7 35.3431 L2148.22 56.5015 L2155.11 37.0847 Q2155.48 36.0842 2155.52 35.4913 Q2155.52 33.8238 2154.33 32.8975 Q2153.15 31.934 2151.11 31.8599 L2151.11 29.4884 Q2155.45 29.7107 2158.15 29.7107 Q2161.19 29.7107 2163.71 29.4884 L2163.71 31.8599 Q2159 32.0081 2157.34 36.7141 L2148.44 61.6151 Q2147.59 62.9862 2146.92 63.0603 Q2145.92 63.0603 2145.4 61.6151 L2137.66 40.0491 L2129.99 61.541 Q2129.69 62.4674 2129.43 62.7638 Q2129.17 63.0603 2128.47 63.0603 Q2127.8 63.0603 2127.51 62.6527 Q2127.21 62.2821 2126.88 61.3557 L2117.32 34.4908 Q2116.65 32.7492 2115.65 32.3046 Q2114.69 31.8599 2111.72 31.8599 Z" fill="#000000" fill-rule="nonzero" fill-opacity="1" /><path clip-path="url(#clip870)" d="M2192.87 61.2075 L2192.87 51.2027 Q2192.87 50.3504 2192.91 50.0539 Q2192.95 49.7575 2193.17 49.5352 Q2193.39 49.3128 2193.84 49.3128 Q2194.35 49.3128 2194.54 49.5352 Q2194.76 49.7575 2194.91 50.6098 Q2196.06 55.8345 2198.5 58.6137 Q2200.99 61.3557 2205.47 61.3557 Q2209.73 61.3557 2211.88 59.4659 Q2214.03 57.5761 2214.03 54.4635 Q2214.03 48.9052 2206.14 47.4971 Q2201.58 46.5708 2199.69 45.9779 Q2197.8 45.348 2196.13 43.9769 Q2192.87 41.309 2192.87 37.5293 Q2192.87 33.7497 2195.72 30.9706 Q2198.62 28.1915 2204.99 28.1915 Q2209.25 28.1915 2212.14 30.3407 Q2212.99 29.6737 2213.44 29.1178 Q2214.44 28.1915 2214.96 28.1915 Q2215.55 28.1915 2215.66 28.5991 Q2215.77 28.9696 2215.77 30.0442 L2215.77 37.6776 Q2215.77 38.5298 2215.73 38.8263 Q2215.7 39.1227 2215.48 39.345 Q2215.25 39.5303 2214.77 39.5303 Q2213.92 39.5303 2213.88 38.8263 Q2213.29 29.6366 2204.99 29.6366 Q2200.5 29.6366 2198.5 31.3782 Q2196.5 33.0827 2196.5 35.4172 Q2196.5 36.7141 2197.1 37.7146 Q2197.73 38.6781 2198.5 39.2709 Q2199.32 39.8268 2200.8 40.3826 Q2202.28 40.9014 2203.17 41.0866 Q2204.1 41.2719 2205.84 41.6425 Q2211.92 42.7912 2214.47 45.2738 Q2217.66 48.4606 2217.66 52.4996 Q2217.66 56.9832 2214.62 60.0218 Q2211.58 63.0603 2205.47 63.0603 Q2200.54 63.0603 2197.1 59.7624 Q2196.65 60.207 2196.32 60.6146 Q2195.98 60.9852 2195.84 61.1334 Q2195.72 61.2816 2195.69 61.3928 Q2195.65 61.4669 2195.58 61.541 Q2194.06 63.0603 2193.69 63.0603 Q2193.09 63.0603 2192.98 62.6527 Q2192.87 62.2821 2192.87 61.2075 Z" fill="#000000" fill-rule="nonzero" fill-opacity="1" /><path clip-path="url(#clip870)" d="M2222.74 62.208 L2222.74 59.8735 Q2226.78 59.8735 2227.7 59.3918 Q2228.63 58.873 2228.63 56.4274 L2228.63 36.0101 Q2228.63 33.1939 2227.67 32.5269 Q2226.74 31.8599 2223.03 31.8599 L2223.03 29.4884 L2233.63 28.6732 L2233.63 56.5015 Q2233.63 58.7619 2234.45 59.3177 Q2235.26 59.8735 2238.97 59.8735 L2238.97 62.208 Q2231.22 61.9857 2231.08 61.9857 Q2230.04 61.9857 2222.74 62.208 M2225.92 15.4445 Q2225.92 13.9253 2227.07 12.7025 Q2228.26 11.4426 2229.93 11.4426 Q2231.59 11.4426 2232.78 12.5913 Q2233.97 13.703 2233.97 15.4816 Q2233.97 17.2232 2232.78 18.3719 Q2231.59 19.4835 2229.93 19.4835 Q2228.19 19.4835 2227.04 18.2607 Q2225.92 17.0379 2225.92 15.4445 Z" fill="#000000" fill-rule="nonzero" fill-opacity="1" /><path clip-path="url(#clip870)" d="M2243.34 61.1334 Q2243.34 60.6146 2244.04 59.7624 L2265.2 31.1559 L2256.57 31.1559 Q2250.57 31.1559 2248.6 33.3792 Q2246.68 35.5654 2246.3 41.7166 L2244.42 41.7166 L2245.27 29.4884 L2269.54 29.4884 Q2270.39 29.4884 2270.72 29.5255 Q2271.06 29.5625 2271.28 29.8219 Q2271.5 30.0442 2271.5 30.4889 Q2271.5 30.9335 2270.84 31.7858 L2249.71 60.3182 L2258.68 60.3182 Q2264.98 60.3182 2267.09 57.6873 Q2269.24 55.0564 2269.76 48.0159 L2271.65 48.0159 L2270.35 62.208 L2245.34 62.208 Q2244.12 62.208 2243.71 62.0598 Q2243.34 61.8745 2243.34 61.1334 Z" fill="#000000" fill-rule="nonzero" fill-opacity="1" /><path clip-path="url(#clip870)" d="M2277.02 45.4962 Q2277.02 38.3446 2281.62 33.268 Q2286.21 28.1915 2292.81 28.1915 Q2299.48 28.1915 2302.93 32.5269 Q2306.41 36.8624 2306.41 43.0876 Q2306.41 44.2363 2306.11 44.4586 Q2305.82 44.681 2304.52 44.681 L2283.32 44.681 Q2283.32 52.4255 2285.62 56.0569 Q2288.81 61.1334 2294.18 61.1334 Q2294.92 61.1334 2295.81 60.9852 Q2296.7 60.837 2298.52 60.207 Q2300.33 59.54 2301.92 57.7985 Q2303.52 56.0569 2304.44 53.3148 Q2304.67 52.2402 2305.41 52.2772 Q2306.41 52.2772 2306.41 53.1666 Q2306.41 53.8336 2305.67 55.3528 Q2304.96 56.835 2303.59 58.6137 Q2302.22 60.3923 2299.55 61.7263 Q2296.92 63.0603 2293.74 63.0603 Q2287.07 63.0603 2282.03 58.0208 Q2277.02 52.9442 2277.02 45.4962 M2283.4 43.0876 L2301.41 43.0876 Q2301.41 41.4942 2301.11 39.7156 Q2300.85 37.9369 2300.03 35.4913 Q2299.26 33.0086 2297.4 31.4523 Q2295.55 29.896 2292.81 29.896 Q2291.59 29.896 2290.25 30.4148 Q2288.96 30.9335 2287.36 32.1934 Q2285.77 33.4533 2284.66 36.3065 Q2283.55 39.1598 2283.4 43.0876 Z" fill="#000000" fill-rule="nonzero" fill-opacity="1" /><path clip-path="url(#clip870)" d="M2338.16 50.6839 Q2338.24 49.7575 2339.68 49.7575 L2386.19 49.7575 Q2388.37 49.7575 2388.41 50.6098 Q2388.41 51.5361 2386.34 51.4991 L2340.2 51.4991 Q2338.16 51.5361 2338.16 50.6839 M2338.16 35.8619 Q2338.16 34.9355 2339.76 34.9725 L2386.11 34.9725 Q2388.37 34.9725 2388.41 35.8619 Q2388.41 36.7141 2386.48 36.7141 L2339.68 36.7141 Q2338.16 36.7141 2338.16 35.8619 Z" fill="#000000" fill-rule="nonzero" fill-opacity="1" /><path clip-path="url(#clip870)" d="M2424.84 18.8907 L2424.84 16.5191 Q2433.95 16.5191 2438.66 11.6649 Q2439.95 11.6649 2440.18 11.9614 Q2440.4 12.2578 2440.4 13.6288 L2440.4 56.2051 Q2440.4 58.4654 2441.51 59.1695 Q2442.62 59.8735 2447.48 59.8735 L2449.89 59.8735 L2449.89 62.208 Q2447.22 61.9857 2437.58 61.9857 Q2427.95 61.9857 2425.32 62.208 L2425.32 59.8735 L2427.73 59.8735 Q2432.51 59.8735 2433.66 59.2065 Q2434.8 58.5025 2434.8 56.2051 L2434.8 16.8897 Q2430.84 18.8907 2424.84 18.8907 Z" fill="#000000" fill-rule="nonzero" fill-opacity="1" /><path clip-path="url(#clip870)" d="M2459.82 62.208 Q2459.82 60.837 2459.93 60.4294 Q2460.08 60.0218 2460.67 59.3918 L2475.23 43.1617 Q2483.2 34.1944 2483.2 26.3758 Q2483.2 21.2992 2480.53 17.6678 Q2477.9 14.0364 2473.04 14.0364 Q2469.71 14.0364 2466.89 16.0745 Q2464.08 18.1125 2462.78 21.7439 Q2463 21.6698 2463.78 21.6698 Q2465.67 21.6698 2466.71 22.8555 Q2467.78 24.0413 2467.78 25.6347 Q2467.78 27.6727 2466.45 28.6732 Q2465.15 29.6366 2463.86 29.6366 Q2463.34 29.6366 2462.63 29.5255 Q2461.97 29.4143 2460.89 28.3767 Q2459.82 27.3022 2459.82 25.4123 Q2459.82 20.1135 2463.82 15.8892 Q2467.86 11.6649 2474.01 11.6649 Q2480.97 11.6649 2485.53 15.8151 Q2490.13 19.9282 2490.13 26.3758 Q2490.13 28.6361 2489.42 30.7112 Q2488.76 32.7492 2487.83 34.3426 Q2486.94 35.936 2484.49 38.4928 Q2482.05 41.0496 2480.09 42.8653 Q2478.12 44.681 2473.71 48.5347 L2465.67 56.3533 L2479.34 56.3533 Q2486.01 56.3533 2486.53 55.7604 Q2487.27 54.6858 2488.2 49.0164 L2490.13 49.0164 L2487.98 62.208 L2459.82 62.208 Z" fill="#000000" fill-rule="nonzero" fill-opacity="1" /><path clip-path="url(#clip870)" d="M2497.17 50.758 Q2497.17 42.2724 2508.1 36.7882 Q2503.39 33.6015 2502.54 32.6751 Q2499.21 28.9696 2499.21 24.3377 Q2499.21 19.0389 2503.21 15.3704 Q2507.25 11.6649 2512.95 11.6649 Q2518.4 11.6649 2522.51 14.8146 Q2526.63 17.9643 2526.63 22.9667 Q2526.63 30.0072 2517.44 34.7502 Q2523.51 38.5298 2524.96 40.1232 Q2528.66 44.2363 2528.66 49.4611 Q2528.66 55.5381 2524 59.7253 Q2519.33 63.8755 2512.88 63.8755 Q2506.58 63.8755 2501.87 60.207 Q2497.17 56.5386 2497.17 50.758 M2500.95 50.758 Q2500.95 55.464 2504.47 58.6137 Q2508.02 61.7633 2512.95 61.7633 Q2517.73 61.7633 2521.29 59.0213 Q2524.88 56.2792 2524.88 52.2031 Q2524.88 50.6098 2524.33 49.2387 Q2523.81 47.8677 2522.74 46.7931 Q2521.7 45.6815 2521.03 45.1997 Q2520.4 44.681 2519.18 43.8287 L2509.84 37.9369 Q2500.95 42.8653 2500.95 50.758 M2502.54 21.3733 Q2502.54 25.0047 2506.36 27.5245 L2515.77 33.6015 Q2523.29 29.192 2523.29 22.9667 Q2523.29 18.9277 2520.22 16.2598 Q2517.14 13.5547 2512.88 13.5547 Q2508.69 13.5547 2505.62 15.778 Q2502.54 17.9643 2502.54 21.3733 Z" fill="#000000" fill-rule="nonzero" fill-opacity="1" /><polyline clip-path="url(#clip872)" style="stroke:#1f77b4; stroke-linecap:round; stroke-linejoin:round; stroke-width:4; stroke-opacity:1; fill:none" points="479.18,737.334 488.563,827.766 497.947,779.065 507.33,878.143 516.713,805.456 526.097,744.351 535.48,907.809 544.863,825.216 554.246,721.87 563.63,870.885 573.013,809.583 582.396,898.901 591.779,773.82 601.163,743.446 610.546,910.217 619.929,811.817 629.313,822.343 638.696,865.565 648.079,854.041 657.462,920.779 666.846,863.369 676.229,797.136 685.612,897.985 694.995,820.911 704.379,909.189 713.762,864.224 723.145,837.515 732.529,868.367 741.912,859.077 751.295,886.358 760.678,670.413 770.062,886.013 779.445,765.397 788.828,624.369 798.211,888.076 807.595,475.655 816.978,882.27 826.361,568.136 835.744,879.597 845.128,706.816 854.511,638.593 863.894,903.355 873.278,812.771 882.661,892.836 892.044,754.309 901.427,852.533 910.811,886.024 920.194,824.734 929.577,835.477 938.96,870.951 948.344,726.132 957.727,877.266 967.11,846.185 976.494,843.976 985.877,927.857 995.26,849.288 1004.64,854.656 1014.03,894.583 1023.41,786.835 1032.79,891.569 1042.18,817.693 1051.56,814.285 1060.94,884.149 1070.33,791.285 1079.71,830.904 1089.09,839.57 1098.48,837.621 1107.86,913.448 1117.24,770.689 1126.63,846.779 1136.01,879.615 1145.39,794.389 1154.78,916.367 1164.16,756.838 1173.54,891.359 1182.93,842.22 1192.31,762.477 1201.69,918.496 1211.08,446.939 1220.46,889.191 1229.84,584.136 1239.23,723.756 1248.61,614.551 1257.99,554.117 1267.37,845.731 1276.76,781.798 1286.14,881.126 1295.52,836.482 1304.91,822.758 1314.29,872.937 1323.67,823.673 1333.06,857.5 1342.44,778.591 1351.82,892.169 1361.21,886.836 1370.59,786.589 1379.97,780.138 1389.36,901.928 1398.74,770.284 1408.12,894.547 1417.51,866.636 1426.89,828.407 1436.27,910.073 1445.66,858.738 1455.04,899.104 1464.42,777.264 1473.81,720.294 1483.19,889.286 1492.57,805.854 1501.96,898.117 1511.34,841.839 1520.72,809.996 1530.11,878.787 1539.49,476.991 1548.87,882.118 1558.26,734.186 1567.64,876.194 1577.02,517.401 1586.41,822.19 1595.79,839.661 1605.17,793.792 1614.56,924.667 1623.94,826.989 1633.32,794.884 1642.71,871.889 1652.09,848.121 1661.47,905.77 1670.86,776.605 1680.24,754.83 1689.62,899.4 1699.01,758.333 1708.39,819.374 1717.77,845.1 1727.16,196.821 1736.54,606.569 1745.92,110.831 1755.3,843.367 1764.69,902.778 1774.07,812.676 1783.45,892.984 1792.84,876.765 1802.22,789.142 1811.6,910.574 1820.99,765.496 1830.37,892.201 1839.75,781.993 1849.14,793.068 1858.52,909.734 1867.9,830.132 1877.29,901.627 1886.67,782.753 1896.05,827.106 1905.44,897.13 1914.82,825.933 1924.2,897.434 1933.59,773.034 1942.97,836.473 1952.35,903.844 1961.74,762.181 1971.12,871.848 1980.5,859.264 1989.89,605.357 1999.27,790.781 2008.65,491.885 2018.04,864.63 2027.42,704.191 2036.8,859.26 2046.19,818.492 2055.57,869.66 2064.95,920.01 2074.34,819.325 2083.72,703.003 2093.1,883.853 2102.49,839.436 2111.87,912.618 2121.25,779.194 2130.64,833.191 2140.02,921.771 2149.4,832.205 2158.79,771.389 2168.17,878.712 2177.55,748.21 2186.94,909.213 2196.32,764.36 2205.7,823.108 2215.09,891.266 2224.47,813.991 2233.85,857.415 2243.24,903.21 2252.62,839.573 2262,879.408 2271.38,838.548 2280.77,907.624 2290.15,768.973 2299.53,810.278 2308.92,884.606 2318.3,747.06 2327.68,896.152 2337.07,813.632 2346.45,861.825 2355.83,876.686 2365.22,822.752 2374.6,905.355 2383.98,761.595 2393.37,854.803 2402.75,559.055 2412.13,617.204 2421.52,651.575 2430.9,469.691 2440.28,864.447 2449.67,518.451 2459.05,862.839 2468.43,803.584 2477.82,785.672 2487.2,835.027 2496.58,792.152 2505.97,900.452 2515.35,726.087 2524.73,830.55 2534.12,884.812 2543.5,818.168 2552.88,856.15 2562.27,892.892 2571.65,856.844 2581.03,894.809 2590.42,756.076 2599.8,816.151 2609.18,871.733 2618.57,839.472 2627.95,869.635 2637.33,807.801 2646.72,857.319 2656.1,859.583 2665.48,744.922 2674.87,881.432 2684.25,742.495 2693.63,793.395 2703.02,876.878 2712.4,738.452 2721.78,885.74 2731.17,762.273 2740.55,697.898 2749.93,899.94 2759.31,820.331 2768.7,886.664 2778.08,535.792 2787.46,881.807 2796.85,538.823 2806.23,581.258 2815.61,388.017 2825,466.443 2834.38,859.444 2843.76,530.96 2853.15,787.989 2862.53,643.081 2871.91,719.308 2881.3,880.692 2890.68,770.755 2900.06,826.201 2909.45,900.593 2918.83,877.539 2928.21,918.544 2937.6,827.531 2946.98,875.637 2956.36,891.822 2965.75,703.537 2975.13,864.653 2984.51,599.843 2993.9,657.824 3003.28,333.869 3012.66,193.253 3022.05,701.772 3031.43,585.191 3040.81,878.492 3050.2,755.79 3059.58,791.31 3068.96,836.269 3078.35,738.546 3087.73,855.981 3097.11,453.161 3106.5,513.774 3115.88,428.64 3125.26,419.761 3134.65,800.872 3144.03,715.971 3153.41,903.555 3162.8,808.098 3172.18,713.933 3181.56,850.26 3190.95,694.449 3200.33,717.011 3209.71,826.25 3219.1,751.075 3228.48,888.897 3237.86,801.883 3247.25,855.921 3256.63,910.757 3266.01,852.669 3275.39,794.573 3284.78,857.323 3294.16,825.45 3303.54,888.922 3312.93,846.774 3322.31,740.836 3331.69,924.005 3341.08,807.677 3350.46,874.593 3359.84,791.634 3369.23,825.771 3378.61,897.336 3387.99,875.736 3397.38,895.166 3406.76,791.025 3416.14,845.033 3425.53,832.644 3434.91,812.609 3444.29,881.691 3453.68,786.652 3463.06,881.494 3472.44,527.142 3481.83,628.517 3491.21,836.961 3500.59,507.395 3509.98,848.562 3519.36,544.728 3528.74,894.212 3538.13,525.144 3547.51,726.608 3556.89,661.208 3566.28,735.106 3575.66,907.697 3585.04,837.727 3594.43,815.169 3603.81,834.997 3613.19,793.29 3622.58,917.627 3631.96,825.792 3641.34,817.195 3650.73,878.753 3660.11,767.312 3669.49,902.278 3678.88,801.396 3688.26,852.29 3697.64,910.307 3707.03,761.806 3716.41,823.649 3725.79,895.65 3735.18,753.09 3744.56,893.674 "/>
</svg>
