<?xml version="1.0" encoding="utf-8"?>
<svg xmlns="http://www.w3.org/2000/svg" xmlns:xlink="http://www.w3.org/1999/xlink" width="1000" height="300" viewBox="0 0 4000 1200">
<defs>
  <clipPath id="clip440">
    <rect x="0" y="0" width="4000" height="1200"/>
  </clipPath>
</defs>
<path clip-path="url(#clip440)" d="M0 1200 L4000 1200 L4000 4.44089e-14 L0 4.44089e-14  Z" fill="#ffffff" fill-rule="evenodd" fill-opacity="1"/>
<defs>
  <clipPath id="clip441">
    <rect x="800" y="0" width="2801" height="1200"/>
  </clipPath>
</defs>
<path clip-path="url(#clip440)" d="M381.219 952.368 L3842.52 952.368 L3842.52 109.648 L381.219 109.648  Z" fill="#ffffff" fill-rule="evenodd" fill-opacity="1"/>
<defs>
  <clipPath id="clip442">
    <rect x="381" y="109" width="3462" height="844"/>
  </clipPath>
</defs>
<polyline clip-path="url(#clip442)" style="stroke:#000000; stroke-linecap:round; stroke-linejoin:round; stroke-width:2; stroke-opacity:0.1; fill:none" points="469.797,952.368 469.797,109.648 "/>
<polyline clip-path="url(#clip442)" style="stroke:#000000; stroke-linecap:round; stroke-linejoin:round; stroke-width:2; stroke-opacity:0.1; fill:none" points="1408.12,952.368 1408.12,109.648 "/>
<polyline clip-path="url(#clip442)" style="stroke:#000000; stroke-linecap:round; stroke-linejoin:round; stroke-width:2; stroke-opacity:0.1; fill:none" points="2346.45,952.368 2346.45,109.648 "/>
<polyline clip-path="url(#clip442)" style="stroke:#000000; stroke-linecap:round; stroke-linejoin:round; stroke-width:2; stroke-opacity:0.1; fill:none" points="3284.78,952.368 3284.78,109.648 "/>
<polyline clip-path="url(#clip442)" style="stroke:#000000; stroke-linecap:round; stroke-linejoin:round; stroke-width:2; stroke-opacity:0.1; fill:none" points="381.219,928.517 3842.52,928.517 "/>
<polyline clip-path="url(#clip442)" style="stroke:#000000; stroke-linecap:round; stroke-linejoin:round; stroke-width:2; stroke-opacity:0.1; fill:none" points="381.219,729.762 3842.52,729.762 "/>
<polyline clip-path="url(#clip442)" style="stroke:#000000; stroke-linecap:round; stroke-linejoin:round; stroke-width:2; stroke-opacity:0.1; fill:none" points="381.219,531.008 3842.52,531.008 "/>
<polyline clip-path="url(#clip442)" style="stroke:#000000; stroke-linecap:round; stroke-linejoin:round; stroke-width:2; stroke-opacity:0.1; fill:none" points="381.219,332.253 3842.52,332.253 "/>
<polyline clip-path="url(#clip442)" style="stroke:#000000; stroke-linecap:round; stroke-linejoin:round; stroke-width:2; stroke-opacity:0.1; fill:none" points="381.219,133.499 3842.52,133.499 "/>
<polyline clip-path="url(#clip440)" style="stroke:#000000; stroke-linecap:round; stroke-linejoin:round; stroke-width:4; stroke-opacity:1; fill:none" points="381.219,952.368 3842.52,952.368 "/>
<polyline clip-path="url(#clip440)" style="stroke:#000000; stroke-linecap:round; stroke-linejoin:round; stroke-width:4; stroke-opacity:1; fill:none" points="469.797,952.368 469.797,933.47 "/>
<polyline clip-path="url(#clip440)" style="stroke:#000000; stroke-linecap:round; stroke-linejoin:round; stroke-width:4; stroke-opacity:1; fill:none" points="1408.12,952.368 1408.12,933.47 "/>
<polyline clip-path="url(#clip440)" style="stroke:#000000; stroke-linecap:round; stroke-linejoin:round; stroke-width:4; stroke-opacity:1; fill:none" points="2346.45,952.368 2346.45,933.47 "/>
<polyline clip-path="url(#clip440)" style="stroke:#000000; stroke-linecap:round; stroke-linejoin:round; stroke-width:4; stroke-opacity:1; fill:none" points="3284.78,952.368 3284.78,933.47 "/>
<path clip-path="url(#clip440)" d="M453.826 1024.9 Q453.826 1013.74 456.642 1007.67 Q460.57 998.625 469.834 998.625 Q471.798 998.625 473.836 999.18 Q475.911 999.699 478.505 1001.74 Q481.136 1003.78 482.729 1007.11 Q485.768 1013.56 485.768 1024.9 Q485.768 1035.98 482.951 1042.02 Q478.838 1050.84 469.76 1050.84 Q466.351 1050.84 462.868 1049.09 Q459.422 1047.35 457.235 1043.16 Q453.826 1036.9 453.826 1024.9 M460.126 1023.97 Q460.126 1035.42 460.941 1039.98 Q461.867 1044.91 464.387 1047.06 Q466.944 1049.17 469.76 1049.17 Q472.798 1049.17 475.318 1046.91 Q477.875 1044.61 478.653 1039.68 Q479.505 1034.83 479.468 1023.97 Q479.468 1013.41 478.727 1009.19 Q477.727 1004.26 475.059 1002.29 Q472.428 1000.29 469.76 1000.29 Q468.759 1000.29 467.685 1000.59 Q466.647 1000.88 465.128 1001.74 Q463.609 1002.59 462.423 1004.7 Q461.274 1006.81 460.718 1010 Q460.126 1014.11 460.126 1023.97 Z" fill="#000000" fill-rule="nonzero" fill-opacity="1" /><path clip-path="url(#clip440)" d="M1356.1 1005.85 L1356.1 1003.48 Q1365.21 1003.48 1369.92 998.625 Q1371.22 998.625 1371.44 998.921 Q1371.66 999.217 1371.66 1000.59 L1371.66 1043.16 Q1371.66 1045.43 1372.77 1046.13 Q1373.89 1046.83 1378.74 1046.83 L1381.15 1046.83 L1381.15 1049.17 Q1378.48 1048.95 1368.85 1048.95 Q1359.21 1048.95 1356.58 1049.17 L1356.58 1046.83 L1358.99 1046.83 Q1363.77 1046.83 1364.92 1046.17 Q1366.07 1045.46 1366.07 1043.16 L1366.07 1003.85 Q1362.1 1005.85 1356.1 1005.85 Z" fill="#000000" fill-rule="nonzero" fill-opacity="1" /><path clip-path="url(#clip440)" d="M1390.26 1024.9 Q1390.26 1013.74 1393.08 1007.67 Q1397.01 998.625 1406.27 998.625 Q1408.24 998.625 1410.27 999.18 Q1412.35 999.699 1414.94 1001.74 Q1417.57 1003.78 1419.17 1007.11 Q1422.2 1013.56 1422.2 1024.9 Q1422.2 1035.98 1419.39 1042.02 Q1415.28 1050.84 1406.2 1050.84 Q1402.79 1050.84 1399.3 1049.09 Q1395.86 1047.35 1393.67 1043.16 Q1390.26 1036.9 1390.26 1024.9 M1396.56 1023.97 Q1396.56 1035.42 1397.38 1039.98 Q1398.3 1044.91 1400.82 1047.06 Q1403.38 1049.17 1406.2 1049.17 Q1409.24 1049.17 1411.76 1046.91 Q1414.31 1044.61 1415.09 1039.68 Q1415.94 1034.83 1415.91 1023.97 Q1415.91 1013.41 1415.16 1009.19 Q1414.16 1004.26 1411.5 1002.29 Q1408.87 1000.29 1406.2 1000.29 Q1405.2 1000.29 1404.12 1000.59 Q1403.08 1000.88 1401.57 1001.74 Q1400.05 1002.59 1398.86 1004.7 Q1397.71 1006.81 1397.16 1010 Q1396.56 1014.11 1396.56 1023.97 Z" fill="#000000" fill-rule="nonzero" fill-opacity="1" /><path clip-path="url(#clip440)" d="M1428.21 1024.9 Q1428.21 1013.74 1431.02 1007.67 Q1434.95 998.625 1444.22 998.625 Q1446.18 998.625 1448.22 999.18 Q1450.29 999.699 1452.89 1001.74 Q1455.52 1003.78 1457.11 1007.11 Q1460.15 1013.56 1460.15 1024.9 Q1460.15 1035.98 1457.33 1042.02 Q1453.22 1050.84 1444.14 1050.84 Q1440.73 1050.84 1437.25 1049.09 Q1433.8 1047.35 1431.62 1043.16 Q1428.21 1036.9 1428.21 1024.9 M1434.51 1023.97 Q1434.51 1035.42 1435.32 1039.98 Q1436.25 1044.91 1438.77 1047.06 Q1441.33 1049.17 1444.14 1049.17 Q1447.18 1049.17 1449.7 1046.91 Q1452.26 1044.61 1453.03 1039.68 Q1453.89 1034.83 1453.85 1023.97 Q1453.85 1013.41 1453.11 1009.19 Q1452.11 1004.26 1449.44 1002.29 Q1446.81 1000.29 1444.14 1000.29 Q1443.14 1000.29 1442.07 1000.59 Q1441.03 1000.88 1439.51 1001.74 Q1437.99 1002.59 1436.8 1004.7 Q1435.66 1006.81 1435.1 1010 Q1434.51 1014.11 1434.51 1023.97 Z" fill="#000000" fill-rule="nonzero" fill-opacity="1" /><path clip-path="url(#clip440)" d="M2292.94 1049.17 Q2292.94 1047.8 2293.05 1047.39 Q2293.2 1046.98 2293.8 1046.35 L2308.36 1030.12 Q2316.33 1021.15 2316.33 1013.34 Q2316.33 1008.26 2313.66 1004.63 Q2311.03 1001 2306.17 1001 Q2302.84 1001 2300.02 1003.03 Q2297.2 1005.07 2295.91 1008.7 Q2296.13 1008.63 2296.91 1008.63 Q2298.8 1008.63 2299.84 1009.82 Q2300.91 1011 2300.91 1012.59 Q2300.91 1014.63 2299.58 1015.63 Q2298.28 1016.6 2296.98 1016.6 Q2296.46 1016.6 2295.76 1016.49 Q2295.09 1016.37 2294.02 1015.34 Q2292.94 1014.26 2292.94 1012.37 Q2292.94 1007.07 2296.95 1002.85 Q2300.98 998.625 2307.14 998.625 Q2314.1 998.625 2318.66 1002.77 Q2323.25 1006.89 2323.25 1013.34 Q2323.25 1015.6 2322.55 1017.67 Q2321.88 1019.71 2320.96 1021.3 Q2320.07 1022.9 2317.62 1025.45 Q2315.18 1028.01 2313.21 1029.82 Q2311.25 1031.64 2306.84 1035.49 L2298.8 1043.31 L2312.47 1043.31 Q2319.14 1043.31 2319.66 1042.72 Q2320.4 1041.65 2321.33 1035.98 L2323.25 1035.98 L2321.11 1049.17 L2292.94 1049.17 Z" fill="#000000" fill-rule="nonzero" fill-opacity="1" /><path clip-path="url(#clip440)" d="M2330.07 1024.9 Q2330.07 1013.74 2332.89 1007.67 Q2336.82 998.625 2346.08 998.625 Q2348.04 998.625 2350.08 999.18 Q2352.16 999.699 2354.75 1001.74 Q2357.38 1003.78 2358.98 1007.11 Q2362.01 1013.56 2362.01 1024.9 Q2362.01 1035.98 2359.2 1042.02 Q2355.08 1050.84 2346.01 1050.84 Q2342.6 1050.84 2339.11 1049.09 Q2335.67 1047.35 2333.48 1043.16 Q2330.07 1036.9 2330.07 1024.9 M2336.37 1023.97 Q2336.37 1035.42 2337.19 1039.98 Q2338.11 1044.91 2340.63 1047.06 Q2343.19 1049.17 2346.01 1049.17 Q2349.04 1049.17 2351.56 1046.91 Q2354.12 1044.61 2354.9 1039.68 Q2355.75 1034.83 2355.71 1023.97 Q2355.71 1013.41 2354.97 1009.19 Q2353.97 1004.26 2351.31 1002.29 Q2348.67 1000.29 2346.01 1000.29 Q2345.01 1000.29 2343.93 1000.59 Q2342.89 1000.88 2341.37 1001.74 Q2339.86 1002.59 2338.67 1004.7 Q2337.52 1006.81 2336.96 1010 Q2336.37 1014.11 2336.37 1023.97 Z" fill="#000000" fill-rule="nonzero" fill-opacity="1" /><path clip-path="url(#clip440)" d="M2368.02 1024.9 Q2368.02 1013.74 2370.83 1007.67 Q2374.76 998.625 2384.02 998.625 Q2385.99 998.625 2388.03 999.18 Q2390.1 999.699 2392.7 1001.74 Q2395.33 1003.78 2396.92 1007.11 Q2399.96 1013.56 2399.96 1024.9 Q2399.96 1035.98 2397.14 1042.02 Q2393.03 1050.84 2383.95 1050.84 Q2380.54 1050.84 2377.06 1049.09 Q2373.61 1047.35 2371.43 1043.16 Q2368.02 1036.9 2368.02 1024.9 M2374.32 1023.97 Q2374.32 1035.42 2375.13 1039.98 Q2376.06 1044.91 2378.58 1047.06 Q2381.13 1049.17 2383.95 1049.17 Q2386.99 1049.17 2389.51 1046.91 Q2392.07 1044.61 2392.84 1039.68 Q2393.7 1034.83 2393.66 1023.97 Q2393.66 1013.41 2392.92 1009.19 Q2391.92 1004.26 2389.25 1002.29 Q2386.62 1000.29 2383.95 1000.29 Q2382.95 1000.29 2381.88 1000.59 Q2380.84 1000.88 2379.32 1001.74 Q2377.8 1002.59 2376.61 1004.7 Q2375.47 1006.81 2374.91 1010 Q2374.32 1014.11 2374.32 1023.97 Z" fill="#000000" fill-rule="nonzero" fill-opacity="1" /><path clip-path="url(#clip440)" d="M3230.97 1038.94 Q3230.97 1036.68 3232.27 1035.61 Q3233.57 1034.53 3235.24 1034.53 Q3236.98 1034.53 3238.2 1035.68 Q3239.46 1036.79 3239.46 1038.76 Q3239.46 1040.87 3237.98 1042.05 Q3236.53 1043.24 3234.46 1042.94 Q3236.27 1045.98 3239.61 1047.35 Q3242.98 1048.72 3246.09 1048.72 Q3249.35 1048.72 3251.98 1045.91 Q3254.65 1043.09 3254.65 1036.2 Q3254.65 1030.34 3252.35 1026.97 Q3250.09 1023.6 3245.61 1023.6 L3242.28 1023.6 Q3241.13 1023.6 3240.79 1023.49 Q3240.46 1023.38 3240.46 1022.75 Q3240.46 1022.01 3241.61 1021.86 Q3242.76 1021.86 3244.57 1021.64 Q3248.98 1021.49 3251.32 1017.67 Q3253.43 1014.11 3253.43 1009.04 Q3253.43 1004.41 3251.21 1002.48 Q3249.02 1000.51 3246.17 1000.51 Q3243.5 1000.51 3240.57 1001.63 Q3237.64 1002.74 3236.05 1005.22 Q3240.76 1005.22 3240.76 1009.04 Q3240.76 1010.7 3239.68 1011.82 Q3238.64 1012.89 3236.9 1012.89 Q3235.24 1012.89 3234.12 1011.85 Q3233.01 1010.78 3233.01 1008.96 Q3233.01 1004.63 3236.87 1001.63 Q3240.76 998.625 3246.46 998.625 Q3252.1 998.625 3256.25 1001.59 Q3260.43 1004.55 3260.43 1009.11 Q3260.43 1013.59 3257.47 1017.26 Q3254.5 1020.93 3249.8 1022.45 Q3255.58 1023.6 3259.02 1027.53 Q3262.47 1031.42 3262.47 1036.2 Q3262.47 1042.13 3257.8 1046.5 Q3253.13 1050.84 3246.31 1050.84 Q3240.02 1050.84 3235.49 1047.43 Q3230.97 1044.02 3230.97 1038.94 Z" fill="#000000" fill-rule="nonzero" fill-opacity="1" /><path clip-path="url(#clip440)" d="M3268.7 1024.9 Q3268.7 1013.74 3271.51 1007.67 Q3275.44 998.625 3284.7 998.625 Q3286.67 998.625 3288.71 999.18 Q3290.78 999.699 3293.37 1001.74 Q3296.01 1003.78 3297.6 1007.11 Q3300.64 1013.56 3300.64 1024.9 Q3300.64 1035.98 3297.82 1042.02 Q3293.71 1050.84 3284.63 1050.84 Q3281.22 1050.84 3277.74 1049.09 Q3274.29 1047.35 3272.11 1043.16 Q3268.7 1036.9 3268.7 1024.9 M3275 1023.97 Q3275 1035.42 3275.81 1039.98 Q3276.74 1044.91 3279.26 1047.06 Q3281.81 1049.17 3284.63 1049.17 Q3287.67 1049.17 3290.19 1046.91 Q3292.74 1044.61 3293.52 1039.68 Q3294.38 1034.83 3294.34 1023.97 Q3294.34 1013.41 3293.6 1009.19 Q3292.6 1004.26 3289.93 1002.29 Q3287.3 1000.29 3284.63 1000.29 Q3283.63 1000.29 3282.55 1000.59 Q3281.52 1000.88 3280 1001.74 Q3278.48 1002.59 3277.29 1004.7 Q3276.14 1006.81 3275.59 1010 Q3275 1014.11 3275 1023.97 Z" fill="#000000" fill-rule="nonzero" fill-opacity="1" /><path clip-path="url(#clip440)" d="M3306.64 1024.9 Q3306.64 1013.74 3309.46 1007.67 Q3313.38 998.625 3322.65 998.625 Q3324.61 998.625 3326.65 999.18 Q3328.73 999.699 3331.32 1001.74 Q3333.95 1003.78 3335.54 1007.11 Q3338.58 1013.56 3338.58 1024.9 Q3338.58 1035.98 3335.77 1042.02 Q3331.65 1050.84 3322.57 1050.84 Q3319.17 1050.84 3315.68 1049.09 Q3312.24 1047.35 3310.05 1043.16 Q3306.64 1036.9 3306.64 1024.9 M3312.94 1023.97 Q3312.94 1035.42 3313.76 1039.98 Q3314.68 1044.91 3317.2 1047.06 Q3319.76 1049.17 3322.57 1049.17 Q3325.61 1049.17 3328.13 1046.91 Q3330.69 1044.61 3331.47 1039.68 Q3332.32 1034.83 3332.28 1023.97 Q3332.28 1013.41 3331.54 1009.19 Q3330.54 1004.26 3327.87 1002.29 Q3325.24 1000.29 3322.57 1000.29 Q3321.57 1000.29 3320.5 1000.59 Q3319.46 1000.88 3317.94 1001.74 Q3316.42 1002.59 3315.24 1004.7 Q3314.09 1006.81 3313.53 1010 Q3312.94 1014.11 3312.94 1023.97 Z" fill="#000000" fill-rule="nonzero" fill-opacity="1" /><path clip-path="url(#clip440)" d="M1987.98 1121.99 L1987.98 1119.62 Q1992.09 1119.84 1995.02 1119.84 Q1996.46 1119.84 2003.32 1119.62 L2003.32 1121.99 Q1998.83 1121.99 1998.83 1124.03 Q1998.83 1124.47 1999.2 1125.4 L2006.43 1145.67 L2012.95 1127.29 Q2011.58 1123.58 2011.21 1123.14 Q2010.28 1121.99 2006.43 1121.99 L2006.43 1119.62 Q2009.84 1119.84 2013.17 1119.84 Q2014.47 1119.84 2021.07 1119.62 L2021.07 1121.99 Q2016.58 1121.99 2016.58 1124.03 Q2016.58 1124.32 2016.95 1125.47 L2024.47 1146.63 L2031.37 1127.21 Q2031.74 1126.21 2031.77 1125.62 Q2031.77 1123.95 2030.59 1123.03 Q2029.4 1122.06 2027.37 1121.99 L2027.37 1119.62 Q2031.7 1119.84 2034.41 1119.84 Q2037.44 1119.84 2039.96 1119.62 L2039.96 1121.99 Q2035.26 1122.14 2033.59 1126.84 L2024.7 1151.74 Q2023.85 1153.11 2023.18 1153.19 Q2022.18 1153.19 2021.66 1151.74 L2013.91 1130.18 L2006.24 1151.67 Q2005.95 1152.6 2005.69 1152.89 Q2005.43 1153.19 2004.72 1153.19 Q2004.06 1153.19 2003.76 1152.78 Q2003.46 1152.41 2003.13 1151.48 L1993.57 1124.62 Q1992.9 1122.88 1991.9 1122.43 Q1990.94 1121.99 1987.98 1121.99 Z" fill="#000000" fill-rule="nonzero" fill-opacity="1" /><path clip-path="url(#clip440)" d="M2043.89 1152.34 L2043.89 1150 Q2047.93 1150 2048.86 1149.52 Q2049.78 1149 2049.78 1146.56 L2049.78 1126.14 Q2049.78 1123.32 2048.82 1122.65 Q2047.89 1121.99 2044.19 1121.99 L2044.19 1119.62 L2054.79 1118.8 L2054.79 1146.63 Q2054.79 1148.89 2055.6 1149.45 Q2056.42 1150 2060.12 1150 L2060.12 1152.34 Q2052.38 1152.11 2052.23 1152.11 Q2051.19 1152.11 2043.89 1152.34 M2047.08 1105.57 Q2047.08 1104.05 2048.23 1102.83 Q2049.41 1101.57 2051.08 1101.57 Q2052.75 1101.57 2053.93 1102.72 Q2055.12 1103.83 2055.12 1105.61 Q2055.12 1107.35 2053.93 1108.5 Q2052.75 1109.61 2051.08 1109.61 Q2049.34 1109.61 2048.19 1108.39 Q2047.08 1107.17 2047.08 1105.57 Z" fill="#000000" fill-rule="nonzero" fill-opacity="1" /><path clip-path="url(#clip440)" d="M2064.83 1152.34 L2064.83 1150 Q2068.87 1150 2069.79 1149.52 Q2070.72 1149 2070.72 1146.56 L2070.72 1126.21 Q2070.72 1123.4 2069.72 1122.69 Q2068.76 1121.99 2064.83 1121.99 L2064.83 1119.62 L2075.5 1118.8 L2075.5 1126.77 Q2079.06 1118.8 2086.73 1118.8 Q2092.43 1118.8 2094.69 1121.62 Q2096.36 1123.51 2096.7 1125.62 Q2097.07 1127.73 2097.07 1133.22 L2097.07 1147.7 Q2097.14 1149.3 2098.36 1149.67 Q2099.59 1150 2102.99 1150 L2102.99 1152.34 Q2095.25 1152.11 2094.47 1152.11 Q2093.88 1152.11 2085.91 1152.34 L2085.91 1150 Q2089.95 1150 2090.88 1149.52 Q2091.84 1149 2091.84 1146.56 L2091.84 1128.88 Q2091.84 1125.03 2090.66 1122.77 Q2089.47 1120.47 2086.21 1120.47 Q2082.28 1120.47 2079.13 1123.77 Q2075.98 1127.06 2075.98 1132.62 L2075.98 1146.56 Q2075.98 1149 2076.91 1149.52 Q2077.87 1150 2081.87 1150 L2081.87 1152.34 Q2074.13 1152.11 2073.39 1152.11 Q2072.79 1152.11 2064.83 1152.34 Z" fill="#000000" fill-rule="nonzero" fill-opacity="1" /><path clip-path="url(#clip440)" d="M2107.07 1136.03 Q2107.07 1128.81 2112.11 1123.8 Q2117.15 1118.8 2123.97 1118.8 Q2129.75 1118.8 2133.53 1123.51 L2133.53 1107.09 Q2133.53 1104.28 2132.53 1103.57 Q2131.56 1102.87 2127.64 1102.87 L2127.64 1100.5 L2138.57 1099.68 L2138.57 1145.74 Q2138.57 1148.56 2139.53 1149.3 Q2140.53 1150 2144.46 1150 L2144.46 1152.34 L2133.31 1153.19 L2133.31 1148.15 Q2129.38 1153.15 2123.15 1153.19 Q2116.63 1153.19 2111.85 1148.19 Q2107.07 1143.18 2107.07 1136.03 M2113.37 1136.11 Q2113.37 1143.15 2115.56 1146.63 Q2118.59 1151.48 2123.52 1151.48 Q2129.16 1151.48 2132.49 1146.18 Q2133.34 1144.89 2133.31 1143.37 L2133.31 1127.81 Q2133.31 1126.29 2132.49 1125.03 Q2129.38 1120.47 2124.3 1120.47 Q2119 1120.47 2115.7 1125.32 Q2113.37 1128.95 2113.37 1136.11 Z" fill="#000000" fill-rule="nonzero" fill-opacity="1" /><path clip-path="url(#clip440)" d="M2153.69 1148.26 Q2148.68 1143.29 2148.68 1136.11 Q2148.68 1128.88 2153.57 1123.62 Q2158.5 1118.32 2165.54 1118.32 Q2172.44 1118.32 2177.36 1123.58 Q2182.33 1128.81 2182.33 1136.11 Q2182.33 1143.26 2177.33 1148.22 Q2172.36 1153.19 2165.47 1153.19 Q2158.73 1153.19 2153.69 1148.26 M2154.98 1135.48 Q2154.98 1142.85 2156.91 1146.18 Q2159.87 1151.26 2165.54 1151.26 Q2168.36 1151.26 2170.69 1149.74 Q2173.07 1148.22 2174.36 1145.67 Q2176.03 1142.33 2176.03 1135.48 Q2176.03 1128.18 2174.03 1124.95 Q2171.06 1120.02 2165.47 1120.02 Q2163.02 1120.02 2160.62 1121.32 Q2158.24 1122.58 2156.8 1125.1 Q2154.98 1128.44 2154.98 1135.48 Z" fill="#000000" fill-rule="nonzero" fill-opacity="1" /><path clip-path="url(#clip440)" d="M2183.77 1121.99 L2183.77 1119.62 Q2187.89 1119.84 2190.82 1119.84 Q2192.26 1119.84 2199.12 1119.62 L2199.12 1121.99 Q2194.63 1121.99 2194.63 1124.03 Q2194.63 1124.47 2195 1125.4 L2202.23 1145.67 L2208.75 1127.29 Q2207.38 1123.58 2207.01 1123.14 Q2206.08 1121.99 2202.23 1121.99 L2202.23 1119.62 Q2205.64 1119.84 2208.97 1119.84 Q2210.27 1119.84 2216.86 1119.62 L2216.86 1121.99 Q2212.38 1121.99 2212.38 1124.03 Q2212.38 1124.32 2212.75 1125.47 L2220.27 1146.63 L2227.17 1127.21 Q2227.54 1126.21 2227.57 1125.62 Q2227.57 1123.95 2226.39 1123.03 Q2225.2 1122.06 2223.16 1121.99 L2223.16 1119.62 Q2227.5 1119.84 2230.2 1119.84 Q2233.24 1119.84 2235.76 1119.62 L2235.76 1121.99 Q2231.06 1122.14 2229.39 1126.84 L2220.5 1151.74 Q2219.64 1153.11 2218.98 1153.19 Q2217.98 1153.19 2217.46 1151.74 L2209.71 1130.18 L2202.04 1151.67 Q2201.75 1152.6 2201.49 1152.89 Q2201.23 1153.19 2200.52 1153.19 Q2199.86 1153.19 2199.56 1152.78 Q2199.26 1152.41 2198.93 1151.48 L2189.37 1124.62 Q2188.7 1122.88 2187.7 1122.43 Q2186.74 1121.99 2183.77 1121.99 Z" fill="#000000" fill-rule="nonzero" fill-opacity="1" /><polyline clip-path="url(#clip440)" style="stroke:#000000; stroke-linecap:round; stroke-linejoin:round; stroke-width:4; stroke-opacity:1; fill:none" points="381.219,952.368 381.219,109.648 "/>
<polyline clip-path="url(#clip440)" style="stroke:#000000; stroke-linecap:round; stroke-linejoin:round; stroke-width:4; stroke-opacity:1; fill:none" points="381.219,928.517 400.116,928.517 "/>
<polyline clip-path="url(#clip440)" style="stroke:#000000; stroke-linecap:round; stroke-linejoin:round; stroke-width:4; stroke-opacity:1; fill:none" points="381.219,729.762 400.116,729.762 "/>
<polyline clip-path="url(#clip440)" style="stroke:#000000; stroke-linecap:round; stroke-linejoin:round; stroke-width:4; stroke-opacity:1; fill:none" points="381.219,531.008 400.116,531.008 "/>
<polyline clip-path="url(#clip440)" style="stroke:#000000; stroke-linecap:round; stroke-linejoin:round; stroke-width:4; stroke-opacity:1; fill:none" points="381.219,332.253 400.116,332.253 "/>
<polyline clip-path="url(#clip440)" style="stroke:#000000; stroke-linecap:round; stroke-linejoin:round; stroke-width:4; stroke-opacity:1; fill:none" points="381.219,133.499 400.116,133.499 "/>
<path clip-path="url(#clip440)" d="M192.304 930.166 Q192.304 919.012 195.121 912.935 Q199.048 903.894 208.312 903.894 Q210.276 903.894 212.314 904.45 Q214.389 904.969 216.983 907.007 Q219.614 909.045 221.207 912.38 Q224.246 918.827 224.246 930.166 Q224.246 941.245 221.43 947.285 Q217.317 956.105 208.238 956.105 Q204.829 956.105 201.346 954.363 Q197.9 952.621 195.713 948.434 Q192.304 942.172 192.304 930.166 M198.604 929.24 Q198.604 940.69 199.419 945.247 Q200.345 950.176 202.865 952.325 Q205.422 954.437 208.238 954.437 Q211.277 954.437 213.796 952.177 Q216.353 949.879 217.131 944.951 Q217.984 940.097 217.946 929.24 Q217.946 918.679 217.205 914.455 Q216.205 909.526 213.537 907.562 Q210.906 905.561 208.238 905.561 Q207.238 905.561 206.163 905.858 Q205.125 906.154 203.606 907.007 Q202.087 907.859 200.901 909.971 Q199.752 912.083 199.197 915.27 Q198.604 919.383 198.604 929.24 Z" fill="#000000" fill-rule="nonzero" fill-opacity="1" /><path clip-path="url(#clip440)" d="M234.881 953.214 Q233.732 951.991 233.732 950.398 Q233.732 948.805 234.881 947.656 Q236.029 946.47 237.771 946.47 Q239.438 946.47 240.55 947.582 Q241.699 948.656 241.699 950.435 Q241.699 952.177 240.476 953.325 Q239.29 954.437 237.771 954.437 Q236.029 954.437 234.881 953.214 Z" fill="#000000" fill-rule="nonzero" fill-opacity="1" /><path clip-path="url(#clip440)" d="M251.333 930.166 Q251.333 919.012 254.149 912.935 Q258.077 903.894 267.341 903.894 Q269.305 903.894 271.343 904.45 Q273.418 904.969 276.012 907.007 Q278.643 909.045 280.236 912.38 Q283.274 918.827 283.274 930.166 Q283.274 941.245 280.458 947.285 Q276.345 956.105 267.267 956.105 Q263.858 956.105 260.374 954.363 Q256.928 952.621 254.742 948.434 Q251.333 942.172 251.333 930.166 M257.632 929.24 Q257.632 940.69 258.448 945.247 Q259.374 950.176 261.894 952.325 Q264.451 954.437 267.267 954.437 Q270.305 954.437 272.825 952.177 Q275.382 949.879 276.16 944.951 Q277.012 940.097 276.975 929.24 Q276.975 918.679 276.234 914.455 Q275.234 909.526 272.566 907.562 Q269.935 905.561 267.267 905.561 Q266.266 905.561 265.192 905.858 Q264.154 906.154 262.635 907.007 Q261.116 907.859 259.93 909.971 Q258.781 912.083 258.225 915.27 Q257.632 919.383 257.632 929.24 Z" fill="#000000" fill-rule="nonzero" fill-opacity="1" /><path clip-path="url(#clip440)" d="M289.277 930.166 Q289.277 919.012 292.094 912.935 Q296.021 903.894 305.285 903.894 Q307.249 903.894 309.287 904.45 Q311.362 904.969 313.956 907.007 Q316.587 909.045 318.18 912.38 Q321.219 918.827 321.219 930.166 Q321.219 941.245 318.403 947.285 Q314.29 956.105 305.211 956.105 Q301.802 956.105 298.319 954.363 Q294.873 952.621 292.686 948.434 Q289.277 942.172 289.277 930.166 M295.577 929.24 Q295.577 940.69 296.392 945.247 Q297.318 950.176 299.838 952.325 Q302.395 954.437 305.211 954.437 Q308.25 954.437 310.769 952.177 Q313.326 949.879 314.104 944.951 Q314.957 940.097 314.92 929.24 Q314.92 918.679 314.178 914.455 Q313.178 909.526 310.51 907.562 Q307.879 905.561 305.211 905.561 Q304.211 905.561 303.136 905.858 Q302.098 906.154 300.579 907.007 Q299.06 907.859 297.874 909.971 Q296.725 912.083 296.17 915.27 Q295.577 919.383 295.577 929.24 Z" fill="#000000" fill-rule="nonzero" fill-opacity="1" /><path clip-path="url(#clip440)" d="M193.12 731.411 Q193.12 720.258 195.936 714.181 Q199.864 705.139 209.127 705.139 Q211.091 705.139 213.129 705.695 Q215.204 706.214 217.798 708.252 Q220.429 710.29 222.023 713.625 Q225.061 720.073 225.061 731.411 Q225.061 742.491 222.245 748.531 Q218.132 757.35 209.053 757.35 Q205.644 757.35 202.161 755.608 Q198.715 753.867 196.529 749.68 Q193.12 743.417 193.12 731.411 M199.419 730.485 Q199.419 741.935 200.234 746.493 Q201.161 751.421 203.68 753.57 Q206.237 755.682 209.053 755.682 Q212.092 755.682 214.612 753.422 Q217.168 751.125 217.946 746.196 Q218.799 741.342 218.762 730.485 Q218.762 719.924 218.021 715.7 Q217.02 710.772 214.352 708.808 Q211.721 706.807 209.053 706.807 Q208.053 706.807 206.978 707.103 Q205.941 707.4 204.421 708.252 Q202.902 709.104 201.716 711.216 Q200.568 713.329 200.012 716.515 Q199.419 720.628 199.419 730.485 Z" fill="#000000" fill-rule="nonzero" fill-opacity="1" /><path clip-path="url(#clip440)" d="M235.696 754.46 Q234.547 753.237 234.547 751.643 Q234.547 750.05 235.696 748.901 Q236.845 747.716 238.586 747.716 Q240.254 747.716 241.365 748.827 Q242.514 749.902 242.514 751.681 Q242.514 753.422 241.291 754.571 Q240.105 755.682 238.586 755.682 Q236.845 755.682 235.696 754.46 Z" fill="#000000" fill-rule="nonzero" fill-opacity="1" /><path clip-path="url(#clip440)" d="M252.963 755.682 Q252.963 754.311 253.075 753.904 Q253.223 753.496 253.816 752.866 L268.378 736.636 Q276.345 727.669 276.345 719.85 Q276.345 714.774 273.677 711.142 Q271.046 707.511 266.192 707.511 Q262.857 707.511 260.041 709.549 Q257.225 711.587 255.928 715.218 Q256.15 715.144 256.928 715.144 Q258.818 715.144 259.856 716.33 Q260.93 717.516 260.93 719.109 Q260.93 721.147 259.596 722.148 Q258.299 723.111 257.002 723.111 Q256.484 723.111 255.78 723 Q255.113 722.889 254.038 721.851 Q252.963 720.777 252.963 718.887 Q252.963 713.588 256.965 709.364 Q261.004 705.139 267.156 705.139 Q274.122 705.139 278.68 709.29 Q283.274 713.403 283.274 719.85 Q283.274 722.111 282.57 724.186 Q281.903 726.224 280.977 727.817 Q280.088 729.41 277.642 731.967 Q275.197 734.524 273.233 736.34 Q271.269 738.155 266.859 742.009 L258.818 749.828 L272.491 749.828 Q279.161 749.828 279.68 749.235 Q280.421 748.16 281.348 742.491 L283.274 742.491 L281.125 755.682 L252.963 755.682 Z" fill="#000000" fill-rule="nonzero" fill-opacity="1" /><path clip-path="url(#clip440)" d="M290.908 743.454 Q290.908 741.194 292.131 740.342 Q293.353 739.452 294.65 739.452 Q296.392 739.452 297.392 740.564 Q298.43 741.639 298.43 743.158 Q298.43 744.677 297.392 745.789 Q296.392 746.863 294.65 746.863 Q293.798 746.863 293.353 746.715 Q294.354 750.198 297.392 752.718 Q300.468 755.238 304.507 755.238 Q309.584 755.238 312.622 750.309 Q314.438 747.123 314.438 739.897 Q314.438 733.524 313.067 730.337 Q310.955 725.483 306.619 725.483 Q300.468 725.483 296.837 730.781 Q296.392 731.448 295.873 731.486 Q295.132 731.486 294.947 731.078 Q294.799 730.633 294.799 729.485 L294.799 707.029 Q294.799 705.214 295.54 705.214 Q295.836 705.214 296.466 705.436 Q301.246 707.548 306.545 707.585 Q311.992 707.585 316.883 705.362 Q317.254 705.139 317.476 705.139 Q318.217 705.139 318.254 705.992 Q318.254 706.288 317.625 707.177 Q317.032 708.03 315.735 709.178 Q314.438 710.29 312.77 711.365 Q311.103 712.439 308.657 713.18 Q306.249 713.884 303.581 713.884 Q300.394 713.884 297.133 712.884 L297.133 727.669 Q301.061 723.815 306.767 723.815 Q312.844 723.815 317.032 728.706 Q321.219 733.598 321.219 740.416 Q321.219 747.567 316.253 752.459 Q311.325 757.35 304.655 757.35 Q298.578 757.35 294.725 753.015 Q290.908 748.679 290.908 743.454 Z" fill="#000000" fill-rule="nonzero" fill-opacity="1" /><path clip-path="url(#clip440)" d="M192.304 532.657 Q192.304 521.503 195.121 515.426 Q199.048 506.385 208.312 506.385 Q210.276 506.385 212.314 506.941 Q214.389 507.459 216.983 509.497 Q219.614 511.535 221.207 514.87 Q224.246 521.318 224.246 532.657 Q224.246 543.736 221.43 549.776 Q217.317 558.595 208.238 558.595 Q204.829 558.595 201.346 556.854 Q197.9 555.112 195.713 550.925 Q192.304 544.663 192.304 532.657 M198.604 531.73 Q198.604 543.18 199.419 547.738 Q200.345 552.667 202.865 554.816 Q205.422 556.928 208.238 556.928 Q211.277 556.928 213.796 554.668 Q216.353 552.37 217.131 547.442 Q217.984 542.588 217.946 531.73 Q217.946 521.17 217.205 516.945 Q216.205 512.017 213.537 510.053 Q210.906 508.052 208.238 508.052 Q207.238 508.052 206.163 508.349 Q205.125 508.645 203.606 509.497 Q202.087 510.35 200.901 512.462 Q199.752 514.574 199.197 517.761 Q198.604 521.874 198.604 531.73 Z" fill="#000000" fill-rule="nonzero" fill-opacity="1" /><path clip-path="url(#clip440)" d="M234.881 555.705 Q233.732 554.482 233.732 552.889 Q233.732 551.296 234.881 550.147 Q236.029 548.961 237.771 548.961 Q239.438 548.961 240.55 550.073 Q241.699 551.147 241.699 552.926 Q241.699 554.668 240.476 555.816 Q239.29 556.928 237.771 556.928 Q236.029 556.928 234.881 555.705 Z" fill="#000000" fill-rule="nonzero" fill-opacity="1" /><path clip-path="url(#clip440)" d="M252.148 544.7 Q252.148 542.439 253.371 541.587 Q254.594 540.698 255.891 540.698 Q257.632 540.698 258.633 541.809 Q259.67 542.884 259.67 544.403 Q259.67 545.923 258.633 547.034 Q257.632 548.109 255.891 548.109 Q255.039 548.109 254.594 547.961 Q255.594 551.444 258.633 553.963 Q261.708 556.483 265.747 556.483 Q270.824 556.483 273.863 551.555 Q275.678 548.368 275.678 541.142 Q275.678 534.769 274.307 531.582 Q272.195 526.728 267.86 526.728 Q261.708 526.728 258.077 532.027 Q257.632 532.694 257.114 532.731 Q256.373 532.731 256.187 532.323 Q256.039 531.879 256.039 530.73 L256.039 508.275 Q256.039 506.459 256.78 506.459 Q257.077 506.459 257.707 506.681 Q262.487 508.793 267.785 508.83 Q273.233 508.83 278.124 506.607 Q278.494 506.385 278.717 506.385 Q279.458 506.385 279.495 507.237 Q279.495 507.534 278.865 508.423 Q278.272 509.275 276.975 510.424 Q275.678 511.535 274.011 512.61 Q272.343 513.685 269.898 514.426 Q267.489 515.13 264.821 515.13 Q261.634 515.13 258.374 514.129 L258.374 528.914 Q262.301 525.061 268.008 525.061 Q274.085 525.061 278.272 529.952 Q282.459 534.843 282.459 541.661 Q282.459 548.813 277.494 553.704 Q272.566 558.595 265.896 558.595 Q259.819 558.595 255.965 554.26 Q252.148 549.924 252.148 544.7 Z" fill="#000000" fill-rule="nonzero" fill-opacity="1" /><path clip-path="url(#clip440)" d="M289.277 532.657 Q289.277 521.503 292.094 515.426 Q296.021 506.385 305.285 506.385 Q307.249 506.385 309.287 506.941 Q311.362 507.459 313.956 509.497 Q316.587 511.535 318.18 514.87 Q321.219 521.318 321.219 532.657 Q321.219 543.736 318.403 549.776 Q314.29 558.595 305.211 558.595 Q301.802 558.595 298.319 556.854 Q294.873 555.112 292.686 550.925 Q289.277 544.663 289.277 532.657 M295.577 531.73 Q295.577 543.18 296.392 547.738 Q297.318 552.667 299.838 554.816 Q302.395 556.928 305.211 556.928 Q308.25 556.928 310.769 554.668 Q313.326 552.37 314.104 547.442 Q314.957 542.588 314.92 531.73 Q314.92 521.17 314.178 516.945 Q313.178 512.017 310.51 510.053 Q307.879 508.052 305.211 508.052 Q304.211 508.052 303.136 508.349 Q302.098 508.645 300.579 509.497 Q299.06 510.35 297.874 512.462 Q296.725 514.574 296.17 517.761 Q295.577 521.874 295.577 531.73 Z" fill="#000000" fill-rule="nonzero" fill-opacity="1" /><path clip-path="url(#clip440)" d="M193.12 333.902 Q193.12 322.749 195.936 316.672 Q199.864 307.63 209.127 307.63 Q211.091 307.63 213.129 308.186 Q215.204 308.705 217.798 310.743 Q220.429 312.781 222.023 316.116 Q225.061 322.563 225.061 333.902 Q225.061 344.982 222.245 351.022 Q218.132 359.841 209.053 359.841 Q205.644 359.841 202.161 358.099 Q198.715 356.358 196.529 352.17 Q193.12 345.908 193.12 333.902 M199.419 332.976 Q199.419 344.426 200.234 348.984 Q201.161 353.912 203.68 356.061 Q206.237 358.173 209.053 358.173 Q212.092 358.173 214.612 355.913 Q217.168 353.616 217.946 348.687 Q218.799 343.833 218.762 332.976 Q218.762 322.415 218.021 318.191 Q217.02 313.263 214.352 311.299 Q211.721 309.298 209.053 309.298 Q208.053 309.298 206.978 309.594 Q205.941 309.891 204.421 310.743 Q202.902 311.595 201.716 313.707 Q200.568 315.819 200.012 319.006 Q199.419 323.119 199.419 332.976 Z" fill="#000000" fill-rule="nonzero" fill-opacity="1" /><path clip-path="url(#clip440)" d="M235.696 356.95 Q234.547 355.728 234.547 354.134 Q234.547 352.541 235.696 351.392 Q236.845 350.206 238.586 350.206 Q240.254 350.206 241.365 351.318 Q242.514 352.393 242.514 354.171 Q242.514 355.913 241.291 357.062 Q240.105 358.173 238.586 358.173 Q236.845 358.173 235.696 356.95 Z" fill="#000000" fill-rule="nonzero" fill-opacity="1" /><path clip-path="url(#clip440)" d="M253.445 322.489 L255.928 306.889 L257.818 306.889 Q258.04 307.815 258.411 308.223 Q258.818 308.631 260.967 308.964 Q263.154 309.298 267.563 309.298 L285.98 309.298 Q285.98 311.039 285.313 311.966 L275.048 326.38 Q271.787 330.938 270.342 339.349 Q269.49 344.982 269.527 351.8 L269.527 355.654 Q269.527 359.841 266.007 359.841 Q262.524 359.841 262.524 355.654 Q262.524 341.165 271.862 327.121 Q272.862 325.676 276.53 320.525 Q280.236 315.375 280.384 315.152 L264.673 315.152 Q257.781 315.152 257.225 315.597 Q256.484 316.264 255.335 322.489 L253.445 322.489 Z" fill="#000000" fill-rule="nonzero" fill-opacity="1" /><path clip-path="url(#clip440)" d="M290.908 345.945 Q290.908 343.685 292.131 342.832 Q293.353 341.943 294.65 341.943 Q296.392 341.943 297.392 343.055 Q298.43 344.129 298.43 345.649 Q298.43 347.168 297.392 348.28 Q296.392 349.354 294.65 349.354 Q293.798 349.354 293.353 349.206 Q294.354 352.689 297.392 355.209 Q300.468 357.729 304.507 357.729 Q309.584 357.729 312.622 352.8 Q314.438 349.614 314.438 342.388 Q314.438 336.014 313.067 332.828 Q310.955 327.973 306.619 327.973 Q300.468 327.973 296.837 333.272 Q296.392 333.939 295.873 333.976 Q295.132 333.976 294.947 333.569 Q294.799 333.124 294.799 331.975 L294.799 309.52 Q294.799 307.704 295.54 307.704 Q295.836 307.704 296.466 307.927 Q301.246 310.039 306.545 310.076 Q311.992 310.076 316.883 307.853 Q317.254 307.63 317.476 307.63 Q318.217 307.63 318.254 308.482 Q318.254 308.779 317.625 309.668 Q317.032 310.52 315.735 311.669 Q314.438 312.781 312.77 313.855 Q311.103 314.93 308.657 315.671 Q306.249 316.375 303.581 316.375 Q300.394 316.375 297.133 315.375 L297.133 330.16 Q301.061 326.306 306.767 326.306 Q312.844 326.306 317.032 331.197 Q321.219 336.088 321.219 342.907 Q321.219 350.058 316.253 354.949 Q311.325 359.841 304.655 359.841 Q298.578 359.841 294.725 355.505 Q290.908 351.17 290.908 345.945 Z" fill="#000000" fill-rule="nonzero" fill-opacity="1" /><path clip-path="url(#clip440)" d="M196.084 116.101 L196.084 113.73 Q205.2 113.73 209.906 108.876 Q211.202 108.876 211.425 109.172 Q211.647 109.468 211.647 110.84 L211.647 153.416 Q211.647 155.676 212.759 156.38 Q213.87 157.084 218.725 157.084 L221.133 157.084 L221.133 159.419 Q218.465 159.196 208.831 159.196 Q199.197 159.196 196.566 159.419 L196.566 157.084 L198.974 157.084 Q203.754 157.084 204.903 156.417 Q206.052 155.713 206.052 153.416 L206.052 114.1 Q202.087 116.101 196.084 116.101 Z" fill="#000000" fill-rule="nonzero" fill-opacity="1" /><path clip-path="url(#clip440)" d="M234.881 158.196 Q233.732 156.973 233.732 155.38 Q233.732 153.786 234.881 152.638 Q236.029 151.452 237.771 151.452 Q239.438 151.452 240.55 152.563 Q241.699 153.638 241.699 155.417 Q241.699 157.158 240.476 158.307 Q239.29 159.419 237.771 159.419 Q236.029 159.419 234.881 158.196 Z" fill="#000000" fill-rule="nonzero" fill-opacity="1" /><path clip-path="url(#clip440)" d="M251.333 135.148 Q251.333 123.994 254.149 117.917 Q258.077 108.876 267.341 108.876 Q269.305 108.876 271.343 109.431 Q273.418 109.95 276.012 111.988 Q278.643 114.026 280.236 117.361 Q283.274 123.809 283.274 135.148 Q283.274 146.227 280.458 152.267 Q276.345 161.086 267.267 161.086 Q263.858 161.086 260.374 159.345 Q256.928 157.603 254.742 153.416 Q251.333 147.153 251.333 135.148 M257.632 134.221 Q257.632 145.671 258.448 150.229 Q259.374 155.157 261.894 157.307 Q264.451 159.419 267.267 159.419 Q270.305 159.419 272.825 157.158 Q275.382 154.861 276.16 149.933 Q277.012 145.078 276.975 134.221 Q276.975 123.661 276.234 119.436 Q275.234 114.508 272.566 112.544 Q269.935 110.543 267.267 110.543 Q266.266 110.543 265.192 110.84 Q264.154 111.136 262.635 111.988 Q261.116 112.84 259.93 114.953 Q258.781 117.065 258.225 120.252 Q257.632 124.365 257.632 134.221 Z" fill="#000000" fill-rule="nonzero" fill-opacity="1" /><path clip-path="url(#clip440)" d="M289.277 135.148 Q289.277 123.994 292.094 117.917 Q296.021 108.876 305.285 108.876 Q307.249 108.876 309.287 109.431 Q311.362 109.95 313.956 111.988 Q316.587 114.026 318.18 117.361 Q321.219 123.809 321.219 135.148 Q321.219 146.227 318.403 152.267 Q314.29 161.086 305.211 161.086 Q301.802 161.086 298.319 159.345 Q294.873 157.603 292.686 153.416 Q289.277 147.153 289.277 135.148 M295.577 134.221 Q295.577 145.671 296.392 150.229 Q297.318 155.157 299.838 157.307 Q302.395 159.419 305.211 159.419 Q308.25 159.419 310.769 157.158 Q313.326 154.861 314.104 149.933 Q314.957 145.078 314.92 134.221 Q314.92 123.661 314.178 119.436 Q313.178 114.508 310.51 112.544 Q307.879 110.543 305.211 110.543 Q304.211 110.543 303.136 110.84 Q302.098 111.136 300.579 111.988 Q299.06 112.84 297.874 114.953 Q296.725 117.065 296.17 120.252 Q295.577 124.365 295.577 134.221 Z" fill="#000000" fill-rule="nonzero" fill-opacity="1" /><path clip-path="url(#clip440)" d="M109.527 763.399 Q103.079 763.399 99.67 755.802 Q97.4838 751.245 96.9279 741.833 L94.1488 741.833 Q89.4428 741.833 86.9601 744.315 Q84.4404 746.761 84.4404 749.873 Q84.4404 755.432 87.9236 758.1 Q87.9977 755.839 89.1464 755.024 Q90.258 754.209 91.4067 754.209 Q92.926 754.209 93.9265 755.172 Q94.8899 756.099 94.8899 757.692 Q94.8899 759.211 93.9635 760.212 Q93.0001 761.212 91.3326 761.212 Q87.6271 761.212 85.1815 757.877 Q82.7359 754.505 82.7359 749.725 Q82.7359 743.5 86.9231 739.35 Q88.22 738.053 89.8875 737.423 Q91.555 736.756 92.6666 736.682 Q93.7412 736.608 95.8904 736.608 L111.046 736.608 Q111.491 736.608 112.232 736.46 Q112.973 736.311 113.936 735.644 Q114.863 734.94 114.863 733.792 Q114.863 731.05 110.008 731.087 L105.747 731.087 L105.747 729.16 L110.008 729.16 Q114.047 729.16 115.641 731.309 Q117.197 733.421 117.197 735.385 Q117.197 737.905 115.344 739.498 Q113.492 741.091 110.972 741.314 Q113.862 742.462 115.752 745.093 Q117.605 747.687 117.605 751.245 Q117.605 753.987 116.901 756.58 Q116.234 759.137 114.344 761.286 Q112.417 763.399 109.527 763.399 M109.453 757.544 Q112.269 757.544 114.084 755.543 Q115.9 753.542 115.9 750.726 Q115.9 747.539 113.454 744.686 Q110.972 741.833 106.118 741.833 L98.5213 741.833 Q98.8177 750.244 102.19 753.912 Q105.525 757.544 109.453 757.544 Z" fill="#000000" fill-rule="nonzero" fill-opacity="1" /><path clip-path="url(#clip440)" d="M116.752 726.195 L114.418 726.195 Q114.418 722.156 113.936 721.23 Q113.417 720.304 110.972 720.304 L90.6286 720.304 Q87.8124 720.304 87.1083 721.304 Q86.4043 722.267 86.4043 726.195 L84.0328 726.195 L83.2176 715.523 L91.1844 715.523 Q83.2176 711.966 83.2176 704.296 Q83.2176 698.589 86.0338 696.329 Q87.9236 694.661 90.0357 694.328 Q92.1478 693.957 97.632 693.957 L112.12 693.957 Q113.714 693.883 114.084 692.66 Q114.418 691.438 114.418 688.029 L116.752 688.029 Q116.53 695.773 116.53 696.551 Q116.53 697.144 116.752 705.111 L114.418 705.111 Q114.418 701.072 113.936 700.146 Q113.417 699.182 110.972 699.182 L93.2965 699.182 Q89.4428 699.182 87.1825 700.368 Q84.885 701.554 84.885 704.815 Q84.885 708.742 88.1829 711.892 Q91.4808 715.042 97.0391 715.042 L110.972 715.042 Q113.417 715.042 113.936 714.115 Q114.418 713.152 114.418 709.15 L116.752 709.15 Q116.53 716.894 116.53 717.636 Q116.53 718.228 116.752 726.195 Z" fill="#000000" fill-rule="nonzero" fill-opacity="1" /><path clip-path="url(#clip440)" d="M112.676 679.432 Q107.711 684.434 100.522 684.434 Q93.2965 684.434 88.0347 679.543 Q82.7359 674.615 82.7359 667.574 Q82.7359 660.682 87.9977 655.754 Q93.2224 650.788 100.522 650.788 Q107.674 650.788 112.639 655.791 Q117.605 660.756 117.605 667.648 Q117.605 674.392 112.676 679.432 M99.8923 678.135 Q107.266 678.135 110.601 676.208 Q115.678 673.244 115.678 667.574 Q115.678 664.758 114.159 662.424 Q112.639 660.052 110.082 658.755 Q106.748 657.088 99.8923 657.088 Q92.5925 657.088 89.3687 659.089 Q84.4404 662.053 84.4404 667.648 Q84.4404 670.094 85.7373 672.503 Q86.9972 674.874 89.5169 676.319 Q92.8519 678.135 99.8923 678.135 Z" fill="#000000" fill-rule="nonzero" fill-opacity="1" /><path clip-path="url(#clip440)" d="M116.752 646.156 L114.418 646.156 Q114.418 642.117 113.936 641.191 Q113.417 640.265 110.972 640.265 L90.6286 640.265 Q87.8124 640.265 87.1083 641.265 Q86.4043 642.229 86.4043 646.156 L84.0328 646.156 L83.2176 635.485 L91.1844 635.485 Q83.2176 631.927 83.2176 624.257 Q83.2176 615.364 90.6286 614.141 Q87.7383 612.844 85.4779 610.139 Q83.2176 607.397 83.2176 603.136 Q83.2176 597.429 86.0338 595.169 Q87.9236 593.501 90.0357 593.168 Q92.1478 592.834 97.632 592.834 L112.12 592.834 Q113.714 592.76 114.084 591.537 Q114.418 590.314 114.418 586.905 L116.752 586.905 Q116.53 594.65 116.53 595.391 Q116.53 595.984 116.752 603.988 L114.418 603.988 Q114.418 599.949 113.936 599.022 Q113.417 598.059 110.972 598.059 L93.2965 598.059 Q89.4428 598.059 87.1825 599.245 Q84.885 600.43 84.885 603.691 Q84.885 607.619 88.1829 610.769 Q91.4808 613.919 97.0391 613.919 L110.972 613.919 Q113.417 613.919 113.936 612.992 Q114.418 612.029 114.418 607.99 L116.752 607.99 Q116.53 615.734 116.53 616.512 Q116.53 617.105 116.752 625.072 L114.418 625.072 Q114.418 621.033 113.936 620.107 Q113.417 619.143 110.972 619.143 L93.2965 619.143 Q89.4428 619.143 87.1825 620.329 Q84.885 621.515 84.885 624.776 Q84.885 628.703 88.1829 631.853 Q91.4808 635.003 97.0391 635.003 L110.972 635.003 Q113.417 635.003 113.936 634.076 Q114.418 633.113 114.418 629.111 L116.752 629.111 Q116.53 636.856 116.53 637.597 Q116.53 638.19 116.752 646.156 Z" fill="#000000" fill-rule="nonzero" fill-opacity="1" /><path clip-path="url(#clip440)" d="M109.527 582.236 Q103.079 582.236 99.67 574.64 Q97.4838 570.082 96.9279 560.67 L94.1488 560.67 Q89.4428 560.67 86.9601 563.153 Q84.4404 565.599 84.4404 568.711 Q84.4404 574.27 87.9236 576.938 Q87.9977 574.677 89.1464 573.862 Q90.258 573.047 91.4067 573.047 Q92.926 573.047 93.9265 574.01 Q94.8899 574.937 94.8899 576.53 Q94.8899 578.049 93.9635 579.05 Q93.0001 580.05 91.3326 580.05 Q87.6271 580.05 85.1815 576.715 Q82.7359 573.343 82.7359 568.563 Q82.7359 562.338 86.9231 558.188 Q88.22 556.891 89.8875 556.261 Q91.555 555.594 92.6666 555.52 Q93.7412 555.446 95.8904 555.446 L111.046 555.446 Q111.491 555.446 112.232 555.297 Q112.973 555.149 113.936 554.482 Q114.863 553.778 114.863 552.629 Q114.863 549.887 110.008 549.924 L105.747 549.924 L105.747 547.998 L110.008 547.998 Q114.047 547.998 115.641 550.147 Q117.197 552.259 117.197 554.223 Q117.197 556.743 115.344 558.336 Q113.492 559.929 110.972 560.152 Q113.862 561.3 115.752 563.931 Q117.605 566.525 117.605 570.082 Q117.605 572.824 116.901 575.418 Q116.234 577.975 114.344 580.124 Q112.417 582.236 109.527 582.236 M109.453 576.382 Q112.269 576.382 114.084 574.381 Q115.9 572.38 115.9 569.564 Q115.9 566.377 113.454 563.524 Q110.972 560.67 106.118 560.67 L98.5213 560.67 Q98.8177 569.082 102.19 572.75 Q105.525 576.382 109.453 576.382 Z" fill="#000000" fill-rule="nonzero" fill-opacity="1" /><path clip-path="url(#clip440)" d="M116.752 544.959 L114.418 544.959 Q114.418 540.92 113.936 539.994 Q113.417 539.067 110.972 539.067 L71.5082 539.067 Q68.692 539.067 67.9879 540.068 Q67.2839 541.031 67.2839 544.959 L64.9124 544.959 L64.0972 534.065 L110.972 534.065 Q113.417 534.065 113.936 533.101 Q114.418 532.138 114.418 528.136 L116.752 528.136 Q116.752 529.062 116.678 530.989 Q116.604 532.916 116.567 534.324 Q116.53 535.732 116.53 536.548 Q116.53 537.437 116.752 544.959 Z" fill="#000000" fill-rule="nonzero" fill-opacity="1" /><path clip-path="url(#clip440)" d="M126.164 525.023 Q124.571 525.023 123.719 524.097 Q122.904 523.134 122.904 521.837 Q122.904 520.466 123.756 519.576 Q124.645 518.65 126.09 518.65 Q128.906 518.65 129.277 521.614 Q130.648 520.169 130.648 518.057 Q130.648 515.797 128.981 513.981 Q127.313 512.128 125.72 511.35 Q124.126 510.535 121.236 509.386 Q118.976 508.312 116.752 507.496 L89.0352 518.872 Q87.2195 519.613 86.8119 520.762 Q86.4043 521.911 86.4043 525.023 L84.0328 525.023 Q84.2551 521.614 84.2551 517.65 Q84.2551 515.315 84.0328 509.386 L86.4043 509.386 Q86.4043 513.648 88.3682 513.648 Q88.5905 513.648 89.7393 513.203 L110.157 504.754 L91.4808 497.084 Q90.4062 496.639 89.6651 496.639 Q86.5525 496.639 86.4043 500.197 L84.0328 500.197 Q84.2551 495.194 84.2551 493.601 Q84.2551 490.488 84.0328 487.931 L86.4043 487.931 Q86.4043 493.008 91.2585 494.972 L123.645 508.349 Q132.278 511.98 132.315 518.057 Q132.315 520.947 130.537 522.985 Q128.758 525.023 126.164 525.023 Z" fill="#000000" fill-rule="nonzero" fill-opacity="1" /><path clip-path="url(#clip440)" d="M115.752 458.732 L105.747 458.732 Q104.895 458.732 104.598 458.695 Q104.302 458.658 104.08 458.436 Q103.857 458.213 103.857 457.769 Q103.857 457.25 104.08 457.065 Q104.302 456.842 105.154 456.694 Q110.379 455.545 113.158 453.1 Q115.9 450.617 115.9 446.133 Q115.9 441.872 114.01 439.723 Q112.12 437.574 109.008 437.574 Q103.45 437.574 102.042 445.466 Q101.115 450.024 100.522 451.914 Q99.8923 453.804 98.5213 455.471 Q95.8533 458.732 92.0737 458.732 Q88.2941 458.732 85.515 455.879 Q82.7359 452.988 82.7359 446.615 Q82.7359 442.354 84.885 439.463 Q84.2181 438.611 83.6622 438.166 Q82.7359 437.166 82.7359 436.647 Q82.7359 436.054 83.1435 435.943 Q83.514 435.832 84.5886 435.832 L92.2219 435.832 Q93.0742 435.832 93.3706 435.869 Q93.6671 435.906 93.8894 436.128 Q94.0747 436.351 94.0747 436.832 Q94.0747 437.685 93.3706 437.722 Q84.181 438.315 84.181 446.615 Q84.181 451.099 85.9226 453.1 Q87.6271 455.101 89.9616 455.101 Q91.2585 455.101 92.259 454.508 Q93.2224 453.878 93.8153 453.1 Q94.3711 452.284 94.927 450.802 Q95.4457 449.32 95.631 448.431 Q95.8163 447.504 96.1868 445.763 Q97.3355 439.686 99.8182 437.129 Q103.005 433.942 107.044 433.942 Q111.528 433.942 114.566 436.981 Q117.605 440.019 117.605 446.133 Q117.605 451.062 114.307 454.508 Q114.751 454.952 115.159 455.286 Q115.53 455.619 115.678 455.768 Q115.826 455.879 115.937 455.916 Q116.011 455.953 116.085 456.027 Q117.605 457.546 117.605 457.917 Q117.605 458.51 117.197 458.621 Q116.826 458.732 115.752 458.732 Z" fill="#000000" fill-rule="nonzero" fill-opacity="1" /><path clip-path="url(#clip440)" d="M112.602 423.974 Q107.563 428.792 100.374 428.792 Q93.1483 428.792 87.9606 424.049 Q82.7359 419.305 82.7359 412.339 Q82.7359 407.707 84.9592 404.224 Q87.1454 400.741 90.888 400.741 Q92.5554 400.741 93.5189 401.741 Q94.4452 402.705 94.4452 404.224 Q94.4452 405.817 93.4818 406.781 Q92.4813 407.707 90.9621 407.707 Q90.2951 407.707 89.6281 407.485 Q88.9611 407.263 88.2571 406.447 Q87.553 405.595 87.4418 404.15 Q84.6627 406.855 84.6627 412.117 Q84.6627 412.191 84.6627 412.265 Q84.6627 416.119 88.2941 419.305 Q91.9255 422.492 100.226 422.492 Q104.561 422.492 107.748 421.455 Q110.898 420.38 112.528 418.638 Q114.159 416.897 114.937 415.192 Q115.678 413.488 115.678 411.82 Q115.678 404.372 107.711 401.853 Q106.97 401.63 106.97 400.889 Q106.97 399.889 107.711 399.889 Q108.081 399.889 109.045 400.185 Q110.008 400.481 111.528 401.408 Q113.047 402.334 114.381 403.668 Q115.678 404.965 116.641 407.3 Q117.605 409.597 117.605 412.487 Q117.605 419.157 112.602 423.974 Z" fill="#000000" fill-rule="nonzero" fill-opacity="1" /><path clip-path="url(#clip440)" d="M112.676 390.588 Q107.711 395.59 100.522 395.59 Q93.2965 395.59 88.0347 390.699 Q82.7359 385.771 82.7359 378.73 Q82.7359 371.838 87.9977 366.91 Q93.2224 361.944 100.522 361.944 Q107.674 361.944 112.639 366.947 Q117.605 371.912 117.605 378.804 Q117.605 385.548 112.676 390.588 M99.8923 389.291 Q107.266 389.291 110.601 387.364 Q115.678 384.4 115.678 378.73 Q115.678 375.914 114.159 373.58 Q112.639 371.208 110.082 369.911 Q106.748 368.244 99.8923 368.244 Q92.5925 368.244 89.3687 370.245 Q84.4404 373.209 84.4404 378.804 Q84.4404 381.25 85.7373 383.659 Q86.9972 386.03 89.5169 387.475 Q92.8519 389.291 99.8923 389.291 Z" fill="#000000" fill-rule="nonzero" fill-opacity="1" /><path clip-path="url(#clip440)" d="M116.752 357.646 L114.418 357.646 Q114.418 353.607 113.936 352.68 Q113.417 351.717 110.972 351.717 L90.6286 351.717 Q87.8124 351.717 87.1083 352.718 Q86.4043 353.681 86.4043 357.646 L84.0328 357.646 L83.2176 347.085 L91.555 347.085 Q88.2941 346.011 85.7744 343.75 Q83.2176 341.453 83.2176 337.747 Q83.2176 335.302 84.5886 333.745 Q85.9596 332.152 87.8494 332.152 Q89.5169 332.152 90.3692 333.19 Q91.1844 334.19 91.1844 335.413 Q91.1844 336.784 90.3321 337.747 Q89.4428 338.674 87.9236 338.674 Q86.9972 338.674 86.2931 338.266 Q85.552 337.821 85.2926 337.488 Q85.0333 337.154 84.9592 336.932 Q84.885 337.08 84.885 337.747 Q84.885 341.935 89.0723 344.343 Q93.2224 346.715 99.1512 346.715 L110.824 346.715 Q113.01 346.715 113.714 345.825 Q114.418 344.899 114.418 340.934 L114.418 339.341 L116.752 339.341 Q116.53 342.379 116.53 348.975 Q116.53 349.901 116.567 351.347 Q116.604 352.792 116.678 354.681 Q116.752 356.571 116.752 357.646 Z" fill="#000000" fill-rule="nonzero" fill-opacity="1" /><path clip-path="url(#clip440)" d="M100.041 328.002 Q92.8889 328.002 87.8124 323.407 Q82.7359 318.812 82.7359 312.216 Q82.7359 305.546 87.0713 302.1 Q91.4067 298.617 97.632 298.617 Q98.7807 298.617 99.003 298.914 Q99.2253 299.21 99.2253 300.507 L99.2253 321.702 Q106.97 321.702 110.601 319.405 Q115.678 316.218 115.678 310.845 Q115.678 310.104 115.53 309.215 Q115.381 308.326 114.751 306.51 Q114.084 304.694 112.343 303.101 Q110.601 301.507 107.859 300.581 Q106.785 300.359 106.822 299.618 Q106.822 298.617 107.711 298.617 Q108.378 298.617 109.897 299.358 Q111.379 300.062 113.158 301.433 Q114.937 302.804 116.271 305.472 Q117.605 308.103 117.605 311.29 Q117.605 317.96 112.565 322.999 Q107.489 328.002 100.041 328.002 M97.632 321.628 L97.632 303.62 Q96.0386 303.62 94.26 303.916 Q92.4813 304.175 90.0357 304.991 Q87.553 305.769 85.9967 307.622 Q84.4404 309.474 84.4404 312.216 Q84.4404 313.439 84.9592 314.773 Q85.4779 316.07 86.7378 317.663 Q87.9977 319.257 90.8509 320.369 Q93.7041 321.48 97.632 321.628 Z" fill="#000000" fill-rule="nonzero" fill-opacity="1" /><path clip-path="url(#clip440)" d="M1753.82 80.352 L1753.82 78.0175 Q1756.57 78.0175 1758.31 77.4988 Q1760.05 76.9429 1760.68 75.9425 Q1761.35 74.9049 1761.5 74.2379 Q1761.64 73.5339 1761.64 72.3852 L1761.64 34.4408 Q1761.64 32.2546 1760.68 31.5876 Q1759.75 30.8835 1755.64 30.8835 L1753.82 30.8835 L1753.82 28.512 L1766.65 28.512 Q1768.02 28.512 1768.39 28.7714 Q1768.76 28.9937 1769.31 30.1795 L1785.77 72.6816 L1802.37 29.9571 Q1802.74 28.8826 1803.07 28.6973 Q1803.44 28.512 1804.89 28.512 L1817.71 28.512 L1817.71 30.8835 L1815.89 30.8835 Q1811.78 30.8835 1810.82 31.5876 Q1809.89 32.2546 1809.89 34.4408 L1809.89 74.4232 Q1809.89 76.6094 1810.82 77.3135 Q1811.78 78.0175 1815.89 78.0175 L1817.71 78.0175 L1817.71 80.352 Q1814.89 80.1297 1806.85 80.1297 Q1798.74 80.1297 1795.92 80.352 L1795.92 78.0175 L1797.77 78.0175 Q1801.89 78.0175 1802.81 77.3505 Q1803.74 76.6465 1803.74 74.4232 L1803.74 30.8835 L1803.66 30.8835 L1785.03 78.9069 Q1784.51 80.352 1783.65 80.352 Q1782.73 80.352 1782.14 78.6845 L1763.83 31.4764 L1763.76 31.4764 L1763.76 72.3852 Q1763.76 73.5339 1763.9 74.2379 Q1764.05 74.9049 1764.68 75.9425 Q1765.35 76.9429 1767.09 77.4988 Q1768.83 78.0175 1771.57 78.0175 L1771.57 80.352 Q1763.61 80.1297 1762.68 80.1297 Q1761.79 80.1297 1753.82 80.352 Z" fill="#000000" fill-rule="nonzero" fill-opacity="1" /><path clip-path="url(#clip440)" d="M1823.15 80.352 L1823.15 78.0175 L1824.97 78.0175 Q1829.08 78.0175 1830.01 77.3505 Q1830.97 76.6465 1830.97 74.4232 L1830.97 34.4408 Q1830.97 32.2546 1830.01 31.5876 Q1829.05 30.8835 1824.97 30.8835 L1823.15 30.8835 L1823.15 28.512 L1849.95 28.512 Q1857.62 28.512 1862.73 32.7363 Q1867.84 36.9605 1867.84 42.63 Q1867.84 48.2623 1862.62 52.3384 Q1857.43 56.3774 1850.54 56.3774 L1837.72 56.3774 L1837.72 74.4232 Q1837.72 76.6094 1838.64 77.3135 Q1839.61 78.0175 1843.72 78.0175 L1845.54 78.0175 L1845.54 80.352 Q1842.87 80.1297 1834.31 80.1297 Q1825.82 80.1297 1823.15 80.352 M1837.5 54.4135 L1847.94 54.4135 Q1851.35 54.4135 1853.84 53.45 Q1856.32 52.4866 1857.43 51.3379 Q1858.58 50.1521 1859.21 48.2623 Q1859.88 46.3355 1859.95 45.2979 Q1860.02 44.2233 1860.02 42.63 Q1860.02 40.9625 1859.95 39.925 Q1859.88 38.8504 1859.21 36.9605 Q1858.58 35.0337 1857.43 33.885 Q1856.32 32.6992 1853.84 31.8099 Q1851.39 30.8835 1847.94 30.8835 L1841.2 30.8835 Q1838.61 30.8835 1838.05 31.4023 Q1837.5 31.9211 1837.5 33.922 L1837.5 54.4135 Z" fill="#000000" fill-rule="nonzero" fill-opacity="1" /><path clip-path="url(#clip440)" d="M1876.33 80.2038 L1876.33 65.0112 Q1876.33 64.1589 1876.37 63.8625 Q1876.4 63.5661 1876.63 63.3437 Q1876.85 63.1214 1877.29 63.1214 Q1878.14 63.1214 1878.22 63.8996 Q1878.44 71.4217 1882.92 75.5719 Q1887.33 79.685 1894.89 79.685 Q1899.45 79.685 1902.27 76.4242 Q1905.08 73.1263 1905.08 68.8279 Q1905.08 64.7148 1902.71 61.8245 Q1901.71 60.5276 1900.45 59.7123 Q1899.23 58.8601 1898.45 58.6007 Q1897.71 58.3413 1896.26 57.9708 Q1886.85 55.7104 1886.26 55.451 Q1881.78 53.9318 1879.03 50.1151 Q1876.33 46.2614 1876.33 41.5554 Q1876.33 35.4783 1880.59 31.18 Q1884.89 26.8445 1891.11 26.8445 Q1894.23 26.8445 1896.82 27.845 Q1899.45 28.8084 1900.53 29.6978 Q1901.6 30.5871 1903.27 32.1804 L1905.9 27.845 Q1906.49 26.8445 1907.05 26.8445 Q1907.64 26.8445 1907.75 27.2151 Q1907.9 27.5486 1907.9 28.6602 L1907.9 43.9269 Q1907.9 44.7792 1907.86 45.0756 Q1907.83 45.372 1907.57 45.5573 Q1907.34 45.7426 1906.9 45.7426 Q1906.16 45.7426 1905.97 44.8533 Q1903.86 28.9937 1891.19 28.9937 Q1886.85 28.9937 1884 31.9211 Q1881.18 34.8114 1881.18 38.9245 Q1881.18 42.2594 1883.26 45.0015 Q1885.33 47.7065 1888.85 48.5588 L1898.56 50.8932 Q1903.42 52.0419 1906.68 56.3403 Q1909.94 60.6387 1909.94 66.234 Q1909.94 72.6816 1905.71 77.3505 Q1901.53 82.0195 1894.97 82.0195 Q1890.26 82.0195 1886.63 80.4632 Q1883 78.9069 1881.03 76.7206 Q1879.52 79.2403 1878.52 80.6484 L1878.29 81.019 Q1877.7 82.0195 1877.14 82.0195 Q1876.55 82.0195 1876.44 81.6489 Q1876.33 81.2784 1876.33 80.2038 Z" fill="#000000" fill-rule="nonzero" fill-opacity="1" /><path clip-path="url(#clip440)" d="M1921.76 79.1292 Q1920.68 77.9064 1920.68 76.313 Q1920.68 74.7196 1921.72 73.5339 Q1922.8 72.3111 1924.72 72.3111 Q1926.98 72.3111 1928.28 74.4973 Q1929.58 76.6465 1929.58 80.2779 Q1929.58 84.2057 1927.98 87.8371 Q1926.39 91.5056 1924.83 93.2472 Q1923.28 94.9887 1922.65 94.9887 Q1921.91 94.9887 1921.91 94.1735 Q1921.91 93.8771 1922.43 93.3213 Q1927.87 87.4666 1927.91 80.2779 Q1927.91 79.1292 1927.76 79.1292 L1927.58 79.2774 Q1926.28 80.352 1924.72 80.352 Q1922.83 80.352 1921.76 79.1292 Z" fill="#000000" fill-rule="nonzero" fill-opacity="1" /><path clip-path="url(#clip440)" d="M1963.59 49.7075 Q1963.59 48.6329 1964.37 47.7436 Q1965.19 46.8172 1966.85 46.8172 Q1968.23 46.8172 1969.63 47.6695 Q1971.04 48.4847 1972.08 49.5963 Q1973.15 50.6709 1974.34 52.746 Q1975.53 54.784 1976.27 56.3403 Q1977.04 57.8966 1978.04 60.6017 Q1979.08 63.2696 1979.53 64.6407 Q1979.97 66.0117 1980.9 68.6056 L1992.2 48.707 Q1992.87 47.4101 1993.27 47.1507 Q1993.72 46.8913 1994.65 46.8913 L1997.42 46.8913 Q1999.09 46.8913 1999.09 47.7065 Q1999.09 48.0771 1998.2 49.7816 L1983.86 75.0531 Q1983.42 75.7942 1983.42 76.4242 Q1983.42 76.7206 1983.86 77.9064 Q1986.75 86.3179 1989.24 90.431 Q1991.76 94.5441 1994.94 94.5441 Q1995.16 94.5441 1995.65 94.507 Q1996.16 94.47 1996.39 94.47 Q1997.91 94.47 1998.57 95.3963 Q1999.28 96.3598 1999.28 97.2862 Q1999.28 98.3607 1998.43 99.2501 Q1997.61 100.176 1995.91 100.176 Q1994.68 100.176 1993.5 99.6577 Q1992.35 99.176 1991.24 97.9161 Q1990.16 96.6562 1989.27 95.5816 Q1988.42 94.5441 1987.42 92.3578 Q1986.42 90.2086 1985.86 89.0599 Q1985.31 87.9483 1984.34 85.3174 Q1983.42 82.6865 1983.12 81.8342 Q1982.86 81.019 1981.97 78.3881 L1970.63 98.3237 Q1969.97 99.6206 1969.56 99.88 Q1969.15 100.176 1968.15 100.176 L1965.34 100.176 Q1963.67 100.176 1963.67 99.3242 Q1963.67 99.0277 1964.67 97.212 L1979.01 71.9405 Q1979.38 71.2735 1979.38 70.6436 Q1979.16 69.9025 1978.79 68.6797 Q1978.45 67.4568 1977.27 64.3442 Q1976.12 61.2316 1974.86 58.8601 Q1973.6 56.4515 1971.67 54.4876 Q1969.74 52.4866 1967.85 52.4866 L1966.48 52.4866 Q1965.04 52.4866 1964.3 51.6714 Q1963.59 50.8562 1963.59 49.7075 Z" fill="#000000" fill-rule="nonzero" fill-opacity="1" /><path clip-path="url(#clip440)" d="M2032.07 68.8279 Q2032.15 67.9015 2033.59 67.9015 L2080.09 67.9015 Q2082.28 67.9015 2082.32 68.7538 Q2082.32 69.6801 2080.24 69.6431 L2034.11 69.6431 Q2032.07 69.6801 2032.07 68.8279 M2032.07 54.0059 Q2032.07 53.0795 2033.66 53.1165 L2080.02 53.1165 Q2082.28 53.1165 2082.32 54.0059 Q2082.32 54.8581 2080.39 54.8581 L2033.59 54.8581 Q2032.07 54.8581 2032.07 54.0059 Z" fill="#000000" fill-rule="nonzero" fill-opacity="1" /><path clip-path="url(#clip440)" d="M2115.78 80.352 Q2115.78 78.981 2115.89 78.5734 Q2116.04 78.1658 2116.63 77.5358 L2131.19 61.3057 Q2139.16 52.3384 2139.16 44.5198 Q2139.16 39.4432 2136.49 35.8118 Q2133.86 32.1804 2129.01 32.1804 Q2125.67 32.1804 2122.86 34.2185 Q2120.04 36.2565 2118.74 39.8879 Q2118.97 39.8138 2119.74 39.8138 Q2121.63 39.8138 2122.67 40.9995 Q2123.75 42.1853 2123.75 43.7787 Q2123.75 45.8167 2122.41 46.8172 Q2121.11 47.7806 2119.82 47.7806 Q2119.3 47.7806 2118.59 47.6695 Q2117.93 47.5583 2116.85 46.5207 Q2115.78 45.4462 2115.78 43.5563 Q2115.78 38.2575 2119.78 34.0332 Q2123.82 29.8089 2129.97 29.8089 Q2136.94 29.8089 2141.49 33.9591 Q2146.09 38.0722 2146.09 44.5198 Q2146.09 46.7801 2145.39 48.8552 Q2144.72 50.8932 2143.79 52.4866 Q2142.9 54.08 2140.46 56.6368 Q2138.01 59.1936 2136.05 61.0093 Q2134.08 62.825 2129.67 66.6787 L2121.63 74.4973 L2135.31 74.4973 Q2141.98 74.4973 2142.5 73.9044 Q2143.24 72.8298 2144.16 67.1604 L2146.09 67.1604 L2143.94 80.352 L2115.78 80.352 Z" fill="#000000" fill-rule="nonzero" fill-opacity="1" /><path clip-path="url(#clip440)" d="M2152.91 56.0809 Q2152.91 44.9274 2155.72 38.8504 Q2159.65 29.8089 2168.92 29.8089 Q2170.88 29.8089 2172.92 30.3648 Q2174.99 30.8835 2177.59 32.9215 Q2180.22 34.9596 2181.81 38.2945 Q2184.85 44.7421 2184.85 56.0809 Q2184.85 67.1604 2182.03 73.2004 Q2177.92 82.0195 2168.84 82.0195 Q2165.43 82.0195 2161.95 80.2779 Q2158.5 78.5363 2156.32 74.3491 Q2152.91 68.0868 2152.91 56.0809 M2159.21 55.1546 Q2159.21 66.6046 2160.02 71.1624 Q2160.95 76.0907 2163.47 78.2399 Q2166.03 80.352 2168.84 80.352 Q2171.88 80.352 2174.4 78.0916 Q2176.96 75.7942 2177.73 70.8659 Q2178.59 66.0117 2178.55 55.1546 Q2178.55 44.5939 2177.81 40.3696 Q2176.81 35.4413 2174.14 33.4774 Q2171.51 31.4764 2168.84 31.4764 Q2167.84 31.4764 2166.77 31.7728 Q2165.73 32.0693 2164.21 32.9215 Q2162.69 33.7738 2161.5 35.886 Q2160.36 37.9981 2159.8 41.1848 Q2159.21 45.2979 2159.21 55.1546 Z" fill="#000000" fill-rule="nonzero" fill-opacity="1" /><path clip-path="url(#clip440)" d="M2195.48 79.1292 Q2194.41 77.9064 2194.41 76.313 Q2194.41 74.7196 2195.45 73.5339 Q2196.52 72.3111 2198.45 72.3111 Q2200.71 72.3111 2202.01 74.4973 Q2203.3 76.6465 2203.3 80.2779 Q2203.3 84.2057 2201.71 87.8371 Q2200.12 91.5056 2198.56 93.2472 Q2197 94.9887 2196.37 94.9887 Q2195.63 94.9887 2195.63 94.1735 Q2195.63 93.8771 2196.15 93.3213 Q2201.6 87.4666 2201.64 80.2779 Q2201.64 79.1292 2201.49 79.1292 L2201.3 79.2774 Q2200 80.352 2198.45 80.352 Q2196.56 80.352 2195.48 79.1292 Z" fill="#000000" fill-rule="nonzero" fill-opacity="1" /><path clip-path="url(#clip440)" d="M2236.73 64.0478 Q2236.73 56.8221 2241.77 51.8196 Q2246.81 46.8172 2253.62 46.8172 Q2259.4 46.8172 2263.18 51.5232 L2263.18 35.1078 Q2263.18 32.2916 2262.18 31.5876 Q2261.22 30.8835 2257.29 30.8835 L2257.29 28.512 L2268.22 27.6968 L2268.22 73.7562 Q2268.22 76.5724 2269.19 77.3135 Q2270.19 78.0175 2274.11 78.0175 L2274.11 80.352 L2262.96 81.2043 L2262.96 76.1648 Q2259.03 81.1672 2252.81 81.2043 Q2246.29 81.2043 2241.51 76.2018 Q2236.73 71.1994 2236.73 64.0478 M2243.03 64.1219 Q2243.03 71.1624 2245.21 74.6455 Q2248.25 79.4997 2253.18 79.4997 Q2258.81 79.4997 2262.15 74.2009 Q2263 72.9039 2262.96 71.3847 L2262.96 55.8216 Q2262.96 54.3023 2262.15 53.0424 Q2259.03 48.4847 2253.96 48.4847 Q2248.66 48.4847 2245.36 53.3389 Q2243.03 56.9703 2243.03 64.1219 Z" fill="#000000" fill-rule="nonzero" fill-opacity="1" /><path clip-path="url(#clip440)" d="M2305.8 68.8279 Q2305.87 67.9015 2307.32 67.9015 L2353.82 67.9015 Q2356.01 67.9015 2356.04 68.7538 Q2356.04 69.6801 2353.97 69.6431 L2307.83 69.6431 Q2305.8 69.6801 2305.8 68.8279 M2305.8 54.0059 Q2305.8 53.0795 2307.39 53.1165 L2353.75 53.1165 Q2356.01 53.1165 2356.04 54.0059 Q2356.04 54.8581 2354.12 54.8581 L2307.32 54.8581 Q2305.8 54.8581 2305.8 54.0059 Z" fill="#000000" fill-rule="nonzero" fill-opacity="1" /><path clip-path="url(#clip440)" d="M2388.91 68.902 Q2388.91 60.4164 2399.84 54.9322 Q2395.14 51.7455 2394.28 50.8191 Q2390.95 47.1136 2390.95 42.4817 Q2390.95 37.1829 2394.95 33.5144 Q2398.99 29.8089 2404.7 29.8089 Q2410.14 29.8089 2414.26 32.9586 Q2418.37 36.1083 2418.37 41.1107 Q2418.37 48.1512 2409.18 52.8942 Q2415.26 56.6738 2416.7 58.2672 Q2420.41 62.3803 2420.41 67.6051 Q2420.41 73.6821 2415.74 77.8693 Q2411.07 82.0195 2404.62 82.0195 Q2398.32 82.0195 2393.62 78.351 Q2388.91 74.6826 2388.91 68.902 M2392.69 68.902 Q2392.69 73.608 2396.21 76.7577 Q2399.77 79.9073 2404.7 79.9073 Q2409.48 79.9073 2413.03 77.1653 Q2416.63 74.4232 2416.63 70.3471 Q2416.63 68.7538 2416.07 67.3827 Q2415.55 66.0117 2414.48 64.9371 Q2413.44 63.8255 2412.77 63.3437 Q2412.14 62.825 2410.92 61.9727 L2401.58 56.0809 Q2392.69 61.0093 2392.69 68.902 M2394.28 39.5173 Q2394.28 43.1487 2398.1 45.6685 L2407.51 51.7455 Q2415.04 47.336 2415.04 41.1107 Q2415.04 37.0717 2411.96 34.4038 Q2408.88 31.6987 2404.62 31.6987 Q2400.44 31.6987 2397.36 33.922 Q2394.28 36.1083 2394.28 39.5173 Z" fill="#000000" fill-rule="nonzero" fill-opacity="1" /><path clip-path="url(#clip440)" d="M2431.27 79.1292 Q2430.19 77.9064 2430.19 76.313 Q2430.19 74.7196 2431.23 73.5339 Q2432.3 72.3111 2434.23 72.3111 Q2436.49 72.3111 2437.79 74.4973 Q2439.08 76.6465 2439.08 80.2779 Q2439.08 84.2057 2437.49 87.8371 Q2435.9 91.5056 2434.34 93.2472 Q2432.78 94.9887 2432.15 94.9887 Q2431.41 94.9887 2431.41 94.1735 Q2431.41 93.8771 2431.93 93.3213 Q2437.38 87.4666 2437.42 80.2779 Q2437.42 79.1292 2437.27 79.1292 L2437.08 79.2774 Q2435.79 80.352 2434.23 80.352 Q2432.34 80.352 2431.27 79.1292 Z" fill="#000000" fill-rule="nonzero" fill-opacity="1" /><path clip-path="url(#clip440)" d="M1856.65 127.764 L1856.65 125.392 Q1860.77 125.615 1863.69 125.615 Q1865.14 125.615 1871.99 125.392 L1871.99 127.764 Q1867.51 127.764 1867.51 129.802 Q1867.51 130.247 1867.88 131.173 L1875.11 151.442 L1881.63 133.063 Q1880.26 129.357 1879.89 128.913 Q1878.96 127.764 1875.11 127.764 L1875.11 125.392 Q1878.52 125.615 1881.85 125.615 Q1883.15 125.615 1889.74 125.392 L1889.74 127.764 Q1885.26 127.764 1885.26 129.802 Q1885.26 130.098 1885.63 131.247 L1893.15 152.406 L1900.04 132.989 Q1900.41 131.988 1900.45 131.395 Q1900.45 129.728 1899.27 128.801 Q1898.08 127.838 1896.04 127.764 L1896.04 125.392 Q1900.38 125.615 1903.08 125.615 Q1906.12 125.615 1908.64 125.392 L1908.64 127.764 Q1903.93 127.912 1902.27 132.618 L1893.37 157.519 Q1892.52 158.89 1891.85 158.964 Q1890.85 158.964 1890.34 157.519 L1882.59 135.953 L1874.92 157.445 Q1874.62 158.371 1874.36 158.668 Q1874.11 158.964 1873.4 158.964 Q1872.73 158.964 1872.44 158.557 Q1872.14 158.186 1871.81 157.26 L1862.25 130.395 Q1861.58 128.653 1860.58 128.209 Q1859.62 127.764 1856.65 127.764 Z" fill="#000000" fill-rule="nonzero" fill-opacity="1" /><path clip-path="url(#clip440)" d="M1912.57 158.112 L1912.57 155.778 Q1916.61 155.778 1917.53 155.296 Q1918.46 154.777 1918.46 152.331 L1918.46 131.914 Q1918.46 129.098 1917.5 128.431 Q1916.57 127.764 1912.87 127.764 L1912.87 125.392 L1923.46 124.577 L1923.46 152.406 Q1923.46 154.666 1924.28 155.222 Q1925.09 155.778 1928.8 155.778 L1928.8 158.112 Q1921.05 157.89 1920.91 157.89 Q1919.87 157.89 1912.57 158.112 M1915.76 111.349 Q1915.76 109.829 1916.9 108.606 Q1918.09 107.347 1919.76 107.347 Q1921.42 107.347 1922.61 108.495 Q1923.8 109.607 1923.8 111.386 Q1923.8 113.127 1922.61 114.276 Q1921.42 115.388 1919.76 115.388 Q1918.02 115.388 1916.87 114.165 Q1915.76 112.942 1915.76 111.349 Z" fill="#000000" fill-rule="nonzero" fill-opacity="1" /><path clip-path="url(#clip440)" d="M1933.5 158.112 L1933.5 155.778 Q1937.54 155.778 1938.47 155.296 Q1939.4 154.777 1939.4 152.331 L1939.4 131.988 Q1939.4 129.172 1938.4 128.468 Q1937.43 127.764 1933.5 127.764 L1933.5 125.392 L1944.18 124.577 L1944.18 132.544 Q1947.73 124.577 1955.4 124.577 Q1961.11 124.577 1963.37 127.393 Q1965.04 129.283 1965.37 131.395 Q1965.74 133.507 1965.74 138.992 L1965.74 153.48 Q1965.82 155.073 1967.04 155.444 Q1968.26 155.778 1971.67 155.778 L1971.67 158.112 Q1963.93 157.89 1963.15 157.89 Q1962.56 157.89 1954.59 158.112 L1954.59 155.778 Q1958.63 155.778 1959.55 155.296 Q1960.52 154.777 1960.52 152.331 L1960.52 134.656 Q1960.52 130.802 1959.33 128.542 Q1958.15 126.245 1954.89 126.245 Q1950.96 126.245 1947.81 129.543 Q1944.66 132.84 1944.66 138.399 L1944.66 152.331 Q1944.66 154.777 1945.58 155.296 Q1946.55 155.778 1950.55 155.778 L1950.55 158.112 Q1942.81 157.89 1942.06 157.89 Q1941.47 157.89 1933.5 158.112 Z" fill="#000000" fill-rule="nonzero" fill-opacity="1" /><path clip-path="url(#clip440)" d="M1975.75 141.808 Q1975.75 134.582 1980.79 129.58 Q1985.83 124.577 1992.64 124.577 Q1998.43 124.577 2002.2 129.283 L2002.2 112.868 Q2002.2 110.052 2001.2 109.348 Q2000.24 108.644 1996.31 108.644 L1996.31 106.272 L2007.24 105.457 L2007.24 151.516 Q2007.24 154.332 2008.21 155.073 Q2009.21 155.778 2013.14 155.778 L2013.14 158.112 L2001.98 158.964 L2001.98 153.925 Q1998.05 158.927 1991.83 158.964 Q1985.31 158.964 1980.53 153.962 Q1975.75 148.959 1975.75 141.808 M1982.05 141.882 Q1982.05 148.922 1984.23 152.406 Q1987.27 157.26 1992.2 157.26 Q1997.83 157.26 2001.17 151.961 Q2002.02 150.664 2001.98 149.145 L2001.98 133.582 Q2001.98 132.062 2001.17 130.802 Q1998.05 126.245 1992.98 126.245 Q1987.68 126.245 1984.38 131.099 Q1982.05 134.73 1982.05 141.882 Z" fill="#000000" fill-rule="nonzero" fill-opacity="1" /><path clip-path="url(#clip440)" d="M2022.36 154.036 Q2017.36 149.071 2017.36 141.882 Q2017.36 134.656 2022.25 129.394 Q2027.18 124.095 2034.22 124.095 Q2041.11 124.095 2046.04 129.357 Q2051.01 134.582 2051.01 141.882 Q2051.01 149.034 2046 153.999 Q2041.04 158.964 2034.15 158.964 Q2027.4 158.964 2022.36 154.036 M2023.66 141.252 Q2023.66 148.626 2025.59 151.961 Q2028.55 157.037 2034.22 157.037 Q2037.04 157.037 2039.37 155.518 Q2041.74 153.999 2043.04 151.442 Q2044.71 148.107 2044.71 141.252 Q2044.71 133.952 2042.71 130.728 Q2039.74 125.8 2034.15 125.8 Q2031.7 125.8 2029.29 127.097 Q2026.92 128.357 2025.48 130.877 Q2023.66 134.211 2023.66 141.252 Z" fill="#000000" fill-rule="nonzero" fill-opacity="1" /><path clip-path="url(#clip440)" d="M2052.45 127.764 L2052.45 125.392 Q2056.56 125.615 2059.49 125.615 Q2060.94 125.615 2067.79 125.392 L2067.79 127.764 Q2063.31 127.764 2063.31 129.802 Q2063.31 130.247 2063.68 131.173 L2070.9 151.442 L2077.43 133.063 Q2076.06 129.357 2075.69 128.913 Q2074.76 127.764 2070.9 127.764 L2070.9 125.392 Q2074.31 125.615 2077.65 125.615 Q2078.95 125.615 2085.54 125.392 L2085.54 127.764 Q2081.06 127.764 2081.06 129.802 Q2081.06 130.098 2081.43 131.247 L2088.95 152.406 L2095.84 132.989 Q2096.21 131.988 2096.25 131.395 Q2096.25 129.728 2095.06 128.801 Q2093.88 127.838 2091.84 127.764 L2091.84 125.392 Q2096.18 125.615 2098.88 125.615 Q2101.92 125.615 2104.44 125.392 L2104.44 127.764 Q2099.73 127.912 2098.07 132.618 L2089.17 157.519 Q2088.32 158.89 2087.65 158.964 Q2086.65 158.964 2086.13 157.519 L2078.39 135.953 L2070.72 157.445 Q2070.42 158.371 2070.16 158.668 Q2069.9 158.964 2069.2 158.964 Q2068.53 158.964 2068.24 158.557 Q2067.94 158.186 2067.61 157.26 L2058.05 130.395 Q2057.38 128.653 2056.38 128.209 Q2055.42 127.764 2052.45 127.764 Z" fill="#000000" fill-rule="nonzero" fill-opacity="1" /><path clip-path="url(#clip440)" d="M2133.6 157.112 L2133.6 147.107 Q2133.6 146.254 2133.64 145.958 Q2133.68 145.662 2133.9 145.439 Q2134.12 145.217 2134.57 145.217 Q2135.08 145.217 2135.27 145.439 Q2135.49 145.662 2135.64 146.514 Q2136.79 151.739 2139.23 154.518 Q2141.72 157.26 2146.2 157.26 Q2150.46 157.26 2152.61 155.37 Q2154.76 153.48 2154.76 150.367 Q2154.76 144.809 2146.87 143.401 Q2142.31 142.475 2140.42 141.882 Q2138.53 141.252 2136.86 139.881 Q2133.6 137.213 2133.6 133.433 Q2133.6 129.654 2136.46 126.875 Q2139.35 124.095 2145.72 124.095 Q2149.98 124.095 2152.87 126.245 Q2153.72 125.578 2154.17 125.022 Q2155.17 124.095 2155.69 124.095 Q2156.28 124.095 2156.39 124.503 Q2156.5 124.874 2156.5 125.948 L2156.5 133.582 Q2156.5 134.434 2156.47 134.73 Q2156.43 135.027 2156.21 135.249 Q2155.98 135.434 2155.5 135.434 Q2154.65 135.434 2154.61 134.73 Q2154.02 125.541 2145.72 125.541 Q2141.24 125.541 2139.23 127.282 Q2137.23 128.987 2137.23 131.321 Q2137.23 132.618 2137.83 133.619 Q2138.46 134.582 2139.23 135.175 Q2140.05 135.731 2141.53 136.287 Q2143.01 136.805 2143.9 136.991 Q2144.83 137.176 2146.57 137.546 Q2152.65 138.695 2155.21 141.178 Q2158.39 144.365 2158.39 148.404 Q2158.39 152.887 2155.35 155.926 Q2152.31 158.964 2146.2 158.964 Q2141.27 158.964 2137.83 155.666 Q2137.38 156.111 2137.05 156.519 Q2136.71 156.889 2136.57 157.037 Q2136.46 157.186 2136.42 157.297 Q2136.38 157.371 2136.31 157.445 Q2134.79 158.964 2134.42 158.964 Q2133.82 158.964 2133.71 158.557 Q2133.6 158.186 2133.6 157.112 Z" fill="#000000" fill-rule="nonzero" fill-opacity="1" /><path clip-path="url(#clip440)" d="M2163.47 158.112 L2163.47 155.778 Q2167.51 155.778 2168.43 155.296 Q2169.36 154.777 2169.36 152.331 L2169.36 131.914 Q2169.36 129.098 2168.4 128.431 Q2167.47 127.764 2163.76 127.764 L2163.76 125.392 L2174.36 124.577 L2174.36 152.406 Q2174.36 154.666 2175.18 155.222 Q2175.99 155.778 2179.7 155.778 L2179.7 158.112 Q2171.95 157.89 2171.81 157.89 Q2170.77 157.89 2163.47 158.112 M2166.66 111.349 Q2166.66 109.829 2167.8 108.606 Q2168.99 107.347 2170.66 107.347 Q2172.32 107.347 2173.51 108.495 Q2174.7 109.607 2174.7 111.386 Q2174.7 113.127 2173.51 114.276 Q2172.32 115.388 2170.66 115.388 Q2168.92 115.388 2167.77 114.165 Q2166.66 112.942 2166.66 111.349 Z" fill="#000000" fill-rule="nonzero" fill-opacity="1" /><path clip-path="url(#clip440)" d="M2184.07 157.037 Q2184.07 156.519 2184.78 155.666 L2205.93 127.06 L2197.3 127.06 Q2191.3 127.06 2189.33 129.283 Q2187.41 131.469 2187.04 137.621 L2185.15 137.621 L2186 125.392 L2210.27 125.392 Q2211.12 125.392 2211.45 125.429 Q2211.79 125.467 2212.01 125.726 Q2212.23 125.948 2212.23 126.393 Q2212.23 126.838 2211.57 127.69 L2190.44 156.222 L2199.41 156.222 Q2205.71 156.222 2207.82 153.591 Q2209.97 150.96 2210.49 143.92 L2212.38 143.92 L2211.08 158.112 L2186.07 158.112 Q2184.85 158.112 2184.44 157.964 Q2184.07 157.779 2184.07 157.037 Z" fill="#000000" fill-rule="nonzero" fill-opacity="1" /><path clip-path="url(#clip440)" d="M2217.75 141.4 Q2217.75 134.249 2222.35 129.172 Q2226.94 124.095 2233.54 124.095 Q2240.21 124.095 2243.66 128.431 Q2247.14 132.766 2247.14 138.992 Q2247.14 140.14 2246.84 140.363 Q2246.55 140.585 2245.25 140.585 L2224.05 140.585 Q2224.05 148.329 2226.35 151.961 Q2229.54 157.037 2234.91 157.037 Q2235.65 157.037 2236.54 156.889 Q2237.43 156.741 2239.25 156.111 Q2241.06 155.444 2242.66 153.702 Q2244.25 151.961 2245.17 149.219 Q2245.4 148.144 2246.14 148.181 Q2247.14 148.181 2247.14 149.071 Q2247.14 149.738 2246.4 151.257 Q2245.69 152.739 2244.32 154.518 Q2242.95 156.296 2240.28 157.63 Q2237.65 158.964 2234.47 158.964 Q2227.8 158.964 2222.76 153.925 Q2217.75 148.848 2217.75 141.4 M2224.13 138.992 L2242.14 138.992 Q2242.14 137.398 2241.84 135.62 Q2241.58 133.841 2240.77 131.395 Q2239.99 128.913 2238.13 127.356 Q2236.28 125.8 2233.54 125.8 Q2232.32 125.8 2230.98 126.319 Q2229.69 126.838 2228.09 128.097 Q2226.5 129.357 2225.39 132.211 Q2224.28 135.064 2224.13 138.992 Z" fill="#000000" fill-rule="nonzero" fill-opacity="1" /><path clip-path="url(#clip440)" d="M2278.89 146.588 Q2278.97 145.662 2280.41 145.662 L2326.92 145.662 Q2329.1 145.662 2329.14 146.514 Q2329.14 147.44 2327.07 147.403 L2280.93 147.403 Q2278.89 147.44 2278.89 146.588 M2278.89 131.766 Q2278.89 130.839 2280.49 130.877 L2326.84 130.877 Q2329.1 130.877 2329.14 131.766 Q2329.14 132.618 2327.21 132.618 L2280.41 132.618 Q2278.89 132.618 2278.89 131.766 Z" fill="#000000" fill-rule="nonzero" fill-opacity="1" /><path clip-path="url(#clip440)" d="M2365.57 114.795 L2365.57 112.423 Q2374.68 112.423 2379.39 107.569 Q2380.69 107.569 2380.91 107.865 Q2381.13 108.162 2381.13 109.533 L2381.13 152.109 Q2381.13 154.369 2382.24 155.073 Q2383.35 155.778 2388.21 155.778 L2390.62 155.778 L2390.62 158.112 Q2387.95 157.89 2378.31 157.89 Q2368.68 157.89 2366.05 158.112 L2366.05 155.778 L2368.46 155.778 Q2373.24 155.778 2374.39 155.111 Q2375.53 154.406 2375.53 152.109 L2375.53 112.794 Q2371.57 114.795 2365.57 114.795 Z" fill="#000000" fill-rule="nonzero" fill-opacity="1" /><path clip-path="url(#clip440)" d="M2400.55 158.112 Q2400.55 156.741 2400.66 156.333 Q2400.81 155.926 2401.4 155.296 L2415.96 139.066 Q2423.93 130.098 2423.93 122.28 Q2423.93 117.203 2421.26 113.572 Q2418.63 109.94 2413.78 109.94 Q2410.44 109.94 2407.62 111.978 Q2404.81 114.017 2403.51 117.648 Q2403.73 117.574 2404.51 117.574 Q2406.4 117.574 2407.44 118.76 Q2408.51 119.945 2408.51 121.539 Q2408.51 123.577 2407.18 124.577 Q2405.88 125.541 2404.59 125.541 Q2404.07 125.541 2403.36 125.429 Q2402.7 125.318 2401.62 124.281 Q2400.55 123.206 2400.55 121.316 Q2400.55 116.017 2404.55 111.793 Q2408.59 107.569 2414.74 107.569 Q2421.7 107.569 2426.26 111.719 Q2430.86 115.832 2430.86 122.28 Q2430.86 124.54 2430.15 126.615 Q2429.49 128.653 2428.56 130.247 Q2427.67 131.84 2425.23 134.397 Q2422.78 136.954 2420.82 138.769 Q2418.85 140.585 2414.44 144.439 L2406.4 152.257 L2420.07 152.257 Q2426.74 152.257 2427.26 151.664 Q2428 150.59 2428.93 144.92 L2430.86 144.92 L2428.71 158.112 L2400.55 158.112 Z" fill="#000000" fill-rule="nonzero" fill-opacity="1" /><path clip-path="url(#clip440)" d="M2437.9 146.662 Q2437.9 138.176 2448.83 132.692 Q2444.12 129.506 2443.27 128.579 Q2439.94 124.874 2439.94 120.242 Q2439.94 114.943 2443.94 111.274 Q2447.98 107.569 2453.68 107.569 Q2459.13 107.569 2463.24 110.719 Q2467.36 113.868 2467.36 118.871 Q2467.36 125.911 2458.17 130.654 Q2464.24 134.434 2465.69 136.027 Q2469.39 140.14 2469.39 145.365 Q2469.39 151.442 2464.73 155.629 Q2460.06 159.779 2453.61 159.779 Q2447.31 159.779 2442.6 156.111 Q2437.9 152.443 2437.9 146.662 M2441.68 146.662 Q2441.68 151.368 2445.2 154.518 Q2448.76 157.667 2453.68 157.667 Q2458.46 157.667 2462.02 154.925 Q2465.62 152.183 2465.62 148.107 Q2465.62 146.514 2465.06 145.143 Q2464.54 143.772 2463.47 142.697 Q2462.43 141.585 2461.76 141.104 Q2461.13 140.585 2459.91 139.733 L2450.57 133.841 Q2441.68 138.769 2441.68 146.662 M2443.27 117.277 Q2443.27 120.909 2447.09 123.428 L2456.5 129.506 Q2464.02 125.096 2464.02 118.871 Q2464.02 114.832 2460.95 112.164 Q2457.87 109.459 2453.61 109.459 Q2449.42 109.459 2446.35 111.682 Q2443.27 113.868 2443.27 117.277 Z" fill="#000000" fill-rule="nonzero" fill-opacity="1" /><polyline clip-path="url(#clip442)" style="stroke:#009af9; stroke-linecap:round; stroke-linejoin:round; stroke-width:4; stroke-opacity:1; fill:none" points="479.18,706.616 488.563,796.879 497.947,744.202 507.33,802.988 516.713,870.787 526.097,720.206 535.48,877.946 544.863,846.028 554.246,622.369 563.63,857.629 573.013,761.202 582.396,846.401 591.779,815.325 601.163,733.644 610.546,844.191 619.929,820.276 629.313,789.336 638.696,863.905 648.079,808.999 657.462,879.344 666.846,840.685 676.229,788.292 685.612,871.341 694.995,805.144 704.379,877.288 713.762,855.146 723.145,800.476 732.529,859.891 741.912,840.038 751.295,824.53 760.678,706.449 770.062,795.14 779.445,776.193 788.828,473.331 798.211,883.732 807.595,231.97 816.978,844.335 826.361,643.197 835.744,830.982 845.128,578.64 854.511,543.417 863.894,875.156 873.278,847.564 882.661,835.979 892.044,772.004 901.427,810.422 910.811,834.158 920.194,859.107 929.577,797.16 938.96,892.302 948.344,699.09 957.727,809.447 967.11,864.15 976.494,825.69 985.877,860.008 995.26,856.535 1004.64,811.265 1014.03,882.833 1023.41,819.501 1032.79,788.3 1042.18,836.653 1051.56,719.465 1060.94,835.034 1070.33,801.014 1079.71,748.425 1089.09,806.283 1098.48,820.637 1107.86,896.695 1117.24,806.642 1126.63,782.907 1136.01,887.171 1145.39,839.765 1154.78,858.24 1164.16,800.656 1173.54,817.161 1182.93,827.193 1192.31,770.337 1201.69,863.942 1211.08,313.143 1220.46,788.71 1229.84,822.609 1239.23,734.991 1248.61,631.787 1257.99,523.898 1267.37,842.897 1276.76,812.755 1286.14,803.995 1295.52,873.553 1304.91,775.761 1314.29,859.11 1323.67,850.482 1333.06,831.702 1342.44,857.415 1351.82,852.388 1361.21,838.071 1370.59,839.11 1379.97,711.721 1389.36,891.645 1398.74,764.804 1408.12,799.862 1417.51,890.134 1426.89,792.788 1436.27,884.628 1445.66,832.593 1455.04,843.052 1464.42,865.046 1473.81,753.278 1483.19,893.791 1492.57,844.687 1501.96,861.051 1511.34,871.64 1520.72,796.862 1530.11,854.701 1539.49,395.765 1548.87,828.75 1558.26,804.63 1567.64,798.866 1577.02,443.715 1586.41,782.716 1595.79,806.023 1605.17,799.591 1614.56,864.057 1623.94,846.527 1633.32,766.39 1642.71,880.394 1652.09,848.018 1661.47,838.863 1670.86,891.068 1680.24,702.808 1689.62,855.82 1699.01,740.076 1708.39,784.569 1717.77,806.656 1727.16,156.366 1736.54,517.134 1745.92,253.511 1755.3,815.964 1764.69,876.905 1774.07,758.738 1783.45,839.776 1792.84,906.086 1802.22,830.065 1811.6,877.562 1820.99,737.039 1830.37,828.146 1839.75,833.348 1849.14,713.869 1858.52,892.082 1867.9,788.277 1877.29,840.079 1886.67,823.533 1896.05,814.251 1905.44,877.114 1914.82,799.754 1924.2,826.212 1933.59,859.389 1942.97,822.624 1952.35,863.969 1961.74,825.709 1971.12,804.398 1980.5,896.904 1989.89,470.236 1999.27,769.256 2008.65,348.32 2018.04,845.697 2027.42,803.389 2036.8,793.082 2046.19,827.262 2055.57,817.512 2064.95,860.343 2074.34,852.342 2083.72,536.35 2093.1,889.553 2102.49,838.729 2111.87,830.675 2121.25,828.449 2130.64,797.871 2140.02,862.944 2149.4,853.661 2158.79,773.252 2168.17,884.381 2177.55,821.92 2186.94,858.62 2196.32,850.323 2205.7,816.404 2215.09,862.595 2224.47,835.862 2233.85,796.382 2243.24,905.508 2252.62,793.041 2262,864.159 2271.38,883.601 2280.77,810.006 2290.15,868.444 2299.53,734.209 2308.92,882.455 2318.3,637.939 2327.68,848.909 2337.07,877.5 2346.45,812.442 2355.83,917.943 2365.22,807.749 2374.6,821.241 2383.98,797.073 2393.37,774.735 2402.75,331.962 2412.13,572.791 2421.52,732.174 2430.9,361.433 2440.28,848.701 2449.67,526.1 2459.05,817.417 2468.43,797.799 2477.82,826.089 2487.2,788.104 2496.58,828.619 2505.97,844.952 2515.35,777.515 2524.73,783.581 2534.12,863.606 2543.5,806.268 2552.88,805.851 2562.27,884.023 2571.65,816.695 2581.03,850.512 2590.42,773.013 2599.8,798.759 2609.18,904.384 2618.57,882.045 2627.95,834.696 2637.33,849.702 2646.72,832.343 2656.1,865.108 2665.48,656.599 2674.87,860.413 2684.25,807.754 2693.63,808.327 2703.02,880.268 2712.4,811.101 2721.78,841.852 2731.17,824.914 2740.55,544.205 2749.93,892.06 2759.31,752.044 2768.7,879.69 2778.08,479.437 2787.46,808.061 2796.85,284.569 2806.23,539.412 2815.61,133.499 2825,332.775 2834.38,835.35 2843.76,549.047 2853.15,854.676 2862.53,555.986 2871.91,793.243 2881.3,873.37 2890.68,721.032 2900.06,846.841 2909.45,891.851 2918.83,838.72 2928.21,875.919 2937.6,801.552 2946.98,827.969 2956.36,866.58 2965.75,715.873 2975.13,815.003 2984.51,550.834 2993.9,791.264 3003.28,287.853 3012.66,206.588 3022.05,781.502 3031.43,643.776 3040.81,837.146 3050.2,825.026 3059.58,801.602 3068.96,883.433 3078.35,765.271 3087.73,928.517 3097.11,341.594 3106.5,602.162 3115.88,168.321 3125.26,603.567 3134.65,852.729 3144.03,778.884 3153.41,813.101 3162.8,834.604 3172.18,755.57 3181.56,912.288 3190.95,657.64 3200.33,799.497 3209.71,868.5 3219.1,768.008 3228.48,841.048 3237.86,845.745 3247.25,825.906 3256.63,877.201 3266.01,856.971 3275.39,746.814 3284.78,854.508 3294.16,807.663 3303.54,838.783 3312.93,886.058 3322.31,648.322 3331.69,871.063 3341.08,790.618 3350.46,813.415 3359.84,855.573 3369.23,810.45 3378.61,879.595 3387.99,857.555 3397.38,826.754 3406.76,741.195 3416.14,799.289 3425.53,882.432 3434.91,785.909 3444.29,817.742 3453.68,793.878 3463.06,789.706 3472.44,406.435 3481.83,482.648 3491.21,830.961 3500.59,611.584 3509.98,840.036 3519.36,500.037 3528.74,810.823 3538.13,490.876 3547.51,868.073 3556.89,784.398 3566.28,769.627 3575.66,872.011 3585.04,859.783 3594.43,790.951 3603.81,923.3 3613.19,783.038 3622.58,858.934 3631.96,866.686 3641.34,787.621 3650.73,875.126 3660.11,723.136 3669.49,816.478 3678.88,852.977 3688.26,839.533 3697.64,859.863 3707.03,751.504 3716.41,817.909 3725.79,890.832 3735.18,725.548 3744.56,829.889 "/>
<polyline clip-path="url(#clip442)" style="stroke:#e26f46; stroke-linecap:round; stroke-linejoin:round; stroke-width:4; stroke-opacity:1; fill:none" points="479.18,786.399 488.563,823.814 497.947,843.771 507.33,870.83 516.713,883.334 526.097,799.406 535.48,907.416 544.863,827.467 554.246,801.615 563.63,902.348 573.013,815.797 582.396,905.296 591.779,842.044 601.163,806.755 610.546,918.017 619.929,874.961 629.313,838.532 638.696,886.932 648.079,884.501 657.462,918.407 666.846,871.985 676.229,811.302 685.612,895.595 694.995,812.924 704.379,903.151 713.762,881.361 723.145,852.088 732.529,878.457 741.912,849.279 751.295,887.729 760.678,733.195 770.062,884.919 779.445,838.048 788.828,595.603 798.211,877.988 807.595,450.746 816.978,895.855 826.361,739.581 835.744,876.041 845.128,716.359 854.511,665.252 863.894,908.45 873.278,907.308 882.661,899.978 892.044,818.426 901.427,885.361 910.811,889.469 920.194,860.67 929.577,854.226 938.96,913.858 948.344,754.723 957.727,873.626 967.11,856.456 976.494,845.767 985.877,922.212 995.26,884.977 1004.64,888.872 1014.03,898.735 1023.41,867.127 1032.79,899.744 1042.18,840.21 1051.56,865.015 1060.94,887.132 1070.33,799.817 1079.71,816.583 1089.09,842.376 1098.48,871.258 1107.86,919.775 1117.24,874.622 1126.63,901.747 1136.01,897.327 1145.39,805.407 1154.78,921.876 1164.16,846.345 1173.54,902.336 1182.93,850.106 1192.31,771.395 1201.69,915.726 1211.08,454.013 1220.46,895.515 1229.84,855.142 1239.23,707.373 1248.61,744.57 1257.99,533.12 1267.37,860.438 1276.76,850.757 1286.14,874.74 1295.52,893.5 1304.91,861.687 1314.29,865.092 1323.67,839.841 1333.06,857.403 1342.44,793.458 1351.82,924.805 1361.21,875.793 1370.59,847.618 1379.97,819.957 1389.36,915.556 1398.74,822.044 1408.12,889.689 1417.51,887.969 1426.89,878.934 1436.27,919.761 1445.66,872.317 1455.04,909.311 1464.42,848.687 1473.81,839.137 1483.19,885.675 1492.57,870.861 1501.96,890.335 1511.34,862.434 1520.72,857.328 1530.11,880.541 1539.49,449.584 1548.87,900.933 1558.26,778.463 1567.64,869.543 1577.02,493.816 1586.41,849.044 1595.79,905.391 1605.17,877.532 1614.56,928.517 1623.94,851.523 1633.32,817.918 1642.71,890.343 1652.09,871.622 1661.47,902.099 1670.86,886.106 1680.24,757.57 1689.62,891.356 1699.01,795.85 1708.39,851.877 1717.77,862.987 1727.16,298.68 1736.54,726.899 1745.92,133.499 1755.3,914.266 1764.69,894.374 1774.07,815.591 1783.45,896.265 1792.84,895.705 1802.22,802.455 1811.6,925.099 1820.99,797.666 1830.37,899.01 1839.75,785.168 1849.14,820.774 1858.52,907.712 1867.9,832.28 1877.29,908.984 1886.67,794.309 1896.05,875.459 1905.44,900.392 1914.82,844.306 1924.2,894.091 1933.59,804.507 1942.97,898.176 1952.35,898.553 1961.74,896.312 1971.12,887.464 1980.5,871.953 1989.89,630.002 1999.27,808.482 2008.65,465.644 2018.04,863.714 2027.42,738.139 2036.8,899.482 2046.19,867.131 2055.57,874.544 2064.95,921.311 2074.34,843.958 2083.72,692.916 2093.1,894.209 2102.49,851.777 2111.87,905.924 2121.25,817.04 2130.64,866.686 2140.02,923.805 2149.4,832.285 2158.79,850.82 2168.17,882.358 2177.55,867.585 2186.94,904.408 2196.32,845.546 2205.7,872.478 2215.09,885.571 2224.47,849.766 2233.85,915.23 2243.24,914.006 2252.62,900.272 2262,887.1 2271.38,870.678 2280.77,916.341 2290.15,800.786 2299.53,845.728 2308.92,919.82 2318.3,766.73 2327.68,895.447 2337.07,853.784 2346.45,893.8 2355.83,889.683 2365.22,826.372 2374.6,907.746 2383.98,804.257 2393.37,889.078 2402.75,529.893 2412.13,646.663 2421.52,710.874 2430.9,458.003 2440.28,888.872 2449.67,507.882 2459.05,891.987 2468.43,818.609 2477.82,866.543 2487.2,853.278 2496.58,844.61 2505.97,897.894 2515.35,764.855 2524.73,896.743 2534.12,889.716 2543.5,823.483 2552.88,854.665 2562.27,904.966 2571.65,863.028 2581.03,883.863 2590.42,804.004 2599.8,855.224 2609.18,888.185 2618.57,886.757 2627.95,855.074 2637.33,833.345 2646.72,909.596 2656.1,855.653 2665.48,752.422 2674.87,876.764 2684.25,766.389 2693.63,827.905 2703.02,890.235 2712.4,877.966 2721.78,909.65 2731.17,804.091 2740.55,691.153 2749.93,898.56 2759.31,810.299 2768.7,894.371 2778.08,529.491 2787.46,876.848 2796.85,509.192 2806.23,573.24 2815.61,352.858 2825,461.178 2834.38,862.804 2843.76,505.047 2853.15,836.497 2862.53,664.885 2871.91,764.306 2881.3,872.098 2890.68,785.831 2900.06,878.358 2909.45,902.694 2918.83,893.756 2928.21,919.933 2937.6,844.174 2946.98,875.405 2956.36,907.217 2965.75,743.672 2975.13,866.638 2984.51,601.016 2993.9,867.541 3003.28,426.465 3012.66,229.559 3022.05,818.805 3031.43,624.539 3040.81,892.43 3050.2,806.865 3059.58,845.474 3068.96,911.157 3078.35,776.869 3087.73,890.368 3097.11,507.03 3106.5,526.697 3115.88,527.3 3125.26,438.353 3134.65,876.702 3144.03,753.336 3153.41,910.995 3162.8,809.927 3172.18,701.423 3181.56,888.276 3190.95,723.523 3200.33,702.492 3209.71,873.278 3219.1,808.806 3228.48,906.055 3237.86,847.762 3247.25,894.646 3256.63,908.149 3266.01,874.304 3275.39,810.442 3284.78,849.807 3294.16,822.285 3303.54,886.84 3312.93,912.849 3322.31,746.836 3331.69,912.774 3341.08,833.242 3350.46,880.24 3359.84,893.209 3369.23,847.651 3378.61,887.437 3387.99,900.357 3397.38,889.298 3406.76,807.757 3416.14,861.009 3425.53,840.162 3434.91,826.549 3444.29,892.201 3453.68,838.743 3463.06,883.126 3472.44,495.082 3481.83,603.724 3491.21,838.883 3500.59,609.784 3509.98,879.726 3519.36,524.014 3528.74,893.376 3538.13,498.951 3547.51,733.877 3556.89,913.448 3566.28,765.7 3575.66,917.37 3585.04,883.668 3594.43,830.581 3603.81,842.028 3613.19,820.993 3622.58,919.7 3631.96,863.103 3641.34,887.601 3650.73,882.357 3660.11,779.979 3669.49,906.741 3678.88,826.807 3688.26,878.973 3697.64,917.352 3707.03,769.96 3716.41,902.942 3725.79,918.287 3735.18,758.217 3744.56,895.054 "/>
<path clip-path="url(#clip440)" d="M496.596 293.259 L954.508 293.259 L954.508 137.739 L496.596 137.739  Z" fill="#ffffff" fill-rule="evenodd" fill-opacity="1"/>
<polyline clip-path="url(#clip440)" style="stroke:#000000; stroke-linecap:round; stroke-linejoin:round; stroke-width:4; stroke-opacity:1; fill:none" points="496.596,293.259 954.508,293.259 954.508,137.739 496.596,137.739 496.596,293.259 "/>
<polyline clip-path="url(#clip440)" style="stroke:#009af9; stroke-linecap:round; stroke-linejoin:round; stroke-width:4; stroke-opacity:1; fill:none" points="535.054,189.579 765.808,189.579 "/>
<path clip-path="url(#clip440)" d="M804.267 206.859 L804.267 205.302 Q806.095 205.302 807.256 204.957 Q808.417 204.586 808.837 203.919 Q809.282 203.227 809.38 202.783 Q809.479 202.313 809.479 201.548 L809.479 176.251 Q809.479 174.794 808.837 174.349 Q808.219 173.88 805.477 173.88 L804.267 173.88 L804.267 172.299 L812.814 172.299 Q813.728 172.299 813.975 172.472 Q814.222 172.62 814.593 173.41 L825.561 201.745 L836.628 173.262 Q836.875 172.546 837.098 172.422 Q837.345 172.299 838.308 172.299 L846.855 172.299 L846.855 173.88 L845.645 173.88 Q842.903 173.88 842.261 174.349 Q841.643 174.794 841.643 176.251 L841.643 202.906 Q841.643 204.364 842.261 204.833 Q842.903 205.302 845.645 205.302 L846.855 205.302 L846.855 206.859 Q844.978 206.711 839.617 206.711 Q834.207 206.711 832.33 206.859 L832.33 205.302 L833.565 205.302 Q836.307 205.302 836.925 204.858 Q837.542 204.388 837.542 202.906 L837.542 173.88 L837.493 173.88 L825.067 205.895 Q824.721 206.859 824.153 206.859 Q823.535 206.859 823.14 205.747 L810.937 174.275 L810.887 174.275 L810.887 201.548 Q810.887 202.313 810.986 202.783 Q811.085 203.227 811.505 203.919 Q811.949 204.586 813.111 204.957 Q814.272 205.302 816.1 205.302 L816.1 206.859 Q810.788 206.711 810.171 206.711 Q809.578 206.711 804.267 206.859 Z" fill="#000000" fill-rule="nonzero" fill-opacity="1" /><path clip-path="url(#clip440)" d="M850.487 206.859 L850.487 205.302 L851.697 205.302 Q854.439 205.302 855.057 204.858 Q855.699 204.388 855.699 202.906 L855.699 176.251 Q855.699 174.794 855.057 174.349 Q854.415 173.88 851.697 173.88 L850.487 173.88 L850.487 172.299 L868.347 172.299 Q873.461 172.299 876.87 175.115 Q880.279 177.931 880.279 181.711 Q880.279 185.466 876.796 188.183 Q873.337 190.876 868.743 190.876 L860.195 190.876 L860.195 202.906 Q860.195 204.364 860.813 204.833 Q861.455 205.302 864.197 205.302 L865.408 205.302 L865.408 206.859 Q863.629 206.711 857.922 206.711 Q852.265 206.711 850.487 206.859 M860.047 189.566 L867.013 189.566 Q869.286 189.566 870.941 188.924 Q872.596 188.282 873.337 187.516 Q874.103 186.726 874.523 185.466 Q874.968 184.181 875.017 183.489 Q875.067 182.773 875.067 181.711 Q875.067 180.599 875.017 179.907 Q874.968 179.191 874.523 177.931 Q874.103 176.647 873.337 175.881 Q872.596 175.09 870.941 174.497 Q869.311 173.88 867.013 173.88 L862.517 173.88 Q860.788 173.88 860.417 174.226 Q860.047 174.571 860.047 175.905 L860.047 189.566 Z" fill="#000000" fill-rule="nonzero" fill-opacity="1" /><path clip-path="url(#clip440)" d="M885.936 206.76 L885.936 196.632 Q885.936 196.063 885.961 195.866 Q885.985 195.668 886.134 195.52 Q886.282 195.372 886.578 195.372 Q887.147 195.372 887.196 195.89 Q887.344 200.905 890.333 203.672 Q893.273 206.414 898.312 206.414 Q901.351 206.414 903.228 204.24 Q905.106 202.042 905.106 199.176 Q905.106 196.434 903.525 194.507 Q902.858 193.642 902.018 193.099 Q901.203 192.531 900.684 192.358 Q900.19 192.185 899.226 191.938 Q892.952 190.431 892.557 190.258 Q889.567 189.245 887.739 186.701 Q885.936 184.132 885.936 180.994 Q885.936 176.943 888.777 174.077 Q891.643 171.187 895.793 171.187 Q897.868 171.187 899.597 171.854 Q901.351 172.496 902.067 173.089 Q902.784 173.682 903.895 174.744 L905.649 171.854 Q906.045 171.187 906.415 171.187 Q906.81 171.187 906.884 171.434 Q906.983 171.656 906.983 172.398 L906.983 182.575 Q906.983 183.144 906.959 183.341 Q906.934 183.539 906.761 183.662 Q906.613 183.786 906.316 183.786 Q905.822 183.786 905.699 183.193 Q904.291 172.62 895.842 172.62 Q892.952 172.62 891.05 174.571 Q889.172 176.498 889.172 179.24 Q889.172 181.464 890.556 183.292 Q891.939 185.095 894.286 185.663 L900.758 187.22 Q903.994 187.985 906.168 190.851 Q908.342 193.717 908.342 197.447 Q908.342 201.745 905.526 204.858 Q902.734 207.97 898.362 207.97 Q895.225 207.97 892.804 206.933 Q890.383 205.895 889.073 204.438 Q888.061 206.118 887.394 207.056 L887.245 207.303 Q886.85 207.97 886.48 207.97 Q886.084 207.97 886.01 207.723 Q885.936 207.476 885.936 206.76 Z" fill="#000000" fill-rule="nonzero" fill-opacity="1" /><polyline clip-path="url(#clip440)" style="stroke:#e26f46; stroke-linecap:round; stroke-linejoin:round; stroke-width:4; stroke-opacity:1; fill:none" points="535.054,241.419 765.808,241.419 "/>
<path clip-path="url(#clip440)" d="M804.267 229.821 L804.267 228.24 Q810.344 228.24 813.481 225.003 Q814.346 225.003 814.494 225.201 Q814.642 225.399 814.642 226.313 L814.642 254.697 Q814.642 256.204 815.383 256.673 Q816.124 257.142 819.36 257.142 L820.966 257.142 L820.966 258.699 Q819.188 258.551 812.765 258.551 Q806.342 258.551 804.588 258.699 L804.588 257.142 L806.194 257.142 Q809.38 257.142 810.146 256.698 Q810.912 256.228 810.912 254.697 L810.912 228.487 Q808.269 229.821 804.267 229.821 Z" fill="#000000" fill-rule="nonzero" fill-opacity="1" /><path clip-path="url(#clip440)" d="M825.561 249.287 L825.561 246.298 L839.024 246.298 L839.024 249.287 L825.561 249.287 Z" fill="#000000" fill-rule="nonzero" fill-opacity="1" /><path clip-path="url(#clip440)" d="M843.57 258.699 L843.57 257.142 Q845.398 257.142 846.559 256.797 Q847.72 256.426 848.14 255.759 Q848.56 255.067 848.659 254.623 Q848.782 254.153 848.782 253.388 L848.782 226.98 Q848.782 226.263 848.585 226.09 Q848.412 225.917 847.547 225.819 Q846.04 225.72 845.027 225.72 L843.57 225.72 L843.57 224.139 L852.167 224.139 Q852.883 224.139 853.081 224.238 Q853.278 224.336 853.624 224.806 L871.485 251.065 L871.485 229.45 Q871.485 228.684 871.386 228.24 Q871.287 227.795 870.842 227.103 Q870.422 226.411 869.261 226.066 Q868.1 225.72 866.272 225.72 L866.272 224.139 Q871.583 224.287 872.176 224.287 Q872.794 224.287 878.105 224.139 L878.105 225.72 Q876.277 225.72 875.116 226.066 Q873.955 226.411 873.535 227.103 Q873.115 227.795 872.991 228.264 Q872.893 228.709 872.893 229.45 L872.893 257.389 Q872.893 258.205 872.794 258.452 Q872.695 258.699 872.201 258.699 Q871.855 258.699 871.336 258.032 L850.684 227.696 Q850.487 227.4 850.19 227.078 L850.19 253.388 Q850.19 254.153 850.289 254.623 Q850.388 255.067 850.808 255.759 Q851.253 256.426 852.414 256.797 Q853.575 257.142 855.403 257.142 L855.403 258.699 Q850.091 258.551 849.474 258.551 Q848.881 258.551 843.57 258.699 Z" fill="#000000" fill-rule="nonzero" fill-opacity="1" /><path clip-path="url(#clip440)" d="M881.514 258.699 L881.514 257.142 Q883.342 257.142 884.503 256.797 Q885.664 256.426 886.084 255.759 Q886.504 255.067 886.603 254.623 Q886.727 254.153 886.727 253.388 L886.727 226.98 Q886.727 226.263 886.529 226.09 Q886.356 225.917 885.491 225.819 Q883.984 225.72 882.972 225.72 L881.514 225.72 L881.514 224.139 L890.111 224.139 Q890.827 224.139 891.025 224.238 Q891.223 224.336 891.568 224.806 L909.429 251.065 L909.429 229.45 Q909.429 228.684 909.33 228.24 Q909.231 227.795 908.787 227.103 Q908.367 226.411 907.206 226.066 Q906.045 225.72 904.217 225.72 L904.217 224.139 Q909.528 224.287 910.121 224.287 Q910.738 224.287 916.049 224.139 L916.049 225.72 Q914.221 225.72 913.06 226.066 Q911.899 226.411 911.479 227.103 Q911.059 227.795 910.936 228.264 Q910.837 228.709 910.837 229.45 L910.837 257.389 Q910.837 258.205 910.738 258.452 Q910.639 258.699 910.145 258.699 Q909.799 258.699 909.281 258.032 L888.629 227.696 Q888.431 227.4 888.135 227.078 L888.135 253.388 Q888.135 254.153 888.233 254.623 Q888.332 255.067 888.752 255.759 Q889.197 256.426 890.358 256.797 Q891.519 257.142 893.347 257.142 L893.347 258.699 Q888.036 258.551 887.418 258.551 Q886.825 258.551 881.514 258.699 Z" fill="#000000" fill-rule="nonzero" fill-opacity="1" /></svg>
