<?xml version="1.0" encoding="utf-8"?>
<svg xmlns="http://www.w3.org/2000/svg" xmlns:xlink="http://www.w3.org/1999/xlink" width="1000" height="300" viewBox="0 0 4000 1200">
<defs>
  <clipPath id="clip080">
    <rect x="0" y="0" width="4000" height="1200"/>
  </clipPath>
</defs>
<path clip-path="url(#clip080)" d="M0 1200 L4000 1200 L4000 4.44089e-14 L0 4.44089e-14  Z" fill="#ffffff" fill-rule="evenodd" fill-opacity="1"/>
<defs>
  <clipPath id="clip081">
    <rect x="800" y="0" width="2801" height="1200"/>
  </clipPath>
</defs>
<path clip-path="url(#clip080)" d="M381.219 952.368 L3842.52 952.368 L3842.52 86.3201 L381.219 86.3201  Z" fill="#ffffff" fill-rule="evenodd" fill-opacity="1"/>
<defs>
  <clipPath id="clip082">
    <rect x="381" y="86" width="3462" height="867"/>
  </clipPath>
</defs>
<polyline clip-path="url(#clip082)" style="stroke:#000000; stroke-linecap:round; stroke-linejoin:round; stroke-width:2; stroke-opacity:0.1; fill:none" points="460.305,952.368 460.305,86.3201 "/>
<polyline clip-path="url(#clip082)" style="stroke:#000000; stroke-linecap:round; stroke-linejoin:round; stroke-width:2; stroke-opacity:0.1; fill:none" points="1404.06,952.368 1404.06,86.3201 "/>
<polyline clip-path="url(#clip082)" style="stroke:#000000; stroke-linecap:round; stroke-linejoin:round; stroke-width:2; stroke-opacity:0.1; fill:none" points="2347.81,952.368 2347.81,86.3201 "/>
<polyline clip-path="url(#clip082)" style="stroke:#000000; stroke-linecap:round; stroke-linejoin:round; stroke-width:2; stroke-opacity:0.1; fill:none" points="3291.56,952.368 3291.56,86.3201 "/>
<polyline clip-path="url(#clip082)" style="stroke:#000000; stroke-linecap:round; stroke-linejoin:round; stroke-width:2; stroke-opacity:0.1; fill:none" points="381.219,927.857 3842.52,927.857 "/>
<polyline clip-path="url(#clip082)" style="stroke:#000000; stroke-linecap:round; stroke-linejoin:round; stroke-width:2; stroke-opacity:0.1; fill:none" points="381.219,723.6 3842.52,723.6 "/>
<polyline clip-path="url(#clip082)" style="stroke:#000000; stroke-linecap:round; stroke-linejoin:round; stroke-width:2; stroke-opacity:0.1; fill:none" points="381.219,519.344 3842.52,519.344 "/>
<polyline clip-path="url(#clip082)" style="stroke:#000000; stroke-linecap:round; stroke-linejoin:round; stroke-width:2; stroke-opacity:0.1; fill:none" points="381.219,315.087 3842.52,315.087 "/>
<polyline clip-path="url(#clip082)" style="stroke:#000000; stroke-linecap:round; stroke-linejoin:round; stroke-width:2; stroke-opacity:0.1; fill:none" points="381.219,110.831 3842.52,110.831 "/>
<polyline clip-path="url(#clip080)" style="stroke:#000000; stroke-linecap:round; stroke-linejoin:round; stroke-width:4; stroke-opacity:1; fill:none" points="381.219,952.368 3842.52,952.368 "/>
<polyline clip-path="url(#clip080)" style="stroke:#000000; stroke-linecap:round; stroke-linejoin:round; stroke-width:4; stroke-opacity:1; fill:none" points="460.305,952.368 460.305,933.47 "/>
<polyline clip-path="url(#clip080)" style="stroke:#000000; stroke-linecap:round; stroke-linejoin:round; stroke-width:4; stroke-opacity:1; fill:none" points="1404.06,952.368 1404.06,933.47 "/>
<polyline clip-path="url(#clip080)" style="stroke:#000000; stroke-linecap:round; stroke-linejoin:round; stroke-width:4; stroke-opacity:1; fill:none" points="2347.81,952.368 2347.81,933.47 "/>
<polyline clip-path="url(#clip080)" style="stroke:#000000; stroke-linecap:round; stroke-linejoin:round; stroke-width:4; stroke-opacity:1; fill:none" points="3291.56,952.368 3291.56,933.47 "/>
<path clip-path="url(#clip080)" d="M444.334 1024.9 Q444.334 1013.74 447.151 1007.67 Q451.078 998.625 460.342 998.625 Q462.306 998.625 464.344 999.18 Q466.419 999.699 469.013 1001.74 Q471.644 1003.78 473.237 1007.11 Q476.276 1013.56 476.276 1024.9 Q476.276 1035.98 473.46 1042.02 Q469.347 1050.84 460.268 1050.84 Q456.859 1050.84 453.376 1049.09 Q449.93 1047.35 447.744 1043.16 Q444.334 1036.9 444.334 1024.9 M450.634 1023.97 Q450.634 1035.42 451.449 1039.98 Q452.375 1044.91 454.895 1047.06 Q457.452 1049.17 460.268 1049.17 Q463.307 1049.17 465.826 1046.91 Q468.383 1044.61 469.161 1039.68 Q470.014 1034.83 469.977 1023.97 Q469.977 1013.41 469.235 1009.19 Q468.235 1004.26 465.567 1002.29 Q462.936 1000.29 460.268 1000.29 Q459.268 1000.29 458.193 1000.59 Q457.156 1000.88 455.636 1001.74 Q454.117 1002.59 452.931 1004.7 Q451.783 1006.81 451.227 1010 Q450.634 1014.11 450.634 1023.97 Z" fill="#000000" fill-rule="nonzero" fill-opacity="1" /><path clip-path="url(#clip080)" d="M1369.52 1036.94 Q1369.52 1034.68 1370.74 1033.83 Q1371.97 1032.94 1373.26 1032.94 Q1375 1032.94 1376.01 1034.05 Q1377.04 1035.12 1377.04 1036.64 Q1377.04 1038.16 1376.01 1039.27 Q1375 1040.35 1373.26 1040.35 Q1372.41 1040.35 1371.97 1040.2 Q1372.97 1043.68 1376.01 1046.2 Q1379.08 1048.72 1383.12 1048.72 Q1388.2 1048.72 1391.24 1043.79 Q1393.05 1040.61 1393.05 1033.38 Q1393.05 1027.01 1391.68 1023.82 Q1389.57 1018.97 1385.23 1018.97 Q1379.08 1018.97 1375.45 1024.27 Q1375 1024.93 1374.49 1024.97 Q1373.75 1024.97 1373.56 1024.56 Q1373.41 1024.12 1373.41 1022.97 L1373.41 1000.51 Q1373.41 998.699 1374.15 998.699 Q1374.45 998.699 1375.08 998.921 Q1379.86 1001.03 1385.16 1001.07 Q1390.61 1001.07 1395.5 998.847 Q1395.87 998.625 1396.09 998.625 Q1396.83 998.625 1396.87 999.477 Q1396.87 999.773 1396.24 1000.66 Q1395.64 1001.51 1394.35 1002.66 Q1393.05 1003.78 1391.38 1004.85 Q1389.72 1005.92 1387.27 1006.67 Q1384.86 1007.37 1382.19 1007.37 Q1379.01 1007.37 1375.75 1006.37 L1375.75 1021.15 Q1379.67 1017.3 1385.38 1017.3 Q1391.46 1017.3 1395.64 1022.19 Q1399.83 1027.08 1399.83 1033.9 Q1399.83 1041.05 1394.87 1045.94 Q1389.94 1050.84 1383.27 1050.84 Q1377.19 1050.84 1373.34 1046.5 Q1369.52 1042.16 1369.52 1036.94 Z" fill="#000000" fill-rule="nonzero" fill-opacity="1" /><path clip-path="url(#clip080)" d="M1406.65 1024.9 Q1406.65 1013.74 1409.47 1007.67 Q1413.39 998.625 1422.66 998.625 Q1424.62 998.625 1426.66 999.18 Q1428.73 999.699 1431.33 1001.74 Q1433.96 1003.78 1435.55 1007.11 Q1438.59 1013.56 1438.59 1024.9 Q1438.59 1035.98 1435.78 1042.02 Q1431.66 1050.84 1422.58 1050.84 Q1419.17 1050.84 1415.69 1049.09 Q1412.25 1047.35 1410.06 1043.16 Q1406.65 1036.9 1406.65 1024.9 M1412.95 1023.97 Q1412.95 1035.42 1413.76 1039.98 Q1414.69 1044.91 1417.21 1047.06 Q1419.77 1049.17 1422.58 1049.17 Q1425.62 1049.17 1428.14 1046.91 Q1430.7 1044.61 1431.48 1039.68 Q1432.33 1034.83 1432.29 1023.97 Q1432.29 1013.41 1431.55 1009.19 Q1430.55 1004.26 1427.88 1002.29 Q1425.25 1000.29 1422.58 1000.29 Q1421.58 1000.29 1420.51 1000.59 Q1419.47 1000.88 1417.95 1001.74 Q1416.43 1002.59 1415.25 1004.7 Q1414.1 1006.81 1413.54 1010 Q1412.95 1014.11 1412.95 1023.97 Z" fill="#000000" fill-rule="nonzero" fill-opacity="1" /><path clip-path="url(#clip080)" d="M2295.78 1005.85 L2295.78 1003.48 Q2304.9 1003.48 2309.6 998.625 Q2310.9 998.625 2311.12 998.921 Q2311.34 999.217 2311.34 1000.59 L2311.34 1043.16 Q2311.34 1045.43 2312.46 1046.13 Q2313.57 1046.83 2318.42 1046.83 L2320.83 1046.83 L2320.83 1049.17 Q2318.16 1048.95 2308.53 1048.95 Q2298.89 1048.95 2296.26 1049.17 L2296.26 1046.83 L2298.67 1046.83 Q2303.45 1046.83 2304.6 1046.17 Q2305.75 1045.46 2305.75 1043.16 L2305.75 1003.85 Q2301.78 1005.85 2295.78 1005.85 Z" fill="#000000" fill-rule="nonzero" fill-opacity="1" /><path clip-path="url(#clip080)" d="M2329.95 1024.9 Q2329.95 1013.74 2332.76 1007.67 Q2336.69 998.625 2345.95 998.625 Q2347.92 998.625 2349.96 999.18 Q2352.03 999.699 2354.63 1001.74 Q2357.26 1003.78 2358.85 1007.11 Q2361.89 1013.56 2361.89 1024.9 Q2361.89 1035.98 2359.07 1042.02 Q2354.96 1050.84 2345.88 1050.84 Q2342.47 1050.84 2338.99 1049.09 Q2335.54 1047.35 2333.36 1043.16 Q2329.95 1036.9 2329.95 1024.9 M2336.25 1023.97 Q2336.25 1035.42 2337.06 1039.98 Q2337.99 1044.91 2340.51 1047.06 Q2343.06 1049.17 2345.88 1049.17 Q2348.92 1049.17 2351.44 1046.91 Q2354 1044.61 2354.77 1039.68 Q2355.63 1034.83 2355.59 1023.97 Q2355.59 1013.41 2354.85 1009.19 Q2353.85 1004.26 2351.18 1002.29 Q2348.55 1000.29 2345.88 1000.29 Q2344.88 1000.29 2343.81 1000.59 Q2342.77 1000.88 2341.25 1001.74 Q2339.73 1002.59 2338.54 1004.7 Q2337.39 1006.81 2336.84 1010 Q2336.25 1014.11 2336.25 1023.97 Z" fill="#000000" fill-rule="nonzero" fill-opacity="1" /><path clip-path="url(#clip080)" d="M2367.89 1024.9 Q2367.89 1013.74 2370.71 1007.67 Q2374.63 998.625 2383.9 998.625 Q2385.86 998.625 2387.9 999.18 Q2389.98 999.699 2392.57 1001.74 Q2395.2 1003.78 2396.79 1007.11 Q2399.83 1013.56 2399.83 1024.9 Q2399.83 1035.98 2397.02 1042.02 Q2392.9 1050.84 2383.82 1050.84 Q2380.42 1050.84 2376.93 1049.09 Q2373.49 1047.35 2371.3 1043.16 Q2367.89 1036.9 2367.89 1024.9 M2374.19 1023.97 Q2374.19 1035.42 2375.01 1039.98 Q2375.93 1044.91 2378.45 1047.06 Q2381.01 1049.17 2383.82 1049.17 Q2386.86 1049.17 2389.38 1046.91 Q2391.94 1044.61 2392.72 1039.68 Q2393.57 1034.83 2393.53 1023.97 Q2393.53 1013.41 2392.79 1009.19 Q2391.79 1004.26 2389.12 1002.29 Q2386.49 1000.29 2383.82 1000.29 Q2382.82 1000.29 2381.75 1000.59 Q2380.71 1000.88 2379.19 1001.74 Q2377.67 1002.59 2376.49 1004.7 Q2375.34 1006.81 2374.78 1010 Q2374.19 1014.11 2374.19 1023.97 Z" fill="#000000" fill-rule="nonzero" fill-opacity="1" /><path clip-path="url(#clip080)" d="M3239.53 1005.85 L3239.53 1003.48 Q3248.65 1003.48 3253.35 998.625 Q3254.65 998.625 3254.87 998.921 Q3255.1 999.217 3255.1 1000.59 L3255.1 1043.16 Q3255.1 1045.43 3256.21 1046.13 Q3257.32 1046.83 3262.17 1046.83 L3264.58 1046.83 L3264.58 1049.17 Q3261.91 1048.95 3252.28 1048.95 Q3242.65 1048.95 3240.01 1049.17 L3240.01 1046.83 L3242.42 1046.83 Q3247.2 1046.83 3248.35 1046.17 Q3249.5 1045.46 3249.5 1043.16 L3249.5 1003.85 Q3245.54 1005.85 3239.53 1005.85 Z" fill="#000000" fill-rule="nonzero" fill-opacity="1" /><path clip-path="url(#clip080)" d="M3274.51 1036.94 Q3274.51 1034.68 3275.74 1033.83 Q3276.96 1032.94 3278.26 1032.94 Q3280 1032.94 3281 1034.05 Q3282.03 1035.12 3282.03 1036.64 Q3282.03 1038.16 3281 1039.27 Q3280 1040.35 3278.26 1040.35 Q3277.4 1040.35 3276.96 1040.2 Q3277.96 1043.68 3281 1046.2 Q3284.07 1048.72 3288.11 1048.72 Q3293.19 1048.72 3296.23 1043.79 Q3298.04 1040.61 3298.04 1033.38 Q3298.04 1027.01 3296.67 1023.82 Q3294.56 1018.97 3290.22 1018.97 Q3284.07 1018.97 3280.44 1024.27 Q3280 1024.93 3279.48 1024.97 Q3278.74 1024.97 3278.55 1024.56 Q3278.4 1024.12 3278.4 1022.97 L3278.4 1000.51 Q3278.4 998.699 3279.14 998.699 Q3279.44 998.699 3280.07 998.921 Q3284.85 1001.03 3290.15 1001.07 Q3295.6 1001.07 3300.49 998.847 Q3300.86 998.625 3301.08 998.625 Q3301.82 998.625 3301.86 999.477 Q3301.86 999.773 3301.23 1000.66 Q3300.64 1001.51 3299.34 1002.66 Q3298.04 1003.78 3296.38 1004.85 Q3294.71 1005.92 3292.26 1006.67 Q3289.85 1007.37 3287.19 1007.37 Q3284 1007.37 3280.74 1006.37 L3280.74 1021.15 Q3284.67 1017.3 3290.37 1017.3 Q3296.45 1017.3 3300.64 1022.19 Q3304.82 1027.08 3304.82 1033.9 Q3304.82 1041.05 3299.86 1045.94 Q3294.93 1050.84 3288.26 1050.84 Q3282.18 1050.84 3278.33 1046.5 Q3274.51 1042.16 3274.51 1036.94 Z" fill="#000000" fill-rule="nonzero" fill-opacity="1" /><path clip-path="url(#clip080)" d="M3311.64 1024.9 Q3311.64 1013.74 3314.46 1007.67 Q3318.39 998.625 3327.65 998.625 Q3329.61 998.625 3331.65 999.18 Q3333.73 999.699 3336.32 1001.74 Q3338.95 1003.78 3340.54 1007.11 Q3343.58 1013.56 3343.58 1024.9 Q3343.58 1035.98 3340.77 1042.02 Q3336.65 1050.84 3327.58 1050.84 Q3324.17 1050.84 3320.68 1049.09 Q3317.24 1047.35 3315.05 1043.16 Q3311.64 1036.9 3311.64 1024.9 M3317.94 1023.97 Q3317.94 1035.42 3318.76 1039.98 Q3319.68 1044.91 3322.2 1047.06 Q3324.76 1049.17 3327.58 1049.17 Q3330.61 1049.17 3333.13 1046.91 Q3335.69 1044.61 3336.47 1039.68 Q3337.32 1034.83 3337.28 1023.97 Q3337.28 1013.41 3336.54 1009.19 Q3335.54 1004.26 3332.87 1002.29 Q3330.24 1000.29 3327.58 1000.29 Q3326.57 1000.29 3325.5 1000.59 Q3324.46 1000.88 3322.94 1001.74 Q3321.42 1002.59 3320.24 1004.7 Q3319.09 1006.81 3318.53 1010 Q3317.94 1014.11 3317.94 1023.97 Z" fill="#000000" fill-rule="nonzero" fill-opacity="1" /><path clip-path="url(#clip080)" d="M1987.98 1121.99 L1987.98 1119.62 Q1992.09 1119.84 1995.02 1119.84 Q1996.46 1119.84 2003.32 1119.62 L2003.32 1121.99 Q1998.83 1121.99 1998.83 1124.03 Q1998.83 1124.47 1999.2 1125.4 L2006.43 1145.67 L2012.95 1127.29 Q2011.58 1123.58 2011.21 1123.14 Q2010.28 1121.99 2006.43 1121.99 L2006.43 1119.62 Q2009.84 1119.84 2013.17 1119.84 Q2014.47 1119.84 2021.07 1119.62 L2021.07 1121.99 Q2016.58 1121.99 2016.58 1124.03 Q2016.58 1124.32 2016.95 1125.47 L2024.47 1146.63 L2031.37 1127.21 Q2031.74 1126.21 2031.77 1125.62 Q2031.77 1123.95 2030.59 1123.03 Q2029.4 1122.06 2027.37 1121.99 L2027.37 1119.62 Q2031.7 1119.84 2034.41 1119.84 Q2037.44 1119.84 2039.96 1119.62 L2039.96 1121.99 Q2035.26 1122.14 2033.59 1126.84 L2024.7 1151.74 Q2023.85 1153.11 2023.18 1153.19 Q2022.18 1153.19 2021.66 1151.74 L2013.91 1130.18 L2006.24 1151.67 Q2005.95 1152.6 2005.69 1152.89 Q2005.43 1153.19 2004.72 1153.19 Q2004.06 1153.19 2003.76 1152.78 Q2003.46 1152.41 2003.13 1151.48 L1993.57 1124.62 Q1992.9 1122.88 1991.9 1122.43 Q1990.94 1121.99 1987.98 1121.99 Z" fill="#000000" fill-rule="nonzero" fill-opacity="1" /><path clip-path="url(#clip080)" d="M2043.89 1152.34 L2043.89 1150 Q2047.93 1150 2048.86 1149.52 Q2049.78 1149 2049.78 1146.56 L2049.78 1126.14 Q2049.78 1123.32 2048.82 1122.65 Q2047.89 1121.99 2044.19 1121.99 L2044.19 1119.62 L2054.79 1118.8 L2054.79 1146.63 Q2054.79 1148.89 2055.6 1149.45 Q2056.42 1150 2060.12 1150 L2060.12 1152.34 Q2052.38 1152.11 2052.23 1152.11 Q2051.19 1152.11 2043.89 1152.34 M2047.08 1105.57 Q2047.08 1104.05 2048.23 1102.83 Q2049.41 1101.57 2051.08 1101.57 Q2052.75 1101.57 2053.93 1102.72 Q2055.12 1103.83 2055.12 1105.61 Q2055.12 1107.35 2053.93 1108.5 Q2052.75 1109.61 2051.08 1109.61 Q2049.34 1109.61 2048.19 1108.39 Q2047.08 1107.17 2047.08 1105.57 Z" fill="#000000" fill-rule="nonzero" fill-opacity="1" /><path clip-path="url(#clip080)" d="M2064.83 1152.34 L2064.83 1150 Q2068.87 1150 2069.79 1149.52 Q2070.72 1149 2070.72 1146.56 L2070.72 1126.21 Q2070.72 1123.4 2069.72 1122.69 Q2068.76 1121.99 2064.83 1121.99 L2064.83 1119.62 L2075.5 1118.8 L2075.5 1126.77 Q2079.06 1118.8 2086.73 1118.8 Q2092.43 1118.8 2094.69 1121.62 Q2096.36 1123.51 2096.7 1125.62 Q2097.07 1127.73 2097.07 1133.22 L2097.07 1147.7 Q2097.14 1149.3 2098.36 1149.67 Q2099.59 1150 2102.99 1150 L2102.99 1152.34 Q2095.25 1152.11 2094.47 1152.11 Q2093.88 1152.11 2085.91 1152.34 L2085.91 1150 Q2089.95 1150 2090.88 1149.52 Q2091.84 1149 2091.84 1146.56 L2091.84 1128.88 Q2091.84 1125.03 2090.66 1122.77 Q2089.47 1120.47 2086.21 1120.47 Q2082.28 1120.47 2079.13 1123.77 Q2075.98 1127.06 2075.98 1132.62 L2075.98 1146.56 Q2075.98 1149 2076.91 1149.52 Q2077.87 1150 2081.87 1150 L2081.87 1152.34 Q2074.13 1152.11 2073.39 1152.11 Q2072.79 1152.11 2064.83 1152.34 Z" fill="#000000" fill-rule="nonzero" fill-opacity="1" /><path clip-path="url(#clip080)" d="M2107.07 1136.03 Q2107.07 1128.81 2112.11 1123.8 Q2117.15 1118.8 2123.97 1118.8 Q2129.75 1118.8 2133.53 1123.51 L2133.53 1107.09 Q2133.53 1104.28 2132.53 1103.57 Q2131.56 1102.87 2127.64 1102.87 L2127.64 1100.5 L2138.57 1099.68 L2138.57 1145.74 Q2138.57 1148.56 2139.53 1149.3 Q2140.53 1150 2144.46 1150 L2144.46 1152.34 L2133.31 1153.19 L2133.31 1148.15 Q2129.38 1153.15 2123.15 1153.19 Q2116.63 1153.19 2111.85 1148.19 Q2107.07 1143.18 2107.07 1136.03 M2113.37 1136.11 Q2113.37 1143.15 2115.56 1146.63 Q2118.59 1151.48 2123.52 1151.48 Q2129.16 1151.48 2132.49 1146.18 Q2133.34 1144.89 2133.31 1143.37 L2133.31 1127.81 Q2133.31 1126.29 2132.49 1125.03 Q2129.38 1120.47 2124.3 1120.47 Q2119 1120.47 2115.7 1125.32 Q2113.37 1128.95 2113.37 1136.11 Z" fill="#000000" fill-rule="nonzero" fill-opacity="1" /><path clip-path="url(#clip080)" d="M2153.69 1148.26 Q2148.68 1143.29 2148.68 1136.11 Q2148.68 1128.88 2153.57 1123.62 Q2158.5 1118.32 2165.54 1118.32 Q2172.44 1118.32 2177.36 1123.58 Q2182.33 1128.81 2182.33 1136.11 Q2182.33 1143.26 2177.33 1148.22 Q2172.36 1153.19 2165.47 1153.19 Q2158.73 1153.19 2153.69 1148.26 M2154.98 1135.48 Q2154.98 1142.85 2156.91 1146.18 Q2159.87 1151.26 2165.54 1151.26 Q2168.36 1151.26 2170.69 1149.74 Q2173.07 1148.22 2174.36 1145.67 Q2176.03 1142.33 2176.03 1135.48 Q2176.03 1128.18 2174.03 1124.95 Q2171.06 1120.02 2165.47 1120.02 Q2163.02 1120.02 2160.62 1121.32 Q2158.24 1122.58 2156.8 1125.1 Q2154.98 1128.44 2154.98 1135.48 Z" fill="#000000" fill-rule="nonzero" fill-opacity="1" /><path clip-path="url(#clip080)" d="M2183.77 1121.99 L2183.77 1119.62 Q2187.89 1119.84 2190.82 1119.84 Q2192.26 1119.84 2199.12 1119.62 L2199.12 1121.99 Q2194.63 1121.99 2194.63 1124.03 Q2194.63 1124.47 2195 1125.4 L2202.23 1145.67 L2208.75 1127.29 Q2207.38 1123.58 2207.01 1123.14 Q2206.08 1121.99 2202.23 1121.99 L2202.23 1119.62 Q2205.64 1119.84 2208.97 1119.84 Q2210.27 1119.84 2216.86 1119.62 L2216.86 1121.99 Q2212.38 1121.99 2212.38 1124.03 Q2212.38 1124.32 2212.75 1125.47 L2220.27 1146.63 L2227.17 1127.21 Q2227.54 1126.21 2227.57 1125.62 Q2227.57 1123.95 2226.39 1123.03 Q2225.2 1122.06 2223.16 1121.99 L2223.16 1119.62 Q2227.5 1119.84 2230.2 1119.84 Q2233.24 1119.84 2235.76 1119.62 L2235.76 1121.99 Q2231.06 1122.14 2229.39 1126.84 L2220.5 1151.74 Q2219.64 1153.11 2218.98 1153.19 Q2217.98 1153.19 2217.46 1151.74 L2209.71 1130.18 L2202.04 1151.67 Q2201.75 1152.6 2201.49 1152.89 Q2201.23 1153.19 2200.52 1153.19 Q2199.86 1153.19 2199.56 1152.78 Q2199.26 1152.41 2198.93 1151.48 L2189.37 1124.62 Q2188.7 1122.88 2187.7 1122.43 Q2186.74 1121.99 2183.77 1121.99 Z" fill="#000000" fill-rule="nonzero" fill-opacity="1" /><polyline clip-path="url(#clip080)" style="stroke:#000000; stroke-linecap:round; stroke-linejoin:round; stroke-width:4; stroke-opacity:1; fill:none" points="381.219,952.368 381.219,86.3201 "/>
<polyline clip-path="url(#clip080)" style="stroke:#000000; stroke-linecap:round; stroke-linejoin:round; stroke-width:4; stroke-opacity:1; fill:none" points="381.219,927.857 400.116,927.857 "/>
<polyline clip-path="url(#clip080)" style="stroke:#000000; stroke-linecap:round; stroke-linejoin:round; stroke-width:4; stroke-opacity:1; fill:none" points="381.219,723.6 400.116,723.6 "/>
<polyline clip-path="url(#clip080)" style="stroke:#000000; stroke-linecap:round; stroke-linejoin:round; stroke-width:4; stroke-opacity:1; fill:none" points="381.219,519.344 400.116,519.344 "/>
<polyline clip-path="url(#clip080)" style="stroke:#000000; stroke-linecap:round; stroke-linejoin:round; stroke-width:4; stroke-opacity:1; fill:none" points="381.219,315.087 400.116,315.087 "/>
<polyline clip-path="url(#clip080)" style="stroke:#000000; stroke-linecap:round; stroke-linejoin:round; stroke-width:4; stroke-opacity:1; fill:none" points="381.219,110.831 400.116,110.831 "/>
<path clip-path="url(#clip080)" d="M192.304 929.506 Q192.304 918.352 195.121 912.275 Q199.048 903.234 208.312 903.234 Q210.276 903.234 212.314 903.79 Q214.389 904.308 216.983 906.346 Q219.614 908.384 221.207 911.719 Q224.246 918.167 224.246 929.506 Q224.246 940.585 221.43 946.625 Q217.317 955.444 208.238 955.444 Q204.829 955.444 201.346 953.703 Q197.9 951.961 195.713 947.774 Q192.304 941.512 192.304 929.506 M198.604 928.579 Q198.604 940.029 199.419 944.587 Q200.345 949.516 202.865 951.665 Q205.422 953.777 208.238 953.777 Q211.277 953.777 213.796 951.516 Q216.353 949.219 217.131 944.291 Q217.984 939.437 217.946 928.579 Q217.946 918.019 217.205 913.794 Q216.205 908.866 213.537 906.902 Q210.906 904.901 208.238 904.901 Q207.238 904.901 206.163 905.198 Q205.125 905.494 203.606 906.346 Q202.087 907.199 200.901 909.311 Q199.752 911.423 199.197 914.61 Q198.604 918.723 198.604 928.579 Z" fill="#000000" fill-rule="nonzero" fill-opacity="1" /><path clip-path="url(#clip080)" d="M234.881 952.554 Q233.732 951.331 233.732 949.738 Q233.732 948.144 234.881 946.996 Q236.029 945.81 237.771 945.81 Q239.438 945.81 240.55 946.922 Q241.699 947.996 241.699 949.775 Q241.699 951.516 240.476 952.665 Q239.29 953.777 237.771 953.777 Q236.029 953.777 234.881 952.554 Z" fill="#000000" fill-rule="nonzero" fill-opacity="1" /><path clip-path="url(#clip080)" d="M251.333 929.506 Q251.333 918.352 254.149 912.275 Q258.077 903.234 267.341 903.234 Q269.305 903.234 271.343 903.79 Q273.418 904.308 276.012 906.346 Q278.643 908.384 280.236 911.719 Q283.274 918.167 283.274 929.506 Q283.274 940.585 280.458 946.625 Q276.345 955.444 267.267 955.444 Q263.858 955.444 260.374 953.703 Q256.928 951.961 254.742 947.774 Q251.333 941.512 251.333 929.506 M257.632 928.579 Q257.632 940.029 258.448 944.587 Q259.374 949.516 261.894 951.665 Q264.451 953.777 267.267 953.777 Q270.305 953.777 272.825 951.516 Q275.382 949.219 276.16 944.291 Q277.012 939.437 276.975 928.579 Q276.975 918.019 276.234 913.794 Q275.234 908.866 272.566 906.902 Q269.935 904.901 267.267 904.901 Q266.266 904.901 265.192 905.198 Q264.154 905.494 262.635 906.346 Q261.116 907.199 259.93 909.311 Q258.781 911.423 258.225 914.61 Q257.632 918.723 257.632 928.579 Z" fill="#000000" fill-rule="nonzero" fill-opacity="1" /><path clip-path="url(#clip080)" d="M289.277 929.506 Q289.277 918.352 292.094 912.275 Q296.021 903.234 305.285 903.234 Q307.249 903.234 309.287 903.79 Q311.362 904.308 313.956 906.346 Q316.587 908.384 318.18 911.719 Q321.219 918.167 321.219 929.506 Q321.219 940.585 318.403 946.625 Q314.29 955.444 305.211 955.444 Q301.802 955.444 298.319 953.703 Q294.873 951.961 292.686 947.774 Q289.277 941.512 289.277 929.506 M295.577 928.579 Q295.577 940.029 296.392 944.587 Q297.318 949.516 299.838 951.665 Q302.395 953.777 305.211 953.777 Q308.25 953.777 310.769 951.516 Q313.326 949.219 314.104 944.291 Q314.957 939.437 314.92 928.579 Q314.92 918.019 314.178 913.794 Q313.178 908.866 310.51 906.902 Q307.879 904.901 305.211 904.901 Q304.211 904.901 303.136 905.198 Q302.098 905.494 300.579 906.346 Q299.06 907.199 297.874 909.311 Q296.725 911.423 296.17 914.61 Q295.577 918.723 295.577 928.579 Z" fill="#000000" fill-rule="nonzero" fill-opacity="1" /><path clip-path="url(#clip080)" d="M193.12 725.249 Q193.12 714.096 195.936 708.019 Q199.864 698.977 209.127 698.977 Q211.091 698.977 213.129 699.533 Q215.204 700.052 217.798 702.09 Q220.429 704.128 222.023 707.463 Q225.061 713.91 225.061 725.249 Q225.061 736.329 222.245 742.369 Q218.132 751.188 209.053 751.188 Q205.644 751.188 202.161 749.446 Q198.715 747.705 196.529 743.517 Q193.12 737.255 193.12 725.249 M199.419 724.323 Q199.419 735.773 200.234 740.331 Q201.161 745.259 203.68 747.408 Q206.237 749.52 209.053 749.52 Q212.092 749.52 214.612 747.26 Q217.168 744.963 217.946 740.034 Q218.799 735.18 218.762 724.323 Q218.762 713.762 218.021 709.538 Q217.02 704.61 214.352 702.646 Q211.721 700.645 209.053 700.645 Q208.053 700.645 206.978 700.941 Q205.941 701.238 204.421 702.09 Q202.902 702.942 201.716 705.054 Q200.568 707.166 200.012 710.353 Q199.419 714.466 199.419 724.323 Z" fill="#000000" fill-rule="nonzero" fill-opacity="1" /><path clip-path="url(#clip080)" d="M235.696 748.298 Q234.547 747.075 234.547 745.481 Q234.547 743.888 235.696 742.739 Q236.845 741.554 238.586 741.554 Q240.254 741.554 241.365 742.665 Q242.514 743.74 242.514 745.518 Q242.514 747.26 241.291 748.409 Q240.105 749.52 238.586 749.52 Q236.845 749.52 235.696 748.298 Z" fill="#000000" fill-rule="nonzero" fill-opacity="1" /><path clip-path="url(#clip080)" d="M252.963 749.52 Q252.963 748.149 253.075 747.742 Q253.223 747.334 253.816 746.704 L268.378 730.474 Q276.345 721.507 276.345 713.688 Q276.345 708.612 273.677 704.98 Q271.046 701.349 266.192 701.349 Q262.857 701.349 260.041 703.387 Q257.225 705.425 255.928 709.056 Q256.15 708.982 256.928 708.982 Q258.818 708.982 259.856 710.168 Q260.93 711.354 260.93 712.947 Q260.93 714.985 259.596 715.986 Q258.299 716.949 257.002 716.949 Q256.484 716.949 255.78 716.838 Q255.113 716.727 254.038 715.689 Q252.963 714.615 252.963 712.725 Q252.963 707.426 256.965 703.202 Q261.004 698.977 267.156 698.977 Q274.122 698.977 278.68 703.127 Q283.274 707.241 283.274 713.688 Q283.274 715.948 282.57 718.024 Q281.903 720.062 280.977 721.655 Q280.088 723.248 277.642 725.805 Q275.197 728.362 273.233 730.178 Q271.269 731.993 266.859 735.847 L258.818 743.666 L272.491 743.666 Q279.161 743.666 279.68 743.073 Q280.421 741.998 281.348 736.329 L283.274 736.329 L281.125 749.52 L252.963 749.52 Z" fill="#000000" fill-rule="nonzero" fill-opacity="1" /><path clip-path="url(#clip080)" d="M290.908 737.292 Q290.908 735.032 292.131 734.18 Q293.353 733.29 294.65 733.29 Q296.392 733.29 297.392 734.402 Q298.43 735.476 298.43 736.996 Q298.43 738.515 297.392 739.627 Q296.392 740.701 294.65 740.701 Q293.798 740.701 293.353 740.553 Q294.354 744.036 297.392 746.556 Q300.468 749.076 304.507 749.076 Q309.584 749.076 312.622 744.147 Q314.438 740.961 314.438 733.735 Q314.438 727.361 313.067 724.175 Q310.955 719.321 306.619 719.321 Q300.468 719.321 296.837 724.619 Q296.392 725.286 295.873 725.323 Q295.132 725.323 294.947 724.916 Q294.799 724.471 294.799 723.322 L294.799 700.867 Q294.799 699.051 295.54 699.051 Q295.836 699.051 296.466 699.274 Q301.246 701.386 306.545 701.423 Q311.992 701.423 316.883 699.2 Q317.254 698.977 317.476 698.977 Q318.217 698.977 318.254 699.83 Q318.254 700.126 317.625 701.015 Q317.032 701.868 315.735 703.016 Q314.438 704.128 312.77 705.203 Q311.103 706.277 308.657 707.018 Q306.249 707.722 303.581 707.722 Q300.394 707.722 297.133 706.722 L297.133 721.507 Q301.061 717.653 306.767 717.653 Q312.844 717.653 317.032 722.544 Q321.219 727.436 321.219 734.254 Q321.219 741.405 316.253 746.297 Q311.325 751.188 304.655 751.188 Q298.578 751.188 294.725 746.852 Q290.908 742.517 290.908 737.292 Z" fill="#000000" fill-rule="nonzero" fill-opacity="1" /><path clip-path="url(#clip080)" d="M192.304 520.993 Q192.304 509.839 195.121 503.762 Q199.048 494.721 208.312 494.721 Q210.276 494.721 212.314 495.277 Q214.389 495.795 216.983 497.833 Q219.614 499.871 221.207 503.206 Q224.246 509.654 224.246 520.993 Q224.246 532.072 221.43 538.112 Q217.317 546.931 208.238 546.931 Q204.829 546.931 201.346 545.19 Q197.9 543.448 195.713 539.261 Q192.304 532.999 192.304 520.993 M198.604 520.066 Q198.604 531.516 199.419 536.074 Q200.345 541.003 202.865 543.152 Q205.422 545.264 208.238 545.264 Q211.277 545.264 213.796 543.004 Q216.353 540.706 217.131 535.778 Q217.984 530.924 217.946 520.066 Q217.946 509.506 217.205 505.281 Q216.205 500.353 213.537 498.389 Q210.906 496.388 208.238 496.388 Q207.238 496.388 206.163 496.685 Q205.125 496.981 203.606 497.833 Q202.087 498.686 200.901 500.798 Q199.752 502.91 199.197 506.097 Q198.604 510.21 198.604 520.066 Z" fill="#000000" fill-rule="nonzero" fill-opacity="1" /><path clip-path="url(#clip080)" d="M234.881 544.041 Q233.732 542.818 233.732 541.225 Q233.732 539.632 234.881 538.483 Q236.029 537.297 237.771 537.297 Q239.438 537.297 240.55 538.409 Q241.699 539.483 241.699 541.262 Q241.699 543.004 240.476 544.152 Q239.29 545.264 237.771 545.264 Q236.029 545.264 234.881 544.041 Z" fill="#000000" fill-rule="nonzero" fill-opacity="1" /><path clip-path="url(#clip080)" d="M252.148 533.036 Q252.148 530.775 253.371 529.923 Q254.594 529.034 255.891 529.034 Q257.632 529.034 258.633 530.145 Q259.67 531.22 259.67 532.739 Q259.67 534.259 258.633 535.37 Q257.632 536.445 255.891 536.445 Q255.039 536.445 254.594 536.297 Q255.594 539.78 258.633 542.299 Q261.708 544.819 265.747 544.819 Q270.824 544.819 273.863 539.891 Q275.678 536.704 275.678 529.478 Q275.678 523.105 274.307 519.918 Q272.195 515.064 267.86 515.064 Q261.708 515.064 258.077 520.363 Q257.632 521.03 257.114 521.067 Q256.373 521.067 256.187 520.659 Q256.039 520.215 256.039 519.066 L256.039 496.611 Q256.039 494.795 256.78 494.795 Q257.077 494.795 257.707 495.017 Q262.487 497.129 267.785 497.166 Q273.233 497.166 278.124 494.943 Q278.494 494.721 278.717 494.721 Q279.458 494.721 279.495 495.573 Q279.495 495.87 278.865 496.759 Q278.272 497.611 276.975 498.76 Q275.678 499.871 274.011 500.946 Q272.343 502.021 269.898 502.762 Q267.489 503.466 264.821 503.466 Q261.634 503.466 258.374 502.465 L258.374 517.25 Q262.301 513.397 268.008 513.397 Q274.085 513.397 278.272 518.288 Q282.459 523.179 282.459 529.997 Q282.459 537.149 277.494 542.04 Q272.566 546.931 265.896 546.931 Q259.819 546.931 255.965 542.596 Q252.148 538.26 252.148 533.036 Z" fill="#000000" fill-rule="nonzero" fill-opacity="1" /><path clip-path="url(#clip080)" d="M289.277 520.993 Q289.277 509.839 292.094 503.762 Q296.021 494.721 305.285 494.721 Q307.249 494.721 309.287 495.277 Q311.362 495.795 313.956 497.833 Q316.587 499.871 318.18 503.206 Q321.219 509.654 321.219 520.993 Q321.219 532.072 318.403 538.112 Q314.29 546.931 305.211 546.931 Q301.802 546.931 298.319 545.19 Q294.873 543.448 292.686 539.261 Q289.277 532.999 289.277 520.993 M295.577 520.066 Q295.577 531.516 296.392 536.074 Q297.318 541.003 299.838 543.152 Q302.395 545.264 305.211 545.264 Q308.25 545.264 310.769 543.004 Q313.326 540.706 314.104 535.778 Q314.957 530.924 314.92 520.066 Q314.92 509.506 314.178 505.281 Q313.178 500.353 310.51 498.389 Q307.879 496.388 305.211 496.388 Q304.211 496.388 303.136 496.685 Q302.098 496.981 300.579 497.833 Q299.06 498.686 297.874 500.798 Q296.725 502.91 296.17 506.097 Q295.577 510.21 295.577 520.066 Z" fill="#000000" fill-rule="nonzero" fill-opacity="1" /><path clip-path="url(#clip080)" d="M193.12 316.736 Q193.12 305.583 195.936 299.506 Q199.864 290.464 209.127 290.464 Q211.091 290.464 213.129 291.02 Q215.204 291.539 217.798 293.577 Q220.429 295.615 222.023 298.95 Q225.061 305.397 225.061 316.736 Q225.061 327.816 222.245 333.856 Q218.132 342.675 209.053 342.675 Q205.644 342.675 202.161 340.933 Q198.715 339.192 196.529 335.004 Q193.12 328.742 193.12 316.736 M199.419 315.81 Q199.419 327.26 200.234 331.818 Q201.161 336.746 203.68 338.895 Q206.237 341.007 209.053 341.007 Q212.092 341.007 214.612 338.747 Q217.168 336.45 217.946 331.521 Q218.799 326.667 218.762 315.81 Q218.762 305.249 218.021 301.025 Q217.02 296.097 214.352 294.133 Q211.721 292.132 209.053 292.132 Q208.053 292.132 206.978 292.428 Q205.941 292.725 204.421 293.577 Q202.902 294.429 201.716 296.541 Q200.568 298.653 200.012 301.84 Q199.419 305.953 199.419 315.81 Z" fill="#000000" fill-rule="nonzero" fill-opacity="1" /><path clip-path="url(#clip080)" d="M235.696 339.785 Q234.547 338.562 234.547 336.968 Q234.547 335.375 235.696 334.226 Q236.845 333.041 238.586 333.041 Q240.254 333.041 241.365 334.152 Q242.514 335.227 242.514 337.005 Q242.514 338.747 241.291 339.896 Q240.105 341.007 238.586 341.007 Q236.845 341.007 235.696 339.785 Z" fill="#000000" fill-rule="nonzero" fill-opacity="1" /><path clip-path="url(#clip080)" d="M253.445 305.323 L255.928 289.723 L257.818 289.723 Q258.04 290.65 258.411 291.057 Q258.818 291.465 260.967 291.798 Q263.154 292.132 267.563 292.132 L285.98 292.132 Q285.98 293.873 285.313 294.8 L275.048 309.214 Q271.787 313.772 270.342 322.183 Q269.49 327.816 269.527 334.634 L269.527 338.488 Q269.527 342.675 266.007 342.675 Q262.524 342.675 262.524 338.488 Q262.524 323.999 271.862 309.955 Q272.862 308.51 276.53 303.359 Q280.236 298.209 280.384 297.986 L264.673 297.986 Q257.781 297.986 257.225 298.431 Q256.484 299.098 255.335 305.323 L253.445 305.323 Z" fill="#000000" fill-rule="nonzero" fill-opacity="1" /><path clip-path="url(#clip080)" d="M290.908 328.779 Q290.908 326.519 292.131 325.667 Q293.353 324.777 294.65 324.777 Q296.392 324.777 297.392 325.889 Q298.43 326.964 298.43 328.483 Q298.43 330.002 297.392 331.114 Q296.392 332.188 294.65 332.188 Q293.798 332.188 293.353 332.04 Q294.354 335.523 297.392 338.043 Q300.468 340.563 304.507 340.563 Q309.584 340.563 312.622 335.634 Q314.438 332.448 314.438 325.222 Q314.438 318.848 313.067 315.662 Q310.955 310.808 306.619 310.808 Q300.468 310.808 296.837 316.106 Q296.392 316.773 295.873 316.81 Q295.132 316.81 294.947 316.403 Q294.799 315.958 294.799 314.809 L294.799 292.354 Q294.799 290.538 295.54 290.538 Q295.836 290.538 296.466 290.761 Q301.246 292.873 306.545 292.91 Q311.992 292.91 316.883 290.687 Q317.254 290.464 317.476 290.464 Q318.217 290.464 318.254 291.317 Q318.254 291.613 317.625 292.502 Q317.032 293.355 315.735 294.503 Q314.438 295.615 312.77 296.69 Q311.103 297.764 308.657 298.505 Q306.249 299.209 303.581 299.209 Q300.394 299.209 297.133 298.209 L297.133 312.994 Q301.061 309.14 306.767 309.14 Q312.844 309.14 317.032 314.031 Q321.219 318.923 321.219 325.741 Q321.219 332.892 316.253 337.784 Q311.325 342.675 304.655 342.675 Q298.578 342.675 294.725 338.339 Q290.908 334.004 290.908 328.779 Z" fill="#000000" fill-rule="nonzero" fill-opacity="1" /><path clip-path="url(#clip080)" d="M196.084 93.4336 L196.084 91.062 Q205.2 91.062 209.906 86.2078 Q211.202 86.2078 211.425 86.5043 Q211.647 86.8007 211.647 88.1717 L211.647 130.748 Q211.647 133.008 212.759 133.712 Q213.87 134.416 218.725 134.416 L221.133 134.416 L221.133 136.751 Q218.465 136.529 208.831 136.529 Q199.197 136.529 196.566 136.751 L196.566 134.416 L198.974 134.416 Q203.754 134.416 204.903 133.749 Q206.052 133.045 206.052 130.748 L206.052 91.4326 Q202.087 93.4336 196.084 93.4336 Z" fill="#000000" fill-rule="nonzero" fill-opacity="1" /><path clip-path="url(#clip080)" d="M234.881 135.528 Q233.732 134.305 233.732 132.712 Q233.732 131.119 234.881 129.97 Q236.029 128.784 237.771 128.784 Q239.438 128.784 240.55 129.896 Q241.699 130.97 241.699 132.749 Q241.699 134.491 240.476 135.639 Q239.29 136.751 237.771 136.751 Q236.029 136.751 234.881 135.528 Z" fill="#000000" fill-rule="nonzero" fill-opacity="1" /><path clip-path="url(#clip080)" d="M251.333 112.48 Q251.333 101.326 254.149 95.2493 Q258.077 86.2078 267.341 86.2078 Q269.305 86.2078 271.343 86.7637 Q273.418 87.2824 276.012 89.3205 Q278.643 91.3585 280.236 94.6934 Q283.274 101.141 283.274 112.48 Q283.274 123.559 280.458 129.599 Q276.345 138.418 267.267 138.418 Q263.858 138.418 260.374 136.677 Q256.928 134.935 254.742 130.748 Q251.333 124.486 251.333 112.48 M257.632 111.553 Q257.632 123.003 258.448 127.561 Q259.374 132.49 261.894 134.639 Q264.451 136.751 267.267 136.751 Q270.305 136.751 272.825 134.491 Q275.382 132.193 276.16 127.265 Q277.012 122.411 276.975 111.553 Q276.975 100.993 276.234 96.7685 Q275.234 91.8402 272.566 89.8763 Q269.935 87.8753 267.267 87.8753 Q266.266 87.8753 265.192 88.1717 Q264.154 88.4682 262.635 89.3205 Q261.116 90.1727 259.93 92.2849 Q258.781 94.397 258.225 97.5837 Q257.632 101.697 257.632 111.553 Z" fill="#000000" fill-rule="nonzero" fill-opacity="1" /><path clip-path="url(#clip080)" d="M289.277 112.48 Q289.277 101.326 292.094 95.2493 Q296.021 86.2078 305.285 86.2078 Q307.249 86.2078 309.287 86.7637 Q311.362 87.2824 313.956 89.3205 Q316.587 91.3585 318.18 94.6934 Q321.219 101.141 321.219 112.48 Q321.219 123.559 318.403 129.599 Q314.29 138.418 305.211 138.418 Q301.802 138.418 298.319 136.677 Q294.873 134.935 292.686 130.748 Q289.277 124.486 289.277 112.48 M295.577 111.553 Q295.577 123.003 296.392 127.561 Q297.318 132.49 299.838 134.639 Q302.395 136.751 305.211 136.751 Q308.25 136.751 310.769 134.491 Q313.326 132.193 314.104 127.265 Q314.957 122.411 314.92 111.553 Q314.92 100.993 314.178 96.7685 Q313.178 91.8402 310.51 89.8763 Q307.879 87.8753 305.211 87.8753 Q304.211 87.8753 303.136 88.1717 Q302.098 88.4682 300.579 89.3205 Q299.06 90.1727 297.874 92.2849 Q296.725 94.397 296.17 97.5837 Q295.577 101.697 295.577 111.553 Z" fill="#000000" fill-rule="nonzero" fill-opacity="1" /><path clip-path="url(#clip080)" d="M109.527 751.735 Q103.079 751.735 99.67 744.138 Q97.4838 739.581 96.9279 730.169 L94.1488 730.169 Q89.4428 730.169 86.9601 732.651 Q84.4404 735.097 84.4404 738.209 Q84.4404 743.768 87.9236 746.436 Q87.9977 744.175 89.1464 743.36 Q90.258 742.545 91.4067 742.545 Q92.926 742.545 93.9265 743.508 Q94.8899 744.435 94.8899 746.028 Q94.8899 747.547 93.9635 748.548 Q93.0001 749.548 91.3326 749.548 Q87.6271 749.548 85.1815 746.213 Q82.7359 742.841 82.7359 738.061 Q82.7359 731.836 86.9231 727.686 Q88.22 726.389 89.8875 725.759 Q91.555 725.092 92.6666 725.018 Q93.7412 724.944 95.8904 724.944 L111.046 724.944 Q111.491 724.944 112.232 724.796 Q112.973 724.647 113.936 723.98 Q114.863 723.276 114.863 722.128 Q114.863 719.386 110.008 719.423 L105.747 719.423 L105.747 717.496 L110.008 717.496 Q114.047 717.496 115.641 719.645 Q117.197 721.757 117.197 723.721 Q117.197 726.241 115.344 727.834 Q113.492 729.427 110.972 729.65 Q113.862 730.798 115.752 733.429 Q117.605 736.023 117.605 739.581 Q117.605 742.323 116.901 744.916 Q116.234 747.473 114.344 749.622 Q112.417 751.735 109.527 751.735 M109.453 745.88 Q112.269 745.88 114.084 743.879 Q115.9 741.878 115.9 739.062 Q115.9 735.875 113.454 733.022 Q110.972 730.169 106.118 730.169 L98.5213 730.169 Q98.8177 738.58 102.19 742.248 Q105.525 745.88 109.453 745.88 Z" fill="#000000" fill-rule="nonzero" fill-opacity="1" /><path clip-path="url(#clip080)" d="M116.752 714.531 L114.418 714.531 Q114.418 710.492 113.936 709.566 Q113.417 708.64 110.972 708.64 L90.6286 708.64 Q87.8124 708.64 87.1083 709.64 Q86.4043 710.603 86.4043 714.531 L84.0328 714.531 L83.2176 703.859 L91.1844 703.859 Q83.2176 700.302 83.2176 692.632 Q83.2176 686.925 86.0338 684.665 Q87.9236 682.997 90.0357 682.664 Q92.1478 682.293 97.632 682.293 L112.12 682.293 Q113.714 682.219 114.084 680.996 Q114.418 679.774 114.418 676.365 L116.752 676.365 Q116.53 684.109 116.53 684.887 Q116.53 685.48 116.752 693.447 L114.418 693.447 Q114.418 689.408 113.936 688.482 Q113.417 687.518 110.972 687.518 L93.2965 687.518 Q89.4428 687.518 87.1825 688.704 Q84.885 689.89 84.885 693.151 Q84.885 697.078 88.1829 700.228 Q91.4808 703.378 97.0391 703.378 L110.972 703.378 Q113.417 703.378 113.936 702.451 Q114.418 701.488 114.418 697.486 L116.752 697.486 Q116.53 705.23 116.53 705.972 Q116.53 706.564 116.752 714.531 Z" fill="#000000" fill-rule="nonzero" fill-opacity="1" /><path clip-path="url(#clip080)" d="M112.676 667.768 Q107.711 672.77 100.522 672.77 Q93.2965 672.77 88.0347 667.879 Q82.7359 662.951 82.7359 655.91 Q82.7359 649.018 87.9977 644.09 Q93.2224 639.124 100.522 639.124 Q107.674 639.124 112.639 644.127 Q117.605 649.092 117.605 655.984 Q117.605 662.728 112.676 667.768 M99.8923 666.471 Q107.266 666.471 110.601 664.544 Q115.678 661.58 115.678 655.91 Q115.678 653.094 114.159 650.76 Q112.639 648.388 110.082 647.091 Q106.748 645.424 99.8923 645.424 Q92.5925 645.424 89.3687 647.425 Q84.4404 650.389 84.4404 655.984 Q84.4404 658.43 85.7373 660.839 Q86.9972 663.21 89.5169 664.655 Q92.8519 666.471 99.8923 666.471 Z" fill="#000000" fill-rule="nonzero" fill-opacity="1" /><path clip-path="url(#clip080)" d="M116.752 634.492 L114.418 634.492 Q114.418 630.453 113.936 629.527 Q113.417 628.601 110.972 628.601 L90.6286 628.601 Q87.8124 628.601 87.1083 629.601 Q86.4043 630.565 86.4043 634.492 L84.0328 634.492 L83.2176 623.821 L91.1844 623.821 Q83.2176 620.263 83.2176 612.593 Q83.2176 603.7 90.6286 602.477 Q87.7383 601.18 85.4779 598.475 Q83.2176 595.733 83.2176 591.472 Q83.2176 585.765 86.0338 583.505 Q87.9236 581.837 90.0357 581.504 Q92.1478 581.17 97.632 581.17 L112.12 581.17 Q113.714 581.096 114.084 579.873 Q114.418 578.65 114.418 575.241 L116.752 575.241 Q116.53 582.986 116.53 583.727 Q116.53 584.32 116.752 592.324 L114.418 592.324 Q114.418 588.285 113.936 587.358 Q113.417 586.395 110.972 586.395 L93.2965 586.395 Q89.4428 586.395 87.1825 587.581 Q84.885 588.766 84.885 592.027 Q84.885 595.955 88.1829 599.105 Q91.4808 602.255 97.0391 602.255 L110.972 602.255 Q113.417 602.255 113.936 601.328 Q114.418 600.365 114.418 596.326 L116.752 596.326 Q116.53 604.07 116.53 604.848 Q116.53 605.441 116.752 613.408 L114.418 613.408 Q114.418 609.369 113.936 608.443 Q113.417 607.479 110.972 607.479 L93.2965 607.479 Q89.4428 607.479 87.1825 608.665 Q84.885 609.851 84.885 613.112 Q84.885 617.039 88.1829 620.189 Q91.4808 623.339 97.0391 623.339 L110.972 623.339 Q113.417 623.339 113.936 622.412 Q114.418 621.449 114.418 617.447 L116.752 617.447 Q116.53 625.192 116.53 625.933 Q116.53 626.526 116.752 634.492 Z" fill="#000000" fill-rule="nonzero" fill-opacity="1" /><path clip-path="url(#clip080)" d="M109.527 570.572 Q103.079 570.572 99.67 562.976 Q97.4838 558.418 96.9279 549.006 L94.1488 549.006 Q89.4428 549.006 86.9601 551.489 Q84.4404 553.935 84.4404 557.047 Q84.4404 562.606 87.9236 565.274 Q87.9977 563.013 89.1464 562.198 Q90.258 561.383 91.4067 561.383 Q92.926 561.383 93.9265 562.346 Q94.8899 563.273 94.8899 564.866 Q94.8899 566.385 93.9635 567.386 Q93.0001 568.386 91.3326 568.386 Q87.6271 568.386 85.1815 565.051 Q82.7359 561.679 82.7359 556.899 Q82.7359 550.674 86.9231 546.524 Q88.22 545.227 89.8875 544.597 Q91.555 543.93 92.6666 543.856 Q93.7412 543.782 95.8904 543.782 L111.046 543.782 Q111.491 543.782 112.232 543.633 Q112.973 543.485 113.936 542.818 Q114.863 542.114 114.863 540.965 Q114.863 538.223 110.008 538.26 L105.747 538.26 L105.747 536.334 L110.008 536.334 Q114.047 536.334 115.641 538.483 Q117.197 540.595 117.197 542.559 Q117.197 545.079 115.344 546.672 Q113.492 548.265 110.972 548.488 Q113.862 549.636 115.752 552.267 Q117.605 554.861 117.605 558.418 Q117.605 561.16 116.901 563.754 Q116.234 566.311 114.344 568.46 Q112.417 570.572 109.527 570.572 M109.453 564.718 Q112.269 564.718 114.084 562.717 Q115.9 560.716 115.9 557.9 Q115.9 554.713 113.454 551.86 Q110.972 549.006 106.118 549.006 L98.5213 549.006 Q98.8177 557.418 102.19 561.086 Q105.525 564.718 109.453 564.718 Z" fill="#000000" fill-rule="nonzero" fill-opacity="1" /><path clip-path="url(#clip080)" d="M116.752 533.295 L114.418 533.295 Q114.418 529.256 113.936 528.33 Q113.417 527.403 110.972 527.403 L71.5082 527.403 Q68.692 527.403 67.9879 528.404 Q67.2839 529.367 67.2839 533.295 L64.9124 533.295 L64.0972 522.401 L110.972 522.401 Q113.417 522.401 113.936 521.437 Q114.418 520.474 114.418 516.472 L116.752 516.472 Q116.752 517.398 116.678 519.325 Q116.604 521.252 116.567 522.66 Q116.53 524.068 116.53 524.884 Q116.53 525.773 116.752 533.295 Z" fill="#000000" fill-rule="nonzero" fill-opacity="1" /><path clip-path="url(#clip080)" d="M126.164 513.359 Q124.571 513.359 123.719 512.433 Q122.904 511.47 122.904 510.173 Q122.904 508.802 123.756 507.912 Q124.645 506.986 126.09 506.986 Q128.906 506.986 129.277 509.95 Q130.648 508.505 130.648 506.393 Q130.648 504.133 128.981 502.317 Q127.313 500.464 125.72 499.686 Q124.126 498.871 121.236 497.722 Q118.976 496.648 116.752 495.832 L89.0352 507.208 Q87.2195 507.949 86.8119 509.098 Q86.4043 510.247 86.4043 513.359 L84.0328 513.359 Q84.2551 509.95 84.2551 505.986 Q84.2551 503.651 84.0328 497.722 L86.4043 497.722 Q86.4043 501.984 88.3682 501.984 Q88.5905 501.984 89.7393 501.539 L110.157 493.09 L91.4808 485.42 Q90.4062 484.975 89.6651 484.975 Q86.5525 484.975 86.4043 488.533 L84.0328 488.533 Q84.2551 483.53 84.2551 481.937 Q84.2551 478.824 84.0328 476.267 L86.4043 476.267 Q86.4043 481.344 91.2585 483.308 L123.645 496.685 Q132.278 500.316 132.315 506.393 Q132.315 509.283 130.537 511.321 Q128.758 513.359 126.164 513.359 Z" fill="#000000" fill-rule="nonzero" fill-opacity="1" /><path clip-path="url(#clip080)" d="M115.752 447.068 L105.747 447.068 Q104.895 447.068 104.598 447.031 Q104.302 446.994 104.08 446.772 Q103.857 446.549 103.857 446.105 Q103.857 445.586 104.08 445.401 Q104.302 445.178 105.154 445.03 Q110.379 443.881 113.158 441.436 Q115.9 438.953 115.9 434.469 Q115.9 430.208 114.01 428.059 Q112.12 425.91 109.008 425.91 Q103.45 425.91 102.042 433.802 Q101.115 438.36 100.522 440.25 Q99.8923 442.14 98.5213 443.807 Q95.8533 447.068 92.0737 447.068 Q88.2941 447.068 85.515 444.215 Q82.7359 441.324 82.7359 434.951 Q82.7359 430.69 84.885 427.799 Q84.2181 426.947 83.6622 426.502 Q82.7359 425.502 82.7359 424.983 Q82.7359 424.39 83.1435 424.279 Q83.514 424.168 84.5886 424.168 L92.2219 424.168 Q93.0742 424.168 93.3706 424.205 Q93.6671 424.242 93.8894 424.464 Q94.0747 424.687 94.0747 425.168 Q94.0747 426.021 93.3706 426.058 Q84.181 426.651 84.181 434.951 Q84.181 439.435 85.9226 441.436 Q87.6271 443.437 89.9616 443.437 Q91.2585 443.437 92.259 442.844 Q93.2224 442.214 93.8153 441.436 Q94.3711 440.62 94.927 439.138 Q95.4457 437.656 95.631 436.767 Q95.8163 435.84 96.1868 434.099 Q97.3355 428.022 99.8182 425.465 Q103.005 422.278 107.044 422.278 Q111.528 422.278 114.566 425.317 Q117.605 428.355 117.605 434.469 Q117.605 439.398 114.307 442.844 Q114.751 443.288 115.159 443.622 Q115.53 443.955 115.678 444.104 Q115.826 444.215 115.937 444.252 Q116.011 444.289 116.085 444.363 Q117.605 445.882 117.605 446.253 Q117.605 446.846 117.197 446.957 Q116.826 447.068 115.752 447.068 Z" fill="#000000" fill-rule="nonzero" fill-opacity="1" /><path clip-path="url(#clip080)" d="M112.602 412.31 Q107.563 417.128 100.374 417.128 Q93.1483 417.128 87.9606 412.385 Q82.7359 407.641 82.7359 400.675 Q82.7359 396.043 84.9592 392.56 Q87.1454 389.077 90.888 389.077 Q92.5554 389.077 93.5189 390.077 Q94.4452 391.041 94.4452 392.56 Q94.4452 394.153 93.4818 395.117 Q92.4813 396.043 90.9621 396.043 Q90.2951 396.043 89.6281 395.821 Q88.9611 395.599 88.2571 394.783 Q87.553 393.931 87.4418 392.486 Q84.6627 395.191 84.6627 400.453 Q84.6627 400.527 84.6627 400.601 Q84.6627 404.455 88.2941 407.641 Q91.9255 410.828 100.226 410.828 Q104.561 410.828 107.748 409.791 Q110.898 408.716 112.528 406.974 Q114.159 405.233 114.937 403.528 Q115.678 401.824 115.678 400.156 Q115.678 392.708 107.711 390.189 Q106.97 389.966 106.97 389.225 Q106.97 388.225 107.711 388.225 Q108.081 388.225 109.045 388.521 Q110.008 388.817 111.528 389.744 Q113.047 390.67 114.381 392.004 Q115.678 393.301 116.641 395.636 Q117.605 397.933 117.605 400.823 Q117.605 407.493 112.602 412.31 Z" fill="#000000" fill-rule="nonzero" fill-opacity="1" /><path clip-path="url(#clip080)" d="M112.676 378.924 Q107.711 383.926 100.522 383.926 Q93.2965 383.926 88.0347 379.035 Q82.7359 374.107 82.7359 367.066 Q82.7359 360.174 87.9977 355.246 Q93.2224 350.28 100.522 350.28 Q107.674 350.28 112.639 355.283 Q117.605 360.248 117.605 367.14 Q117.605 373.884 112.676 378.924 M99.8923 377.627 Q107.266 377.627 110.601 375.7 Q115.678 372.736 115.678 367.066 Q115.678 364.25 114.159 361.916 Q112.639 359.544 110.082 358.247 Q106.748 356.58 99.8923 356.58 Q92.5925 356.58 89.3687 358.581 Q84.4404 361.545 84.4404 367.14 Q84.4404 369.586 85.7373 371.995 Q86.9972 374.366 89.5169 375.811 Q92.8519 377.627 99.8923 377.627 Z" fill="#000000" fill-rule="nonzero" fill-opacity="1" /><path clip-path="url(#clip080)" d="M116.752 345.982 L114.418 345.982 Q114.418 341.943 113.936 341.016 Q113.417 340.053 110.972 340.053 L90.6286 340.053 Q87.8124 340.053 87.1083 341.054 Q86.4043 342.017 86.4043 345.982 L84.0328 345.982 L83.2176 335.421 L91.555 335.421 Q88.2941 334.347 85.7744 332.086 Q83.2176 329.789 83.2176 326.083 Q83.2176 323.638 84.5886 322.081 Q85.9596 320.488 87.8494 320.488 Q89.5169 320.488 90.3692 321.526 Q91.1844 322.526 91.1844 323.749 Q91.1844 325.12 90.3321 326.083 Q89.4428 327.01 87.9236 327.01 Q86.9972 327.01 86.2931 326.602 Q85.552 326.157 85.2926 325.824 Q85.0333 325.49 84.9592 325.268 Q84.885 325.416 84.885 326.083 Q84.885 330.271 89.0723 332.679 Q93.2224 335.051 99.1512 335.051 L110.824 335.051 Q113.01 335.051 113.714 334.161 Q114.418 333.235 114.418 329.27 L114.418 327.677 L116.752 327.677 Q116.53 330.715 116.53 337.311 Q116.53 338.237 116.567 339.683 Q116.604 341.128 116.678 343.017 Q116.752 344.907 116.752 345.982 Z" fill="#000000" fill-rule="nonzero" fill-opacity="1" /><path clip-path="url(#clip080)" d="M100.041 316.338 Q92.8889 316.338 87.8124 311.743 Q82.7359 307.148 82.7359 300.552 Q82.7359 293.882 87.0713 290.436 Q91.4067 286.953 97.632 286.953 Q98.7807 286.953 99.003 287.25 Q99.2253 287.546 99.2253 288.843 L99.2253 310.038 Q106.97 310.038 110.601 307.741 Q115.678 304.554 115.678 299.181 Q115.678 298.44 115.53 297.551 Q115.381 296.662 114.751 294.846 Q114.084 293.03 112.343 291.437 Q110.601 289.843 107.859 288.917 Q106.785 288.695 106.822 287.954 Q106.822 286.953 107.711 286.953 Q108.378 286.953 109.897 287.694 Q111.379 288.398 113.158 289.769 Q114.937 291.14 116.271 293.808 Q117.605 296.439 117.605 299.626 Q117.605 306.296 112.565 311.335 Q107.489 316.338 100.041 316.338 M97.632 309.964 L97.632 291.956 Q96.0386 291.956 94.26 292.252 Q92.4813 292.511 90.0357 293.327 Q87.553 294.105 85.9967 295.958 Q84.4404 297.81 84.4404 300.552 Q84.4404 301.775 84.9592 303.109 Q85.4779 304.406 86.7378 305.999 Q87.9977 307.593 90.8509 308.705 Q93.7041 309.816 97.632 309.964 Z" fill="#000000" fill-rule="nonzero" fill-opacity="1" /><path clip-path="url(#clip080)" d="M1778.58 62.208 L1778.58 59.8735 Q1781.32 59.8735 1783.06 59.3548 Q1784.8 58.7989 1785.43 57.7985 Q1786.1 56.7609 1786.25 56.0939 Q1786.4 55.3899 1786.4 54.2412 L1786.4 16.2968 Q1786.4 14.1106 1785.43 13.4436 Q1784.51 12.7395 1780.39 12.7395 L1778.58 12.7395 L1778.58 10.368 L1791.4 10.368 Q1792.77 10.368 1793.14 10.6274 Q1793.51 10.8497 1794.07 12.0355 L1810.52 54.5376 L1827.12 11.8131 Q1827.49 10.7386 1827.82 10.5533 Q1828.19 10.368 1829.64 10.368 L1842.46 10.368 L1842.46 12.7395 L1840.64 12.7395 Q1836.53 12.7395 1835.57 13.4436 Q1834.64 14.1106 1834.64 16.2968 L1834.64 56.2792 Q1834.64 58.4654 1835.57 59.1695 Q1836.53 59.8735 1840.64 59.8735 L1842.46 59.8735 L1842.46 62.208 Q1839.64 61.9857 1831.6 61.9857 Q1823.49 61.9857 1820.67 62.208 L1820.67 59.8735 L1822.52 59.8735 Q1826.64 59.8735 1827.56 59.2065 Q1828.49 58.5025 1828.49 56.2792 L1828.49 12.7395 L1828.42 12.7395 L1809.78 60.7629 Q1809.26 62.208 1808.41 62.208 Q1807.48 62.208 1806.89 60.5405 L1788.58 13.3324 L1788.51 13.3324 L1788.51 54.2412 Q1788.51 55.3899 1788.66 56.0939 Q1788.8 56.7609 1789.43 57.7985 Q1790.1 58.7989 1791.84 59.3548 Q1793.59 59.8735 1796.33 59.8735 L1796.33 62.208 Q1788.36 61.9857 1787.43 61.9857 Q1786.54 61.9857 1778.58 62.208 Z" fill="#000000" fill-rule="nonzero" fill-opacity="1" /><path clip-path="url(#clip080)" d="M1847.91 62.208 L1847.91 59.8735 L1849.72 59.8735 Q1853.84 59.8735 1854.76 59.2065 Q1855.73 58.5025 1855.73 56.2792 L1855.73 16.2968 Q1855.73 14.1106 1854.76 13.4436 Q1853.8 12.7395 1849.72 12.7395 L1847.91 12.7395 L1847.91 10.368 L1874.7 10.368 Q1882.37 10.368 1887.48 14.5923 Q1892.6 18.8165 1892.6 24.486 Q1892.6 30.1183 1887.37 34.1944 Q1882.18 38.2334 1875.29 38.2334 L1862.47 38.2334 L1862.47 56.2792 Q1862.47 58.4654 1863.4 59.1695 Q1864.36 59.8735 1868.47 59.8735 L1870.29 59.8735 L1870.29 62.208 Q1867.62 61.9857 1859.06 61.9857 Q1850.58 61.9857 1847.91 62.208 M1862.25 36.2695 L1872.7 36.2695 Q1876.11 36.2695 1878.59 35.306 Q1881.07 34.3426 1882.18 33.1939 Q1883.33 32.0081 1883.96 30.1183 Q1884.63 28.1915 1884.7 27.1539 Q1884.78 26.0793 1884.78 24.486 Q1884.78 22.8185 1884.7 21.781 Q1884.63 20.7064 1883.96 18.8165 Q1883.33 16.8897 1882.18 15.741 Q1881.07 14.5552 1878.59 13.6659 Q1876.14 12.7395 1872.7 12.7395 L1865.95 12.7395 Q1863.36 12.7395 1862.8 13.2583 Q1862.25 13.7771 1862.25 15.778 L1862.25 36.2695 Z" fill="#000000" fill-rule="nonzero" fill-opacity="1" /><path clip-path="url(#clip080)" d="M1901.08 62.0598 L1901.08 46.8672 Q1901.08 46.0149 1901.12 45.7185 Q1901.16 45.4221 1901.38 45.1997 Q1901.6 44.9774 1902.05 44.9774 Q1902.9 44.9774 1902.97 45.7556 Q1903.19 53.2777 1907.68 57.4279 Q1912.09 61.541 1919.65 61.541 Q1924.2 61.541 1927.02 58.2802 Q1929.84 54.9823 1929.84 50.6839 Q1929.84 46.5708 1927.46 43.6805 Q1926.46 42.3836 1925.2 41.5683 Q1923.98 40.7161 1923.2 40.4567 Q1922.46 40.1973 1921.02 39.8268 Q1911.61 37.5664 1911.01 37.307 Q1906.53 35.7878 1903.79 31.9711 Q1901.08 28.1174 1901.08 23.4114 Q1901.08 17.3343 1905.34 13.036 Q1909.64 8.70052 1915.87 8.70052 Q1918.98 8.70052 1921.57 9.70101 Q1924.2 10.6644 1925.28 11.5538 Q1926.35 12.4431 1928.02 14.0364 L1930.65 9.70101 Q1931.24 8.70052 1931.8 8.70052 Q1932.39 8.70052 1932.5 9.07107 Q1932.65 9.40457 1932.65 10.5162 L1932.65 25.7829 Q1932.65 26.6352 1932.62 26.9316 Q1932.58 27.228 1932.32 27.4133 Q1932.1 27.5986 1931.65 27.5986 Q1930.91 27.5986 1930.73 26.7093 Q1928.61 10.8497 1915.94 10.8497 Q1911.61 10.8497 1908.75 13.7771 Q1905.94 16.6674 1905.94 20.7805 Q1905.94 24.1154 1908.01 26.8575 Q1910.09 29.5625 1913.61 30.4148 L1923.31 32.7492 Q1928.17 33.8979 1931.43 38.1963 Q1934.69 42.4947 1934.69 48.09 Q1934.69 54.5376 1930.47 59.2065 Q1926.28 63.8755 1919.72 63.8755 Q1915.01 63.8755 1911.38 62.3192 Q1907.75 60.7629 1905.79 58.5766 Q1904.27 61.0963 1903.27 62.5044 L1903.05 62.875 Q1902.45 63.8755 1901.9 63.8755 Q1901.3 63.8755 1901.19 63.5049 Q1901.08 63.1344 1901.08 62.0598 Z" fill="#000000" fill-rule="nonzero" fill-opacity="1" /><path clip-path="url(#clip080)" d="M1946.51 60.9852 Q1945.44 59.7624 1945.44 58.169 Q1945.44 56.5756 1946.47 55.3899 Q1947.55 54.1671 1949.48 54.1671 Q1951.74 54.1671 1953.03 56.3533 Q1954.33 58.5025 1954.33 62.1339 Q1954.33 66.0617 1952.74 69.6931 Q1951.14 73.3616 1949.59 75.1032 Q1948.03 76.8447 1947.4 76.8447 Q1946.66 76.8447 1946.66 76.0295 Q1946.66 75.7331 1947.18 75.1773 Q1952.63 69.3226 1952.66 62.1339 Q1952.66 60.9852 1952.51 60.9852 L1952.33 61.1334 Q1951.03 62.208 1949.48 62.208 Q1947.59 62.208 1946.51 60.9852 Z" fill="#000000" fill-rule="nonzero" fill-opacity="1" /><path clip-path="url(#clip080)" d="M1988.35 31.5635 Q1988.35 30.4889 1989.12 29.5996 Q1989.94 28.6732 1991.61 28.6732 Q1992.98 28.6732 1994.39 29.5255 Q1995.79 30.3407 1996.83 31.4523 Q1997.91 32.5269 1999.09 34.602 Q2000.28 36.64 2001.02 38.1963 Q2001.8 39.7526 2002.8 42.4577 Q2003.84 45.1256 2004.28 46.4967 Q2004.72 47.8677 2005.65 50.4616 L2016.95 30.563 Q2017.62 29.2661 2018.03 29.0067 Q2018.47 28.7473 2019.4 28.7473 L2022.18 28.7473 Q2023.85 28.7473 2023.85 29.5625 Q2023.85 29.9331 2022.96 31.6376 L2008.62 56.9091 Q2008.17 57.6502 2008.17 58.2802 Q2008.17 58.5766 2008.62 59.7624 Q2011.51 68.1739 2013.99 72.287 Q2016.51 76.4001 2019.69 76.4001 Q2019.92 76.4001 2020.4 76.363 Q2020.92 76.326 2021.14 76.326 Q2022.66 76.326 2023.33 77.2523 Q2024.03 78.2158 2024.03 79.1422 Q2024.03 80.2167 2023.18 81.1061 Q2022.36 82.0324 2020.66 82.0324 Q2019.44 82.0324 2018.25 81.5137 Q2017.1 81.032 2015.99 79.7721 Q2014.91 78.5122 2014.03 77.4376 Q2013.17 76.4001 2012.17 74.2138 Q2011.17 72.0646 2010.62 70.9159 Q2010.06 69.8043 2009.1 67.1734 Q2008.17 64.5425 2007.87 63.6902 Q2007.61 62.875 2006.73 60.2441 L1995.39 80.1797 Q1994.72 81.4766 1994.31 81.736 Q1993.9 82.0324 1992.9 82.0324 L1990.09 82.0324 Q1988.42 82.0324 1988.42 81.1802 Q1988.42 80.8837 1989.42 79.068 L2003.76 53.7965 Q2004.13 53.1295 2004.13 52.4996 Q2003.91 51.7585 2003.54 50.5357 Q2003.21 49.3128 2002.02 46.2002 Q2000.87 43.0876 1999.61 40.7161 Q1998.35 38.3075 1996.42 36.3436 Q1994.5 34.3426 1992.61 34.3426 L1991.24 34.3426 Q1989.79 34.3426 1989.05 33.5274 Q1988.35 32.7122 1988.35 31.5635 Z" fill="#000000" fill-rule="nonzero" fill-opacity="1" /><path clip-path="url(#clip080)" d="M2056.82 50.6839 Q2056.9 49.7575 2058.34 49.7575 L2104.85 49.7575 Q2107.03 49.7575 2107.07 50.6098 Q2107.07 51.5361 2105 51.4991 L2058.86 51.4991 Q2056.82 51.5361 2056.82 50.6839 M2056.82 35.8619 Q2056.82 34.9355 2058.42 34.9725 L2104.77 34.9725 Q2107.03 34.9725 2107.07 35.8619 Q2107.07 36.7141 2105.14 36.7141 L2058.34 36.7141 Q2056.82 36.7141 2056.82 35.8619 Z" fill="#000000" fill-rule="nonzero" fill-opacity="1" /><path clip-path="url(#clip080)" d="M2140.53 62.208 Q2140.53 60.837 2140.64 60.4294 Q2140.79 60.0218 2141.38 59.3918 L2155.95 43.1617 Q2163.91 34.1944 2163.91 26.3758 Q2163.91 21.2992 2161.25 17.6678 Q2158.61 14.0364 2153.76 14.0364 Q2150.43 14.0364 2147.61 16.0745 Q2144.79 18.1125 2143.5 21.7439 Q2143.72 21.6698 2144.5 21.6698 Q2146.39 21.6698 2147.42 22.8555 Q2148.5 24.0413 2148.5 25.6347 Q2148.5 27.6727 2147.16 28.6732 Q2145.87 29.6366 2144.57 29.6366 Q2144.05 29.6366 2143.35 29.5255 Q2142.68 29.4143 2141.61 28.3767 Q2140.53 27.3022 2140.53 25.4123 Q2140.53 20.1135 2144.53 15.8892 Q2148.57 11.6649 2154.72 11.6649 Q2161.69 11.6649 2166.25 15.8151 Q2170.84 19.9282 2170.84 26.3758 Q2170.84 28.6361 2170.14 30.7112 Q2169.47 32.7492 2168.54 34.3426 Q2167.66 35.936 2165.21 38.4928 Q2162.76 41.0496 2160.8 42.8653 Q2158.84 44.681 2154.43 48.5347 L2146.39 56.3533 L2160.06 56.3533 Q2166.73 56.3533 2167.25 55.7604 Q2167.99 54.6858 2168.92 49.0164 L2170.84 49.0164 L2168.69 62.208 L2140.53 62.208 Z" fill="#000000" fill-rule="nonzero" fill-opacity="1" /><path clip-path="url(#clip080)" d="M2177.66 37.9369 Q2177.66 26.7834 2180.48 20.7064 Q2184.4 11.6649 2193.67 11.6649 Q2195.63 11.6649 2197.67 12.2208 Q2199.75 12.7395 2202.34 14.7775 Q2204.97 16.8156 2206.56 20.1505 Q2209.6 26.5981 2209.6 37.9369 Q2209.6 49.0164 2206.79 55.0564 Q2202.67 63.8755 2193.59 63.8755 Q2190.19 63.8755 2186.7 62.1339 Q2183.26 60.3923 2181.07 56.2051 Q2177.66 49.9428 2177.66 37.9369 M2183.96 37.0106 Q2183.96 48.4606 2184.78 53.0184 Q2185.7 57.9467 2188.22 60.0959 Q2190.78 62.208 2193.59 62.208 Q2196.63 62.208 2199.15 59.9476 Q2201.71 57.6502 2202.49 52.7219 Q2203.34 47.8677 2203.3 37.0106 Q2203.3 26.4499 2202.56 22.2256 Q2201.56 17.2973 2198.89 15.3334 Q2196.26 13.3324 2193.59 13.3324 Q2192.59 13.3324 2191.52 13.6288 Q2190.48 13.9253 2188.96 14.7775 Q2187.44 15.6298 2186.26 17.742 Q2185.11 19.8541 2184.55 23.0408 Q2183.96 27.1539 2183.96 37.0106 Z" fill="#000000" fill-rule="nonzero" fill-opacity="1" /><path clip-path="url(#clip080)" d="M2220.24 60.9852 Q2219.16 59.7624 2219.16 58.169 Q2219.16 56.5756 2220.2 55.3899 Q2221.27 54.1671 2223.2 54.1671 Q2225.46 54.1671 2226.76 56.3533 Q2228.06 58.5025 2228.06 62.1339 Q2228.06 66.0617 2226.46 69.6931 Q2224.87 73.3616 2223.31 75.1032 Q2221.76 76.8447 2221.13 76.8447 Q2220.38 76.8447 2220.38 76.0295 Q2220.38 75.7331 2220.9 75.1773 Q2226.35 69.3226 2226.39 62.1339 Q2226.39 60.9852 2226.24 60.9852 L2226.05 61.1334 Q2224.76 62.208 2223.2 62.208 Q2221.31 62.208 2220.24 60.9852 Z" fill="#000000" fill-rule="nonzero" fill-opacity="1" /><path clip-path="url(#clip080)" d="M2261.48 45.9038 Q2261.48 38.6781 2266.52 33.6756 Q2271.56 28.6732 2278.38 28.6732 Q2284.16 28.6732 2287.94 33.3792 L2287.94 16.9638 Q2287.94 14.1476 2286.94 13.4436 Q2285.97 12.7395 2282.04 12.7395 L2282.04 10.368 L2292.98 9.55279 L2292.98 55.6122 Q2292.98 58.4284 2293.94 59.1695 Q2294.94 59.8735 2298.87 59.8735 L2298.87 62.208 L2287.71 63.0603 L2287.71 58.0208 Q2283.79 63.0232 2277.56 63.0603 Q2271.04 63.0603 2266.26 58.0578 Q2261.48 53.0554 2261.48 45.9038 M2267.78 45.9779 Q2267.78 53.0184 2269.96 56.5015 Q2273 61.3557 2277.93 61.3557 Q2283.56 61.3557 2286.9 56.0569 Q2287.75 54.7599 2287.71 53.2407 L2287.71 37.6776 Q2287.71 36.1583 2286.9 34.8984 Q2283.79 30.3407 2278.71 30.3407 Q2273.41 30.3407 2270.11 35.1949 Q2267.78 38.8263 2267.78 45.9779 Z" fill="#000000" fill-rule="nonzero" fill-opacity="1" /><path clip-path="url(#clip080)" d="M2330.55 50.6839 Q2330.62 49.7575 2332.07 49.7575 L2378.57 49.7575 Q2380.76 49.7575 2380.8 50.6098 Q2380.8 51.5361 2378.72 51.4991 L2332.59 51.4991 Q2330.55 51.5361 2330.55 50.6839 M2330.55 35.8619 Q2330.55 34.9355 2332.14 34.9725 L2378.5 34.9725 Q2380.76 34.9725 2380.8 35.8619 Q2380.8 36.7141 2378.87 36.7141 L2332.07 36.7141 Q2330.55 36.7141 2330.55 35.8619 Z" fill="#000000" fill-rule="nonzero" fill-opacity="1" /><path clip-path="url(#clip080)" d="M2413.66 50.758 Q2413.66 42.2724 2424.6 36.7882 Q2419.89 33.6015 2419.04 32.6751 Q2415.7 28.9696 2415.7 24.3377 Q2415.7 19.0389 2419.7 15.3704 Q2423.74 11.6649 2429.45 11.6649 Q2434.9 11.6649 2439.01 14.8146 Q2443.12 17.9643 2443.12 22.9667 Q2443.12 30.0072 2433.93 34.7502 Q2440.01 38.5298 2441.46 40.1232 Q2445.16 44.2363 2445.16 49.4611 Q2445.16 55.5381 2440.49 59.7253 Q2435.82 63.8755 2429.38 63.8755 Q2423.08 63.8755 2418.37 60.207 Q2413.66 56.5386 2413.66 50.758 M2417.44 50.758 Q2417.44 55.464 2420.96 58.6137 Q2424.52 61.7633 2429.45 61.7633 Q2434.23 61.7633 2437.79 59.0213 Q2441.38 56.2792 2441.38 52.2031 Q2441.38 50.6098 2440.83 49.2387 Q2440.31 47.8677 2439.23 46.7931 Q2438.19 45.6815 2437.53 45.1997 Q2436.9 44.681 2435.67 43.8287 L2426.34 37.9369 Q2417.44 42.8653 2417.44 50.758 M2419.04 21.3733 Q2419.04 25.0047 2422.85 27.5245 L2432.27 33.6015 Q2439.79 29.192 2439.79 22.9667 Q2439.79 18.9277 2436.71 16.2598 Q2433.64 13.5547 2429.38 13.5547 Q2425.19 13.5547 2422.11 15.778 Q2419.04 17.9643 2419.04 21.3733 Z" fill="#000000" fill-rule="nonzero" fill-opacity="1" /><polyline clip-path="url(#clip082)" style="stroke:#009af9; stroke-linecap:round; stroke-linejoin:round; stroke-width:4; stroke-opacity:1; fill:none" points="479.18,804.186 498.055,719.862 516.93,752.566 535.805,906.277 554.68,803.124 573.555,834.252 592.43,618.293 611.305,842.236 630.18,884.435 649.055,903.052 667.93,812.757 686.805,830.284 705.68,895.28 724.555,857.084 743.43,856.304 762.305,784.265 781.18,552.732 800.056,530.849 818.931,679.1 837.806,740.487 856.681,750.866 875.556,846.61 894.431,774.819 913.306,793.933 932.181,884.861 951.056,773.425 969.931,892.716 988.806,870.453 1007.68,904.705 1026.56,872.509 1045.43,823.899 1064.31,817.434 1083.18,846.993 1102.06,904.494 1120.93,850.679 1139.81,889.865 1158.68,858.13 1177.56,862.304 1196.43,885.44 1215.31,568.08 1234.18,803.713 1253.06,488.541 1271.93,874.302 1290.81,855.258 1309.68,875.455 1328.56,822.029 1347.43,877.212 1366.31,891.694 1385.18,867.821 1404.06,862.902 1422.93,896.191 1441.81,927.857 1460.68,906.769 1479.56,875.256 1498.43,901.331 1517.31,818.849 1536.18,632.634 1555.06,685.925 1573.93,611.883 1592.81,812.535 1611.68,896.977 1630.56,822.752 1649.43,907.484 1668.31,895.231 1687.18,815.654 1706.06,780.693 1724.93,213.125 1743.81,110.831 1762.68,888.519 1781.56,847.433 1800.43,879.005 1819.31,739.485 1838.18,857.149 1857.06,799.426 1875.93,868.289 1894.81,813.669 1913.68,869.982 1932.56,898.164 1951.43,885.752 1970.31,873.312 1989.18,733.756 2008.06,529.49 2026.93,664.374 2045.81,824.071 2064.68,866.306 2083.56,620.35 2102.43,877.663 2121.31,862.371 2140.18,825.469 2159.06,787.77 2177.93,899.77 2196.81,907.376 2215.68,892.532 2234.56,844.564 2253.43,877.042 2272.31,911.837 2291.18,903.16 2310.06,858.333 2328.93,818.199 2347.81,871.263 2366.68,893.425 2385.56,839.132 2404.43,543.272 2423.31,700.179 2442.18,573.543 2461.06,654.236 2479.93,851.661 2498.81,652.792 2517.68,872.354 2536.56,885.267 2555.43,851.898 2574.31,849.419 2593.18,893.212 2612.06,903.372 2630.93,900.707 2649.81,895.342 2668.68,746.783 2687.56,863.401 2706.43,872.3 2725.31,751.187 2744.18,667.654 2763.06,852.472 2781.93,755.784 2800.81,534.042 2819.68,247.492 2838.56,572.526 2857.43,721.043 2876.31,654.422 2895.18,766.468 2914.06,923.333 2932.93,895.224 2951.81,887.149 2970.68,776.285 2989.56,720.351 3008.43,512.251 3027.31,515.726 3046.18,644.236 3065.06,810.206 3083.93,888.515 3102.81,716.903 3121.68,408.679 3140.56,772.79 3159.43,722.644 3178.31,735.825 3197.18,801.942 3216.06,897.448 3234.93,731.08 3253.81,883.431 3272.68,898.123 3291.56,857.173 3310.43,859.245 3329.31,709.28 3348.18,865.787 3367.06,873.432 3385.93,879.094 3404.81,889.959 3423.68,819.29 3442.56,866.79 3461.43,842.921 3480.31,652.045 3499.18,636.721 3518.06,690.89 3536.93,641.753 3555.81,612.79 3574.68,859.941 3593.56,910.849 3612.43,884.771 3631.31,872.352 3650.18,869.846 3669.06,830.714 3687.93,865.456 3706.81,861.006 3725.68,769.238 3744.56,850.169 "/>
<polyline clip-path="url(#clip082)" style="stroke:#e26f46; stroke-linecap:round; stroke-linejoin:round; stroke-width:4; stroke-opacity:1; fill:none" points="479.18,695.461 498.055,755.856 516.93,636.977 535.805,860.406 554.68,778.055 573.555,846.915 592.43,666.017 611.305,785.045 630.18,849.648 649.055,912.02 667.93,611.649 686.805,664.929 705.68,817.593 724.555,856.618 743.43,840.709 762.305,725.044 781.18,497.712 800.056,333.745 818.931,469.414 837.806,736.326 856.681,741.665 875.556,847.496 894.431,590.773 913.306,779.554 932.181,830.193 951.056,808.673 969.931,767.023 988.806,888.494 1007.68,927.857 1026.56,897.93 1045.43,631.533 1064.31,804.93 1083.18,824.453 1102.06,886.555 1120.93,751.727 1139.81,782.247 1158.68,778.806 1177.56,906.255 1196.43,830.112 1215.31,555.423 1234.18,753.529 1253.06,492.534 1271.93,849.188 1290.81,855.116 1309.68,877.09 1328.56,788.848 1347.43,800.517 1366.31,865.684 1385.18,864.975 1404.06,875.288 1422.93,919.24 1441.81,869.209 1460.68,844.084 1479.56,889.219 1498.43,844.452 1517.31,739.756 1536.18,497.998 1555.06,651.11 1573.93,544.809 1592.81,828.379 1611.68,902.002 1630.56,753.435 1649.43,817.077 1668.31,783.14 1687.18,826.495 1706.06,624.122 1724.93,110.831 1743.81,179.699 1762.68,925.843 1781.56,857.788 1800.43,811.352 1819.31,765.02 1838.18,770.419 1857.06,821.904 1875.93,885.48 1894.81,787.536 1913.68,839.679 1932.56,795.125 1951.43,893.925 1970.31,812.967 1989.18,716.054 2008.06,420.05 2026.93,666.569 2045.81,823.306 2064.68,903.343 2083.56,643.583 2102.43,875.203 2121.31,843.42 2140.18,834.996 2159.06,746.823 2177.93,766.379 2196.81,859.297 2215.68,884.672 2234.56,738.184 2253.43,904.028 2272.31,843.211 2291.18,809.94 2310.06,878.715 2328.93,815.738 2347.81,556.449 2366.68,854.248 2385.56,809.146 2404.43,553.689 2423.31,661.202 2442.18,496.643 2461.06,536.553 2479.93,797.702 2498.81,728.041 2517.68,773.385 2536.56,911.346 2555.43,751.068 2574.31,872.215 2593.18,848.07 2612.06,813.994 2630.93,797.882 2649.81,845.831 2668.68,775.848 2687.56,830.248 2706.43,865.266 2725.31,747.01 2744.18,601.939 2763.06,840.41 2781.93,591.98 2800.81,554.751 2819.68,352.117 2838.56,512.601 2857.43,464.692 2876.31,567.669 2895.18,810.157 2914.06,904.345 2932.93,870.816 2951.81,865.927 2970.68,717.853 2989.56,481.505 3008.43,519.049 3027.31,361.1 3046.18,628.012 3065.06,790.725 3083.93,770.027 3102.81,598.822 3121.68,398.797 3140.56,552.273 3159.43,764.679 3178.31,554.33 3197.18,651.489 3216.06,745.785 3234.93,770.544 3253.81,786.184 3272.68,893.219 3291.56,851.051 3310.43,858.818 3329.31,775.916 3348.18,795.894 3367.06,907.473 3385.93,867.512 3404.81,911.673 3423.68,774.655 3442.56,723.643 3461.43,840.453 3480.31,476.695 3499.18,634.553 3518.06,572.923 3536.93,596.851 3555.81,426.605 3574.68,416.969 3593.56,913.925 3612.43,812.524 3631.31,889.651 3650.18,778.483 3669.06,813.826 3687.93,889.898 3706.81,861.986 3725.68,816.195 3744.56,836.412 "/>
<path clip-path="url(#clip080)" d="M3269.23 270.708 L3727.14 270.708 L3727.14 115.188 L3269.23 115.188  Z" fill="#ffffff" fill-rule="evenodd" fill-opacity="1"/>
<polyline clip-path="url(#clip080)" style="stroke:#000000; stroke-linecap:round; stroke-linejoin:round; stroke-width:4; stroke-opacity:1; fill:none" points="3269.23,270.708 3727.14,270.708 3727.14,115.188 3269.23,115.188 3269.23,270.708 "/>
<polyline clip-path="url(#clip080)" style="stroke:#009af9; stroke-linecap:round; stroke-linejoin:round; stroke-width:4; stroke-opacity:1; fill:none" points="3307.69,167.028 3538.44,167.028 "/>
<path clip-path="url(#clip080)" d="M3576.9 184.308 L3576.9 182.752 Q3578.73 182.752 3579.89 182.406 Q3581.05 182.036 3581.47 181.369 Q3581.92 180.677 3582.01 180.232 Q3582.11 179.763 3582.11 178.997 L3582.11 153.701 Q3582.11 152.243 3581.47 151.799 Q3580.85 151.329 3578.11 151.329 L3576.9 151.329 L3576.9 149.748 L3585.45 149.748 Q3586.36 149.748 3586.61 149.921 Q3586.86 150.07 3587.23 150.86 L3598.2 179.195 L3609.26 150.712 Q3609.51 149.995 3609.73 149.872 Q3609.98 149.748 3610.94 149.748 L3619.49 149.748 L3619.49 151.329 L3618.28 151.329 Q3615.54 151.329 3614.9 151.799 Q3614.28 152.243 3614.28 153.701 L3614.28 180.356 Q3614.28 181.813 3614.9 182.283 Q3615.54 182.752 3618.28 182.752 L3619.49 182.752 L3619.49 184.308 Q3617.61 184.16 3612.25 184.16 Q3606.84 184.16 3604.96 184.308 L3604.96 182.752 L3606.2 182.752 Q3608.94 182.752 3609.56 182.307 Q3610.18 181.838 3610.18 180.356 L3610.18 151.329 L3610.13 151.329 L3597.7 183.345 Q3597.36 184.308 3596.79 184.308 Q3596.17 184.308 3595.77 183.197 L3583.57 151.725 L3583.52 151.725 L3583.52 178.997 Q3583.52 179.763 3583.62 180.232 Q3583.72 180.677 3584.14 181.369 Q3584.58 182.036 3585.75 182.406 Q3586.91 182.752 3588.73 182.752 L3588.73 184.308 Q3583.42 184.16 3582.81 184.16 Q3582.21 184.16 3576.9 184.308 Z" fill="#000000" fill-rule="nonzero" fill-opacity="1" /><path clip-path="url(#clip080)" d="M3623.12 184.308 L3623.12 182.752 L3624.33 182.752 Q3627.07 182.752 3627.69 182.307 Q3628.33 181.838 3628.33 180.356 L3628.33 153.701 Q3628.33 152.243 3627.69 151.799 Q3627.05 151.329 3624.33 151.329 L3623.12 151.329 L3623.12 149.748 L3640.98 149.748 Q3646.1 149.748 3649.5 152.565 Q3652.91 155.381 3652.91 159.16 Q3652.91 162.915 3649.43 165.633 Q3645.97 168.325 3641.38 168.325 L3632.83 168.325 L3632.83 180.356 Q3632.83 181.813 3633.45 182.283 Q3634.09 182.752 3636.83 182.752 L3638.04 182.752 L3638.04 184.308 Q3636.26 184.16 3630.56 184.16 Q3624.9 184.16 3623.12 184.308 M3632.68 167.016 L3639.65 167.016 Q3641.92 167.016 3643.58 166.374 Q3645.23 165.731 3645.97 164.966 Q3646.74 164.175 3647.16 162.915 Q3647.6 161.631 3647.65 160.939 Q3647.7 160.223 3647.7 159.16 Q3647.7 158.049 3647.65 157.357 Q3647.6 156.641 3647.16 155.381 Q3646.74 154.096 3645.97 153.33 Q3645.23 152.54 3643.58 151.947 Q3641.95 151.329 3639.65 151.329 L3635.15 151.329 Q3633.42 151.329 3633.05 151.675 Q3632.68 152.021 3632.68 153.355 L3632.68 167.016 Z" fill="#000000" fill-rule="nonzero" fill-opacity="1" /><path clip-path="url(#clip080)" d="M3658.57 184.21 L3658.57 174.081 Q3658.57 173.513 3658.6 173.315 Q3658.62 173.118 3658.77 172.97 Q3658.92 172.821 3659.21 172.821 Q3659.78 172.821 3659.83 173.34 Q3659.98 178.355 3662.97 181.122 Q3665.91 183.864 3670.95 183.864 Q3673.99 183.864 3675.86 181.69 Q3677.74 179.491 3677.74 176.626 Q3677.74 173.884 3676.16 171.957 Q3675.49 171.092 3674.65 170.549 Q3673.84 169.98 3673.32 169.808 Q3672.82 169.635 3671.86 169.388 Q3665.59 167.881 3665.19 167.708 Q3662.2 166.695 3660.37 164.15 Q3658.57 161.581 3658.57 158.444 Q3658.57 154.393 3661.41 151.527 Q3664.28 148.637 3668.43 148.637 Q3670.5 148.637 3672.23 149.304 Q3673.99 149.946 3674.7 150.539 Q3675.42 151.132 3676.53 152.194 L3678.28 149.304 Q3678.68 148.637 3679.05 148.637 Q3679.45 148.637 3679.52 148.884 Q3679.62 149.106 3679.62 149.847 L3679.62 160.025 Q3679.62 160.593 3679.59 160.791 Q3679.57 160.988 3679.4 161.112 Q3679.25 161.235 3678.95 161.235 Q3678.46 161.235 3678.33 160.643 Q3676.93 150.07 3668.48 150.07 Q3665.59 150.07 3663.68 152.021 Q3661.81 153.948 3661.81 156.69 Q3661.81 158.913 3663.19 160.741 Q3664.57 162.545 3666.92 163.113 L3673.39 164.669 Q3676.63 165.435 3678.8 168.301 Q3680.98 171.166 3680.98 174.896 Q3680.98 179.195 3678.16 182.307 Q3675.37 185.42 3671 185.42 Q3667.86 185.42 3665.44 184.382 Q3663.02 183.345 3661.71 181.887 Q3660.7 183.567 3660.03 184.506 L3659.88 184.753 Q3659.48 185.42 3659.11 185.42 Q3658.72 185.42 3658.64 185.173 Q3658.57 184.926 3658.57 184.21 Z" fill="#000000" fill-rule="nonzero" fill-opacity="1" /><polyline clip-path="url(#clip080)" style="stroke:#e26f46; stroke-linecap:round; stroke-linejoin:round; stroke-width:4; stroke-opacity:1; fill:none" points="3307.69,218.868 3538.44,218.868 "/>
<path clip-path="url(#clip080)" d="M3576.9 207.27 L3576.9 205.689 Q3582.98 205.689 3586.12 202.453 Q3586.98 202.453 3587.13 202.651 Q3587.28 202.848 3587.28 203.762 L3587.28 232.146 Q3587.28 233.653 3588.02 234.123 Q3588.76 234.592 3592 234.592 L3593.6 234.592 L3593.6 236.148 Q3591.82 236 3585.4 236 Q3578.98 236 3577.22 236.148 L3577.22 234.592 L3578.83 234.592 Q3582.01 234.592 3582.78 234.147 Q3583.55 233.678 3583.55 232.146 L3583.55 205.936 Q3580.9 207.27 3576.9 207.27 Z" fill="#000000" fill-rule="nonzero" fill-opacity="1" /><path clip-path="url(#clip080)" d="M3598.2 226.736 L3598.2 223.747 L3611.66 223.747 L3611.66 226.736 L3598.2 226.736 Z" fill="#000000" fill-rule="nonzero" fill-opacity="1" /><path clip-path="url(#clip080)" d="M3616.2 236.148 L3616.2 234.592 Q3618.03 234.592 3619.19 234.246 Q3620.35 233.876 3620.77 233.209 Q3621.19 232.517 3621.29 232.072 Q3621.42 231.603 3621.42 230.837 L3621.42 204.429 Q3621.42 203.713 3621.22 203.54 Q3621.05 203.367 3620.18 203.268 Q3618.67 203.169 3617.66 203.169 L3616.2 203.169 L3616.2 201.588 L3624.8 201.588 Q3625.52 201.588 3625.72 201.687 Q3625.91 201.786 3626.26 202.255 L3644.12 228.515 L3644.12 206.9 Q3644.12 206.134 3644.02 205.689 Q3643.92 205.244 3643.48 204.553 Q3643.06 203.861 3641.9 203.515 Q3640.73 203.169 3638.91 203.169 L3638.91 201.588 Q3644.22 201.737 3644.81 201.737 Q3645.43 201.737 3650.74 201.588 L3650.74 203.169 Q3648.91 203.169 3647.75 203.515 Q3646.59 203.861 3646.17 204.553 Q3645.75 205.244 3645.63 205.714 Q3645.53 206.158 3645.53 206.9 L3645.53 234.839 Q3645.53 235.654 3645.43 235.901 Q3645.33 236.148 3644.84 236.148 Q3644.49 236.148 3643.97 235.481 L3623.32 205.146 Q3623.12 204.849 3622.82 204.528 L3622.82 230.837 Q3622.82 231.603 3622.92 232.072 Q3623.02 232.517 3623.44 233.209 Q3623.89 233.876 3625.05 234.246 Q3626.21 234.592 3628.04 234.592 L3628.04 236.148 Q3622.73 236 3622.11 236 Q3621.52 236 3616.2 236.148 Z" fill="#000000" fill-rule="nonzero" fill-opacity="1" /><path clip-path="url(#clip080)" d="M3654.15 236.148 L3654.15 234.592 Q3655.98 234.592 3657.14 234.246 Q3658.3 233.876 3658.72 233.209 Q3659.14 232.517 3659.24 232.072 Q3659.36 231.603 3659.36 230.837 L3659.36 204.429 Q3659.36 203.713 3659.16 203.54 Q3658.99 203.367 3658.13 203.268 Q3656.62 203.169 3655.61 203.169 L3654.15 203.169 L3654.15 201.588 L3662.75 201.588 Q3663.46 201.588 3663.66 201.687 Q3663.86 201.786 3664.2 202.255 L3682.06 228.515 L3682.06 206.9 Q3682.06 206.134 3681.96 205.689 Q3681.87 205.244 3681.42 204.553 Q3681 203.861 3679.84 203.515 Q3678.68 203.169 3676.85 203.169 L3676.85 201.588 Q3682.16 201.737 3682.76 201.737 Q3683.37 201.737 3688.68 201.588 L3688.68 203.169 Q3686.86 203.169 3685.69 203.515 Q3684.53 203.861 3684.11 204.553 Q3683.69 205.244 3683.57 205.714 Q3683.47 206.158 3683.47 206.9 L3683.47 234.839 Q3683.47 235.654 3683.37 235.901 Q3683.27 236.148 3682.78 236.148 Q3682.43 236.148 3681.92 235.481 L3661.26 205.146 Q3661.07 204.849 3660.77 204.528 L3660.77 230.837 Q3660.77 231.603 3660.87 232.072 Q3660.97 232.517 3661.39 233.209 Q3661.83 233.876 3662.99 234.246 Q3664.15 234.592 3665.98 234.592 L3665.98 236.148 Q3660.67 236 3660.05 236 Q3659.46 236 3654.15 236.148 Z" fill="#000000" fill-rule="nonzero" fill-opacity="1" /></svg>
